<?xml version="1.0" encoding="utf-8" standalone="no"?>
<!DOCTYPE svg PUBLIC "-//W3C//DTD SVG 1.1//EN"
  "http://www.w3.org/Graphics/SVG/1.1/DTD/svg11.dtd">
<!-- Created with matplotlib (https://matplotlib.org/) -->
<svg height="360pt" version="1.1" viewBox="0 0 1164.5 360" width="1164.5pt" xmlns="http://www.w3.org/2000/svg" xmlns:xlink="http://www.w3.org/1999/xlink">
 <metadata>
  <rdf:RDF xmlns:cc="http://creativecommons.org/ns#" xmlns:dc="http://purl.org/dc/elements/1.1/" xmlns:rdf="http://www.w3.org/1999/02/22-rdf-syntax-ns#">
   <cc:Work>
    <dc:type rdf:resource="http://purl.org/dc/dcmitype/StillImage"/>
    <dc:date>2022-12-15T21:44:21.497982</dc:date>
    <dc:format>image/svg+xml</dc:format>
    <dc:creator>
     <cc:Agent>
      <dc:title>Matplotlib v3.3.1, https://matplotlib.org/</dc:title>
     </cc:Agent>
    </dc:creator>
   </cc:Work>
  </rdf:RDF>
 </metadata>
 <defs>
  <style type="text/css">*{stroke-linecap:butt;stroke-linejoin:round;}</style>
 </defs>
 <g id="figure_1">
  <g id="patch_1">
   <path d="M 0 360 
L 1164.5 360 
L 1164.5 0 
L 0 0 
z
" style="fill:none;"/>
  </g>
  <g id="axes_1">
   <g id="patch_2">
    <path d="M 45.474803 332.2 
L 376.94001 332.2 
L 376.94001 24.8 
L 45.474803 24.8 
z
" style="fill:#ffffff;"/>
   </g>
   <g id="patch_3">
    <path clip-path="url(#p37f5f8fcd7)" d="M 56.523643 201.45001 
L 78.621324 201.45001 
L 78.621324 106.911373 
L 56.523643 106.911373 
z
"/>
   </g>
   <g id="patch_4">
    <path clip-path="url(#p37f5f8fcd7)" d="M 167.012046 201.45001 
L 189.109726 201.45001 
L 189.109726 118.938439 
L 167.012046 118.938439 
z
"/>
   </g>
   <g id="patch_5">
    <path clip-path="url(#p37f5f8fcd7)" d="M 277.500448 201.45001 
L 299.598128 201.45001 
L 299.598128 208.412117 
L 277.500448 208.412117 
z
"/>
   </g>
   <g id="patch_6">
    <path clip-path="url(#p37f5f8fcd7)" d="M 78.621324 201.45001 
L 100.719004 201.45001 
L 100.719004 120.794455 
L 78.621324 120.794455 
z
" style="fill:#18a7a7;"/>
   </g>
   <g id="patch_7">
    <path clip-path="url(#p37f5f8fcd7)" d="M 189.109726 201.45001 
L 211.207406 201.45001 
L 211.207406 112.075164 
L 189.109726 112.075164 
z
" style="fill:#18a7a7;"/>
   </g>
   <g id="patch_8">
    <path clip-path="url(#p37f5f8fcd7)" d="M 299.598128 201.45001 
L 321.695808 201.45001 
L 321.695808 198.242584 
L 299.598128 198.242584 
z
" style="fill:#18a7a7;"/>
   </g>
   <g id="patch_9">
    <path clip-path="url(#p37f5f8fcd7)" d="M 100.719004 201.45001 
L 122.816685 201.45001 
L 122.816685 102.477707 
L 100.719004 102.477707 
z
"/>
   </g>
   <g id="patch_10">
    <path clip-path="url(#p37f5f8fcd7)" d="M 211.207406 201.45001 
L 233.305087 201.45001 
L 233.305087 190.187856 
L 211.207406 190.187856 
z
"/>
   </g>
   <g id="patch_11">
    <path clip-path="url(#p37f5f8fcd7)" d="M 321.695808 201.45001 
L 343.793489 201.45001 
L 343.793489 211.697403 
L 321.695808 211.697403 
z
"/>
   </g>
   <g id="patch_12">
    <path clip-path="url(#p37f5f8fcd7)" d="M 122.816685 201.45001 
L 144.914365 201.45001 
L 144.914365 203.867465 
L 122.816685 203.867465 
z
" style="fill:#18a7a7;"/>
   </g>
   <g id="patch_13">
    <path clip-path="url(#p37f5f8fcd7)" d="M 233.305087 201.45001 
L 255.402767 201.45001 
L 255.402767 120.008277 
L 233.305087 120.008277 
z
" style="fill:#18a7a7;"/>
   </g>
   <g id="patch_14">
    <path clip-path="url(#p37f5f8fcd7)" d="M 343.793489 201.45001 
L 365.891169 201.45001 
L 365.891169 187.732581 
L 343.793489 187.732581 
z
" style="fill:#18a7a7;"/>
   </g>
   <g id="matplotlib.axis_1">
    <g id="xtick_1">
     <g id="line2d_1">
      <defs>
       <path d="M 0 0 
L 0 3.5 
" id="m3cc9908cba" style="stroke:#000000;stroke-width:0.8;"/>
      </defs>
      <g>
       <use style="stroke:#000000;stroke-width:0.8;" x="100.719004" xlink:href="#m3cc9908cba" y="332.2"/>
      </g>
     </g>
     <g id="text_1">
      <!-- Stim SD -->
      <g transform="translate(80.711973 346.798438)scale(0.1 -0.1)">
       <defs>
        <path d="M 53.515625 70.515625 
L 53.515625 60.890625 
Q 47.90625 63.578125 42.921875 64.890625 
Q 37.9375 66.21875 33.296875 66.21875 
Q 25.25 66.21875 20.875 63.09375 
Q 16.5 59.96875 16.5 54.203125 
Q 16.5 49.359375 19.40625 46.890625 
Q 22.3125 44.4375 30.421875 42.921875 
L 36.375 41.703125 
Q 47.40625 39.59375 52.65625 34.296875 
Q 57.90625 29 57.90625 20.125 
Q 57.90625 9.515625 50.796875 4.046875 
Q 43.703125 -1.421875 29.984375 -1.421875 
Q 24.8125 -1.421875 18.96875 -0.25 
Q 13.140625 0.921875 6.890625 3.21875 
L 6.890625 13.375 
Q 12.890625 10.015625 18.65625 8.296875 
Q 24.421875 6.59375 29.984375 6.59375 
Q 38.421875 6.59375 43.015625 9.90625 
Q 47.609375 13.234375 47.609375 19.390625 
Q 47.609375 24.75 44.3125 27.78125 
Q 41.015625 30.8125 33.5 32.328125 
L 27.484375 33.5 
Q 16.453125 35.6875 11.515625 40.375 
Q 6.59375 45.0625 6.59375 53.421875 
Q 6.59375 63.09375 13.40625 68.65625 
Q 20.21875 74.21875 32.171875 74.21875 
Q 37.3125 74.21875 42.625 73.28125 
Q 47.953125 72.359375 53.515625 70.515625 
z
" id="DejaVuSans-83"/>
        <path d="M 18.3125 70.21875 
L 18.3125 54.6875 
L 36.8125 54.6875 
L 36.8125 47.703125 
L 18.3125 47.703125 
L 18.3125 18.015625 
Q 18.3125 11.328125 20.140625 9.421875 
Q 21.96875 7.515625 27.59375 7.515625 
L 36.8125 7.515625 
L 36.8125 0 
L 27.59375 0 
Q 17.1875 0 13.234375 3.875 
Q 9.28125 7.765625 9.28125 18.015625 
L 9.28125 47.703125 
L 2.6875 47.703125 
L 2.6875 54.6875 
L 9.28125 54.6875 
L 9.28125 70.21875 
z
" id="DejaVuSans-116"/>
        <path d="M 9.421875 54.6875 
L 18.40625 54.6875 
L 18.40625 0 
L 9.421875 0 
z
M 9.421875 75.984375 
L 18.40625 75.984375 
L 18.40625 64.59375 
L 9.421875 64.59375 
z
" id="DejaVuSans-105"/>
        <path d="M 52 44.1875 
Q 55.375 50.25 60.0625 53.125 
Q 64.75 56 71.09375 56 
Q 79.640625 56 84.28125 50.015625 
Q 88.921875 44.046875 88.921875 33.015625 
L 88.921875 0 
L 79.890625 0 
L 79.890625 32.71875 
Q 79.890625 40.578125 77.09375 44.375 
Q 74.3125 48.1875 68.609375 48.1875 
Q 61.625 48.1875 57.5625 43.546875 
Q 53.515625 38.921875 53.515625 30.90625 
L 53.515625 0 
L 44.484375 0 
L 44.484375 32.71875 
Q 44.484375 40.625 41.703125 44.40625 
Q 38.921875 48.1875 33.109375 48.1875 
Q 26.21875 48.1875 22.15625 43.53125 
Q 18.109375 38.875 18.109375 30.90625 
L 18.109375 0 
L 9.078125 0 
L 9.078125 54.6875 
L 18.109375 54.6875 
L 18.109375 46.1875 
Q 21.1875 51.21875 25.484375 53.609375 
Q 29.78125 56 35.6875 56 
Q 41.65625 56 45.828125 52.96875 
Q 50 49.953125 52 44.1875 
z
" id="DejaVuSans-109"/>
        <path id="DejaVuSans-32"/>
        <path d="M 19.671875 64.796875 
L 19.671875 8.109375 
L 31.59375 8.109375 
Q 46.6875 8.109375 53.6875 14.9375 
Q 60.6875 21.78125 60.6875 36.53125 
Q 60.6875 51.171875 53.6875 57.984375 
Q 46.6875 64.796875 31.59375 64.796875 
z
M 9.8125 72.90625 
L 30.078125 72.90625 
Q 51.265625 72.90625 61.171875 64.09375 
Q 71.09375 55.28125 71.09375 36.53125 
Q 71.09375 17.671875 61.125 8.828125 
Q 51.171875 0 30.078125 0 
L 9.8125 0 
z
" id="DejaVuSans-68"/>
       </defs>
       <use xlink:href="#DejaVuSans-83"/>
       <use x="63.476562" xlink:href="#DejaVuSans-116"/>
       <use x="102.685547" xlink:href="#DejaVuSans-105"/>
       <use x="130.46875" xlink:href="#DejaVuSans-109"/>
       <use x="227.880859" xlink:href="#DejaVuSans-32"/>
       <use x="259.667969" xlink:href="#DejaVuSans-83"/>
       <use x="323.144531" xlink:href="#DejaVuSans-68"/>
      </g>
     </g>
    </g>
    <g id="xtick_2">
     <g id="line2d_2">
      <g>
       <use style="stroke:#000000;stroke-width:0.8;" x="211.207406" xlink:href="#m3cc9908cba" y="332.2"/>
      </g>
     </g>
     <g id="text_2">
      <!-- Resp SD -->
      <g transform="translate(190.489438 346.798438)scale(0.1 -0.1)">
       <defs>
        <path d="M 44.390625 34.1875 
Q 47.5625 33.109375 50.5625 29.59375 
Q 53.5625 26.078125 56.59375 19.921875 
L 66.609375 0 
L 56 0 
L 46.6875 18.703125 
Q 43.0625 26.03125 39.671875 28.421875 
Q 36.28125 30.8125 30.421875 30.8125 
L 19.671875 30.8125 
L 19.671875 0 
L 9.8125 0 
L 9.8125 72.90625 
L 32.078125 72.90625 
Q 44.578125 72.90625 50.734375 67.671875 
Q 56.890625 62.453125 56.890625 51.90625 
Q 56.890625 45.015625 53.6875 40.46875 
Q 50.484375 35.9375 44.390625 34.1875 
z
M 19.671875 64.796875 
L 19.671875 38.921875 
L 32.078125 38.921875 
Q 39.203125 38.921875 42.84375 42.21875 
Q 46.484375 45.515625 46.484375 51.90625 
Q 46.484375 58.296875 42.84375 61.546875 
Q 39.203125 64.796875 32.078125 64.796875 
z
" id="DejaVuSans-82"/>
        <path d="M 56.203125 29.59375 
L 56.203125 25.203125 
L 14.890625 25.203125 
Q 15.484375 15.921875 20.484375 11.0625 
Q 25.484375 6.203125 34.421875 6.203125 
Q 39.59375 6.203125 44.453125 7.46875 
Q 49.3125 8.734375 54.109375 11.28125 
L 54.109375 2.78125 
Q 49.265625 0.734375 44.1875 -0.34375 
Q 39.109375 -1.421875 33.890625 -1.421875 
Q 20.796875 -1.421875 13.15625 6.1875 
Q 5.515625 13.8125 5.515625 26.8125 
Q 5.515625 40.234375 12.765625 48.109375 
Q 20.015625 56 32.328125 56 
Q 43.359375 56 49.78125 48.890625 
Q 56.203125 41.796875 56.203125 29.59375 
z
M 47.21875 32.234375 
Q 47.125 39.59375 43.09375 43.984375 
Q 39.0625 48.390625 32.421875 48.390625 
Q 24.90625 48.390625 20.390625 44.140625 
Q 15.875 39.890625 15.1875 32.171875 
z
" id="DejaVuSans-101"/>
        <path d="M 44.28125 53.078125 
L 44.28125 44.578125 
Q 40.484375 46.53125 36.375 47.5 
Q 32.28125 48.484375 27.875 48.484375 
Q 21.1875 48.484375 17.84375 46.4375 
Q 14.5 44.390625 14.5 40.28125 
Q 14.5 37.15625 16.890625 35.375 
Q 19.28125 33.59375 26.515625 31.984375 
L 29.59375 31.296875 
Q 39.15625 29.25 43.1875 25.515625 
Q 47.21875 21.78125 47.21875 15.09375 
Q 47.21875 7.46875 41.1875 3.015625 
Q 35.15625 -1.421875 24.609375 -1.421875 
Q 20.21875 -1.421875 15.453125 -0.5625 
Q 10.6875 0.296875 5.421875 2 
L 5.421875 11.28125 
Q 10.40625 8.6875 15.234375 7.390625 
Q 20.0625 6.109375 24.8125 6.109375 
Q 31.15625 6.109375 34.5625 8.28125 
Q 37.984375 10.453125 37.984375 14.40625 
Q 37.984375 18.0625 35.515625 20.015625 
Q 33.0625 21.96875 24.703125 23.78125 
L 21.578125 24.515625 
Q 13.234375 26.265625 9.515625 29.90625 
Q 5.8125 33.546875 5.8125 39.890625 
Q 5.8125 47.609375 11.28125 51.796875 
Q 16.75 56 26.8125 56 
Q 31.78125 56 36.171875 55.265625 
Q 40.578125 54.546875 44.28125 53.078125 
z
" id="DejaVuSans-115"/>
        <path d="M 18.109375 8.203125 
L 18.109375 -20.796875 
L 9.078125 -20.796875 
L 9.078125 54.6875 
L 18.109375 54.6875 
L 18.109375 46.390625 
Q 20.953125 51.265625 25.265625 53.625 
Q 29.59375 56 35.59375 56 
Q 45.5625 56 51.78125 48.09375 
Q 58.015625 40.1875 58.015625 27.296875 
Q 58.015625 14.40625 51.78125 6.484375 
Q 45.5625 -1.421875 35.59375 -1.421875 
Q 29.59375 -1.421875 25.265625 0.953125 
Q 20.953125 3.328125 18.109375 8.203125 
z
M 48.6875 27.296875 
Q 48.6875 37.203125 44.609375 42.84375 
Q 40.53125 48.484375 33.40625 48.484375 
Q 26.265625 48.484375 22.1875 42.84375 
Q 18.109375 37.203125 18.109375 27.296875 
Q 18.109375 17.390625 22.1875 11.75 
Q 26.265625 6.109375 33.40625 6.109375 
Q 40.53125 6.109375 44.609375 11.75 
Q 48.6875 17.390625 48.6875 27.296875 
z
" id="DejaVuSans-112"/>
       </defs>
       <use xlink:href="#DejaVuSans-82"/>
       <use x="64.982422" xlink:href="#DejaVuSans-101"/>
       <use x="126.505859" xlink:href="#DejaVuSans-115"/>
       <use x="178.605469" xlink:href="#DejaVuSans-112"/>
       <use x="242.082031" xlink:href="#DejaVuSans-32"/>
       <use x="273.869141" xlink:href="#DejaVuSans-83"/>
       <use x="337.345703" xlink:href="#DejaVuSans-68"/>
      </g>
     </g>
    </g>
    <g id="xtick_3">
     <g id="line2d_3">
      <g>
       <use style="stroke:#000000;stroke-width:0.8;" x="321.695808" xlink:href="#m3cc9908cba" y="332.2"/>
      </g>
     </g>
     <g id="text_3">
      <!-- No SD -->
      <g transform="translate(306.282527 346.798438)scale(0.1 -0.1)">
       <defs>
        <path d="M 9.8125 72.90625 
L 23.09375 72.90625 
L 55.421875 11.921875 
L 55.421875 72.90625 
L 64.984375 72.90625 
L 64.984375 0 
L 51.703125 0 
L 19.390625 60.984375 
L 19.390625 0 
L 9.8125 0 
z
" id="DejaVuSans-78"/>
        <path d="M 30.609375 48.390625 
Q 23.390625 48.390625 19.1875 42.75 
Q 14.984375 37.109375 14.984375 27.296875 
Q 14.984375 17.484375 19.15625 11.84375 
Q 23.34375 6.203125 30.609375 6.203125 
Q 37.796875 6.203125 41.984375 11.859375 
Q 46.1875 17.53125 46.1875 27.296875 
Q 46.1875 37.015625 41.984375 42.703125 
Q 37.796875 48.390625 30.609375 48.390625 
z
M 30.609375 56 
Q 42.328125 56 49.015625 48.375 
Q 55.71875 40.765625 55.71875 27.296875 
Q 55.71875 13.875 49.015625 6.21875 
Q 42.328125 -1.421875 30.609375 -1.421875 
Q 18.84375 -1.421875 12.171875 6.21875 
Q 5.515625 13.875 5.515625 27.296875 
Q 5.515625 40.765625 12.171875 48.375 
Q 18.84375 56 30.609375 56 
z
" id="DejaVuSans-111"/>
       </defs>
       <use xlink:href="#DejaVuSans-78"/>
       <use x="74.804688" xlink:href="#DejaVuSans-111"/>
       <use x="135.986328" xlink:href="#DejaVuSans-32"/>
       <use x="167.773438" xlink:href="#DejaVuSans-83"/>
       <use x="231.25" xlink:href="#DejaVuSans-68"/>
      </g>
     </g>
    </g>
    <g id="text_4">
     <!-- trueSD -->
     <g transform="translate(193.92225 360.476562)scale(0.1 -0.1)">
      <defs>
       <path d="M 41.109375 46.296875 
Q 39.59375 47.171875 37.8125 47.578125 
Q 36.03125 48 33.890625 48 
Q 26.265625 48 22.1875 43.046875 
Q 18.109375 38.09375 18.109375 28.8125 
L 18.109375 0 
L 9.078125 0 
L 9.078125 54.6875 
L 18.109375 54.6875 
L 18.109375 46.1875 
Q 20.953125 51.171875 25.484375 53.578125 
Q 30.03125 56 36.53125 56 
Q 37.453125 56 38.578125 55.875 
Q 39.703125 55.765625 41.0625 55.515625 
z
" id="DejaVuSans-114"/>
       <path d="M 8.5 21.578125 
L 8.5 54.6875 
L 17.484375 54.6875 
L 17.484375 21.921875 
Q 17.484375 14.15625 20.5 10.265625 
Q 23.53125 6.390625 29.59375 6.390625 
Q 36.859375 6.390625 41.078125 11.03125 
Q 45.3125 15.671875 45.3125 23.6875 
L 45.3125 54.6875 
L 54.296875 54.6875 
L 54.296875 0 
L 45.3125 0 
L 45.3125 8.40625 
Q 42.046875 3.421875 37.71875 1 
Q 33.40625 -1.421875 27.6875 -1.421875 
Q 18.265625 -1.421875 13.375 4.4375 
Q 8.5 10.296875 8.5 21.578125 
z
M 31.109375 56 
z
" id="DejaVuSans-117"/>
      </defs>
      <use xlink:href="#DejaVuSans-116"/>
      <use x="39.208984" xlink:href="#DejaVuSans-114"/>
      <use x="80.322266" xlink:href="#DejaVuSans-117"/>
      <use x="143.701172" xlink:href="#DejaVuSans-101"/>
      <use x="205.224609" xlink:href="#DejaVuSans-83"/>
      <use x="268.701172" xlink:href="#DejaVuSans-68"/>
     </g>
    </g>
   </g>
   <g id="matplotlib.axis_2">
    <g id="ytick_1">
     <g id="line2d_4">
      <defs>
       <path d="M 0 0 
L -3.5 0 
" id="m93c92b7021" style="stroke:#000000;stroke-width:0.8;"/>
      </defs>
      <g>
       <use style="stroke:#000000;stroke-width:0.8;" x="45.474803" xlink:href="#m93c92b7021" y="311.662519"/>
      </g>
     </g>
     <g id="text_5">
      <!-- −7.5 -->
      <g transform="translate(14.191991 315.461738)scale(0.1 -0.1)">
       <defs>
        <path d="M 10.59375 35.5 
L 73.1875 35.5 
L 73.1875 27.203125 
L 10.59375 27.203125 
z
" id="DejaVuSans-8722"/>
        <path d="M 8.203125 72.90625 
L 55.078125 72.90625 
L 55.078125 68.703125 
L 28.609375 0 
L 18.3125 0 
L 43.21875 64.59375 
L 8.203125 64.59375 
z
" id="DejaVuSans-55"/>
        <path d="M 10.6875 12.40625 
L 21 12.40625 
L 21 0 
L 10.6875 0 
z
" id="DejaVuSans-46"/>
        <path d="M 10.796875 72.90625 
L 49.515625 72.90625 
L 49.515625 64.59375 
L 19.828125 64.59375 
L 19.828125 46.734375 
Q 21.96875 47.46875 24.109375 47.828125 
Q 26.265625 48.1875 28.421875 48.1875 
Q 40.625 48.1875 47.75 41.5 
Q 54.890625 34.8125 54.890625 23.390625 
Q 54.890625 11.625 47.5625 5.09375 
Q 40.234375 -1.421875 26.90625 -1.421875 
Q 22.3125 -1.421875 17.546875 -0.640625 
Q 12.796875 0.140625 7.71875 1.703125 
L 7.71875 11.625 
Q 12.109375 9.234375 16.796875 8.0625 
Q 21.484375 6.890625 26.703125 6.890625 
Q 35.15625 6.890625 40.078125 11.328125 
Q 45.015625 15.765625 45.015625 23.390625 
Q 45.015625 31 40.078125 35.4375 
Q 35.15625 39.890625 26.703125 39.890625 
Q 22.75 39.890625 18.8125 39.015625 
Q 14.890625 38.140625 10.796875 36.28125 
z
" id="DejaVuSans-53"/>
       </defs>
       <use xlink:href="#DejaVuSans-8722"/>
       <use x="83.789062" xlink:href="#DejaVuSans-55"/>
       <use x="147.412109" xlink:href="#DejaVuSans-46"/>
       <use x="179.199219" xlink:href="#DejaVuSans-53"/>
      </g>
     </g>
    </g>
    <g id="ytick_2">
     <g id="line2d_5">
      <g>
       <use style="stroke:#000000;stroke-width:0.8;" x="45.474803" xlink:href="#m93c92b7021" y="274.925016"/>
      </g>
     </g>
     <g id="text_6">
      <!-- −5.0 -->
      <g transform="translate(14.191991 278.724235)scale(0.1 -0.1)">
       <defs>
        <path d="M 31.78125 66.40625 
Q 24.171875 66.40625 20.328125 58.90625 
Q 16.5 51.421875 16.5 36.375 
Q 16.5 21.390625 20.328125 13.890625 
Q 24.171875 6.390625 31.78125 6.390625 
Q 39.453125 6.390625 43.28125 13.890625 
Q 47.125 21.390625 47.125 36.375 
Q 47.125 51.421875 43.28125 58.90625 
Q 39.453125 66.40625 31.78125 66.40625 
z
M 31.78125 74.21875 
Q 44.046875 74.21875 50.515625 64.515625 
Q 56.984375 54.828125 56.984375 36.375 
Q 56.984375 17.96875 50.515625 8.265625 
Q 44.046875 -1.421875 31.78125 -1.421875 
Q 19.53125 -1.421875 13.0625 8.265625 
Q 6.59375 17.96875 6.59375 36.375 
Q 6.59375 54.828125 13.0625 64.515625 
Q 19.53125 74.21875 31.78125 74.21875 
z
" id="DejaVuSans-48"/>
       </defs>
       <use xlink:href="#DejaVuSans-8722"/>
       <use x="83.789062" xlink:href="#DejaVuSans-53"/>
       <use x="147.412109" xlink:href="#DejaVuSans-46"/>
       <use x="179.199219" xlink:href="#DejaVuSans-48"/>
      </g>
     </g>
    </g>
    <g id="ytick_3">
     <g id="line2d_6">
      <g>
       <use style="stroke:#000000;stroke-width:0.8;" x="45.474803" xlink:href="#m93c92b7021" y="238.187513"/>
      </g>
     </g>
     <g id="text_7">
      <!-- −2.5 -->
      <g transform="translate(14.191991 241.986732)scale(0.1 -0.1)">
       <defs>
        <path d="M 19.1875 8.296875 
L 53.609375 8.296875 
L 53.609375 0 
L 7.328125 0 
L 7.328125 8.296875 
Q 12.9375 14.109375 22.625 23.890625 
Q 32.328125 33.6875 34.8125 36.53125 
Q 39.546875 41.84375 41.421875 45.53125 
Q 43.3125 49.21875 43.3125 52.78125 
Q 43.3125 58.59375 39.234375 62.25 
Q 35.15625 65.921875 28.609375 65.921875 
Q 23.96875 65.921875 18.8125 64.3125 
Q 13.671875 62.703125 7.8125 59.421875 
L 7.8125 69.390625 
Q 13.765625 71.78125 18.9375 73 
Q 24.125 74.21875 28.421875 74.21875 
Q 39.75 74.21875 46.484375 68.546875 
Q 53.21875 62.890625 53.21875 53.421875 
Q 53.21875 48.921875 51.53125 44.890625 
Q 49.859375 40.875 45.40625 35.40625 
Q 44.1875 33.984375 37.640625 27.21875 
Q 31.109375 20.453125 19.1875 8.296875 
z
" id="DejaVuSans-50"/>
       </defs>
       <use xlink:href="#DejaVuSans-8722"/>
       <use x="83.789062" xlink:href="#DejaVuSans-50"/>
       <use x="147.412109" xlink:href="#DejaVuSans-46"/>
       <use x="179.199219" xlink:href="#DejaVuSans-53"/>
      </g>
     </g>
    </g>
    <g id="ytick_4">
     <g id="line2d_7">
      <g>
       <use style="stroke:#000000;stroke-width:0.8;" x="45.474803" xlink:href="#m93c92b7021" y="201.45001"/>
      </g>
     </g>
     <g id="text_8">
      <!-- 0.0 -->
      <g transform="translate(22.571678 205.249229)scale(0.1 -0.1)">
       <use xlink:href="#DejaVuSans-48"/>
       <use x="63.623047" xlink:href="#DejaVuSans-46"/>
       <use x="95.410156" xlink:href="#DejaVuSans-48"/>
      </g>
     </g>
    </g>
    <g id="ytick_5">
     <g id="line2d_8">
      <g>
       <use style="stroke:#000000;stroke-width:0.8;" x="45.474803" xlink:href="#m93c92b7021" y="164.712507"/>
      </g>
     </g>
     <g id="text_9">
      <!-- 2.5 -->
      <g transform="translate(22.571678 168.511726)scale(0.1 -0.1)">
       <use xlink:href="#DejaVuSans-50"/>
       <use x="63.623047" xlink:href="#DejaVuSans-46"/>
       <use x="95.410156" xlink:href="#DejaVuSans-53"/>
      </g>
     </g>
    </g>
    <g id="ytick_6">
     <g id="line2d_9">
      <g>
       <use style="stroke:#000000;stroke-width:0.8;" x="45.474803" xlink:href="#m93c92b7021" y="127.975004"/>
      </g>
     </g>
     <g id="text_10">
      <!-- 5.0 -->
      <g transform="translate(22.571678 131.774223)scale(0.1 -0.1)">
       <use xlink:href="#DejaVuSans-53"/>
       <use x="63.623047" xlink:href="#DejaVuSans-46"/>
       <use x="95.410156" xlink:href="#DejaVuSans-48"/>
      </g>
     </g>
    </g>
    <g id="ytick_7">
     <g id="line2d_10">
      <g>
       <use style="stroke:#000000;stroke-width:0.8;" x="45.474803" xlink:href="#m93c92b7021" y="91.237501"/>
      </g>
     </g>
     <g id="text_11">
      <!-- 7.5 -->
      <g transform="translate(22.571678 95.03672)scale(0.1 -0.1)">
       <use xlink:href="#DejaVuSans-55"/>
       <use x="63.623047" xlink:href="#DejaVuSans-46"/>
       <use x="95.410156" xlink:href="#DejaVuSans-53"/>
      </g>
     </g>
    </g>
    <g id="ytick_8">
     <g id="line2d_11">
      <g>
       <use style="stroke:#000000;stroke-width:0.8;" x="45.474803" xlink:href="#m93c92b7021" y="54.499998"/>
      </g>
     </g>
     <g id="text_12">
      <!-- 10.0 -->
      <g transform="translate(16.209178 58.299217)scale(0.1 -0.1)">
       <defs>
        <path d="M 12.40625 8.296875 
L 28.515625 8.296875 
L 28.515625 63.921875 
L 10.984375 60.40625 
L 10.984375 69.390625 
L 28.421875 72.90625 
L 38.28125 72.90625 
L 38.28125 8.296875 
L 54.390625 8.296875 
L 54.390625 0 
L 12.40625 0 
z
" id="DejaVuSans-49"/>
       </defs>
       <use xlink:href="#DejaVuSans-49"/>
       <use x="63.623047" xlink:href="#DejaVuSans-48"/>
       <use x="127.246094" xlink:href="#DejaVuSans-46"/>
       <use x="159.033203" xlink:href="#DejaVuSans-48"/>
      </g>
     </g>
    </g>
    <g id="text_13">
     <!-- amp -->
     <g transform="translate(8.112303 189.608594)rotate(-90)scale(0.1 -0.1)">
      <defs>
       <path d="M 34.28125 27.484375 
Q 23.390625 27.484375 19.1875 25 
Q 14.984375 22.515625 14.984375 16.5 
Q 14.984375 11.71875 18.140625 8.90625 
Q 21.296875 6.109375 26.703125 6.109375 
Q 34.1875 6.109375 38.703125 11.40625 
Q 43.21875 16.703125 43.21875 25.484375 
L 43.21875 27.484375 
z
M 52.203125 31.203125 
L 52.203125 0 
L 43.21875 0 
L 43.21875 8.296875 
Q 40.140625 3.328125 35.546875 0.953125 
Q 30.953125 -1.421875 24.3125 -1.421875 
Q 15.921875 -1.421875 10.953125 3.296875 
Q 6 8.015625 6 15.921875 
Q 6 25.140625 12.171875 29.828125 
Q 18.359375 34.515625 30.609375 34.515625 
L 43.21875 34.515625 
L 43.21875 35.40625 
Q 43.21875 41.609375 39.140625 45 
Q 35.0625 48.390625 27.6875 48.390625 
Q 23 48.390625 18.546875 47.265625 
Q 14.109375 46.140625 10.015625 43.890625 
L 10.015625 52.203125 
Q 14.9375 54.109375 19.578125 55.046875 
Q 24.21875 56 28.609375 56 
Q 40.484375 56 46.34375 49.84375 
Q 52.203125 43.703125 52.203125 31.203125 
z
" id="DejaVuSans-97"/>
      </defs>
      <use xlink:href="#DejaVuSans-97"/>
      <use x="61.279297" xlink:href="#DejaVuSans-109"/>
      <use x="158.691406" xlink:href="#DejaVuSans-112"/>
     </g>
    </g>
   </g>
   <g id="line2d_12">
    <path clip-path="url(#p37f5f8fcd7)" d="M 67.572484 110.840563 
L 67.572484 102.788266 
" style="fill:none;stroke:#424242;stroke-linecap:square;stroke-width:2.7;"/>
   </g>
   <g id="line2d_13">
    <path clip-path="url(#p37f5f8fcd7)" d="M 178.060886 121.365947 
L 178.060886 116.393694 
" style="fill:none;stroke:#424242;stroke-linecap:square;stroke-width:2.7;"/>
   </g>
   <g id="line2d_14">
    <path clip-path="url(#p37f5f8fcd7)" d="M 288.549288 215.486893 
L 288.549288 201.54505 
" style="fill:none;stroke:#424242;stroke-linecap:square;stroke-width:2.7;"/>
   </g>
   <g id="line2d_15">
    <path clip-path="url(#p37f5f8fcd7)" d="M 89.670164 123.783994 
L 89.670164 118.117816 
" style="fill:none;stroke:#424242;stroke-linecap:square;stroke-width:2.7;"/>
   </g>
   <g id="line2d_16">
    <path clip-path="url(#p37f5f8fcd7)" d="M 200.158566 114.92063 
L 200.158566 109.436525 
" style="fill:none;stroke:#424242;stroke-linecap:square;stroke-width:2.7;"/>
   </g>
   <g id="line2d_17">
    <path clip-path="url(#p37f5f8fcd7)" d="M 310.646968 203.862019 
L 310.646968 192.59943 
" style="fill:none;stroke:#424242;stroke-linecap:square;stroke-width:2.7;"/>
   </g>
   <g id="line2d_18">
    <path clip-path="url(#p37f5f8fcd7)" d="M 111.767844 111.676362 
L 111.767844 93.415057 
" style="fill:none;stroke:#424242;stroke-linecap:square;stroke-width:2.7;"/>
   </g>
   <g id="line2d_19">
    <path clip-path="url(#p37f5f8fcd7)" d="M 222.256247 196.891395 
L 222.256247 183.126661 
" style="fill:none;stroke:#424242;stroke-linecap:square;stroke-width:2.7;"/>
   </g>
   <g id="line2d_20">
    <path clip-path="url(#p37f5f8fcd7)" d="M 332.744649 219.417678 
L 332.744649 204.102452 
" style="fill:none;stroke:#424242;stroke-linecap:square;stroke-width:2.7;"/>
   </g>
   <g id="line2d_21">
    <path clip-path="url(#p37f5f8fcd7)" d="M 133.865525 212.86225 
L 133.865525 193.812066 
" style="fill:none;stroke:#424242;stroke-linecap:square;stroke-width:2.7;"/>
   </g>
   <g id="line2d_22">
    <path clip-path="url(#p37f5f8fcd7)" d="M 244.353927 126.040961 
L 244.353927 113.719809 
" style="fill:none;stroke:#424242;stroke-linecap:square;stroke-width:2.7;"/>
   </g>
   <g id="line2d_23">
    <path clip-path="url(#p37f5f8fcd7)" d="M 354.842329 194.291059 
L 354.842329 181.469534 
" style="fill:none;stroke:#424242;stroke-linecap:square;stroke-width:2.7;"/>
   </g>
   <g id="patch_15">
    <path d="M 45.474803 332.2 
L 45.474803 24.8 
" style="fill:none;stroke:#000000;stroke-linecap:square;stroke-linejoin:miter;stroke-width:0.8;"/>
   </g>
   <g id="patch_16">
    <path d="M 45.474803 332.2 
L 376.94001 332.2 
" style="fill:none;stroke:#000000;stroke-linecap:square;stroke-linejoin:miter;stroke-width:0.8;"/>
   </g>
   <g id="text_14">
    <!-- nb = -1.0 -->
    <g transform="translate(187.741 18.8)scale(0.1 -0.1)">
     <defs>
      <path d="M 54.890625 33.015625 
L 54.890625 0 
L 45.90625 0 
L 45.90625 32.71875 
Q 45.90625 40.484375 42.875 44.328125 
Q 39.84375 48.1875 33.796875 48.1875 
Q 26.515625 48.1875 22.3125 43.546875 
Q 18.109375 38.921875 18.109375 30.90625 
L 18.109375 0 
L 9.078125 0 
L 9.078125 54.6875 
L 18.109375 54.6875 
L 18.109375 46.1875 
Q 21.34375 51.125 25.703125 53.5625 
Q 30.078125 56 35.796875 56 
Q 45.21875 56 50.046875 50.171875 
Q 54.890625 44.34375 54.890625 33.015625 
z
" id="DejaVuSans-110"/>
      <path d="M 48.6875 27.296875 
Q 48.6875 37.203125 44.609375 42.84375 
Q 40.53125 48.484375 33.40625 48.484375 
Q 26.265625 48.484375 22.1875 42.84375 
Q 18.109375 37.203125 18.109375 27.296875 
Q 18.109375 17.390625 22.1875 11.75 
Q 26.265625 6.109375 33.40625 6.109375 
Q 40.53125 6.109375 44.609375 11.75 
Q 48.6875 17.390625 48.6875 27.296875 
z
M 18.109375 46.390625 
Q 20.953125 51.265625 25.265625 53.625 
Q 29.59375 56 35.59375 56 
Q 45.5625 56 51.78125 48.09375 
Q 58.015625 40.1875 58.015625 27.296875 
Q 58.015625 14.40625 51.78125 6.484375 
Q 45.5625 -1.421875 35.59375 -1.421875 
Q 29.59375 -1.421875 25.265625 0.953125 
Q 20.953125 3.328125 18.109375 8.203125 
L 18.109375 0 
L 9.078125 0 
L 9.078125 75.984375 
L 18.109375 75.984375 
z
" id="DejaVuSans-98"/>
      <path d="M 10.59375 45.40625 
L 73.1875 45.40625 
L 73.1875 37.203125 
L 10.59375 37.203125 
z
M 10.59375 25.484375 
L 73.1875 25.484375 
L 73.1875 17.1875 
L 10.59375 17.1875 
z
" id="DejaVuSans-61"/>
      <path d="M 4.890625 31.390625 
L 31.203125 31.390625 
L 31.203125 23.390625 
L 4.890625 23.390625 
z
" id="DejaVuSans-45"/>
     </defs>
     <use xlink:href="#DejaVuSans-110"/>
     <use x="63.378906" xlink:href="#DejaVuSans-98"/>
     <use x="126.855469" xlink:href="#DejaVuSans-32"/>
     <use x="158.642578" xlink:href="#DejaVuSans-61"/>
     <use x="242.431641" xlink:href="#DejaVuSans-32"/>
     <use x="274.21875" xlink:href="#DejaVuSans-45"/>
     <use x="310.302734" xlink:href="#DejaVuSans-49"/>
     <use x="373.925781" xlink:href="#DejaVuSans-46"/>
     <use x="405.712891" xlink:href="#DejaVuSans-48"/>
    </g>
   </g>
  </g>
  <g id="axes_2">
   <g id="patch_17">
    <path d="M 391.182298 332.2 
L 722.647505 332.2 
L 722.647505 24.8 
L 391.182298 24.8 
z
" style="fill:#ffffff;"/>
   </g>
   <g id="patch_18">
    <path clip-path="url(#pbe46b7a5e9)" d="M 402.231139 201.45001 
L 424.328819 201.45001 
L 424.328819 203.322629 
L 402.231139 203.322629 
z
"/>
   </g>
   <g id="patch_19">
    <path clip-path="url(#pbe46b7a5e9)" d="M 512.719541 201.45001 
L 534.817221 201.45001 
L 534.817221 201.84425 
L 512.719541 201.84425 
z
"/>
   </g>
   <g id="patch_20">
    <path clip-path="url(#pbe46b7a5e9)" d="M 623.207943 201.45001 
L 645.305623 201.45001 
L 645.305623 204.852801 
L 623.207943 204.852801 
z
"/>
   </g>
   <g id="patch_21">
    <path clip-path="url(#pbe46b7a5e9)" d="M 424.328819 201.45001 
L 446.4265 201.45001 
L 446.4265 202.9082 
L 424.328819 202.9082 
z
" style="fill:#18a7a7;"/>
   </g>
   <g id="patch_22">
    <path clip-path="url(#pbe46b7a5e9)" d="M 534.817221 201.45001 
L 556.914902 201.45001 
L 556.914902 203.494344 
L 534.817221 203.494344 
z
" style="fill:#18a7a7;"/>
   </g>
   <g id="patch_23">
    <path clip-path="url(#pbe46b7a5e9)" d="M 645.305623 201.45001 
L 667.403304 201.45001 
L 667.403304 205.048991 
L 645.305623 205.048991 
z
" style="fill:#18a7a7;"/>
   </g>
   <g id="patch_24">
    <path clip-path="url(#pbe46b7a5e9)" d="M 446.4265 201.45001 
L 468.52418 201.45001 
L 468.52418 206.124093 
L 446.4265 206.124093 
z
"/>
   </g>
   <g id="patch_25">
    <path clip-path="url(#pbe46b7a5e9)" d="M 556.914902 201.45001 
L 579.012582 201.45001 
L 579.012582 195.678026 
L 556.914902 195.678026 
z
"/>
   </g>
   <g id="patch_26">
    <path clip-path="url(#pbe46b7a5e9)" d="M 667.403304 201.45001 
L 689.500984 201.45001 
L 689.500984 193.776693 
L 667.403304 193.776693 
z
"/>
   </g>
   <g id="patch_27">
    <path clip-path="url(#pbe46b7a5e9)" d="M 468.52418 201.45001 
L 490.62186 201.45001 
L 490.62186 201.997503 
L 468.52418 201.997503 
z
" style="fill:#18a7a7;"/>
   </g>
   <g id="patch_28">
    <path clip-path="url(#pbe46b7a5e9)" d="M 579.012582 201.45001 
L 601.110262 201.45001 
L 601.110262 206.52977 
L 579.012582 206.52977 
z
" style="fill:#18a7a7;"/>
   </g>
   <g id="patch_29">
    <path clip-path="url(#pbe46b7a5e9)" d="M 689.500984 201.45001 
L 711.598665 201.45001 
L 711.598665 214.186968 
L 689.500984 214.186968 
z
" style="fill:#18a7a7;"/>
   </g>
   <g id="matplotlib.axis_3">
    <g id="xtick_4">
     <g id="line2d_24">
      <g>
       <use style="stroke:#000000;stroke-width:0.8;" x="446.4265" xlink:href="#m3cc9908cba" y="332.2"/>
      </g>
     </g>
     <g id="text_15">
      <!-- Stim SD -->
      <g transform="translate(426.419468 346.798438)scale(0.1 -0.1)">
       <use xlink:href="#DejaVuSans-83"/>
       <use x="63.476562" xlink:href="#DejaVuSans-116"/>
       <use x="102.685547" xlink:href="#DejaVuSans-105"/>
       <use x="130.46875" xlink:href="#DejaVuSans-109"/>
       <use x="227.880859" xlink:href="#DejaVuSans-32"/>
       <use x="259.667969" xlink:href="#DejaVuSans-83"/>
       <use x="323.144531" xlink:href="#DejaVuSans-68"/>
      </g>
     </g>
    </g>
    <g id="xtick_5">
     <g id="line2d_25">
      <g>
       <use style="stroke:#000000;stroke-width:0.8;" x="556.914902" xlink:href="#m3cc9908cba" y="332.2"/>
      </g>
     </g>
     <g id="text_16">
      <!-- Resp SD -->
      <g transform="translate(536.196933 346.798438)scale(0.1 -0.1)">
       <use xlink:href="#DejaVuSans-82"/>
       <use x="64.982422" xlink:href="#DejaVuSans-101"/>
       <use x="126.505859" xlink:href="#DejaVuSans-115"/>
       <use x="178.605469" xlink:href="#DejaVuSans-112"/>
       <use x="242.082031" xlink:href="#DejaVuSans-32"/>
       <use x="273.869141" xlink:href="#DejaVuSans-83"/>
       <use x="337.345703" xlink:href="#DejaVuSans-68"/>
      </g>
     </g>
    </g>
    <g id="xtick_6">
     <g id="line2d_26">
      <g>
       <use style="stroke:#000000;stroke-width:0.8;" x="667.403304" xlink:href="#m3cc9908cba" y="332.2"/>
      </g>
     </g>
     <g id="text_17">
      <!-- No SD -->
      <g transform="translate(651.990022 346.798438)scale(0.1 -0.1)">
       <use xlink:href="#DejaVuSans-78"/>
       <use x="74.804688" xlink:href="#DejaVuSans-111"/>
       <use x="135.986328" xlink:href="#DejaVuSans-32"/>
       <use x="167.773438" xlink:href="#DejaVuSans-83"/>
       <use x="231.25" xlink:href="#DejaVuSans-68"/>
      </g>
     </g>
    </g>
    <g id="text_18">
     <!-- trueSD -->
     <g transform="translate(539.629745 360.476562)scale(0.1 -0.1)">
      <use xlink:href="#DejaVuSans-116"/>
      <use x="39.208984" xlink:href="#DejaVuSans-114"/>
      <use x="80.322266" xlink:href="#DejaVuSans-117"/>
      <use x="143.701172" xlink:href="#DejaVuSans-101"/>
      <use x="205.224609" xlink:href="#DejaVuSans-83"/>
      <use x="268.701172" xlink:href="#DejaVuSans-68"/>
     </g>
    </g>
   </g>
   <g id="matplotlib.axis_4">
    <g id="ytick_9">
     <g id="line2d_27">
      <g>
       <use style="stroke:#000000;stroke-width:0.8;" x="391.182298" xlink:href="#m93c92b7021" y="311.662519"/>
      </g>
     </g>
    </g>
    <g id="ytick_10">
     <g id="line2d_28">
      <g>
       <use style="stroke:#000000;stroke-width:0.8;" x="391.182298" xlink:href="#m93c92b7021" y="274.925016"/>
      </g>
     </g>
    </g>
    <g id="ytick_11">
     <g id="line2d_29">
      <g>
       <use style="stroke:#000000;stroke-width:0.8;" x="391.182298" xlink:href="#m93c92b7021" y="238.187513"/>
      </g>
     </g>
    </g>
    <g id="ytick_12">
     <g id="line2d_30">
      <g>
       <use style="stroke:#000000;stroke-width:0.8;" x="391.182298" xlink:href="#m93c92b7021" y="201.45001"/>
      </g>
     </g>
    </g>
    <g id="ytick_13">
     <g id="line2d_31">
      <g>
       <use style="stroke:#000000;stroke-width:0.8;" x="391.182298" xlink:href="#m93c92b7021" y="164.712507"/>
      </g>
     </g>
    </g>
    <g id="ytick_14">
     <g id="line2d_32">
      <g>
       <use style="stroke:#000000;stroke-width:0.8;" x="391.182298" xlink:href="#m93c92b7021" y="127.975004"/>
      </g>
     </g>
    </g>
    <g id="ytick_15">
     <g id="line2d_33">
      <g>
       <use style="stroke:#000000;stroke-width:0.8;" x="391.182298" xlink:href="#m93c92b7021" y="91.237501"/>
      </g>
     </g>
    </g>
    <g id="ytick_16">
     <g id="line2d_34">
      <g>
       <use style="stroke:#000000;stroke-width:0.8;" x="391.182298" xlink:href="#m93c92b7021" y="54.499998"/>
      </g>
     </g>
    </g>
   </g>
   <g id="line2d_35">
    <path clip-path="url(#pbe46b7a5e9)" d="M 413.279979 207.754843 
L 413.279979 198.448687 
" style="fill:none;stroke:#424242;stroke-linecap:square;stroke-width:2.7;"/>
   </g>
   <g id="line2d_36">
    <path clip-path="url(#pbe46b7a5e9)" d="M 523.768381 206.255141 
L 523.768381 197.014467 
" style="fill:none;stroke:#424242;stroke-linecap:square;stroke-width:2.7;"/>
   </g>
   <g id="line2d_37">
    <path clip-path="url(#pbe46b7a5e9)" d="M 634.256783 208.860854 
L 634.256783 201.013515 
" style="fill:none;stroke:#424242;stroke-linecap:square;stroke-width:2.7;"/>
   </g>
   <g id="line2d_38">
    <path clip-path="url(#pbe46b7a5e9)" d="M 435.377659 207.858246 
L 435.377659 197.970092 
" style="fill:none;stroke:#424242;stroke-linecap:square;stroke-width:2.7;"/>
   </g>
   <g id="line2d_39">
    <path clip-path="url(#pbe46b7a5e9)" d="M 545.866061 208.250511 
L 545.866061 198.270224 
" style="fill:none;stroke:#424242;stroke-linecap:square;stroke-width:2.7;"/>
   </g>
   <g id="line2d_40">
    <path clip-path="url(#pbe46b7a5e9)" d="M 656.354464 209.669848 
L 656.354464 200.568915 
" style="fill:none;stroke:#424242;stroke-linecap:square;stroke-width:2.7;"/>
   </g>
   <g id="line2d_41">
    <path clip-path="url(#pbe46b7a5e9)" d="M 457.47534 215.550804 
L 457.47534 196.64051 
" style="fill:none;stroke:#424242;stroke-linecap:square;stroke-width:2.7;"/>
   </g>
   <g id="line2d_42">
    <path clip-path="url(#pbe46b7a5e9)" d="M 567.963742 205.220899 
L 567.963742 186.220711 
" style="fill:none;stroke:#424242;stroke-linecap:square;stroke-width:2.7;"/>
   </g>
   <g id="line2d_43">
    <path clip-path="url(#pbe46b7a5e9)" d="M 678.452144 202.547175 
L 678.452144 185.341115 
" style="fill:none;stroke:#424242;stroke-linecap:square;stroke-width:2.7;"/>
   </g>
   <g id="line2d_44">
    <path clip-path="url(#pbe46b7a5e9)" d="M 479.57302 209.816726 
L 479.57302 193.386161 
" style="fill:none;stroke:#424242;stroke-linecap:square;stroke-width:2.7;"/>
   </g>
   <g id="line2d_45">
    <path clip-path="url(#pbe46b7a5e9)" d="M 590.061422 214.917836 
L 590.061422 198.52869 
" style="fill:none;stroke:#424242;stroke-linecap:square;stroke-width:2.7;"/>
   </g>
   <g id="line2d_46">
    <path clip-path="url(#pbe46b7a5e9)" d="M 700.549824 222.190902 
L 700.549824 206.348922 
" style="fill:none;stroke:#424242;stroke-linecap:square;stroke-width:2.7;"/>
   </g>
   <g id="patch_30">
    <path d="M 391.182298 332.2 
L 391.182298 24.8 
" style="fill:none;stroke:#000000;stroke-linecap:square;stroke-linejoin:miter;stroke-width:0.8;"/>
   </g>
   <g id="patch_31">
    <path d="M 391.182298 332.2 
L 722.647505 332.2 
" style="fill:none;stroke:#000000;stroke-linecap:square;stroke-linejoin:miter;stroke-width:0.8;"/>
   </g>
   <g id="text_19">
    <!-- nb = 0.0 -->
    <g transform="translate(535.252402 18.8)scale(0.1 -0.1)">
     <use xlink:href="#DejaVuSans-110"/>
     <use x="63.378906" xlink:href="#DejaVuSans-98"/>
     <use x="126.855469" xlink:href="#DejaVuSans-32"/>
     <use x="158.642578" xlink:href="#DejaVuSans-61"/>
     <use x="242.431641" xlink:href="#DejaVuSans-32"/>
     <use x="274.21875" xlink:href="#DejaVuSans-48"/>
     <use x="337.841797" xlink:href="#DejaVuSans-46"/>
     <use x="369.628906" xlink:href="#DejaVuSans-48"/>
    </g>
   </g>
  </g>
  <g id="axes_3">
   <g id="patch_32">
    <path d="M 736.889794 332.2 
L 1068.355 332.2 
L 1068.355 24.8 
L 736.889794 24.8 
z
" style="fill:#ffffff;"/>
   </g>
   <g id="patch_33">
    <path clip-path="url(#p5d07cf4062)" d="M 747.938634 201.45001 
L 770.036314 201.45001 
L 770.036314 202.497765 
L 747.938634 202.497765 
z
"/>
   </g>
   <g id="patch_34">
    <path clip-path="url(#p5d07cf4062)" d="M 858.427036 201.45001 
L 880.524716 201.45001 
L 880.524716 199.630974 
L 858.427036 199.630974 
z
"/>
   </g>
   <g id="patch_35">
    <path clip-path="url(#p5d07cf4062)" d="M 968.915438 201.45001 
L 991.013119 201.45001 
L 991.013119 201.510183 
L 968.915438 201.510183 
z
"/>
   </g>
   <g id="patch_36">
    <path clip-path="url(#p5d07cf4062)" d="M 770.036314 201.45001 
L 792.133995 201.45001 
L 792.133995 203.174946 
L 770.036314 203.174946 
z
" style="fill:#18a7a7;"/>
   </g>
   <g id="patch_37">
    <path clip-path="url(#p5d07cf4062)" d="M 880.524716 201.45001 
L 902.622397 201.45001 
L 902.622397 133.93807 
L 880.524716 133.93807 
z
" style="fill:#18a7a7;"/>
   </g>
   <g id="patch_38">
    <path clip-path="url(#p5d07cf4062)" d="M 991.013119 201.45001 
L 1013.110799 201.45001 
L 1013.110799 206.406108 
L 991.013119 206.406108 
z
" style="fill:#18a7a7;"/>
   </g>
   <g id="patch_39">
    <path clip-path="url(#p5d07cf4062)" d="M 792.133995 201.45001 
L 814.231675 201.45001 
L 814.231675 200.131953 
L 792.133995 200.131953 
z
"/>
   </g>
   <g id="patch_40">
    <path clip-path="url(#p5d07cf4062)" d="M 902.622397 201.45001 
L 924.720077 201.45001 
L 924.720077 313.84728 
L 902.622397 313.84728 
z
"/>
   </g>
   <g id="patch_41">
    <path clip-path="url(#p5d07cf4062)" d="M 1013.110799 201.45001 
L 1035.208479 201.45001 
L 1035.208479 201.388907 
L 1013.110799 201.388907 
z
"/>
   </g>
   <g id="patch_42">
    <path clip-path="url(#p5d07cf4062)" d="M 814.231675 201.45001 
L 836.329356 201.45001 
L 836.329356 198.78327 
L 814.231675 198.78327 
z
" style="fill:#18a7a7;"/>
   </g>
   <g id="patch_43">
    <path clip-path="url(#p5d07cf4062)" d="M 924.720077 201.45001 
L 946.817758 201.45001 
L 946.817758 43.332734 
L 924.720077 43.332734 
z
" style="fill:#18a7a7;"/>
   </g>
   <g id="patch_44">
    <path clip-path="url(#p5d07cf4062)" d="M 1035.208479 201.45001 
L 1057.30616 201.45001 
L 1057.30616 206.411246 
L 1035.208479 206.411246 
z
" style="fill:#18a7a7;"/>
   </g>
   <g id="matplotlib.axis_5">
    <g id="xtick_7">
     <g id="line2d_47">
      <g>
       <use style="stroke:#000000;stroke-width:0.8;" x="792.133995" xlink:href="#m3cc9908cba" y="332.2"/>
      </g>
     </g>
     <g id="text_20">
      <!-- Stim SD -->
      <g transform="translate(772.126964 346.798438)scale(0.1 -0.1)">
       <use xlink:href="#DejaVuSans-83"/>
       <use x="63.476562" xlink:href="#DejaVuSans-116"/>
       <use x="102.685547" xlink:href="#DejaVuSans-105"/>
       <use x="130.46875" xlink:href="#DejaVuSans-109"/>
       <use x="227.880859" xlink:href="#DejaVuSans-32"/>
       <use x="259.667969" xlink:href="#DejaVuSans-83"/>
       <use x="323.144531" xlink:href="#DejaVuSans-68"/>
      </g>
     </g>
    </g>
    <g id="xtick_8">
     <g id="line2d_48">
      <g>
       <use style="stroke:#000000;stroke-width:0.8;" x="902.622397" xlink:href="#m3cc9908cba" y="332.2"/>
      </g>
     </g>
     <g id="text_21">
      <!-- Resp SD -->
      <g transform="translate(881.904428 346.798438)scale(0.1 -0.1)">
       <use xlink:href="#DejaVuSans-82"/>
       <use x="64.982422" xlink:href="#DejaVuSans-101"/>
       <use x="126.505859" xlink:href="#DejaVuSans-115"/>
       <use x="178.605469" xlink:href="#DejaVuSans-112"/>
       <use x="242.082031" xlink:href="#DejaVuSans-32"/>
       <use x="273.869141" xlink:href="#DejaVuSans-83"/>
       <use x="337.345703" xlink:href="#DejaVuSans-68"/>
      </g>
     </g>
    </g>
    <g id="xtick_9">
     <g id="line2d_49">
      <g>
       <use style="stroke:#000000;stroke-width:0.8;" x="1013.110799" xlink:href="#m3cc9908cba" y="332.2"/>
      </g>
     </g>
     <g id="text_22">
      <!-- No SD -->
      <g transform="translate(997.697518 346.798438)scale(0.1 -0.1)">
       <use xlink:href="#DejaVuSans-78"/>
       <use x="74.804688" xlink:href="#DejaVuSans-111"/>
       <use x="135.986328" xlink:href="#DejaVuSans-32"/>
       <use x="167.773438" xlink:href="#DejaVuSans-83"/>
       <use x="231.25" xlink:href="#DejaVuSans-68"/>
      </g>
     </g>
    </g>
    <g id="text_23">
     <!-- trueSD -->
     <g transform="translate(885.337241 360.476562)scale(0.1 -0.1)">
      <use xlink:href="#DejaVuSans-116"/>
      <use x="39.208984" xlink:href="#DejaVuSans-114"/>
      <use x="80.322266" xlink:href="#DejaVuSans-117"/>
      <use x="143.701172" xlink:href="#DejaVuSans-101"/>
      <use x="205.224609" xlink:href="#DejaVuSans-83"/>
      <use x="268.701172" xlink:href="#DejaVuSans-68"/>
     </g>
    </g>
   </g>
   <g id="matplotlib.axis_6">
    <g id="ytick_17">
     <g id="line2d_50">
      <g>
       <use style="stroke:#000000;stroke-width:0.8;" x="736.889794" xlink:href="#m93c92b7021" y="311.662519"/>
      </g>
     </g>
    </g>
    <g id="ytick_18">
     <g id="line2d_51">
      <g>
       <use style="stroke:#000000;stroke-width:0.8;" x="736.889794" xlink:href="#m93c92b7021" y="274.925016"/>
      </g>
     </g>
    </g>
    <g id="ytick_19">
     <g id="line2d_52">
      <g>
       <use style="stroke:#000000;stroke-width:0.8;" x="736.889794" xlink:href="#m93c92b7021" y="238.187513"/>
      </g>
     </g>
    </g>
    <g id="ytick_20">
     <g id="line2d_53">
      <g>
       <use style="stroke:#000000;stroke-width:0.8;" x="736.889794" xlink:href="#m93c92b7021" y="201.45001"/>
      </g>
     </g>
    </g>
    <g id="ytick_21">
     <g id="line2d_54">
      <g>
       <use style="stroke:#000000;stroke-width:0.8;" x="736.889794" xlink:href="#m93c92b7021" y="164.712507"/>
      </g>
     </g>
    </g>
    <g id="ytick_22">
     <g id="line2d_55">
      <g>
       <use style="stroke:#000000;stroke-width:0.8;" x="736.889794" xlink:href="#m93c92b7021" y="127.975004"/>
      </g>
     </g>
    </g>
    <g id="ytick_23">
     <g id="line2d_56">
      <g>
       <use style="stroke:#000000;stroke-width:0.8;" x="736.889794" xlink:href="#m93c92b7021" y="91.237501"/>
      </g>
     </g>
    </g>
    <g id="ytick_24">
     <g id="line2d_57">
      <g>
       <use style="stroke:#000000;stroke-width:0.8;" x="736.889794" xlink:href="#m93c92b7021" y="54.499998"/>
      </g>
     </g>
    </g>
   </g>
   <g id="line2d_58">
    <path clip-path="url(#p5d07cf4062)" d="M 758.987474 207.750738 
L 758.987474 197.37494 
" style="fill:none;stroke:#424242;stroke-linecap:square;stroke-width:2.7;"/>
   </g>
   <g id="line2d_59">
    <path clip-path="url(#p5d07cf4062)" d="M 869.475876 204.255085 
L 869.475876 195.069374 
" style="fill:none;stroke:#424242;stroke-linecap:square;stroke-width:2.7;"/>
   </g>
   <g id="line2d_60">
    <path clip-path="url(#p5d07cf4062)" d="M 979.964278 204.948326 
L 979.964278 197.737444 
" style="fill:none;stroke:#424242;stroke-linecap:square;stroke-width:2.7;"/>
   </g>
   <g id="line2d_61">
    <path clip-path="url(#p5d07cf4062)" d="M 781.085155 206.807495 
L 781.085155 199.018961 
" style="fill:none;stroke:#424242;stroke-linecap:square;stroke-width:2.7;"/>
   </g>
   <g id="line2d_62">
    <path clip-path="url(#p5d07cf4062)" d="M 891.573557 137.187332 
L 891.573557 130.406339 
" style="fill:none;stroke:#424242;stroke-linecap:square;stroke-width:2.7;"/>
   </g>
   <g id="line2d_63">
    <path clip-path="url(#p5d07cf4062)" d="M 1002.061959 211.598882 
L 1002.061959 200.65548 
" style="fill:none;stroke:#424242;stroke-linecap:square;stroke-width:2.7;"/>
   </g>
   <g id="line2d_64">
    <path clip-path="url(#p5d07cf4062)" d="M 803.182835 209.192761 
L 803.182835 190.336558 
" style="fill:none;stroke:#424242;stroke-linecap:square;stroke-width:2.7;"/>
   </g>
   <g id="line2d_65">
    <path clip-path="url(#p5d07cf4062)" d="M 913.671237 318.227273 
L 913.671237 309.461996 
" style="fill:none;stroke:#424242;stroke-linecap:square;stroke-width:2.7;"/>
   </g>
   <g id="line2d_66">
    <path clip-path="url(#p5d07cf4062)" d="M 1024.159639 209.411624 
L 1024.159639 194.10877 
" style="fill:none;stroke:#424242;stroke-linecap:square;stroke-width:2.7;"/>
   </g>
   <g id="line2d_67">
    <path clip-path="url(#p5d07cf4062)" d="M 825.280515 209.37024 
L 825.280515 189.148429 
" style="fill:none;stroke:#424242;stroke-linecap:square;stroke-width:2.7;"/>
   </g>
   <g id="line2d_68">
    <path clip-path="url(#p5d07cf4062)" d="M 935.768917 47.887413 
L 935.768917 38.772727 
" style="fill:none;stroke:#424242;stroke-linecap:square;stroke-width:2.7;"/>
   </g>
   <g id="line2d_69">
    <path clip-path="url(#p5d07cf4062)" d="M 1046.25732 214.154806 
L 1046.25732 197.301722 
" style="fill:none;stroke:#424242;stroke-linecap:square;stroke-width:2.7;"/>
   </g>
   <g id="patch_45">
    <path d="M 736.889794 332.2 
L 736.889794 24.8 
" style="fill:none;stroke:#000000;stroke-linecap:square;stroke-linejoin:miter;stroke-width:0.8;"/>
   </g>
   <g id="patch_46">
    <path d="M 736.889794 332.2 
L 1068.355 332.2 
" style="fill:none;stroke:#000000;stroke-linecap:square;stroke-linejoin:miter;stroke-width:0.8;"/>
   </g>
   <g id="text_24">
    <!-- nb = 1.0 -->
    <g transform="translate(880.959897 18.8)scale(0.1 -0.1)">
     <use xlink:href="#DejaVuSans-110"/>
     <use x="63.378906" xlink:href="#DejaVuSans-98"/>
     <use x="126.855469" xlink:href="#DejaVuSans-32"/>
     <use x="158.642578" xlink:href="#DejaVuSans-61"/>
     <use x="242.431641" xlink:href="#DejaVuSans-32"/>
     <use x="274.21875" xlink:href="#DejaVuSans-49"/>
     <use x="337.841797" xlink:href="#DejaVuSans-46"/>
     <use x="369.628906" xlink:href="#DejaVuSans-48"/>
    </g>
   </g>
  </g>
  <g id="legend_1">
   <g id="text_25">
    <!-- dStim -->
    <g transform="translate(1102.667188 152.846875)scale(0.1 -0.1)">
     <defs>
      <path d="M 45.40625 46.390625 
L 45.40625 75.984375 
L 54.390625 75.984375 
L 54.390625 0 
L 45.40625 0 
L 45.40625 8.203125 
Q 42.578125 3.328125 38.25 0.953125 
Q 33.9375 -1.421875 27.875 -1.421875 
Q 17.96875 -1.421875 11.734375 6.484375 
Q 5.515625 14.40625 5.515625 27.296875 
Q 5.515625 40.1875 11.734375 48.09375 
Q 17.96875 56 27.875 56 
Q 33.9375 56 38.25 53.625 
Q 42.578125 51.265625 45.40625 46.390625 
z
M 14.796875 27.296875 
Q 14.796875 17.390625 18.875 11.75 
Q 22.953125 6.109375 30.078125 6.109375 
Q 37.203125 6.109375 41.296875 11.75 
Q 45.40625 17.390625 45.40625 27.296875 
Q 45.40625 37.203125 41.296875 42.84375 
Q 37.203125 48.484375 30.078125 48.484375 
Q 22.953125 48.484375 18.875 42.84375 
Q 14.796875 37.203125 14.796875 27.296875 
z
" id="DejaVuSans-100"/>
     </defs>
     <use xlink:href="#DejaVuSans-100"/>
     <use x="63.476562" xlink:href="#DejaVuSans-83"/>
     <use x="126.953125" xlink:href="#DejaVuSans-116"/>
     <use x="166.162109" xlink:href="#DejaVuSans-105"/>
     <use x="193.945312" xlink:href="#DejaVuSans-109"/>
    </g>
   </g>
   <g id="patch_47">
    <path d="M 1078.970313 167.525 
L 1098.970313 167.525 
L 1098.970313 160.525 
L 1078.970313 160.525 
z
"/>
   </g>
   <g id="text_26">
    <!-- d_ori -->
    <g transform="translate(1106.970313 167.525)scale(0.1 -0.1)">
     <defs>
      <path d="M 50.984375 -16.609375 
L 50.984375 -23.578125 
L -0.984375 -23.578125 
L -0.984375 -16.609375 
z
" id="DejaVuSans-95"/>
     </defs>
     <use xlink:href="#DejaVuSans-100"/>
     <use x="63.476562" xlink:href="#DejaVuSans-95"/>
     <use x="113.476562" xlink:href="#DejaVuSans-111"/>
     <use x="174.658203" xlink:href="#DejaVuSans-114"/>
     <use x="215.771484" xlink:href="#DejaVuSans-105"/>
    </g>
   </g>
   <g id="patch_48">
    <path d="M 1078.970313 182.48125 
L 1098.970313 182.48125 
L 1098.970313 175.48125 
L 1078.970313 175.48125 
z
" style="fill:#18a7a7;"/>
   </g>
   <g id="text_27">
    <!-- d_resp -->
    <g transform="translate(1106.970313 182.48125)scale(0.1 -0.1)">
     <use xlink:href="#DejaVuSans-100"/>
     <use x="63.476562" xlink:href="#DejaVuSans-95"/>
     <use x="113.476562" xlink:href="#DejaVuSans-114"/>
     <use x="152.339844" xlink:href="#DejaVuSans-101"/>
     <use x="213.863281" xlink:href="#DejaVuSans-115"/>
     <use x="265.962891" xlink:href="#DejaVuSans-112"/>
    </g>
   </g>
   <g id="patch_49">
    <path d="M 1078.970313 197.4375 
L 1098.970313 197.4375 
L 1098.970313 190.4375 
L 1078.970313 190.4375 
z
"/>
   </g>
   <g id="text_28">
    <!-- joint_ori -->
    <g transform="translate(1106.970313 197.4375)scale(0.1 -0.1)">
     <defs>
      <path d="M 9.421875 54.6875 
L 18.40625 54.6875 
L 18.40625 -0.984375 
Q 18.40625 -11.421875 14.421875 -16.109375 
Q 10.453125 -20.796875 1.609375 -20.796875 
L -1.8125 -20.796875 
L -1.8125 -13.1875 
L 0.59375 -13.1875 
Q 5.71875 -13.1875 7.5625 -10.8125 
Q 9.421875 -8.453125 9.421875 -0.984375 
z
M 9.421875 75.984375 
L 18.40625 75.984375 
L 18.40625 64.59375 
L 9.421875 64.59375 
z
" id="DejaVuSans-106"/>
     </defs>
     <use xlink:href="#DejaVuSans-106"/>
     <use x="27.783203" xlink:href="#DejaVuSans-111"/>
     <use x="88.964844" xlink:href="#DejaVuSans-105"/>
     <use x="116.748047" xlink:href="#DejaVuSans-110"/>
     <use x="180.126953" xlink:href="#DejaVuSans-116"/>
     <use x="219.335938" xlink:href="#DejaVuSans-95"/>
     <use x="269.335938" xlink:href="#DejaVuSans-111"/>
     <use x="330.517578" xlink:href="#DejaVuSans-114"/>
     <use x="371.630859" xlink:href="#DejaVuSans-105"/>
    </g>
   </g>
   <g id="patch_50">
    <path d="M 1078.970313 212.39375 
L 1098.970313 212.39375 
L 1098.970313 205.39375 
L 1078.970313 205.39375 
z
" style="fill:#18a7a7;"/>
   </g>
   <g id="text_29">
    <!-- joint_resp -->
    <g transform="translate(1106.970313 212.39375)scale(0.1 -0.1)">
     <use xlink:href="#DejaVuSans-106"/>
     <use x="27.783203" xlink:href="#DejaVuSans-111"/>
     <use x="88.964844" xlink:href="#DejaVuSans-105"/>
     <use x="116.748047" xlink:href="#DejaVuSans-110"/>
     <use x="180.126953" xlink:href="#DejaVuSans-116"/>
     <use x="219.335938" xlink:href="#DejaVuSans-95"/>
     <use x="269.335938" xlink:href="#DejaVuSans-114"/>
     <use x="308.199219" xlink:href="#DejaVuSans-101"/>
     <use x="369.722656" xlink:href="#DejaVuSans-115"/>
     <use x="421.822266" xlink:href="#DejaVuSans-112"/>
    </g>
   </g>
  </g>
 </g>
 <defs>
  <clipPath id="p37f5f8fcd7">
   <rect height="307.4" width="331.465206" x="45.474803" y="24.8"/>
  </clipPath>
  <clipPath id="pbe46b7a5e9">
   <rect height="307.4" width="331.465206" x="391.182298" y="24.8"/>
  </clipPath>
  <clipPath id="p5d07cf4062">
   <rect height="307.4" width="331.465206" x="736.889794" y="24.8"/>
  </clipPath>
 </defs>
</svg>
