<?xml version="1.0" encoding="utf-8" standalone="no"?>
<!DOCTYPE svg PUBLIC "-//W3C//DTD SVG 1.1//EN"
  "http://www.w3.org/Graphics/SVG/1.1/DTD/svg11.dtd">
<!-- Created with matplotlib (https://matplotlib.org/) -->
<svg height="216pt" version="1.1" viewBox="0 0 432 216" width="432pt" xmlns="http://www.w3.org/2000/svg" xmlns:xlink="http://www.w3.org/1999/xlink">
 <metadata>
  <rdf:RDF xmlns:cc="http://creativecommons.org/ns#" xmlns:dc="http://purl.org/dc/elements/1.1/" xmlns:rdf="http://www.w3.org/1999/02/22-rdf-syntax-ns#">
   <cc:Work>
    <dc:type rdf:resource="http://purl.org/dc/dcmitype/StillImage"/>
    <dc:date>2022-12-16T20:01:26.556054</dc:date>
    <dc:format>image/svg+xml</dc:format>
    <dc:creator>
     <cc:Agent>
      <dc:title>Matplotlib v3.3.1, https://matplotlib.org/</dc:title>
     </cc:Agent>
    </dc:creator>
   </cc:Work>
  </rdf:RDF>
 </metadata>
 <defs>
  <style type="text/css">*{stroke-linecap:butt;stroke-linejoin:round;}</style>
 </defs>
 <g id="figure_1">
  <g id="patch_1">
   <path d="M 0 216 
L 432 216 
L 432 0 
L 0 0 
z
" style="fill:none;"/>
  </g>
  <g id="axes_1">
   <g id="patch_2">
    <path d="M 46.55 170.2 
L 216.81875 170.2 
L 216.81875 26.8 
L 46.55 26.8 
z
" style="fill:#ffffff;"/>
   </g>
   <g id="PolyCollection_1">
    <defs>
     <path d="M 46.55 -118.586239 
L 46.55 -112.344307 
L 48.441875 -112.465797 
L 50.33375 -113.805092 
L 52.225625 -114.510423 
L 54.1175 -115.131204 
L 56.009375 -115.581704 
L 57.90125 -118.309661 
L 59.793125 -121.457904 
L 61.685 -122.481968 
L 63.576875 -124.709121 
L 65.46875 -127.381469 
L 67.360625 -127.241292 
L 69.2525 -129.483384 
L 71.144375 -130.797085 
L 73.03625 -130.993903 
L 74.928125 -129.894946 
L 76.82 -128.258075 
L 78.711875 -131.085632 
L 80.60375 -130.36483 
L 82.495625 -128.711704 
L 84.3875 -127.267202 
L 86.279375 -127.56551 
L 88.17125 -128.807898 
L 90.063125 -126.198388 
L 91.955 -124.885375 
L 93.846875 -123.326988 
L 95.73875 -127.161352 
L 97.630625 -125.5444 
L 99.5225 -123.153184 
L 101.414375 -123.467107 
L 103.30625 -123.827492 
L 105.198125 -126.305115 
L 107.09 -122.867121 
L 108.981875 -122.579811 
L 110.87375 -122.827933 
L 112.765625 -120.504765 
L 114.6575 -117.029363 
L 116.549375 -113.656598 
L 118.44125 -110.70906 
L 120.333125 -109.023407 
L 122.225 -108.010316 
L 124.116875 -108.461046 
L 126.00875 -111.137883 
L 127.900625 -112.706917 
L 129.7925 -115.356689 
L 131.684375 -116.584757 
L 133.57625 -117.934686 
L 135.468125 -121.001019 
L 137.36 -119.532632 
L 139.251875 -121.938723 
L 141.14375 -122.396307 
L 143.035625 -120.946248 
L 144.9275 -118.80396 
L 146.819375 -116.067531 
L 148.71125 -114.432972 
L 150.603125 -110.473473 
L 152.495 -108.006208 
L 154.386875 -106.051494 
L 156.27875 -103.607073 
L 158.170625 -103.198805 
L 160.0625 -102.133996 
L 161.954375 -100.697639 
L 163.84625 -99.375846 
L 165.738125 -100.428582 
L 167.63 -99.167532 
L 169.521875 -97.977189 
L 171.41375 -98.777073 
L 173.305625 -99.729973 
L 175.1975 -102.35433 
L 177.089375 -101.717018 
L 178.98125 -103.733732 
L 180.873125 -104.9348 
L 182.765 -106.098537 
L 184.656875 -107.328943 
L 186.54875 -105.750353 
L 188.440625 -105.148839 
L 190.3325 -106.653998 
L 192.224375 -106.526019 
L 194.11625 -107.453854 
L 196.008125 -109.942666 
L 197.9 -110.136214 
L 199.791875 -111.460615 
L 201.68375 -110.954407 
L 203.575625 -111.869036 
L 205.4675 -112.910588 
L 207.359375 -111.080115 
L 209.25125 -113.128351 
L 211.143125 -115.640813 
L 213.035 -115.236749 
L 214.926875 -113.963134 
L 216.81875 -113.458893 
L 216.81875 -118.841086 
L 216.81875 -118.841086 
L 214.926875 -119.24947 
L 213.035 -120.319819 
L 211.143125 -119.848249 
L 209.25125 -117.270078 
L 207.359375 -116.039548 
L 205.4675 -117.243413 
L 203.575625 -115.785041 
L 201.68375 -115.181229 
L 199.791875 -115.249715 
L 197.9 -114.833736 
L 196.008125 -114.221631 
L 194.11625 -112.6596 
L 192.224375 -111.509232 
L 190.3325 -111.492189 
L 188.440625 -109.469447 
L 186.54875 -109.899253 
L 184.656875 -111.402907 
L 182.765 -111.175293 
L 180.873125 -109.628937 
L 178.98125 -108.387864 
L 177.089375 -107.535477 
L 175.1975 -108.072925 
L 173.305625 -105.928287 
L 171.41375 -105.586236 
L 169.521875 -104.24058 
L 167.63 -104.814794 
L 165.738125 -106.372846 
L 163.84625 -105.851666 
L 161.954375 -107.101568 
L 160.0625 -108.135469 
L 158.170625 -109.38347 
L 156.27875 -109.793964 
L 154.386875 -111.56228 
L 152.495 -113.5269 
L 150.603125 -115.671862 
L 148.71125 -119.836984 
L 146.819375 -120.679882 
L 144.9275 -123.462141 
L 143.035625 -124.925131 
L 141.14375 -126.628354 
L 139.251875 -126.323397 
L 137.36 -123.81682 
L 135.468125 -125.00098 
L 133.57625 -121.782735 
L 131.684375 -120.10322 
L 129.7925 -118.637257 
L 127.900625 -115.992148 
L 126.00875 -113.800325 
L 124.116875 -111.894659 
L 122.225 -112.070559 
L 120.333125 -113.398125 
L 118.44125 -115.043284 
L 116.549375 -118.612834 
L 114.6575 -122.062705 
L 112.765625 -126.565395 
L 110.87375 -128.71336 
L 108.981875 -128.865436 
L 107.09 -128.487675 
L 105.198125 -131.514565 
L 103.30625 -129.030008 
L 101.414375 -128.494989 
L 99.5225 -128.286073 
L 97.630625 -130.690645 
L 95.73875 -131.997974 
L 93.846875 -127.943623 
L 91.955 -129.855238 
L 90.063125 -131.525775 
L 88.17125 -133.994231 
L 86.279375 -133.3756 
L 84.3875 -132.418243 
L 82.495625 -134.246767 
L 80.60375 -135.19539 
L 78.711875 -135.568083 
L 76.82 -132.909151 
L 74.928125 -135.060452 
L 73.03625 -136.337015 
L 71.144375 -135.213884 
L 69.2525 -134.276674 
L 67.360625 -132.704172 
L 65.46875 -132.606502 
L 63.576875 -129.718035 
L 61.685 -127.1159 
L 59.793125 -126.136717 
L 57.90125 -122.882443 
L 56.009375 -119.590348 
L 54.1175 -121.124146 
L 52.225625 -120.1899 
L 50.33375 -119.502173 
L 48.441875 -118.405138 
L 46.55 -118.586239 
z
" id="m49128f951e" style="stroke:#000000;"/>
    </defs>
    <g clip-path="url(#p7ec266858d)">
     <use style="stroke:#000000;" x="0" xlink:href="#m49128f951e" y="216"/>
    </g>
   </g>
   <g id="PolyCollection_2">
    <defs>
     <path d="M 46.55 -120.33735 
L 46.55 -115.07989 
L 48.441875 -115.390429 
L 50.33375 -115.842768 
L 52.225625 -116.768959 
L 54.1175 -118.209751 
L 56.009375 -118.033887 
L 57.90125 -117.622883 
L 59.793125 -119.519612 
L 61.685 -121.522599 
L 63.576875 -123.501753 
L 65.46875 -126.168638 
L 67.360625 -128.133849 
L 69.2525 -131.439442 
L 71.144375 -130.895077 
L 73.03625 -131.106815 
L 74.928125 -132.27145 
L 76.82 -133.892 
L 78.711875 -134.776417 
L 80.60375 -134.464484 
L 82.495625 -135.800022 
L 84.3875 -133.035839 
L 86.279375 -132.302736 
L 88.17125 -130.894107 
L 90.063125 -131.72227 
L 91.955 -132.30392 
L 93.846875 -128.583602 
L 95.73875 -127.291776 
L 97.630625 -123.810355 
L 99.5225 -118.988251 
L 101.414375 -114.267218 
L 103.30625 -108.502724 
L 105.198125 -105.808742 
L 107.09 -100.089257 
L 108.981875 -99.170309 
L 110.87375 -99.921156 
L 112.765625 -100.523571 
L 114.6575 -99.634323 
L 116.549375 -100.491661 
L 118.44125 -102.181725 
L 120.333125 -101.887333 
L 122.225 -102.539811 
L 124.116875 -104.035162 
L 126.00875 -106.997637 
L 127.900625 -110.322158 
L 129.7925 -113.986546 
L 131.684375 -118.497846 
L 133.57625 -121.095302 
L 135.468125 -122.726753 
L 137.36 -125.889214 
L 139.251875 -128.148424 
L 141.14375 -130.751311 
L 143.035625 -131.70647 
L 144.9275 -134.146292 
L 146.819375 -132.15095 
L 148.71125 -131.255862 
L 150.603125 -130.111745 
L 152.495 -129.423774 
L 154.386875 -128.040686 
L 156.27875 -122.98101 
L 158.170625 -121.720083 
L 160.0625 -115.364639 
L 161.954375 -110.689673 
L 163.84625 -105.017716 
L 165.738125 -99.298496 
L 167.63 -94.900327 
L 169.521875 -90.606957 
L 171.41375 -90.709944 
L 173.305625 -90.98587 
L 175.1975 -89.429609 
L 177.089375 -89.807882 
L 178.98125 -92.861813 
L 180.873125 -96.247175 
L 182.765 -97.438595 
L 184.656875 -98.523334 
L 186.54875 -101.370358 
L 188.440625 -104.133714 
L 190.3325 -103.933338 
L 192.224375 -105.644988 
L 194.11625 -108.388503 
L 196.008125 -109.377669 
L 197.9 -109.661863 
L 199.791875 -109.905086 
L 201.68375 -111.407789 
L 203.575625 -113.875596 
L 205.4675 -113.183094 
L 207.359375 -114.477105 
L 209.25125 -115.570598 
L 211.143125 -115.171102 
L 213.035 -116.553373 
L 214.926875 -115.087462 
L 216.81875 -116.040402 
L 216.81875 -121.506722 
L 216.81875 -121.506722 
L 214.926875 -120.075095 
L 213.035 -121.773665 
L 211.143125 -120.190463 
L 209.25125 -120.10753 
L 207.359375 -118.573916 
L 205.4675 -116.97055 
L 203.575625 -117.764043 
L 201.68375 -116.163517 
L 199.791875 -114.95318 
L 197.9 -115.058561 
L 196.008125 -114.318575 
L 194.11625 -112.777504 
L 192.224375 -109.714817 
L 190.3325 -108.173714 
L 188.440625 -108.818283 
L 186.54875 -106.182442 
L 184.656875 -102.310322 
L 182.765 -101.775667 
L 180.873125 -100.819703 
L 178.98125 -97.236528 
L 177.089375 -94.861276 
L 175.1975 -94.947278 
L 173.305625 -96.18173 
L 171.41375 -96.010329 
L 169.521875 -96.619112 
L 167.63 -101.904845 
L 165.738125 -106.034014 
L 163.84625 -111.533654 
L 161.954375 -117.506349 
L 160.0625 -121.530665 
L 158.170625 -127.507552 
L 156.27875 -128.203414 
L 154.386875 -133.214176 
L 152.495 -134.586099 
L 150.603125 -135.099383 
L 148.71125 -135.566927 
L 146.819375 -136.356758 
L 144.9275 -137.793778 
L 143.035625 -135.336508 
L 141.14375 -134.072447 
L 139.251875 -132.307367 
L 137.36 -129.86593 
L 135.468125 -126.743279 
L 133.57625 -124.813769 
L 131.684375 -121.479723 
L 129.7925 -117.498949 
L 127.900625 -113.697141 
L 126.00875 -110.709853 
L 124.116875 -107.752116 
L 122.225 -106.637273 
L 120.333125 -106.496119 
L 118.44125 -106.87614 
L 116.549375 -105.513769 
L 114.6575 -105.247354 
L 112.765625 -106.438087 
L 110.87375 -105.763769 
L 108.981875 -105.055485 
L 107.09 -106.667818 
L 105.198125 -111.563621 
L 103.30625 -113.941219 
L 101.414375 -119.509089 
L 99.5225 -124.64185 
L 97.630625 -130.431321 
L 95.73875 -134.074275 
L 93.846875 -133.940023 
L 91.955 -137.642519 
L 90.063125 -138.203961 
L 88.17125 -138.091825 
L 86.279375 -138.754136 
L 84.3875 -139.371922 
L 82.495625 -140.520808 
L 80.60375 -138.666077 
L 78.711875 -138.536452 
L 76.82 -138.10635 
L 74.928125 -136.677889 
L 73.03625 -135.533013 
L 71.144375 -134.982342 
L 69.2525 -135.306279 
L 67.360625 -131.660241 
L 65.46875 -130.51122 
L 63.576875 -128.322395 
L 61.685 -127.615664 
L 59.793125 -124.723279 
L 57.90125 -122.381632 
L 56.009375 -122.167058 
L 54.1175 -121.941635 
L 52.225625 -121.1818 
L 50.33375 -120.354976 
L 48.441875 -120.633935 
L 46.55 -120.33735 
z
" id="mb0b8ae649f" style="stroke:#00bfbf;"/>
    </defs>
    <g clip-path="url(#p7ec266858d)">
     <use style="fill:#00bfbf;stroke:#00bfbf;" x="0" xlink:href="#mb0b8ae649f" y="216"/>
    </g>
   </g>
   <g id="matplotlib.axis_1">
    <g id="xtick_1">
     <g id="line2d_1">
      <defs>
       <path d="M 0 0 
L 0 3.5 
" id="mfa8bb41486" style="stroke:#000000;stroke-width:0.8;"/>
      </defs>
      <g>
       <use style="stroke:#000000;stroke-width:0.8;" x="46.55" xlink:href="#mfa8bb41486" y="170.2"/>
      </g>
     </g>
     <g id="text_1">
      <!-- −90 -->
      <g transform="translate(35.997656 184.798438)scale(0.1 -0.1)">
       <defs>
        <path d="M 10.59375 35.5 
L 73.1875 35.5 
L 73.1875 27.203125 
L 10.59375 27.203125 
z
" id="DejaVuSans-8722"/>
        <path d="M 10.984375 1.515625 
L 10.984375 10.5 
Q 14.703125 8.734375 18.5 7.8125 
Q 22.3125 6.890625 25.984375 6.890625 
Q 35.75 6.890625 40.890625 13.453125 
Q 46.046875 20.015625 46.78125 33.40625 
Q 43.953125 29.203125 39.59375 26.953125 
Q 35.25 24.703125 29.984375 24.703125 
Q 19.046875 24.703125 12.671875 31.3125 
Q 6.296875 37.9375 6.296875 49.421875 
Q 6.296875 60.640625 12.9375 67.421875 
Q 19.578125 74.21875 30.609375 74.21875 
Q 43.265625 74.21875 49.921875 64.515625 
Q 56.59375 54.828125 56.59375 36.375 
Q 56.59375 19.140625 48.40625 8.859375 
Q 40.234375 -1.421875 26.421875 -1.421875 
Q 22.703125 -1.421875 18.890625 -0.6875 
Q 15.09375 0.046875 10.984375 1.515625 
z
M 30.609375 32.421875 
Q 37.25 32.421875 41.125 36.953125 
Q 45.015625 41.5 45.015625 49.421875 
Q 45.015625 57.28125 41.125 61.84375 
Q 37.25 66.40625 30.609375 66.40625 
Q 23.96875 66.40625 20.09375 61.84375 
Q 16.21875 57.28125 16.21875 49.421875 
Q 16.21875 41.5 20.09375 36.953125 
Q 23.96875 32.421875 30.609375 32.421875 
z
" id="DejaVuSans-57"/>
        <path d="M 31.78125 66.40625 
Q 24.171875 66.40625 20.328125 58.90625 
Q 16.5 51.421875 16.5 36.375 
Q 16.5 21.390625 20.328125 13.890625 
Q 24.171875 6.390625 31.78125 6.390625 
Q 39.453125 6.390625 43.28125 13.890625 
Q 47.125 21.390625 47.125 36.375 
Q 47.125 51.421875 43.28125 58.90625 
Q 39.453125 66.40625 31.78125 66.40625 
z
M 31.78125 74.21875 
Q 44.046875 74.21875 50.515625 64.515625 
Q 56.984375 54.828125 56.984375 36.375 
Q 56.984375 17.96875 50.515625 8.265625 
Q 44.046875 -1.421875 31.78125 -1.421875 
Q 19.53125 -1.421875 13.0625 8.265625 
Q 6.59375 17.96875 6.59375 36.375 
Q 6.59375 54.828125 13.0625 64.515625 
Q 19.53125 74.21875 31.78125 74.21875 
z
" id="DejaVuSans-48"/>
       </defs>
       <use xlink:href="#DejaVuSans-8722"/>
       <use x="83.789062" xlink:href="#DejaVuSans-57"/>
       <use x="147.412109" xlink:href="#DejaVuSans-48"/>
      </g>
     </g>
    </g>
    <g id="xtick_2">
     <g id="line2d_2">
      <g>
       <use style="stroke:#000000;stroke-width:0.8;" x="89.117188" xlink:href="#mfa8bb41486" y="170.2"/>
      </g>
     </g>
     <g id="text_2">
      <!-- −45 -->
      <g transform="translate(78.564844 184.798438)scale(0.1 -0.1)">
       <defs>
        <path d="M 37.796875 64.3125 
L 12.890625 25.390625 
L 37.796875 25.390625 
z
M 35.203125 72.90625 
L 47.609375 72.90625 
L 47.609375 25.390625 
L 58.015625 25.390625 
L 58.015625 17.1875 
L 47.609375 17.1875 
L 47.609375 0 
L 37.796875 0 
L 37.796875 17.1875 
L 4.890625 17.1875 
L 4.890625 26.703125 
z
" id="DejaVuSans-52"/>
        <path d="M 10.796875 72.90625 
L 49.515625 72.90625 
L 49.515625 64.59375 
L 19.828125 64.59375 
L 19.828125 46.734375 
Q 21.96875 47.46875 24.109375 47.828125 
Q 26.265625 48.1875 28.421875 48.1875 
Q 40.625 48.1875 47.75 41.5 
Q 54.890625 34.8125 54.890625 23.390625 
Q 54.890625 11.625 47.5625 5.09375 
Q 40.234375 -1.421875 26.90625 -1.421875 
Q 22.3125 -1.421875 17.546875 -0.640625 
Q 12.796875 0.140625 7.71875 1.703125 
L 7.71875 11.625 
Q 12.109375 9.234375 16.796875 8.0625 
Q 21.484375 6.890625 26.703125 6.890625 
Q 35.15625 6.890625 40.078125 11.328125 
Q 45.015625 15.765625 45.015625 23.390625 
Q 45.015625 31 40.078125 35.4375 
Q 35.15625 39.890625 26.703125 39.890625 
Q 22.75 39.890625 18.8125 39.015625 
Q 14.890625 38.140625 10.796875 36.28125 
z
" id="DejaVuSans-53"/>
       </defs>
       <use xlink:href="#DejaVuSans-8722"/>
       <use x="83.789062" xlink:href="#DejaVuSans-52"/>
       <use x="147.412109" xlink:href="#DejaVuSans-53"/>
      </g>
     </g>
    </g>
    <g id="xtick_3">
     <g id="line2d_3">
      <g>
       <use style="stroke:#000000;stroke-width:0.8;" x="131.684375" xlink:href="#mfa8bb41486" y="170.2"/>
      </g>
     </g>
     <g id="text_3">
      <!-- 0 -->
      <g transform="translate(128.503125 184.798438)scale(0.1 -0.1)">
       <use xlink:href="#DejaVuSans-48"/>
      </g>
     </g>
    </g>
    <g id="xtick_4">
     <g id="line2d_4">
      <g>
       <use style="stroke:#000000;stroke-width:0.8;" x="174.251562" xlink:href="#mfa8bb41486" y="170.2"/>
      </g>
     </g>
     <g id="text_4">
      <!-- 45 -->
      <g transform="translate(167.889062 184.798438)scale(0.1 -0.1)">
       <use xlink:href="#DejaVuSans-52"/>
       <use x="63.623047" xlink:href="#DejaVuSans-53"/>
      </g>
     </g>
    </g>
    <g id="xtick_5">
     <g id="line2d_5">
      <g>
       <use style="stroke:#000000;stroke-width:0.8;" x="216.81875" xlink:href="#mfa8bb41486" y="170.2"/>
      </g>
     </g>
     <g id="text_5">
      <!-- 90 -->
      <g transform="translate(210.45625 184.798438)scale(0.1 -0.1)">
       <use xlink:href="#DejaVuSans-57"/>
       <use x="63.623047" xlink:href="#DejaVuSans-48"/>
      </g>
     </g>
    </g>
    <g id="text_6">
     <!-- $\Delta \theta$ (deg) -->
     <g transform="translate(110.284375 198.578125)scale(0.1 -0.1)">
      <defs>
       <path d="M 34.1875 63.1875 
L 14.15625 8.203125 
L 54.25 8.203125 
z
M 0.78125 0 
L 28.609375 72.90625 
L 39.796875 72.90625 
L 67.578125 0 
z
" id="DejaVuSans-916"/>
       <path d="M 45.515625 34.671875 
L 14.453125 34.671875 
Q 12.359375 20.0625 14.5 13.875 
Q 17.1875 6.25 24.46875 6.25 
Q 31.78125 6.25 37.359375 13.921875 
Q 42.234375 20.65625 45.515625 34.671875 
z
M 47.015625 42.96875 
Q 48.34375 56.84375 46.625 61.71875 
Q 43.953125 69.4375 36.765625 69.4375 
Q 29.296875 69.4375 23.828125 61.8125 
Q 19.53125 55.671875 16.15625 42.96875 
z
M 38.1875 76.765625 
Q 49.90625 76.765625 54.59375 66.40625 
Q 59.28125 56.109375 55.71875 37.84375 
Q 52.203125 19.625 43.453125 9.28125 
Q 34.765625 -1.125 23.046875 -1.125 
Q 11.28125 -1.125 6.640625 9.28125 
Q 2 19.625 5.515625 37.84375 
Q 9.078125 56.109375 17.71875 66.40625 
Q 26.421875 76.765625 38.1875 76.765625 
z
" id="DejaVuSans-Oblique-952"/>
       <path id="DejaVuSans-32"/>
       <path d="M 31 75.875 
Q 24.46875 64.65625 21.28125 53.65625 
Q 18.109375 42.671875 18.109375 31.390625 
Q 18.109375 20.125 21.3125 9.0625 
Q 24.515625 -2 31 -13.1875 
L 23.1875 -13.1875 
Q 15.875 -1.703125 12.234375 9.375 
Q 8.59375 20.453125 8.59375 31.390625 
Q 8.59375 42.28125 12.203125 53.3125 
Q 15.828125 64.359375 23.1875 75.875 
z
" id="DejaVuSans-40"/>
       <path d="M 45.40625 46.390625 
L 45.40625 75.984375 
L 54.390625 75.984375 
L 54.390625 0 
L 45.40625 0 
L 45.40625 8.203125 
Q 42.578125 3.328125 38.25 0.953125 
Q 33.9375 -1.421875 27.875 -1.421875 
Q 17.96875 -1.421875 11.734375 6.484375 
Q 5.515625 14.40625 5.515625 27.296875 
Q 5.515625 40.1875 11.734375 48.09375 
Q 17.96875 56 27.875 56 
Q 33.9375 56 38.25 53.625 
Q 42.578125 51.265625 45.40625 46.390625 
z
M 14.796875 27.296875 
Q 14.796875 17.390625 18.875 11.75 
Q 22.953125 6.109375 30.078125 6.109375 
Q 37.203125 6.109375 41.296875 11.75 
Q 45.40625 17.390625 45.40625 27.296875 
Q 45.40625 37.203125 41.296875 42.84375 
Q 37.203125 48.484375 30.078125 48.484375 
Q 22.953125 48.484375 18.875 42.84375 
Q 14.796875 37.203125 14.796875 27.296875 
z
" id="DejaVuSans-100"/>
       <path d="M 56.203125 29.59375 
L 56.203125 25.203125 
L 14.890625 25.203125 
Q 15.484375 15.921875 20.484375 11.0625 
Q 25.484375 6.203125 34.421875 6.203125 
Q 39.59375 6.203125 44.453125 7.46875 
Q 49.3125 8.734375 54.109375 11.28125 
L 54.109375 2.78125 
Q 49.265625 0.734375 44.1875 -0.34375 
Q 39.109375 -1.421875 33.890625 -1.421875 
Q 20.796875 -1.421875 13.15625 6.1875 
Q 5.515625 13.8125 5.515625 26.8125 
Q 5.515625 40.234375 12.765625 48.109375 
Q 20.015625 56 32.328125 56 
Q 43.359375 56 49.78125 48.890625 
Q 56.203125 41.796875 56.203125 29.59375 
z
M 47.21875 32.234375 
Q 47.125 39.59375 43.09375 43.984375 
Q 39.0625 48.390625 32.421875 48.390625 
Q 24.90625 48.390625 20.390625 44.140625 
Q 15.875 39.890625 15.1875 32.171875 
z
" id="DejaVuSans-101"/>
       <path d="M 45.40625 27.984375 
Q 45.40625 37.75 41.375 43.109375 
Q 37.359375 48.484375 30.078125 48.484375 
Q 22.859375 48.484375 18.828125 43.109375 
Q 14.796875 37.75 14.796875 27.984375 
Q 14.796875 18.265625 18.828125 12.890625 
Q 22.859375 7.515625 30.078125 7.515625 
Q 37.359375 7.515625 41.375 12.890625 
Q 45.40625 18.265625 45.40625 27.984375 
z
M 54.390625 6.78125 
Q 54.390625 -7.171875 48.1875 -13.984375 
Q 42 -20.796875 29.203125 -20.796875 
Q 24.46875 -20.796875 20.265625 -20.09375 
Q 16.0625 -19.390625 12.109375 -17.921875 
L 12.109375 -9.1875 
Q 16.0625 -11.328125 19.921875 -12.34375 
Q 23.78125 -13.375 27.78125 -13.375 
Q 36.625 -13.375 41.015625 -8.765625 
Q 45.40625 -4.15625 45.40625 5.171875 
L 45.40625 9.625 
Q 42.625 4.78125 38.28125 2.390625 
Q 33.9375 0 27.875 0 
Q 17.828125 0 11.671875 7.65625 
Q 5.515625 15.328125 5.515625 27.984375 
Q 5.515625 40.671875 11.671875 48.328125 
Q 17.828125 56 27.875 56 
Q 33.9375 56 38.28125 53.609375 
Q 42.625 51.21875 45.40625 46.390625 
L 45.40625 54.6875 
L 54.390625 54.6875 
z
" id="DejaVuSans-103"/>
       <path d="M 8.015625 75.875 
L 15.828125 75.875 
Q 23.140625 64.359375 26.78125 53.3125 
Q 30.421875 42.28125 30.421875 31.390625 
Q 30.421875 20.453125 26.78125 9.375 
Q 23.140625 -1.703125 15.828125 -13.1875 
L 8.015625 -13.1875 
Q 14.5 -2 17.703125 9.0625 
Q 20.90625 20.125 20.90625 31.390625 
Q 20.90625 42.671875 17.703125 53.65625 
Q 14.5 64.65625 8.015625 75.875 
z
" id="DejaVuSans-41"/>
      </defs>
      <use transform="translate(0 0.234375)" xlink:href="#DejaVuSans-916"/>
      <use transform="translate(68.408203 0.234375)" xlink:href="#DejaVuSans-Oblique-952"/>
      <use transform="translate(129.589844 0.234375)" xlink:href="#DejaVuSans-32"/>
      <use transform="translate(161.376953 0.234375)" xlink:href="#DejaVuSans-40"/>
      <use transform="translate(200.390625 0.234375)" xlink:href="#DejaVuSans-100"/>
      <use transform="translate(263.867188 0.234375)" xlink:href="#DejaVuSans-101"/>
      <use transform="translate(325.390625 0.234375)" xlink:href="#DejaVuSans-103"/>
      <use transform="translate(388.867188 0.234375)" xlink:href="#DejaVuSans-41"/>
     </g>
    </g>
   </g>
   <g id="matplotlib.axis_2">
    <g id="ytick_1">
     <g id="line2d_6">
      <defs>
       <path d="M 0 0 
L -3.5 0 
" id="mf27ac815d3" style="stroke:#000000;stroke-width:0.8;"/>
      </defs>
      <g>
       <use style="stroke:#000000;stroke-width:0.8;" x="46.55" xlink:href="#mf27ac815d3" y="153.128571"/>
      </g>
     </g>
     <g id="text_7">
      <!-- −8 -->
      <g transform="translate(24.807812 156.92779)scale(0.1 -0.1)">
       <defs>
        <path d="M 31.78125 34.625 
Q 24.75 34.625 20.71875 30.859375 
Q 16.703125 27.09375 16.703125 20.515625 
Q 16.703125 13.921875 20.71875 10.15625 
Q 24.75 6.390625 31.78125 6.390625 
Q 38.8125 6.390625 42.859375 10.171875 
Q 46.921875 13.96875 46.921875 20.515625 
Q 46.921875 27.09375 42.890625 30.859375 
Q 38.875 34.625 31.78125 34.625 
z
M 21.921875 38.8125 
Q 15.578125 40.375 12.03125 44.71875 
Q 8.5 49.078125 8.5 55.328125 
Q 8.5 64.0625 14.71875 69.140625 
Q 20.953125 74.21875 31.78125 74.21875 
Q 42.671875 74.21875 48.875 69.140625 
Q 55.078125 64.0625 55.078125 55.328125 
Q 55.078125 49.078125 51.53125 44.71875 
Q 48 40.375 41.703125 38.8125 
Q 48.828125 37.15625 52.796875 32.3125 
Q 56.78125 27.484375 56.78125 20.515625 
Q 56.78125 9.90625 50.3125 4.234375 
Q 43.84375 -1.421875 31.78125 -1.421875 
Q 19.734375 -1.421875 13.25 4.234375 
Q 6.78125 9.90625 6.78125 20.515625 
Q 6.78125 27.484375 10.78125 32.3125 
Q 14.796875 37.15625 21.921875 38.8125 
z
M 18.3125 54.390625 
Q 18.3125 48.734375 21.84375 45.5625 
Q 25.390625 42.390625 31.78125 42.390625 
Q 38.140625 42.390625 41.71875 45.5625 
Q 45.3125 48.734375 45.3125 54.390625 
Q 45.3125 60.0625 41.71875 63.234375 
Q 38.140625 66.40625 31.78125 66.40625 
Q 25.390625 66.40625 21.84375 63.234375 
Q 18.3125 60.0625 18.3125 54.390625 
z
" id="DejaVuSans-56"/>
       </defs>
       <use xlink:href="#DejaVuSans-8722"/>
       <use x="83.789062" xlink:href="#DejaVuSans-56"/>
      </g>
     </g>
    </g>
    <g id="ytick_2">
     <g id="line2d_7">
      <g>
       <use style="stroke:#000000;stroke-width:0.8;" x="46.55" xlink:href="#mf27ac815d3" y="125.814286"/>
      </g>
     </g>
     <g id="text_8">
      <!-- −4 -->
      <g transform="translate(24.807812 129.613504)scale(0.1 -0.1)">
       <use xlink:href="#DejaVuSans-8722"/>
       <use x="83.789062" xlink:href="#DejaVuSans-52"/>
      </g>
     </g>
    </g>
    <g id="ytick_3">
     <g id="line2d_8">
      <g>
       <use style="stroke:#000000;stroke-width:0.8;" x="46.55" xlink:href="#mf27ac815d3" y="98.5"/>
      </g>
     </g>
     <g id="text_9">
      <!-- 0 -->
      <g transform="translate(33.1875 102.299219)scale(0.1 -0.1)">
       <use xlink:href="#DejaVuSans-48"/>
      </g>
     </g>
    </g>
    <g id="ytick_4">
     <g id="line2d_9">
      <g>
       <use style="stroke:#000000;stroke-width:0.8;" x="46.55" xlink:href="#mf27ac815d3" y="71.185714"/>
      </g>
     </g>
     <g id="text_10">
      <!-- 4 -->
      <g transform="translate(33.1875 74.984933)scale(0.1 -0.1)">
       <use xlink:href="#DejaVuSans-52"/>
      </g>
     </g>
    </g>
    <g id="ytick_5">
     <g id="line2d_10">
      <g>
       <use style="stroke:#000000;stroke-width:0.8;" x="46.55" xlink:href="#mf27ac815d3" y="43.871429"/>
      </g>
     </g>
     <g id="text_11">
      <!-- 8 -->
      <g transform="translate(33.1875 47.670647)scale(0.1 -0.1)">
       <use xlink:href="#DejaVuSans-56"/>
      </g>
     </g>
    </g>
    <g id="text_12">
     <!-- Bias (deg) -->
     <g transform="translate(18.728125 123.903906)rotate(-90)scale(0.1 -0.1)">
      <defs>
       <path d="M 19.671875 34.8125 
L 19.671875 8.109375 
L 35.5 8.109375 
Q 43.453125 8.109375 47.28125 11.40625 
Q 51.125 14.703125 51.125 21.484375 
Q 51.125 28.328125 47.28125 31.5625 
Q 43.453125 34.8125 35.5 34.8125 
z
M 19.671875 64.796875 
L 19.671875 42.828125 
L 34.28125 42.828125 
Q 41.5 42.828125 45.03125 45.53125 
Q 48.578125 48.25 48.578125 53.8125 
Q 48.578125 59.328125 45.03125 62.0625 
Q 41.5 64.796875 34.28125 64.796875 
z
M 9.8125 72.90625 
L 35.015625 72.90625 
Q 46.296875 72.90625 52.390625 68.21875 
Q 58.5 63.53125 58.5 54.890625 
Q 58.5 48.1875 55.375 44.234375 
Q 52.25 40.28125 46.1875 39.3125 
Q 53.46875 37.75 57.5 32.78125 
Q 61.53125 27.828125 61.53125 20.40625 
Q 61.53125 10.640625 54.890625 5.3125 
Q 48.25 0 35.984375 0 
L 9.8125 0 
z
" id="DejaVuSans-66"/>
       <path d="M 9.421875 54.6875 
L 18.40625 54.6875 
L 18.40625 0 
L 9.421875 0 
z
M 9.421875 75.984375 
L 18.40625 75.984375 
L 18.40625 64.59375 
L 9.421875 64.59375 
z
" id="DejaVuSans-105"/>
       <path d="M 34.28125 27.484375 
Q 23.390625 27.484375 19.1875 25 
Q 14.984375 22.515625 14.984375 16.5 
Q 14.984375 11.71875 18.140625 8.90625 
Q 21.296875 6.109375 26.703125 6.109375 
Q 34.1875 6.109375 38.703125 11.40625 
Q 43.21875 16.703125 43.21875 25.484375 
L 43.21875 27.484375 
z
M 52.203125 31.203125 
L 52.203125 0 
L 43.21875 0 
L 43.21875 8.296875 
Q 40.140625 3.328125 35.546875 0.953125 
Q 30.953125 -1.421875 24.3125 -1.421875 
Q 15.921875 -1.421875 10.953125 3.296875 
Q 6 8.015625 6 15.921875 
Q 6 25.140625 12.171875 29.828125 
Q 18.359375 34.515625 30.609375 34.515625 
L 43.21875 34.515625 
L 43.21875 35.40625 
Q 43.21875 41.609375 39.140625 45 
Q 35.0625 48.390625 27.6875 48.390625 
Q 23 48.390625 18.546875 47.265625 
Q 14.109375 46.140625 10.015625 43.890625 
L 10.015625 52.203125 
Q 14.9375 54.109375 19.578125 55.046875 
Q 24.21875 56 28.609375 56 
Q 40.484375 56 46.34375 49.84375 
Q 52.203125 43.703125 52.203125 31.203125 
z
" id="DejaVuSans-97"/>
       <path d="M 44.28125 53.078125 
L 44.28125 44.578125 
Q 40.484375 46.53125 36.375 47.5 
Q 32.28125 48.484375 27.875 48.484375 
Q 21.1875 48.484375 17.84375 46.4375 
Q 14.5 44.390625 14.5 40.28125 
Q 14.5 37.15625 16.890625 35.375 
Q 19.28125 33.59375 26.515625 31.984375 
L 29.59375 31.296875 
Q 39.15625 29.25 43.1875 25.515625 
Q 47.21875 21.78125 47.21875 15.09375 
Q 47.21875 7.46875 41.1875 3.015625 
Q 35.15625 -1.421875 24.609375 -1.421875 
Q 20.21875 -1.421875 15.453125 -0.5625 
Q 10.6875 0.296875 5.421875 2 
L 5.421875 11.28125 
Q 10.40625 8.6875 15.234375 7.390625 
Q 20.0625 6.109375 24.8125 6.109375 
Q 31.15625 6.109375 34.5625 8.28125 
Q 37.984375 10.453125 37.984375 14.40625 
Q 37.984375 18.0625 35.515625 20.015625 
Q 33.0625 21.96875 24.703125 23.78125 
L 21.578125 24.515625 
Q 13.234375 26.265625 9.515625 29.90625 
Q 5.8125 33.546875 5.8125 39.890625 
Q 5.8125 47.609375 11.28125 51.796875 
Q 16.75 56 26.8125 56 
Q 31.78125 56 36.171875 55.265625 
Q 40.578125 54.546875 44.28125 53.078125 
z
" id="DejaVuSans-115"/>
      </defs>
      <use xlink:href="#DejaVuSans-66"/>
      <use x="68.603516" xlink:href="#DejaVuSans-105"/>
      <use x="96.386719" xlink:href="#DejaVuSans-97"/>
      <use x="157.666016" xlink:href="#DejaVuSans-115"/>
      <use x="209.765625" xlink:href="#DejaVuSans-32"/>
      <use x="241.552734" xlink:href="#DejaVuSans-40"/>
      <use x="280.566406" xlink:href="#DejaVuSans-100"/>
      <use x="344.042969" xlink:href="#DejaVuSans-101"/>
      <use x="405.566406" xlink:href="#DejaVuSans-103"/>
      <use x="469.042969" xlink:href="#DejaVuSans-41"/>
     </g>
    </g>
   </g>
   <g id="line2d_11">
    <path clip-path="url(#p7ec266858d)" d="M 46.55 98.5 
L 216.81875 98.5 
" style="fill:none;stroke:#000000;stroke-dasharray:5.55,2.4;stroke-dashoffset:0;stroke-width:1.5;"/>
   </g>
   <g id="line2d_12">
    <path clip-path="url(#p7ec266858d)" d="M 131.684375 170.2 
L 131.684375 26.8 
" style="fill:none;stroke:#0000ff;stroke-dasharray:5.55,2.4;stroke-dashoffset:0;stroke-width:1.5;"/>
   </g>
   <g id="patch_3">
    <path d="M 46.55 170.2 
L 46.55 26.8 
" style="fill:none;stroke:#000000;stroke-linecap:square;stroke-linejoin:miter;stroke-width:0.8;"/>
   </g>
   <g id="patch_4">
    <path d="M 216.81875 170.2 
L 216.81875 26.8 
" style="fill:none;stroke:#000000;stroke-linecap:square;stroke-linejoin:miter;stroke-width:0.8;"/>
   </g>
   <g id="patch_5">
    <path d="M 46.55 170.2 
L 216.81875 170.2 
" style="fill:none;stroke:#000000;stroke-linecap:square;stroke-linejoin:miter;stroke-width:0.8;"/>
   </g>
   <g id="patch_6">
    <path d="M 46.55 26.8 
L 216.81875 26.8 
" style="fill:none;stroke:#000000;stroke-linecap:square;stroke-linejoin:miter;stroke-width:0.8;"/>
   </g>
   <g id="text_13">
    <!-- *** -->
    <g transform="translate(188.440625 40.457143)scale(0.1 -0.1)">
     <defs>
      <path d="M 47.015625 60.890625 
L 29.5 51.421875 
L 47.015625 41.890625 
L 44.1875 37.109375 
L 27.78125 47.015625 
L 27.78125 28.609375 
L 22.21875 28.609375 
L 22.21875 47.015625 
L 5.8125 37.109375 
L 2.984375 41.890625 
L 20.515625 51.421875 
L 2.984375 60.890625 
L 5.8125 65.71875 
L 22.21875 55.8125 
L 22.21875 74.21875 
L 27.78125 74.21875 
L 27.78125 55.8125 
L 44.1875 65.71875 
z
" id="DejaVuSans-42"/>
     </defs>
     <use xlink:href="#DejaVuSans-42"/>
     <use x="50" xlink:href="#DejaVuSans-42"/>
     <use x="100" xlink:href="#DejaVuSans-42"/>
    </g>
   </g>
   <g id="text_14">
    <!-- R*** -->
    <g style="fill:#bf00bf;" transform="translate(188.440625 54.114286)scale(0.1 -0.1)">
     <defs>
      <path d="M 44.390625 34.1875 
Q 47.5625 33.109375 50.5625 29.59375 
Q 53.5625 26.078125 56.59375 19.921875 
L 66.609375 0 
L 56 0 
L 46.6875 18.703125 
Q 43.0625 26.03125 39.671875 28.421875 
Q 36.28125 30.8125 30.421875 30.8125 
L 19.671875 30.8125 
L 19.671875 0 
L 9.8125 0 
L 9.8125 72.90625 
L 32.078125 72.90625 
Q 44.578125 72.90625 50.734375 67.671875 
Q 56.890625 62.453125 56.890625 51.90625 
Q 56.890625 45.015625 53.6875 40.46875 
Q 50.484375 35.9375 44.390625 34.1875 
z
M 19.671875 64.796875 
L 19.671875 38.921875 
L 32.078125 38.921875 
Q 39.203125 38.921875 42.84375 42.21875 
Q 46.484375 45.515625 46.484375 51.90625 
Q 46.484375 58.296875 42.84375 61.546875 
Q 39.203125 64.796875 32.078125 64.796875 
z
" id="DejaVuSans-82"/>
     </defs>
     <use xlink:href="#DejaVuSans-82"/>
     <use x="69.482422" xlink:href="#DejaVuSans-42"/>
     <use x="119.482422" xlink:href="#DejaVuSans-42"/>
     <use x="169.482422" xlink:href="#DejaVuSans-42"/>
    </g>
   </g>
   <g id="text_15">
    <!-- nb:-1 | Resp SD -->
    <g transform="translate(85.372812 20.8)scale(0.12 -0.12)">
     <defs>
      <path d="M 54.890625 33.015625 
L 54.890625 0 
L 45.90625 0 
L 45.90625 32.71875 
Q 45.90625 40.484375 42.875 44.328125 
Q 39.84375 48.1875 33.796875 48.1875 
Q 26.515625 48.1875 22.3125 43.546875 
Q 18.109375 38.921875 18.109375 30.90625 
L 18.109375 0 
L 9.078125 0 
L 9.078125 54.6875 
L 18.109375 54.6875 
L 18.109375 46.1875 
Q 21.34375 51.125 25.703125 53.5625 
Q 30.078125 56 35.796875 56 
Q 45.21875 56 50.046875 50.171875 
Q 54.890625 44.34375 54.890625 33.015625 
z
" id="DejaVuSans-110"/>
      <path d="M 48.6875 27.296875 
Q 48.6875 37.203125 44.609375 42.84375 
Q 40.53125 48.484375 33.40625 48.484375 
Q 26.265625 48.484375 22.1875 42.84375 
Q 18.109375 37.203125 18.109375 27.296875 
Q 18.109375 17.390625 22.1875 11.75 
Q 26.265625 6.109375 33.40625 6.109375 
Q 40.53125 6.109375 44.609375 11.75 
Q 48.6875 17.390625 48.6875 27.296875 
z
M 18.109375 46.390625 
Q 20.953125 51.265625 25.265625 53.625 
Q 29.59375 56 35.59375 56 
Q 45.5625 56 51.78125 48.09375 
Q 58.015625 40.1875 58.015625 27.296875 
Q 58.015625 14.40625 51.78125 6.484375 
Q 45.5625 -1.421875 35.59375 -1.421875 
Q 29.59375 -1.421875 25.265625 0.953125 
Q 20.953125 3.328125 18.109375 8.203125 
L 18.109375 0 
L 9.078125 0 
L 9.078125 75.984375 
L 18.109375 75.984375 
z
" id="DejaVuSans-98"/>
      <path d="M 11.71875 12.40625 
L 22.015625 12.40625 
L 22.015625 0 
L 11.71875 0 
z
M 11.71875 51.703125 
L 22.015625 51.703125 
L 22.015625 39.3125 
L 11.71875 39.3125 
z
" id="DejaVuSans-58"/>
      <path d="M 4.890625 31.390625 
L 31.203125 31.390625 
L 31.203125 23.390625 
L 4.890625 23.390625 
z
" id="DejaVuSans-45"/>
      <path d="M 12.40625 8.296875 
L 28.515625 8.296875 
L 28.515625 63.921875 
L 10.984375 60.40625 
L 10.984375 69.390625 
L 28.421875 72.90625 
L 38.28125 72.90625 
L 38.28125 8.296875 
L 54.390625 8.296875 
L 54.390625 0 
L 12.40625 0 
z
" id="DejaVuSans-49"/>
      <path d="M 21 76.421875 
L 21 -23.578125 
L 12.703125 -23.578125 
L 12.703125 76.421875 
z
" id="DejaVuSans-124"/>
      <path d="M 18.109375 8.203125 
L 18.109375 -20.796875 
L 9.078125 -20.796875 
L 9.078125 54.6875 
L 18.109375 54.6875 
L 18.109375 46.390625 
Q 20.953125 51.265625 25.265625 53.625 
Q 29.59375 56 35.59375 56 
Q 45.5625 56 51.78125 48.09375 
Q 58.015625 40.1875 58.015625 27.296875 
Q 58.015625 14.40625 51.78125 6.484375 
Q 45.5625 -1.421875 35.59375 -1.421875 
Q 29.59375 -1.421875 25.265625 0.953125 
Q 20.953125 3.328125 18.109375 8.203125 
z
M 48.6875 27.296875 
Q 48.6875 37.203125 44.609375 42.84375 
Q 40.53125 48.484375 33.40625 48.484375 
Q 26.265625 48.484375 22.1875 42.84375 
Q 18.109375 37.203125 18.109375 27.296875 
Q 18.109375 17.390625 22.1875 11.75 
Q 26.265625 6.109375 33.40625 6.109375 
Q 40.53125 6.109375 44.609375 11.75 
Q 48.6875 17.390625 48.6875 27.296875 
z
" id="DejaVuSans-112"/>
      <path d="M 53.515625 70.515625 
L 53.515625 60.890625 
Q 47.90625 63.578125 42.921875 64.890625 
Q 37.9375 66.21875 33.296875 66.21875 
Q 25.25 66.21875 20.875 63.09375 
Q 16.5 59.96875 16.5 54.203125 
Q 16.5 49.359375 19.40625 46.890625 
Q 22.3125 44.4375 30.421875 42.921875 
L 36.375 41.703125 
Q 47.40625 39.59375 52.65625 34.296875 
Q 57.90625 29 57.90625 20.125 
Q 57.90625 9.515625 50.796875 4.046875 
Q 43.703125 -1.421875 29.984375 -1.421875 
Q 24.8125 -1.421875 18.96875 -0.25 
Q 13.140625 0.921875 6.890625 3.21875 
L 6.890625 13.375 
Q 12.890625 10.015625 18.65625 8.296875 
Q 24.421875 6.59375 29.984375 6.59375 
Q 38.421875 6.59375 43.015625 9.90625 
Q 47.609375 13.234375 47.609375 19.390625 
Q 47.609375 24.75 44.3125 27.78125 
Q 41.015625 30.8125 33.5 32.328125 
L 27.484375 33.5 
Q 16.453125 35.6875 11.515625 40.375 
Q 6.59375 45.0625 6.59375 53.421875 
Q 6.59375 63.09375 13.40625 68.65625 
Q 20.21875 74.21875 32.171875 74.21875 
Q 37.3125 74.21875 42.625 73.28125 
Q 47.953125 72.359375 53.515625 70.515625 
z
" id="DejaVuSans-83"/>
      <path d="M 19.671875 64.796875 
L 19.671875 8.109375 
L 31.59375 8.109375 
Q 46.6875 8.109375 53.6875 14.9375 
Q 60.6875 21.78125 60.6875 36.53125 
Q 60.6875 51.171875 53.6875 57.984375 
Q 46.6875 64.796875 31.59375 64.796875 
z
M 9.8125 72.90625 
L 30.078125 72.90625 
Q 51.265625 72.90625 61.171875 64.09375 
Q 71.09375 55.28125 71.09375 36.53125 
Q 71.09375 17.671875 61.125 8.828125 
Q 51.171875 0 30.078125 0 
L 9.8125 0 
z
" id="DejaVuSans-68"/>
     </defs>
     <use xlink:href="#DejaVuSans-110"/>
     <use x="63.378906" xlink:href="#DejaVuSans-98"/>
     <use x="126.855469" xlink:href="#DejaVuSans-58"/>
     <use x="160.546875" xlink:href="#DejaVuSans-45"/>
     <use x="196.630859" xlink:href="#DejaVuSans-49"/>
     <use x="260.253906" xlink:href="#DejaVuSans-32"/>
     <use x="292.041016" xlink:href="#DejaVuSans-124"/>
     <use x="325.732422" xlink:href="#DejaVuSans-32"/>
     <use x="357.519531" xlink:href="#DejaVuSans-82"/>
     <use x="422.501953" xlink:href="#DejaVuSans-101"/>
     <use x="484.025391" xlink:href="#DejaVuSans-115"/>
     <use x="536.125" xlink:href="#DejaVuSans-112"/>
     <use x="599.601562" xlink:href="#DejaVuSans-32"/>
     <use x="631.388672" xlink:href="#DejaVuSans-83"/>
     <use x="694.865234" xlink:href="#DejaVuSans-68"/>
    </g>
   </g>
  </g>
  <g id="axes_2">
   <g id="patch_7">
    <path d="M 244.55625 170.2 
L 414.825 170.2 
L 414.825 26.8 
L 244.55625 26.8 
z
" style="fill:#ffffff;"/>
   </g>
   <g id="PolyCollection_3">
    <defs>
     <path d="M 244.55625 -118.324003 
L 244.55625 -112.200865 
L 246.448125 -112.412317 
L 248.34 -113.526641 
L 250.231875 -114.365657 
L 252.12375 -115.025684 
L 254.015625 -115.419802 
L 255.9075 -118.121058 
L 257.799375 -121.234532 
L 259.69125 -122.292896 
L 261.583125 -124.695878 
L 263.475 -127.524533 
L 265.366875 -127.724594 
L 267.25875 -130.546117 
L 269.150625 -132.336695 
L 271.0425 -133.738291 
L 272.934375 -133.677109 
L 274.82625 -133.482935 
L 276.718125 -137.996803 
L 278.61 -138.165618 
L 280.501875 -138.57373 
L 282.39375 -139.133035 
L 284.285625 -141.199778 
L 286.1775 -143.211175 
L 288.069375 -141.680955 
L 289.96125 -142.582173 
L 291.853125 -143.287195 
L 293.745 -148.024813 
L 295.636875 -147.974778 
L 297.52875 -149.293629 
L 299.420625 -151.167216 
L 301.3125 -153.230293 
L 303.204375 -156.303269 
L 305.09625 -154.761806 
L 306.988125 -156.426589 
L 308.88 -156.177156 
L 310.771875 -153.857988 
L 312.66375 -151.324721 
L 314.555625 -147.477734 
L 316.4475 -144.333846 
L 318.339375 -140.609143 
L 320.23125 -136.699863 
L 322.123125 -133.453592 
L 324.015 -130.083251 
L 325.906875 -125.406101 
L 327.79875 -122.050347 
L 329.690625 -116.657012 
L 331.5825 -108.960471 
L 333.474375 -106.377962 
L 335.36625 -99.384923 
L 337.258125 -96.834711 
L 339.15 -92.581548 
L 341.041875 -87.489554 
L 342.93375 -85.788065 
L 344.825625 -81.516868 
L 346.7175 -79.548272 
L 348.609375 -76.284662 
L 350.50125 -74.65564 
L 352.393125 -74.044856 
L 354.285 -72.050801 
L 356.176875 -72.709666 
L 358.06875 -72.868214 
L 359.960625 -72.8985 
L 361.8525 -72.831787 
L 363.744375 -76.63939 
L 365.63625 -77.859913 
L 367.528125 -79.497326 
L 369.42 -82.24001 
L 371.311875 -85.415583 
L 373.20375 -90.132396 
L 375.095625 -91.392581 
L 376.9875 -95.238663 
L 378.879375 -97.429962 
L 380.77125 -99.371896 
L 382.663125 -101.531582 
L 384.555 -101.198888 
L 386.446875 -101.632645 
L 388.33875 -103.511041 
L 390.230625 -104.575005 
L 392.1225 -105.897629 
L 394.014375 -108.510022 
L 395.90625 -109.045983 
L 397.798125 -110.851103 
L 399.69 -110.903527 
L 401.581875 -111.966825 
L 403.47375 -113.285761 
L 405.365625 -111.573202 
L 407.2575 -113.504136 
L 409.149375 -115.890629 
L 411.04125 -115.576851 
L 412.933125 -114.052543 
L 414.825 -113.456506 
L 414.825 -118.81561 
L 414.825 -118.81561 
L 412.933125 -119.271714 
L 411.04125 -120.599321 
L 409.149375 -120.142137 
L 407.2575 -117.671761 
L 405.365625 -116.439634 
L 403.47375 -117.548498 
L 401.581875 -115.845516 
L 399.69 -115.055869 
L 397.798125 -114.610558 
L 395.90625 -113.759621 
L 394.014375 -112.615105 
L 392.1225 -110.751389 
L 390.230625 -109.145038 
L 388.33875 -108.142441 
L 386.446875 -105.766378 
L 384.555 -105.098648 
L 382.663125 -105.383569 
L 380.77125 -103.72713 
L 378.879375 -101.515318 
L 376.9875 -99.440211 
L 375.095625 -96.336842 
L 373.20375 -94.505658 
L 371.311875 -90.113242 
L 369.42 -86.915608 
L 367.528125 -83.70622 
L 365.63625 -81.750697 
L 363.744375 -80.639415 
L 361.8525 -77.671101 
L 359.960625 -77.816237 
L 358.06875 -77.697737 
L 356.176875 -77.41427 
L 354.285 -77.543126 
L 352.393125 -78.670019 
L 350.50125 -79.039719 
L 348.609375 -80.799788 
L 346.7175 -83.808842 
L 344.825625 -85.56908 
L 342.93375 -90.027132 
L 341.041875 -91.646834 
L 339.15 -96.895742 
L 337.258125 -101.57542 
L 335.36625 -103.981975 
L 333.474375 -110.536169 
L 331.5825 -113.494337 
L 329.690625 -121.191419 
L 327.79875 -126.786715 
L 325.906875 -129.667882 
L 324.015 -134.066987 
L 322.123125 -137.572708 
L 320.23125 -141.190921 
L 318.339375 -145.301333 
L 316.4475 -148.252589 
L 314.555625 -152.280807 
L 312.66375 -155.827578 
L 310.771875 -158.754365 
L 308.88 -160.616902 
L 306.988125 -160.559969 
L 305.09625 -158.671689 
L 303.204375 -160.197476 
L 301.3125 -157.066047 
L 299.420625 -155.380061 
L 297.52875 -153.39904 
L 295.636875 -152.184154 
L 293.745 -152.104065 
L 291.853125 -147.27443 
L 289.96125 -146.720042 
L 288.069375 -146.43522 
L 286.1775 -147.665528 
L 284.285625 -146.176885 
L 282.39375 -143.982879 
L 280.501875 -142.939481 
L 278.61 -142.457125 
L 276.718125 -142.035449 
L 274.82625 -137.589289 
L 272.934375 -138.426645 
L 271.0425 -138.74667 
L 269.150625 -136.571851 
L 267.25875 -135.141538 
L 265.366875 -133.029105 
L 263.475 -132.639666 
L 261.583125 -129.587037 
L 259.69125 -126.810205 
L 257.799375 -125.760178 
L 255.9075 -122.447433 
L 254.015625 -119.228293 
L 252.12375 -120.814168 
L 250.231875 -119.742386 
L 248.34 -118.981367 
L 246.448125 -118.166984 
L 244.55625 -118.324003 
z
" id="mcfaa8c022c" style="stroke:#000000;"/>
    </defs>
    <g clip-path="url(#p148fa37af6)">
     <use style="stroke:#000000;" x="0" xlink:href="#mcfaa8c022c" y="216"/>
    </g>
   </g>
   <g id="PolyCollection_4">
    <defs>
     <path d="M 244.55625 -122.835555 
L 244.55625 -117.175018 
L 246.448125 -117.385039 
L 248.34 -116.240046 
L 250.231875 -116.424549 
L 252.12375 -116.332996 
L 254.015625 -117.72697 
L 255.9075 -119.161721 
L 257.799375 -120.960143 
L 259.69125 -124.905692 
L 261.583125 -127.854668 
L 263.475 -130.557998 
L 265.366875 -131.147621 
L 267.25875 -133.304126 
L 269.150625 -132.940684 
L 271.0425 -133.917109 
L 272.934375 -134.132224 
L 274.82625 -134.535716 
L 276.718125 -136.058534 
L 278.61 -136.538984 
L 280.501875 -138.217831 
L 282.39375 -138.924658 
L 284.285625 -139.835287 
L 286.1775 -139.655046 
L 288.069375 -141.252986 
L 289.96125 -142.312771 
L 291.853125 -142.689901 
L 293.745 -141.964692 
L 295.636875 -143.115358 
L 297.52875 -143.082423 
L 299.420625 -143.831709 
L 301.3125 -143.255173 
L 303.204375 -145.242531 
L 305.09625 -145.292918 
L 306.988125 -145.722441 
L 308.88 -146.376614 
L 310.771875 -145.570853 
L 312.66375 -143.799242 
L 314.555625 -142.283161 
L 316.4475 -139.706217 
L 318.339375 -137.90288 
L 320.23125 -134.839042 
L 322.123125 -132.054781 
L 324.015 -131.084377 
L 325.906875 -125.826012 
L 327.79875 -122.929534 
L 329.690625 -118.686283 
L 331.5825 -115.756087 
L 333.474375 -110.294496 
L 335.36625 -105.51089 
L 337.258125 -102.22666 
L 339.15 -99.626765 
L 341.041875 -94.166184 
L 342.93375 -91.915275 
L 344.825625 -87.695884 
L 346.7175 -85.469454 
L 348.609375 -82.791745 
L 350.50125 -82.026237 
L 352.393125 -80.93928 
L 354.285 -79.627862 
L 356.176875 -81.007322 
L 358.06875 -78.519514 
L 359.960625 -79.482011 
L 361.8525 -78.442705 
L 363.744375 -78.675555 
L 365.63625 -80.564715 
L 367.528125 -81.173948 
L 369.42 -83.270669 
L 371.311875 -86.979632 
L 373.20375 -87.904558 
L 375.095625 -89.217807 
L 376.9875 -92.015387 
L 378.879375 -95.373692 
L 380.77125 -98.464096 
L 382.663125 -97.293891 
L 384.555 -99.935628 
L 386.446875 -101.183937 
L 388.33875 -100.989655 
L 390.230625 -103.361898 
L 392.1225 -104.234989 
L 394.014375 -105.638469 
L 395.90625 -107.31365 
L 397.798125 -108.964751 
L 399.69 -111.625749 
L 401.581875 -113.252367 
L 403.47375 -111.554732 
L 405.365625 -112.154816 
L 407.2575 -113.21853 
L 409.149375 -112.896338 
L 411.04125 -112.937625 
L 412.933125 -114.747981 
L 414.825 -117.006697 
L 414.825 -122.881212 
L 414.825 -122.881212 
L 412.933125 -119.586643 
L 411.04125 -117.704205 
L 409.149375 -117.368374 
L 407.2575 -117.457011 
L 405.365625 -116.325023 
L 403.47375 -115.646767 
L 401.581875 -117.41572 
L 399.69 -116.377856 
L 397.798125 -113.921741 
L 395.90625 -112.030201 
L 394.014375 -110.032927 
L 392.1225 -107.622507 
L 390.230625 -106.999375 
L 388.33875 -105.173965 
L 386.446875 -105.069517 
L 384.555 -104.423931 
L 382.663125 -101.94419 
L 380.77125 -103.13455 
L 378.879375 -99.441761 
L 376.9875 -96.413229 
L 375.095625 -93.782599 
L 373.20375 -92.089007 
L 371.311875 -91.570884 
L 369.42 -87.650248 
L 367.528125 -86.047506 
L 365.63625 -85.001868 
L 363.744375 -83.206621 
L 361.8525 -82.635221 
L 359.960625 -83.428406 
L 358.06875 -82.482289 
L 356.176875 -85.044826 
L 354.285 -83.653649 
L 352.393125 -85.150602 
L 350.50125 -85.910899 
L 348.609375 -86.844976 
L 346.7175 -89.668045 
L 344.825625 -91.554082 
L 342.93375 -95.905135 
L 341.041875 -98.626083 
L 339.15 -104.047892 
L 337.258125 -106.869138 
L 335.36625 -109.939879 
L 333.474375 -115.479852 
L 331.5825 -120.211259 
L 329.690625 -123.17395 
L 327.79875 -127.834672 
L 325.906875 -130.417408 
L 324.015 -135.939899 
L 322.123125 -136.980087 
L 320.23125 -139.911596 
L 318.339375 -143.025595 
L 316.4475 -143.86291 
L 314.555625 -146.418005 
L 312.66375 -148.329919 
L 310.771875 -150.181918 
L 308.88 -151.652054 
L 306.988125 -150.425771 
L 305.09625 -150.37401 
L 303.204375 -150.208011 
L 301.3125 -147.747494 
L 299.420625 -148.127681 
L 297.52875 -147.427993 
L 295.636875 -147.575093 
L 293.745 -146.504471 
L 291.853125 -146.233836 
L 289.96125 -146.332405 
L 288.069375 -145.741667 
L 286.1775 -144.929362 
L 284.285625 -144.818689 
L 282.39375 -143.870032 
L 280.501875 -142.531641 
L 278.61 -140.822921 
L 276.718125 -139.939461 
L 274.82625 -139.26259 
L 272.934375 -138.144359 
L 271.0425 -137.871226 
L 269.150625 -136.900289 
L 267.25875 -137.186442 
L 265.366875 -134.666723 
L 263.475 -134.567999 
L 261.583125 -132.623558 
L 259.69125 -130.730797 
L 257.799375 -126.304898 
L 255.9075 -123.447082 
L 254.015625 -121.936718 
L 252.12375 -120.055284 
L 250.231875 -120.586473 
L 248.34 -120.636353 
L 246.448125 -122.475867 
L 244.55625 -122.835555 
z
" id="m1a1e0ae81c" style="stroke:#00bfbf;"/>
    </defs>
    <g clip-path="url(#p148fa37af6)">
     <use style="fill:#00bfbf;stroke:#00bfbf;" x="0" xlink:href="#m1a1e0ae81c" y="216"/>
    </g>
   </g>
   <g id="matplotlib.axis_3">
    <g id="xtick_6">
     <g id="line2d_13">
      <g>
       <use style="stroke:#000000;stroke-width:0.8;" x="244.55625" xlink:href="#mfa8bb41486" y="170.2"/>
      </g>
     </g>
     <g id="text_16">
      <!-- −90 -->
      <g transform="translate(234.003906 184.798438)scale(0.1 -0.1)">
       <use xlink:href="#DejaVuSans-8722"/>
       <use x="83.789062" xlink:href="#DejaVuSans-57"/>
       <use x="147.412109" xlink:href="#DejaVuSans-48"/>
      </g>
     </g>
    </g>
    <g id="xtick_7">
     <g id="line2d_14">
      <g>
       <use style="stroke:#000000;stroke-width:0.8;" x="287.123437" xlink:href="#mfa8bb41486" y="170.2"/>
      </g>
     </g>
     <g id="text_17">
      <!-- −45 -->
      <g transform="translate(276.571094 184.798438)scale(0.1 -0.1)">
       <use xlink:href="#DejaVuSans-8722"/>
       <use x="83.789062" xlink:href="#DejaVuSans-52"/>
       <use x="147.412109" xlink:href="#DejaVuSans-53"/>
      </g>
     </g>
    </g>
    <g id="xtick_8">
     <g id="line2d_15">
      <g>
       <use style="stroke:#000000;stroke-width:0.8;" x="329.690625" xlink:href="#mfa8bb41486" y="170.2"/>
      </g>
     </g>
     <g id="text_18">
      <!-- 0 -->
      <g transform="translate(326.509375 184.798438)scale(0.1 -0.1)">
       <use xlink:href="#DejaVuSans-48"/>
      </g>
     </g>
    </g>
    <g id="xtick_9">
     <g id="line2d_16">
      <g>
       <use style="stroke:#000000;stroke-width:0.8;" x="372.257812" xlink:href="#mfa8bb41486" y="170.2"/>
      </g>
     </g>
     <g id="text_19">
      <!-- 45 -->
      <g transform="translate(365.895312 184.798438)scale(0.1 -0.1)">
       <use xlink:href="#DejaVuSans-52"/>
       <use x="63.623047" xlink:href="#DejaVuSans-53"/>
      </g>
     </g>
    </g>
    <g id="xtick_10">
     <g id="line2d_17">
      <g>
       <use style="stroke:#000000;stroke-width:0.8;" x="414.825" xlink:href="#mfa8bb41486" y="170.2"/>
      </g>
     </g>
     <g id="text_20">
      <!-- 90 -->
      <g transform="translate(408.4625 184.798438)scale(0.1 -0.1)">
       <use xlink:href="#DejaVuSans-57"/>
       <use x="63.623047" xlink:href="#DejaVuSans-48"/>
      </g>
     </g>
    </g>
    <g id="text_21">
     <!-- $\Delta \theta$ (deg) -->
     <g transform="translate(308.290625 198.578125)scale(0.1 -0.1)">
      <use transform="translate(0 0.234375)" xlink:href="#DejaVuSans-916"/>
      <use transform="translate(68.408203 0.234375)" xlink:href="#DejaVuSans-Oblique-952"/>
      <use transform="translate(129.589844 0.234375)" xlink:href="#DejaVuSans-32"/>
      <use transform="translate(161.376953 0.234375)" xlink:href="#DejaVuSans-40"/>
      <use transform="translate(200.390625 0.234375)" xlink:href="#DejaVuSans-100"/>
      <use transform="translate(263.867188 0.234375)" xlink:href="#DejaVuSans-101"/>
      <use transform="translate(325.390625 0.234375)" xlink:href="#DejaVuSans-103"/>
      <use transform="translate(388.867188 0.234375)" xlink:href="#DejaVuSans-41"/>
     </g>
    </g>
   </g>
   <g id="matplotlib.axis_4"/>
   <g id="line2d_18">
    <path clip-path="url(#p148fa37af6)" d="M 244.55625 98.5 
L 414.825 98.5 
" style="fill:none;stroke:#000000;stroke-dasharray:5.55,2.4;stroke-dashoffset:0;stroke-width:1.5;"/>
   </g>
   <g id="line2d_19">
    <path clip-path="url(#p148fa37af6)" d="M 329.690625 170.2 
L 329.690625 26.8 
" style="fill:none;stroke:#0000ff;stroke-dasharray:5.55,2.4;stroke-dashoffset:0;stroke-width:1.5;"/>
   </g>
   <g id="patch_8">
    <path d="M 244.55625 170.2 
L 244.55625 26.8 
" style="fill:none;stroke:#000000;stroke-linecap:square;stroke-linejoin:miter;stroke-width:0.8;"/>
   </g>
   <g id="patch_9">
    <path d="M 414.825 170.2 
L 414.825 26.8 
" style="fill:none;stroke:#000000;stroke-linecap:square;stroke-linejoin:miter;stroke-width:0.8;"/>
   </g>
   <g id="patch_10">
    <path d="M 244.55625 170.2 
L 414.825 170.2 
" style="fill:none;stroke:#000000;stroke-linecap:square;stroke-linejoin:miter;stroke-width:0.8;"/>
   </g>
   <g id="patch_11">
    <path d="M 244.55625 26.8 
L 414.825 26.8 
" style="fill:none;stroke:#000000;stroke-linecap:square;stroke-linejoin:miter;stroke-width:0.8;"/>
   </g>
   <g id="text_22">
    <!-- *** -->
    <g transform="translate(386.446875 40.457143)scale(0.1 -0.1)">
     <use xlink:href="#DejaVuSans-42"/>
     <use x="50" xlink:href="#DejaVuSans-42"/>
     <use x="100" xlink:href="#DejaVuSans-42"/>
    </g>
   </g>
   <g id="text_23">
    <!-- *** -->
    <g style="fill:#00bfbf;" transform="translate(386.446875 47.285714)scale(0.1 -0.1)">
     <use xlink:href="#DejaVuSans-42"/>
     <use x="50" xlink:href="#DejaVuSans-42"/>
     <use x="100" xlink:href="#DejaVuSans-42"/>
    </g>
   </g>
   <g id="text_24">
    <!-- R*** -->
    <g style="fill:#bf00bf;" transform="translate(386.446875 54.114286)scale(0.1 -0.1)">
     <use xlink:href="#DejaVuSans-82"/>
     <use x="69.482422" xlink:href="#DejaVuSans-42"/>
     <use x="119.482422" xlink:href="#DejaVuSans-42"/>
     <use x="169.482422" xlink:href="#DejaVuSans-42"/>
    </g>
   </g>
   <g id="text_25">
    <!-- Yes E Corrected -->
    <g transform="translate(249.285937 40.457143)scale(0.1 -0.1)">
     <defs>
      <path d="M -0.203125 72.90625 
L 10.40625 72.90625 
L 30.609375 42.921875 
L 50.6875 72.90625 
L 61.28125 72.90625 
L 35.5 34.71875 
L 35.5 0 
L 25.59375 0 
L 25.59375 34.71875 
z
" id="DejaVuSans-89"/>
      <path d="M 9.8125 72.90625 
L 55.90625 72.90625 
L 55.90625 64.59375 
L 19.671875 64.59375 
L 19.671875 43.015625 
L 54.390625 43.015625 
L 54.390625 34.71875 
L 19.671875 34.71875 
L 19.671875 8.296875 
L 56.78125 8.296875 
L 56.78125 0 
L 9.8125 0 
z
" id="DejaVuSans-69"/>
      <path d="M 64.40625 67.28125 
L 64.40625 56.890625 
Q 59.421875 61.53125 53.78125 63.8125 
Q 48.140625 66.109375 41.796875 66.109375 
Q 29.296875 66.109375 22.65625 58.46875 
Q 16.015625 50.828125 16.015625 36.375 
Q 16.015625 21.96875 22.65625 14.328125 
Q 29.296875 6.6875 41.796875 6.6875 
Q 48.140625 6.6875 53.78125 8.984375 
Q 59.421875 11.28125 64.40625 15.921875 
L 64.40625 5.609375 
Q 59.234375 2.09375 53.4375 0.328125 
Q 47.65625 -1.421875 41.21875 -1.421875 
Q 24.65625 -1.421875 15.125 8.703125 
Q 5.609375 18.84375 5.609375 36.375 
Q 5.609375 53.953125 15.125 64.078125 
Q 24.65625 74.21875 41.21875 74.21875 
Q 47.75 74.21875 53.53125 72.484375 
Q 59.328125 70.75 64.40625 67.28125 
z
" id="DejaVuSans-67"/>
      <path d="M 30.609375 48.390625 
Q 23.390625 48.390625 19.1875 42.75 
Q 14.984375 37.109375 14.984375 27.296875 
Q 14.984375 17.484375 19.15625 11.84375 
Q 23.34375 6.203125 30.609375 6.203125 
Q 37.796875 6.203125 41.984375 11.859375 
Q 46.1875 17.53125 46.1875 27.296875 
Q 46.1875 37.015625 41.984375 42.703125 
Q 37.796875 48.390625 30.609375 48.390625 
z
M 30.609375 56 
Q 42.328125 56 49.015625 48.375 
Q 55.71875 40.765625 55.71875 27.296875 
Q 55.71875 13.875 49.015625 6.21875 
Q 42.328125 -1.421875 30.609375 -1.421875 
Q 18.84375 -1.421875 12.171875 6.21875 
Q 5.515625 13.875 5.515625 27.296875 
Q 5.515625 40.765625 12.171875 48.375 
Q 18.84375 56 30.609375 56 
z
" id="DejaVuSans-111"/>
      <path d="M 41.109375 46.296875 
Q 39.59375 47.171875 37.8125 47.578125 
Q 36.03125 48 33.890625 48 
Q 26.265625 48 22.1875 43.046875 
Q 18.109375 38.09375 18.109375 28.8125 
L 18.109375 0 
L 9.078125 0 
L 9.078125 54.6875 
L 18.109375 54.6875 
L 18.109375 46.1875 
Q 20.953125 51.171875 25.484375 53.578125 
Q 30.03125 56 36.53125 56 
Q 37.453125 56 38.578125 55.875 
Q 39.703125 55.765625 41.0625 55.515625 
z
" id="DejaVuSans-114"/>
      <path d="M 48.78125 52.59375 
L 48.78125 44.1875 
Q 44.96875 46.296875 41.140625 47.34375 
Q 37.3125 48.390625 33.40625 48.390625 
Q 24.65625 48.390625 19.8125 42.84375 
Q 14.984375 37.3125 14.984375 27.296875 
Q 14.984375 17.28125 19.8125 11.734375 
Q 24.65625 6.203125 33.40625 6.203125 
Q 37.3125 6.203125 41.140625 7.25 
Q 44.96875 8.296875 48.78125 10.40625 
L 48.78125 2.09375 
Q 45.015625 0.34375 40.984375 -0.53125 
Q 36.96875 -1.421875 32.421875 -1.421875 
Q 20.0625 -1.421875 12.78125 6.34375 
Q 5.515625 14.109375 5.515625 27.296875 
Q 5.515625 40.671875 12.859375 48.328125 
Q 20.21875 56 33.015625 56 
Q 37.15625 56 41.109375 55.140625 
Q 45.0625 54.296875 48.78125 52.59375 
z
" id="DejaVuSans-99"/>
      <path d="M 18.3125 70.21875 
L 18.3125 54.6875 
L 36.8125 54.6875 
L 36.8125 47.703125 
L 18.3125 47.703125 
L 18.3125 18.015625 
Q 18.3125 11.328125 20.140625 9.421875 
Q 21.96875 7.515625 27.59375 7.515625 
L 36.8125 7.515625 
L 36.8125 0 
L 27.59375 0 
Q 17.1875 0 13.234375 3.875 
Q 9.28125 7.765625 9.28125 18.015625 
L 9.28125 47.703125 
L 2.6875 47.703125 
L 2.6875 54.6875 
L 9.28125 54.6875 
L 9.28125 70.21875 
z
" id="DejaVuSans-116"/>
     </defs>
     <use xlink:href="#DejaVuSans-89"/>
     <use x="47.833984" xlink:href="#DejaVuSans-101"/>
     <use x="109.357422" xlink:href="#DejaVuSans-115"/>
     <use x="161.457031" xlink:href="#DejaVuSans-32"/>
     <use x="193.244141" xlink:href="#DejaVuSans-69"/>
     <use x="256.427734" xlink:href="#DejaVuSans-32"/>
     <use x="288.214844" xlink:href="#DejaVuSans-67"/>
     <use x="358.039062" xlink:href="#DejaVuSans-111"/>
     <use x="419.220703" xlink:href="#DejaVuSans-114"/>
     <use x="458.583984" xlink:href="#DejaVuSans-114"/>
     <use x="497.447266" xlink:href="#DejaVuSans-101"/>
     <use x="558.970703" xlink:href="#DejaVuSans-99"/>
     <use x="613.951172" xlink:href="#DejaVuSans-116"/>
     <use x="653.160156" xlink:href="#DejaVuSans-101"/>
     <use x="714.683594" xlink:href="#DejaVuSans-100"/>
    </g>
   </g>
   <g id="text_26">
    <!-- No resp Corrected -->
    <g transform="translate(249.285937 54.114286)scale(0.1 -0.1)">
     <defs>
      <path d="M 9.8125 72.90625 
L 23.09375 72.90625 
L 55.421875 11.921875 
L 55.421875 72.90625 
L 64.984375 72.90625 
L 64.984375 0 
L 51.703125 0 
L 19.390625 60.984375 
L 19.390625 0 
L 9.8125 0 
z
" id="DejaVuSans-78"/>
     </defs>
     <use xlink:href="#DejaVuSans-78"/>
     <use x="74.804688" xlink:href="#DejaVuSans-111"/>
     <use x="135.986328" xlink:href="#DejaVuSans-32"/>
     <use x="167.773438" xlink:href="#DejaVuSans-114"/>
     <use x="206.636719" xlink:href="#DejaVuSans-101"/>
     <use x="268.160156" xlink:href="#DejaVuSans-115"/>
     <use x="320.259766" xlink:href="#DejaVuSans-112"/>
     <use x="383.736328" xlink:href="#DejaVuSans-32"/>
     <use x="415.523438" xlink:href="#DejaVuSans-67"/>
     <use x="485.347656" xlink:href="#DejaVuSans-111"/>
     <use x="546.529297" xlink:href="#DejaVuSans-114"/>
     <use x="585.892578" xlink:href="#DejaVuSans-114"/>
     <use x="624.755859" xlink:href="#DejaVuSans-101"/>
     <use x="686.279297" xlink:href="#DejaVuSans-99"/>
     <use x="741.259766" xlink:href="#DejaVuSans-116"/>
     <use x="780.46875" xlink:href="#DejaVuSans-101"/>
     <use x="841.992188" xlink:href="#DejaVuSans-100"/>
    </g>
   </g>
   <g id="text_27">
    <!-- Not AutoCorr -->
    <g transform="translate(249.285937 156.542857)scale(0.1 -0.1)">
     <defs>
      <path d="M 34.1875 63.1875 
L 20.796875 26.90625 
L 47.609375 26.90625 
z
M 28.609375 72.90625 
L 39.796875 72.90625 
L 67.578125 0 
L 57.328125 0 
L 50.6875 18.703125 
L 17.828125 18.703125 
L 11.1875 0 
L 0.78125 0 
z
" id="DejaVuSans-65"/>
      <path d="M 8.5 21.578125 
L 8.5 54.6875 
L 17.484375 54.6875 
L 17.484375 21.921875 
Q 17.484375 14.15625 20.5 10.265625 
Q 23.53125 6.390625 29.59375 6.390625 
Q 36.859375 6.390625 41.078125 11.03125 
Q 45.3125 15.671875 45.3125 23.6875 
L 45.3125 54.6875 
L 54.296875 54.6875 
L 54.296875 0 
L 45.3125 0 
L 45.3125 8.40625 
Q 42.046875 3.421875 37.71875 1 
Q 33.40625 -1.421875 27.6875 -1.421875 
Q 18.265625 -1.421875 13.375 4.4375 
Q 8.5 10.296875 8.5 21.578125 
z
M 31.109375 56 
z
" id="DejaVuSans-117"/>
     </defs>
     <use xlink:href="#DejaVuSans-78"/>
     <use x="74.804688" xlink:href="#DejaVuSans-111"/>
     <use x="135.986328" xlink:href="#DejaVuSans-116"/>
     <use x="175.195312" xlink:href="#DejaVuSans-32"/>
     <use x="206.982422" xlink:href="#DejaVuSans-65"/>
     <use x="275.390625" xlink:href="#DejaVuSans-117"/>
     <use x="338.769531" xlink:href="#DejaVuSans-116"/>
     <use x="377.978516" xlink:href="#DejaVuSans-111"/>
     <use x="439.160156" xlink:href="#DejaVuSans-67"/>
     <use x="508.984375" xlink:href="#DejaVuSans-111"/>
     <use x="570.166016" xlink:href="#DejaVuSans-114"/>
     <use x="609.529297" xlink:href="#DejaVuSans-114"/>
    </g>
   </g>
   <g id="text_28">
    <!-- Saw CB Yes Oblique -->
    <g transform="translate(249.285937 142.885714)scale(0.1 -0.1)">
     <defs>
      <path d="M 4.203125 54.6875 
L 13.1875 54.6875 
L 24.421875 12.015625 
L 35.59375 54.6875 
L 46.1875 54.6875 
L 57.421875 12.015625 
L 68.609375 54.6875 
L 77.59375 54.6875 
L 63.28125 0 
L 52.6875 0 
L 40.921875 44.828125 
L 29.109375 0 
L 18.5 0 
z
" id="DejaVuSans-119"/>
      <path d="M 39.40625 66.21875 
Q 28.65625 66.21875 22.328125 58.203125 
Q 16.015625 50.203125 16.015625 36.375 
Q 16.015625 22.609375 22.328125 14.59375 
Q 28.65625 6.59375 39.40625 6.59375 
Q 50.140625 6.59375 56.421875 14.59375 
Q 62.703125 22.609375 62.703125 36.375 
Q 62.703125 50.203125 56.421875 58.203125 
Q 50.140625 66.21875 39.40625 66.21875 
z
M 39.40625 74.21875 
Q 54.734375 74.21875 63.90625 63.9375 
Q 73.09375 53.65625 73.09375 36.375 
Q 73.09375 19.140625 63.90625 8.859375 
Q 54.734375 -1.421875 39.40625 -1.421875 
Q 24.03125 -1.421875 14.8125 8.828125 
Q 5.609375 19.09375 5.609375 36.375 
Q 5.609375 53.65625 14.8125 63.9375 
Q 24.03125 74.21875 39.40625 74.21875 
z
" id="DejaVuSans-79"/>
      <path d="M 9.421875 75.984375 
L 18.40625 75.984375 
L 18.40625 0 
L 9.421875 0 
z
" id="DejaVuSans-108"/>
      <path d="M 14.796875 27.296875 
Q 14.796875 17.390625 18.875 11.75 
Q 22.953125 6.109375 30.078125 6.109375 
Q 37.203125 6.109375 41.296875 11.75 
Q 45.40625 17.390625 45.40625 27.296875 
Q 45.40625 37.203125 41.296875 42.84375 
Q 37.203125 48.484375 30.078125 48.484375 
Q 22.953125 48.484375 18.875 42.84375 
Q 14.796875 37.203125 14.796875 27.296875 
z
M 45.40625 8.203125 
Q 42.578125 3.328125 38.25 0.953125 
Q 33.9375 -1.421875 27.875 -1.421875 
Q 17.96875 -1.421875 11.734375 6.484375 
Q 5.515625 14.40625 5.515625 27.296875 
Q 5.515625 40.1875 11.734375 48.09375 
Q 17.96875 56 27.875 56 
Q 33.9375 56 38.25 53.625 
Q 42.578125 51.265625 45.40625 46.390625 
L 45.40625 54.6875 
L 54.390625 54.6875 
L 54.390625 -20.796875 
L 45.40625 -20.796875 
z
" id="DejaVuSans-113"/>
     </defs>
     <use xlink:href="#DejaVuSans-83"/>
     <use x="63.476562" xlink:href="#DejaVuSans-97"/>
     <use x="124.755859" xlink:href="#DejaVuSans-119"/>
     <use x="206.542969" xlink:href="#DejaVuSans-32"/>
     <use x="238.330078" xlink:href="#DejaVuSans-67"/>
     <use x="308.154297" xlink:href="#DejaVuSans-66"/>
     <use x="376.757812" xlink:href="#DejaVuSans-32"/>
     <use x="408.544922" xlink:href="#DejaVuSans-89"/>
     <use x="456.378906" xlink:href="#DejaVuSans-101"/>
     <use x="517.902344" xlink:href="#DejaVuSans-115"/>
     <use x="570.001953" xlink:href="#DejaVuSans-32"/>
     <use x="601.789062" xlink:href="#DejaVuSans-79"/>
     <use x="680.5" xlink:href="#DejaVuSans-98"/>
     <use x="743.976562" xlink:href="#DejaVuSans-108"/>
     <use x="771.759766" xlink:href="#DejaVuSans-105"/>
     <use x="799.542969" xlink:href="#DejaVuSans-113"/>
     <use x="863.019531" xlink:href="#DejaVuSans-117"/>
     <use x="926.398438" xlink:href="#DejaVuSans-101"/>
    </g>
   </g>
   <g id="text_29">
    <!-- nb:-1 | No SD -->
    <g transform="translate(289.744687 20.8)scale(0.12 -0.12)">
     <use xlink:href="#DejaVuSans-110"/>
     <use x="63.378906" xlink:href="#DejaVuSans-98"/>
     <use x="126.855469" xlink:href="#DejaVuSans-58"/>
     <use x="160.546875" xlink:href="#DejaVuSans-45"/>
     <use x="196.630859" xlink:href="#DejaVuSans-49"/>
     <use x="260.253906" xlink:href="#DejaVuSans-32"/>
     <use x="292.041016" xlink:href="#DejaVuSans-124"/>
     <use x="325.732422" xlink:href="#DejaVuSans-32"/>
     <use x="357.519531" xlink:href="#DejaVuSans-78"/>
     <use x="432.324219" xlink:href="#DejaVuSans-111"/>
     <use x="493.505859" xlink:href="#DejaVuSans-32"/>
     <use x="525.292969" xlink:href="#DejaVuSans-83"/>
     <use x="588.769531" xlink:href="#DejaVuSans-68"/>
    </g>
   </g>
  </g>
 </g>
 <defs>
  <clipPath id="p7ec266858d">
   <rect height="143.4" width="170.26875" x="46.55" y="26.8"/>
  </clipPath>
  <clipPath id="p148fa37af6">
   <rect height="143.4" width="170.26875" x="244.55625" y="26.8"/>
  </clipPath>
 </defs>
</svg>
