<?xml version="1.0" encoding="utf-8" standalone="no"?>
<!DOCTYPE svg PUBLIC "-//W3C//DTD SVG 1.1//EN"
  "http://www.w3.org/Graphics/SVG/1.1/DTD/svg11.dtd">
<!-- Created with matplotlib (https://matplotlib.org/) -->
<svg height="288pt" version="1.1" viewBox="0 0 432 288" width="432pt" xmlns="http://www.w3.org/2000/svg" xmlns:xlink="http://www.w3.org/1999/xlink">
 <metadata>
  <rdf:RDF xmlns:cc="http://creativecommons.org/ns#" xmlns:dc="http://purl.org/dc/elements/1.1/" xmlns:rdf="http://www.w3.org/1999/02/22-rdf-syntax-ns#">
   <cc:Work>
    <dc:type rdf:resource="http://purl.org/dc/dcmitype/StillImage"/>
    <dc:date>2022-12-29T20:23:07.569011</dc:date>
    <dc:format>image/svg+xml</dc:format>
    <dc:creator>
     <cc:Agent>
      <dc:title>Matplotlib v3.3.1, https://matplotlib.org/</dc:title>
     </cc:Agent>
    </dc:creator>
   </cc:Work>
  </rdf:RDF>
 </metadata>
 <defs>
  <style type="text/css">*{stroke-linecap:butt;stroke-linejoin:round;}</style>
 </defs>
 <g id="figure_1">
  <g id="patch_1">
   <path d="M 0 288 
L 432 288 
L 432 0 
L 0 0 
z
" style="fill:none;"/>
  </g>
  <g id="axes_1">
   <g id="patch_2">
    <path d="M 46.55 242.2 
L 216.81875 242.2 
L 216.81875 26.8 
L 46.55 26.8 
z
" style="fill:#ffffff;"/>
   </g>
   <g id="PolyCollection_1">
    <defs>
     <path d="M 46.55 -137.748158 
L 46.55 -134.59979 
L 48.441875 -130.942063 
L 50.33375 -132.585571 
L 52.225625 -129.751469 
L 54.1175 -127.883122 
L 56.009375 -125.377699 
L 57.90125 -123.346978 
L 59.793125 -130.462407 
L 61.685 -132.922039 
L 63.576875 -133.900958 
L 65.46875 -138.028128 
L 67.360625 -140.922867 
L 69.2525 -147.597064 
L 71.144375 -130.142274 
L 73.03625 -132.943926 
L 74.928125 -124.212888 
L 76.82 -120.126916 
L 78.711875 -106.957508 
L 80.60375 -115.426027 
L 82.495625 -109.732539 
L 84.3875 -104.630017 
L 86.279375 -107.118881 
L 88.17125 -96.780215 
L 90.063125 -106.035403 
L 91.955 -99.58246 
L 93.846875 -106.697409 
L 95.73875 -105.940768 
L 97.630625 -108.424616 
L 99.5225 -122.463399 
L 101.414375 -114.403627 
L 103.30625 -103.918677 
L 105.198125 -99.584715 
L 107.09 -105.767835 
L 108.981875 -100.295657 
L 110.87375 -94.21398 
L 112.765625 -97.35108 
L 114.6575 -106.169011 
L 116.549375 -121.896804 
L 118.44125 -125.840495 
L 120.333125 -134.413261 
L 122.225 -135.770004 
L 124.116875 -147.598527 
L 126.00875 -144.168466 
L 127.900625 -147.193007 
L 129.7925 -149.685059 
L 131.684375 -148.569598 
L 133.57625 -158.243214 
L 135.468125 -158.258773 
L 137.36 -161.420335 
L 139.251875 -165.805363 
L 141.14375 -159.048491 
L 143.035625 -157.529951 
L 144.9275 -163.111979 
L 146.819375 -165.89614 
L 148.71125 -167.856969 
L 150.603125 -166.997967 
L 152.495 -169.639551 
L 154.386875 -172.987126 
L 156.27875 -175.906391 
L 158.170625 -171.208588 
L 160.0625 -175.068231 
L 161.954375 -183.805013 
L 163.84625 -191.247482 
L 165.738125 -196.164467 
L 167.63 -200.056941 
L 169.521875 -196.340418 
L 171.41375 -193.288317 
L 173.305625 -198.192211 
L 175.1975 -192.605438 
L 177.089375 -193.056851 
L 178.98125 -193.614227 
L 180.873125 -198.230009 
L 182.765 -205.217773 
L 184.656875 -195.466891 
L 186.54875 -182.934162 
L 188.440625 -165.697585 
L 190.3325 -162.231313 
L 192.224375 -153.797586 
L 194.11625 -150.610694 
L 196.008125 -145.589747 
L 197.9 -151.18701 
L 199.791875 -160.723589 
L 201.68375 -157.41045 
L 203.575625 -158.570397 
L 205.4675 -157.123767 
L 207.359375 -158.983946 
L 209.25125 -165.890761 
L 211.143125 -160.059344 
L 213.035 -160.286045 
L 214.926875 -157.888942 
L 216.81875 -146.600113 
L 216.81875 -149.571748 
L 216.81875 -149.571748 
L 214.926875 -160.990733 
L 213.035 -163.675372 
L 211.143125 -163.19461 
L 209.25125 -169.019308 
L 207.359375 -162.060358 
L 205.4675 -160.298573 
L 203.575625 -161.672194 
L 201.68375 -160.467728 
L 199.791875 -163.748063 
L 197.9 -154.215036 
L 196.008125 -148.630373 
L 194.11625 -153.581291 
L 192.224375 -156.730615 
L 190.3325 -165.318128 
L 188.440625 -168.770428 
L 186.54875 -185.889944 
L 184.656875 -198.483054 
L 182.765 -208.337027 
L 180.873125 -201.281215 
L 178.98125 -196.71138 
L 177.089375 -196.109743 
L 175.1975 -195.735617 
L 173.305625 -201.37712 
L 171.41375 -196.516371 
L 169.521875 -199.550528 
L 167.63 -203.289439 
L 165.738125 -199.26452 
L 163.84625 -194.293169 
L 161.954375 -186.758655 
L 160.0625 -177.840686 
L 158.170625 -173.959058 
L 156.27875 -178.490031 
L 154.386875 -175.603015 
L 152.495 -172.157681 
L 150.603125 -169.750147 
L 148.71125 -170.716835 
L 146.819375 -168.597503 
L 144.9275 -165.749283 
L 143.035625 -160.192143 
L 141.14375 -161.704941 
L 139.251875 -168.418725 
L 137.36 -163.957042 
L 135.468125 -160.952459 
L 133.57625 -160.98898 
L 131.684375 -151.247106 
L 129.7925 -152.5545 
L 127.900625 -149.92688 
L 126.00875 -146.979356 
L 124.116875 -150.317977 
L 122.225 -138.628283 
L 120.333125 -137.267257 
L 118.44125 -128.71156 
L 116.549375 -124.729295 
L 114.6575 -108.999172 
L 112.765625 -100.264702 
L 110.87375 -96.995272 
L 108.981875 -103.141548 
L 107.09 -108.741728 
L 105.198125 -102.601783 
L 103.30625 -107.199934 
L 101.414375 -117.643632 
L 99.5225 -125.724992 
L 97.630625 -111.676759 
L 95.73875 -109.09269 
L 93.846875 -109.94282 
L 91.955 -102.635263 
L 90.063125 -109.048811 
L 88.17125 -99.756708 
L 86.279375 -110.052319 
L 84.3875 -107.504246 
L 82.495625 -112.706221 
L 80.60375 -118.508495 
L 78.711875 -110.16554 
L 76.82 -123.498827 
L 74.928125 -127.518596 
L 73.03625 -136.208429 
L 71.144375 -133.372785 
L 69.2525 -150.811097 
L 67.360625 -144.151538 
L 65.46875 -141.1431 
L 63.576875 -137.070756 
L 61.685 -136.195885 
L 59.793125 -133.620192 
L 57.90125 -126.512148 
L 56.009375 -128.735183 
L 54.1175 -130.894307 
L 52.225625 -132.724511 
L 50.33375 -135.718658 
L 48.441875 -133.99145 
L 46.55 -137.748158 
z
" id="m8ca55053c3" style="stroke:#000000;"/>
    </defs>
    <g clip-path="url(#p559f47f2ad)">
     <use style="stroke:#000000;" x="0" xlink:href="#m8ca55053c3" y="288"/>
    </g>
   </g>
   <g id="PolyCollection_2">
    <defs>
     <path d="M 46.55 -161.136625 
L 46.55 -157.792413 
L 48.441875 -160.397817 
L 50.33375 -145.711665 
L 52.225625 -150.38912 
L 54.1175 -159.757399 
L 56.009375 -154.596228 
L 57.90125 -154.898078 
L 59.793125 -151.84591 
L 61.685 -151.279361 
L 63.576875 -141.391016 
L 65.46875 -132.756116 
L 67.360625 -129.128632 
L 69.2525 -117.83009 
L 71.144375 -103.700503 
L 73.03625 -100.714739 
L 74.928125 -99.756212 
L 76.82 -108.105076 
L 78.711875 -93.33037 
L 80.60375 -107.604673 
L 82.495625 -107.303146 
L 84.3875 -104.420587 
L 86.279375 -100.80187 
L 88.17125 -88.47839 
L 90.063125 -91.74666 
L 91.955 -76.304211 
L 93.846875 -78.790266 
L 95.73875 -81.959088 
L 97.630625 -76.509878 
L 99.5225 -74.073112 
L 101.414375 -77.53469 
L 103.30625 -78.674878 
L 105.198125 -74.538628 
L 107.09 -75.163677 
L 108.981875 -80.505344 
L 110.87375 -89.766188 
L 112.765625 -99.787188 
L 114.6575 -102.758451 
L 116.549375 -104.822618 
L 118.44125 -109.994687 
L 120.333125 -105.959537 
L 122.225 -115.920801 
L 124.116875 -108.862832 
L 126.00875 -116.316171 
L 127.900625 -120.182981 
L 129.7925 -126.548459 
L 131.684375 -143.601834 
L 133.57625 -140.476482 
L 135.468125 -151.846999 
L 137.36 -157.637139 
L 139.251875 -171.016865 
L 141.14375 -178.352074 
L 143.035625 -181.331587 
L 144.9275 -190.49355 
L 146.819375 -197.515497 
L 148.71125 -198.377332 
L 150.603125 -200.475342 
L 152.495 -205.793326 
L 154.386875 -205.580633 
L 156.27875 -216.507132 
L 158.170625 -215.889695 
L 160.0625 -226.525921 
L 161.954375 -225.197082 
L 163.84625 -214.834155 
L 165.738125 -219.460713 
L 167.63 -200.198622 
L 169.521875 -199.058909 
L 171.41375 -184.017653 
L 173.305625 -190.636399 
L 175.1975 -213.327467 
L 177.089375 -215.27105 
L 178.98125 -219.519284 
L 180.873125 -217.149377 
L 182.765 -217.310798 
L 184.656875 -201.881989 
L 186.54875 -183.849171 
L 188.440625 -163.541436 
L 190.3325 -164.47777 
L 192.224375 -156.865454 
L 194.11625 -158.741973 
L 196.008125 -158.059608 
L 197.9 -145.037328 
L 199.791875 -155.244753 
L 201.68375 -145.462114 
L 203.575625 -138.244296 
L 205.4675 -134.362543 
L 207.359375 -136.433494 
L 209.25125 -141.848135 
L 211.143125 -144.58359 
L 213.035 -151.527538 
L 214.926875 -148.994289 
L 216.81875 -151.988343 
L 216.81875 -155.562849 
L 216.81875 -155.562849 
L 214.926875 -152.747379 
L 213.035 -155.195935 
L 211.143125 -147.951618 
L 209.25125 -144.961095 
L 207.359375 -139.391066 
L 205.4675 -137.447161 
L 203.575625 -141.254832 
L 201.68375 -148.476466 
L 199.791875 -158.173199 
L 197.9 -148.123321 
L 196.008125 -161.427431 
L 194.11625 -162.12537 
L 192.224375 -160.28951 
L 190.3325 -167.80413 
L 188.440625 -166.792016 
L 186.54875 -187.069057 
L 184.656875 -205.139431 
L 182.765 -220.471088 
L 180.873125 -220.192455 
L 178.98125 -222.621172 
L 177.089375 -218.523192 
L 175.1975 -216.617749 
L 173.305625 -193.719854 
L 171.41375 -187.12599 
L 169.521875 -202.2062 
L 167.63 -203.479703 
L 165.738125 -222.864783 
L 163.84625 -218.073873 
L 161.954375 -228.393418 
L 160.0625 -229.569621 
L 158.170625 -218.922985 
L 156.27875 -219.45459 
L 154.386875 -208.347449 
L 152.495 -208.398793 
L 150.603125 -203.03079 
L 148.71125 -200.967119 
L 146.819375 -200.06623 
L 144.9275 -192.941327 
L 143.035625 -183.843964 
L 141.14375 -180.956574 
L 139.251875 -173.486837 
L 137.36 -160.105076 
L 135.468125 -154.24497 
L 133.57625 -142.985849 
L 131.684375 -146.048395 
L 129.7925 -128.835793 
L 127.900625 -122.571589 
L 126.00875 -118.735712 
L 124.116875 -111.266561 
L 122.225 -118.562748 
L 120.333125 -108.652895 
L 118.44125 -112.741994 
L 116.549375 -107.560434 
L 114.6575 -105.574688 
L 112.765625 -102.753135 
L 110.87375 -92.500391 
L 108.981875 -83.40437 
L 107.09 -78.198551 
L 105.198125 -77.594362 
L 103.30625 -81.844991 
L 101.414375 -80.801835 
L 99.5225 -77.402808 
L 97.630625 -79.867221 
L 95.73875 -85.281406 
L 93.846875 -82.208484 
L 91.955 -79.55621 
L 90.063125 -94.79731 
L 88.17125 -91.580828 
L 86.279375 -103.867589 
L 84.3875 -107.516049 
L 82.495625 -110.643754 
L 80.60375 -110.891339 
L 78.711875 -97.049937 
L 76.82 -111.450924 
L 74.928125 -103.08963 
L 73.03625 -104.193147 
L 71.144375 -106.979949 
L 69.2525 -121.210857 
L 67.360625 -132.200438 
L 65.46875 -136.018051 
L 63.576875 -144.655586 
L 61.685 -154.555373 
L 59.793125 -155.14879 
L 57.90125 -158.099409 
L 56.009375 -157.517307 
L 54.1175 -162.686871 
L 52.225625 -153.351606 
L 50.33375 -148.77544 
L 48.441875 -163.480836 
L 46.55 -161.136625 
z
" id="maa7c0db1a1" style="stroke:#00bfbf;"/>
    </defs>
    <g clip-path="url(#p559f47f2ad)">
     <use style="fill:#00bfbf;stroke:#00bfbf;" x="0" xlink:href="#maa7c0db1a1" y="288"/>
    </g>
   </g>
   <g id="matplotlib.axis_1">
    <g id="xtick_1">
     <g id="line2d_1">
      <defs>
       <path d="M 0 0 
L 0 3.5 
" id="md9aea792f2" style="stroke:#000000;stroke-width:0.8;"/>
      </defs>
      <g>
       <use style="stroke:#000000;stroke-width:0.8;" x="46.55" xlink:href="#md9aea792f2" y="242.2"/>
      </g>
     </g>
     <g id="text_1">
      <!-- −90 -->
      <g transform="translate(35.997656 256.798437)scale(0.1 -0.1)">
       <defs>
        <path d="M 10.59375 35.5 
L 73.1875 35.5 
L 73.1875 27.203125 
L 10.59375 27.203125 
z
" id="DejaVuSans-8722"/>
        <path d="M 10.984375 1.515625 
L 10.984375 10.5 
Q 14.703125 8.734375 18.5 7.8125 
Q 22.3125 6.890625 25.984375 6.890625 
Q 35.75 6.890625 40.890625 13.453125 
Q 46.046875 20.015625 46.78125 33.40625 
Q 43.953125 29.203125 39.59375 26.953125 
Q 35.25 24.703125 29.984375 24.703125 
Q 19.046875 24.703125 12.671875 31.3125 
Q 6.296875 37.9375 6.296875 49.421875 
Q 6.296875 60.640625 12.9375 67.421875 
Q 19.578125 74.21875 30.609375 74.21875 
Q 43.265625 74.21875 49.921875 64.515625 
Q 56.59375 54.828125 56.59375 36.375 
Q 56.59375 19.140625 48.40625 8.859375 
Q 40.234375 -1.421875 26.421875 -1.421875 
Q 22.703125 -1.421875 18.890625 -0.6875 
Q 15.09375 0.046875 10.984375 1.515625 
z
M 30.609375 32.421875 
Q 37.25 32.421875 41.125 36.953125 
Q 45.015625 41.5 45.015625 49.421875 
Q 45.015625 57.28125 41.125 61.84375 
Q 37.25 66.40625 30.609375 66.40625 
Q 23.96875 66.40625 20.09375 61.84375 
Q 16.21875 57.28125 16.21875 49.421875 
Q 16.21875 41.5 20.09375 36.953125 
Q 23.96875 32.421875 30.609375 32.421875 
z
" id="DejaVuSans-57"/>
        <path d="M 31.78125 66.40625 
Q 24.171875 66.40625 20.328125 58.90625 
Q 16.5 51.421875 16.5 36.375 
Q 16.5 21.390625 20.328125 13.890625 
Q 24.171875 6.390625 31.78125 6.390625 
Q 39.453125 6.390625 43.28125 13.890625 
Q 47.125 21.390625 47.125 36.375 
Q 47.125 51.421875 43.28125 58.90625 
Q 39.453125 66.40625 31.78125 66.40625 
z
M 31.78125 74.21875 
Q 44.046875 74.21875 50.515625 64.515625 
Q 56.984375 54.828125 56.984375 36.375 
Q 56.984375 17.96875 50.515625 8.265625 
Q 44.046875 -1.421875 31.78125 -1.421875 
Q 19.53125 -1.421875 13.0625 8.265625 
Q 6.59375 17.96875 6.59375 36.375 
Q 6.59375 54.828125 13.0625 64.515625 
Q 19.53125 74.21875 31.78125 74.21875 
z
" id="DejaVuSans-48"/>
       </defs>
       <use xlink:href="#DejaVuSans-8722"/>
       <use x="83.789062" xlink:href="#DejaVuSans-57"/>
       <use x="147.412109" xlink:href="#DejaVuSans-48"/>
      </g>
     </g>
    </g>
    <g id="xtick_2">
     <g id="line2d_2">
      <g>
       <use style="stroke:#000000;stroke-width:0.8;" x="89.117188" xlink:href="#md9aea792f2" y="242.2"/>
      </g>
     </g>
     <g id="text_2">
      <!-- −45 -->
      <g transform="translate(78.564844 256.798437)scale(0.1 -0.1)">
       <defs>
        <path d="M 37.796875 64.3125 
L 12.890625 25.390625 
L 37.796875 25.390625 
z
M 35.203125 72.90625 
L 47.609375 72.90625 
L 47.609375 25.390625 
L 58.015625 25.390625 
L 58.015625 17.1875 
L 47.609375 17.1875 
L 47.609375 0 
L 37.796875 0 
L 37.796875 17.1875 
L 4.890625 17.1875 
L 4.890625 26.703125 
z
" id="DejaVuSans-52"/>
        <path d="M 10.796875 72.90625 
L 49.515625 72.90625 
L 49.515625 64.59375 
L 19.828125 64.59375 
L 19.828125 46.734375 
Q 21.96875 47.46875 24.109375 47.828125 
Q 26.265625 48.1875 28.421875 48.1875 
Q 40.625 48.1875 47.75 41.5 
Q 54.890625 34.8125 54.890625 23.390625 
Q 54.890625 11.625 47.5625 5.09375 
Q 40.234375 -1.421875 26.90625 -1.421875 
Q 22.3125 -1.421875 17.546875 -0.640625 
Q 12.796875 0.140625 7.71875 1.703125 
L 7.71875 11.625 
Q 12.109375 9.234375 16.796875 8.0625 
Q 21.484375 6.890625 26.703125 6.890625 
Q 35.15625 6.890625 40.078125 11.328125 
Q 45.015625 15.765625 45.015625 23.390625 
Q 45.015625 31 40.078125 35.4375 
Q 35.15625 39.890625 26.703125 39.890625 
Q 22.75 39.890625 18.8125 39.015625 
Q 14.890625 38.140625 10.796875 36.28125 
z
" id="DejaVuSans-53"/>
       </defs>
       <use xlink:href="#DejaVuSans-8722"/>
       <use x="83.789062" xlink:href="#DejaVuSans-52"/>
       <use x="147.412109" xlink:href="#DejaVuSans-53"/>
      </g>
     </g>
    </g>
    <g id="xtick_3">
     <g id="line2d_3">
      <g>
       <use style="stroke:#000000;stroke-width:0.8;" x="131.684375" xlink:href="#md9aea792f2" y="242.2"/>
      </g>
     </g>
     <g id="text_3">
      <!-- 0 -->
      <g transform="translate(128.503125 256.798437)scale(0.1 -0.1)">
       <use xlink:href="#DejaVuSans-48"/>
      </g>
     </g>
    </g>
    <g id="xtick_4">
     <g id="line2d_4">
      <g>
       <use style="stroke:#000000;stroke-width:0.8;" x="174.251562" xlink:href="#md9aea792f2" y="242.2"/>
      </g>
     </g>
     <g id="text_4">
      <!-- 45 -->
      <g transform="translate(167.889062 256.798437)scale(0.1 -0.1)">
       <use xlink:href="#DejaVuSans-52"/>
       <use x="63.623047" xlink:href="#DejaVuSans-53"/>
      </g>
     </g>
    </g>
    <g id="xtick_5">
     <g id="line2d_5">
      <g>
       <use style="stroke:#000000;stroke-width:0.8;" x="216.81875" xlink:href="#md9aea792f2" y="242.2"/>
      </g>
     </g>
     <g id="text_5">
      <!-- 90 -->
      <g transform="translate(210.45625 256.798437)scale(0.1 -0.1)">
       <use xlink:href="#DejaVuSans-57"/>
       <use x="63.623047" xlink:href="#DejaVuSans-48"/>
      </g>
     </g>
    </g>
    <g id="text_6">
     <!-- $\Delta\theta$ (deg) -->
     <g transform="translate(110.284375 270.578125)scale(0.1 -0.1)">
      <defs>
       <path d="M 34.1875 63.1875 
L 14.15625 8.203125 
L 54.25 8.203125 
z
M 0.78125 0 
L 28.609375 72.90625 
L 39.796875 72.90625 
L 67.578125 0 
z
" id="DejaVuSans-916"/>
       <path d="M 45.515625 34.671875 
L 14.453125 34.671875 
Q 12.359375 20.0625 14.5 13.875 
Q 17.1875 6.25 24.46875 6.25 
Q 31.78125 6.25 37.359375 13.921875 
Q 42.234375 20.65625 45.515625 34.671875 
z
M 47.015625 42.96875 
Q 48.34375 56.84375 46.625 61.71875 
Q 43.953125 69.4375 36.765625 69.4375 
Q 29.296875 69.4375 23.828125 61.8125 
Q 19.53125 55.671875 16.15625 42.96875 
z
M 38.1875 76.765625 
Q 49.90625 76.765625 54.59375 66.40625 
Q 59.28125 56.109375 55.71875 37.84375 
Q 52.203125 19.625 43.453125 9.28125 
Q 34.765625 -1.125 23.046875 -1.125 
Q 11.28125 -1.125 6.640625 9.28125 
Q 2 19.625 5.515625 37.84375 
Q 9.078125 56.109375 17.71875 66.40625 
Q 26.421875 76.765625 38.1875 76.765625 
z
" id="DejaVuSans-Oblique-952"/>
       <path id="DejaVuSans-32"/>
       <path d="M 31 75.875 
Q 24.46875 64.65625 21.28125 53.65625 
Q 18.109375 42.671875 18.109375 31.390625 
Q 18.109375 20.125 21.3125 9.0625 
Q 24.515625 -2 31 -13.1875 
L 23.1875 -13.1875 
Q 15.875 -1.703125 12.234375 9.375 
Q 8.59375 20.453125 8.59375 31.390625 
Q 8.59375 42.28125 12.203125 53.3125 
Q 15.828125 64.359375 23.1875 75.875 
z
" id="DejaVuSans-40"/>
       <path d="M 45.40625 46.390625 
L 45.40625 75.984375 
L 54.390625 75.984375 
L 54.390625 0 
L 45.40625 0 
L 45.40625 8.203125 
Q 42.578125 3.328125 38.25 0.953125 
Q 33.9375 -1.421875 27.875 -1.421875 
Q 17.96875 -1.421875 11.734375 6.484375 
Q 5.515625 14.40625 5.515625 27.296875 
Q 5.515625 40.1875 11.734375 48.09375 
Q 17.96875 56 27.875 56 
Q 33.9375 56 38.25 53.625 
Q 42.578125 51.265625 45.40625 46.390625 
z
M 14.796875 27.296875 
Q 14.796875 17.390625 18.875 11.75 
Q 22.953125 6.109375 30.078125 6.109375 
Q 37.203125 6.109375 41.296875 11.75 
Q 45.40625 17.390625 45.40625 27.296875 
Q 45.40625 37.203125 41.296875 42.84375 
Q 37.203125 48.484375 30.078125 48.484375 
Q 22.953125 48.484375 18.875 42.84375 
Q 14.796875 37.203125 14.796875 27.296875 
z
" id="DejaVuSans-100"/>
       <path d="M 56.203125 29.59375 
L 56.203125 25.203125 
L 14.890625 25.203125 
Q 15.484375 15.921875 20.484375 11.0625 
Q 25.484375 6.203125 34.421875 6.203125 
Q 39.59375 6.203125 44.453125 7.46875 
Q 49.3125 8.734375 54.109375 11.28125 
L 54.109375 2.78125 
Q 49.265625 0.734375 44.1875 -0.34375 
Q 39.109375 -1.421875 33.890625 -1.421875 
Q 20.796875 -1.421875 13.15625 6.1875 
Q 5.515625 13.8125 5.515625 26.8125 
Q 5.515625 40.234375 12.765625 48.109375 
Q 20.015625 56 32.328125 56 
Q 43.359375 56 49.78125 48.890625 
Q 56.203125 41.796875 56.203125 29.59375 
z
M 47.21875 32.234375 
Q 47.125 39.59375 43.09375 43.984375 
Q 39.0625 48.390625 32.421875 48.390625 
Q 24.90625 48.390625 20.390625 44.140625 
Q 15.875 39.890625 15.1875 32.171875 
z
" id="DejaVuSans-101"/>
       <path d="M 45.40625 27.984375 
Q 45.40625 37.75 41.375 43.109375 
Q 37.359375 48.484375 30.078125 48.484375 
Q 22.859375 48.484375 18.828125 43.109375 
Q 14.796875 37.75 14.796875 27.984375 
Q 14.796875 18.265625 18.828125 12.890625 
Q 22.859375 7.515625 30.078125 7.515625 
Q 37.359375 7.515625 41.375 12.890625 
Q 45.40625 18.265625 45.40625 27.984375 
z
M 54.390625 6.78125 
Q 54.390625 -7.171875 48.1875 -13.984375 
Q 42 -20.796875 29.203125 -20.796875 
Q 24.46875 -20.796875 20.265625 -20.09375 
Q 16.0625 -19.390625 12.109375 -17.921875 
L 12.109375 -9.1875 
Q 16.0625 -11.328125 19.921875 -12.34375 
Q 23.78125 -13.375 27.78125 -13.375 
Q 36.625 -13.375 41.015625 -8.765625 
Q 45.40625 -4.15625 45.40625 5.171875 
L 45.40625 9.625 
Q 42.625 4.78125 38.28125 2.390625 
Q 33.9375 0 27.875 0 
Q 17.828125 0 11.671875 7.65625 
Q 5.515625 15.328125 5.515625 27.984375 
Q 5.515625 40.671875 11.671875 48.328125 
Q 17.828125 56 27.875 56 
Q 33.9375 56 38.28125 53.609375 
Q 42.625 51.21875 45.40625 46.390625 
L 45.40625 54.6875 
L 54.390625 54.6875 
z
" id="DejaVuSans-103"/>
       <path d="M 8.015625 75.875 
L 15.828125 75.875 
Q 23.140625 64.359375 26.78125 53.3125 
Q 30.421875 42.28125 30.421875 31.390625 
Q 30.421875 20.453125 26.78125 9.375 
Q 23.140625 -1.703125 15.828125 -13.1875 
L 8.015625 -13.1875 
Q 14.5 -2 17.703125 9.0625 
Q 20.90625 20.125 20.90625 31.390625 
Q 20.90625 42.671875 17.703125 53.65625 
Q 14.5 64.65625 8.015625 75.875 
z
" id="DejaVuSans-41"/>
      </defs>
      <use transform="translate(0 0.234375)" xlink:href="#DejaVuSans-916"/>
      <use transform="translate(68.408203 0.234375)" xlink:href="#DejaVuSans-Oblique-952"/>
      <use transform="translate(129.589844 0.234375)" xlink:href="#DejaVuSans-32"/>
      <use transform="translate(161.376953 0.234375)" xlink:href="#DejaVuSans-40"/>
      <use transform="translate(200.390625 0.234375)" xlink:href="#DejaVuSans-100"/>
      <use transform="translate(263.867188 0.234375)" xlink:href="#DejaVuSans-101"/>
      <use transform="translate(325.390625 0.234375)" xlink:href="#DejaVuSans-103"/>
      <use transform="translate(388.867188 0.234375)" xlink:href="#DejaVuSans-41"/>
     </g>
    </g>
   </g>
   <g id="matplotlib.axis_2">
    <g id="ytick_1">
     <g id="line2d_6">
      <defs>
       <path d="M 0 0 
L -3.5 0 
" id="maf77cd45fc" style="stroke:#000000;stroke-width:0.8;"/>
      </defs>
      <g>
       <use style="stroke:#000000;stroke-width:0.8;" x="46.55" xlink:href="#maf77cd45fc" y="226.814286"/>
      </g>
     </g>
     <g id="text_7">
      <!-- −6 -->
      <g transform="translate(24.807812 230.613504)scale(0.1 -0.1)">
       <defs>
        <path d="M 33.015625 40.375 
Q 26.375 40.375 22.484375 35.828125 
Q 18.609375 31.296875 18.609375 23.390625 
Q 18.609375 15.53125 22.484375 10.953125 
Q 26.375 6.390625 33.015625 6.390625 
Q 39.65625 6.390625 43.53125 10.953125 
Q 47.40625 15.53125 47.40625 23.390625 
Q 47.40625 31.296875 43.53125 35.828125 
Q 39.65625 40.375 33.015625 40.375 
z
M 52.59375 71.296875 
L 52.59375 62.3125 
Q 48.875 64.0625 45.09375 64.984375 
Q 41.3125 65.921875 37.59375 65.921875 
Q 27.828125 65.921875 22.671875 59.328125 
Q 17.53125 52.734375 16.796875 39.40625 
Q 19.671875 43.65625 24.015625 45.921875 
Q 28.375 48.1875 33.59375 48.1875 
Q 44.578125 48.1875 50.953125 41.515625 
Q 57.328125 34.859375 57.328125 23.390625 
Q 57.328125 12.15625 50.6875 5.359375 
Q 44.046875 -1.421875 33.015625 -1.421875 
Q 20.359375 -1.421875 13.671875 8.265625 
Q 6.984375 17.96875 6.984375 36.375 
Q 6.984375 53.65625 15.1875 63.9375 
Q 23.390625 74.21875 37.203125 74.21875 
Q 40.921875 74.21875 44.703125 73.484375 
Q 48.484375 72.75 52.59375 71.296875 
z
" id="DejaVuSans-54"/>
       </defs>
       <use xlink:href="#DejaVuSans-8722"/>
       <use x="83.789062" xlink:href="#DejaVuSans-54"/>
      </g>
     </g>
    </g>
    <g id="ytick_2">
     <g id="line2d_7">
      <g>
       <use style="stroke:#000000;stroke-width:0.8;" x="46.55" xlink:href="#maf77cd45fc" y="196.042857"/>
      </g>
     </g>
     <g id="text_8">
      <!-- −4 -->
      <g transform="translate(24.807812 199.842076)scale(0.1 -0.1)">
       <use xlink:href="#DejaVuSans-8722"/>
       <use x="83.789062" xlink:href="#DejaVuSans-52"/>
      </g>
     </g>
    </g>
    <g id="ytick_3">
     <g id="line2d_8">
      <g>
       <use style="stroke:#000000;stroke-width:0.8;" x="46.55" xlink:href="#maf77cd45fc" y="165.271429"/>
      </g>
     </g>
     <g id="text_9">
      <!-- −2 -->
      <g transform="translate(24.807812 169.070647)scale(0.1 -0.1)">
       <defs>
        <path d="M 19.1875 8.296875 
L 53.609375 8.296875 
L 53.609375 0 
L 7.328125 0 
L 7.328125 8.296875 
Q 12.9375 14.109375 22.625 23.890625 
Q 32.328125 33.6875 34.8125 36.53125 
Q 39.546875 41.84375 41.421875 45.53125 
Q 43.3125 49.21875 43.3125 52.78125 
Q 43.3125 58.59375 39.234375 62.25 
Q 35.15625 65.921875 28.609375 65.921875 
Q 23.96875 65.921875 18.8125 64.3125 
Q 13.671875 62.703125 7.8125 59.421875 
L 7.8125 69.390625 
Q 13.765625 71.78125 18.9375 73 
Q 24.125 74.21875 28.421875 74.21875 
Q 39.75 74.21875 46.484375 68.546875 
Q 53.21875 62.890625 53.21875 53.421875 
Q 53.21875 48.921875 51.53125 44.890625 
Q 49.859375 40.875 45.40625 35.40625 
Q 44.1875 33.984375 37.640625 27.21875 
Q 31.109375 20.453125 19.1875 8.296875 
z
" id="DejaVuSans-50"/>
       </defs>
       <use xlink:href="#DejaVuSans-8722"/>
       <use x="83.789062" xlink:href="#DejaVuSans-50"/>
      </g>
     </g>
    </g>
    <g id="ytick_4">
     <g id="line2d_9">
      <g>
       <use style="stroke:#000000;stroke-width:0.8;" x="46.55" xlink:href="#maf77cd45fc" y="134.5"/>
      </g>
     </g>
     <g id="text_10">
      <!-- 0 -->
      <g transform="translate(33.1875 138.299219)scale(0.1 -0.1)">
       <use xlink:href="#DejaVuSans-48"/>
      </g>
     </g>
    </g>
    <g id="ytick_5">
     <g id="line2d_10">
      <g>
       <use style="stroke:#000000;stroke-width:0.8;" x="46.55" xlink:href="#maf77cd45fc" y="103.728571"/>
      </g>
     </g>
     <g id="text_11">
      <!-- 2 -->
      <g transform="translate(33.1875 107.52779)scale(0.1 -0.1)">
       <use xlink:href="#DejaVuSans-50"/>
      </g>
     </g>
    </g>
    <g id="ytick_6">
     <g id="line2d_11">
      <g>
       <use style="stroke:#000000;stroke-width:0.8;" x="46.55" xlink:href="#maf77cd45fc" y="72.957143"/>
      </g>
     </g>
     <g id="text_12">
      <!-- 4 -->
      <g transform="translate(33.1875 76.756362)scale(0.1 -0.1)">
       <use xlink:href="#DejaVuSans-52"/>
      </g>
     </g>
    </g>
    <g id="ytick_7">
     <g id="line2d_12">
      <g>
       <use style="stroke:#000000;stroke-width:0.8;" x="46.55" xlink:href="#maf77cd45fc" y="42.185714"/>
      </g>
     </g>
     <g id="text_13">
      <!-- 6 -->
      <g transform="translate(33.1875 45.984933)scale(0.1 -0.1)">
       <use xlink:href="#DejaVuSans-54"/>
      </g>
     </g>
    </g>
    <g id="text_14">
     <!-- Bias (deg) -->
     <g transform="translate(18.728125 159.903906)rotate(-90)scale(0.1 -0.1)">
      <defs>
       <path d="M 19.671875 34.8125 
L 19.671875 8.109375 
L 35.5 8.109375 
Q 43.453125 8.109375 47.28125 11.40625 
Q 51.125 14.703125 51.125 21.484375 
Q 51.125 28.328125 47.28125 31.5625 
Q 43.453125 34.8125 35.5 34.8125 
z
M 19.671875 64.796875 
L 19.671875 42.828125 
L 34.28125 42.828125 
Q 41.5 42.828125 45.03125 45.53125 
Q 48.578125 48.25 48.578125 53.8125 
Q 48.578125 59.328125 45.03125 62.0625 
Q 41.5 64.796875 34.28125 64.796875 
z
M 9.8125 72.90625 
L 35.015625 72.90625 
Q 46.296875 72.90625 52.390625 68.21875 
Q 58.5 63.53125 58.5 54.890625 
Q 58.5 48.1875 55.375 44.234375 
Q 52.25 40.28125 46.1875 39.3125 
Q 53.46875 37.75 57.5 32.78125 
Q 61.53125 27.828125 61.53125 20.40625 
Q 61.53125 10.640625 54.890625 5.3125 
Q 48.25 0 35.984375 0 
L 9.8125 0 
z
" id="DejaVuSans-66"/>
       <path d="M 9.421875 54.6875 
L 18.40625 54.6875 
L 18.40625 0 
L 9.421875 0 
z
M 9.421875 75.984375 
L 18.40625 75.984375 
L 18.40625 64.59375 
L 9.421875 64.59375 
z
" id="DejaVuSans-105"/>
       <path d="M 34.28125 27.484375 
Q 23.390625 27.484375 19.1875 25 
Q 14.984375 22.515625 14.984375 16.5 
Q 14.984375 11.71875 18.140625 8.90625 
Q 21.296875 6.109375 26.703125 6.109375 
Q 34.1875 6.109375 38.703125 11.40625 
Q 43.21875 16.703125 43.21875 25.484375 
L 43.21875 27.484375 
z
M 52.203125 31.203125 
L 52.203125 0 
L 43.21875 0 
L 43.21875 8.296875 
Q 40.140625 3.328125 35.546875 0.953125 
Q 30.953125 -1.421875 24.3125 -1.421875 
Q 15.921875 -1.421875 10.953125 3.296875 
Q 6 8.015625 6 15.921875 
Q 6 25.140625 12.171875 29.828125 
Q 18.359375 34.515625 30.609375 34.515625 
L 43.21875 34.515625 
L 43.21875 35.40625 
Q 43.21875 41.609375 39.140625 45 
Q 35.0625 48.390625 27.6875 48.390625 
Q 23 48.390625 18.546875 47.265625 
Q 14.109375 46.140625 10.015625 43.890625 
L 10.015625 52.203125 
Q 14.9375 54.109375 19.578125 55.046875 
Q 24.21875 56 28.609375 56 
Q 40.484375 56 46.34375 49.84375 
Q 52.203125 43.703125 52.203125 31.203125 
z
" id="DejaVuSans-97"/>
       <path d="M 44.28125 53.078125 
L 44.28125 44.578125 
Q 40.484375 46.53125 36.375 47.5 
Q 32.28125 48.484375 27.875 48.484375 
Q 21.1875 48.484375 17.84375 46.4375 
Q 14.5 44.390625 14.5 40.28125 
Q 14.5 37.15625 16.890625 35.375 
Q 19.28125 33.59375 26.515625 31.984375 
L 29.59375 31.296875 
Q 39.15625 29.25 43.1875 25.515625 
Q 47.21875 21.78125 47.21875 15.09375 
Q 47.21875 7.46875 41.1875 3.015625 
Q 35.15625 -1.421875 24.609375 -1.421875 
Q 20.21875 -1.421875 15.453125 -0.5625 
Q 10.6875 0.296875 5.421875 2 
L 5.421875 11.28125 
Q 10.40625 8.6875 15.234375 7.390625 
Q 20.0625 6.109375 24.8125 6.109375 
Q 31.15625 6.109375 34.5625 8.28125 
Q 37.984375 10.453125 37.984375 14.40625 
Q 37.984375 18.0625 35.515625 20.015625 
Q 33.0625 21.96875 24.703125 23.78125 
L 21.578125 24.515625 
Q 13.234375 26.265625 9.515625 29.90625 
Q 5.8125 33.546875 5.8125 39.890625 
Q 5.8125 47.609375 11.28125 51.796875 
Q 16.75 56 26.8125 56 
Q 31.78125 56 36.171875 55.265625 
Q 40.578125 54.546875 44.28125 53.078125 
z
" id="DejaVuSans-115"/>
      </defs>
      <use xlink:href="#DejaVuSans-66"/>
      <use x="68.603516" xlink:href="#DejaVuSans-105"/>
      <use x="96.386719" xlink:href="#DejaVuSans-97"/>
      <use x="157.666016" xlink:href="#DejaVuSans-115"/>
      <use x="209.765625" xlink:href="#DejaVuSans-32"/>
      <use x="241.552734" xlink:href="#DejaVuSans-40"/>
      <use x="280.566406" xlink:href="#DejaVuSans-100"/>
      <use x="344.042969" xlink:href="#DejaVuSans-101"/>
      <use x="405.566406" xlink:href="#DejaVuSans-103"/>
      <use x="469.042969" xlink:href="#DejaVuSans-41"/>
     </g>
    </g>
   </g>
   <g id="line2d_13">
    <path clip-path="url(#p559f47f2ad)" d="M 46.55 134.5 
L 216.81875 134.5 
" style="fill:none;stroke:#000000;stroke-dasharray:5.55,2.4;stroke-dashoffset:0;stroke-width:1.5;"/>
   </g>
   <g id="line2d_14">
    <path clip-path="url(#p559f47f2ad)" d="M 131.684375 242.2 
L 131.684375 26.8 
" style="fill:none;stroke:#0000ff;stroke-dasharray:5.55,2.4;stroke-dashoffset:0;stroke-width:1.5;"/>
   </g>
   <g id="patch_3">
    <path d="M 46.55 242.2 
L 46.55 26.8 
" style="fill:none;stroke:#000000;stroke-linecap:square;stroke-linejoin:miter;stroke-width:0.8;"/>
   </g>
   <g id="patch_4">
    <path d="M 216.81875 242.2 
L 216.81875 26.8 
" style="fill:none;stroke:#000000;stroke-linecap:square;stroke-linejoin:miter;stroke-width:0.8;"/>
   </g>
   <g id="patch_5">
    <path d="M 46.55 242.2 
L 216.81875 242.2 
" style="fill:none;stroke:#000000;stroke-linecap:square;stroke-linejoin:miter;stroke-width:0.8;"/>
   </g>
   <g id="patch_6">
    <path d="M 46.55 26.8 
L 216.81875 26.8 
" style="fill:none;stroke:#000000;stroke-linecap:square;stroke-linejoin:miter;stroke-width:0.8;"/>
   </g>
   <g id="text_15">
    <!-- In Order -->
    <g transform="translate(107.152812 20.8)scale(0.12 -0.12)">
     <defs>
      <path d="M 9.8125 72.90625 
L 19.671875 72.90625 
L 19.671875 0 
L 9.8125 0 
z
" id="DejaVuSans-73"/>
      <path d="M 54.890625 33.015625 
L 54.890625 0 
L 45.90625 0 
L 45.90625 32.71875 
Q 45.90625 40.484375 42.875 44.328125 
Q 39.84375 48.1875 33.796875 48.1875 
Q 26.515625 48.1875 22.3125 43.546875 
Q 18.109375 38.921875 18.109375 30.90625 
L 18.109375 0 
L 9.078125 0 
L 9.078125 54.6875 
L 18.109375 54.6875 
L 18.109375 46.1875 
Q 21.34375 51.125 25.703125 53.5625 
Q 30.078125 56 35.796875 56 
Q 45.21875 56 50.046875 50.171875 
Q 54.890625 44.34375 54.890625 33.015625 
z
" id="DejaVuSans-110"/>
      <path d="M 39.40625 66.21875 
Q 28.65625 66.21875 22.328125 58.203125 
Q 16.015625 50.203125 16.015625 36.375 
Q 16.015625 22.609375 22.328125 14.59375 
Q 28.65625 6.59375 39.40625 6.59375 
Q 50.140625 6.59375 56.421875 14.59375 
Q 62.703125 22.609375 62.703125 36.375 
Q 62.703125 50.203125 56.421875 58.203125 
Q 50.140625 66.21875 39.40625 66.21875 
z
M 39.40625 74.21875 
Q 54.734375 74.21875 63.90625 63.9375 
Q 73.09375 53.65625 73.09375 36.375 
Q 73.09375 19.140625 63.90625 8.859375 
Q 54.734375 -1.421875 39.40625 -1.421875 
Q 24.03125 -1.421875 14.8125 8.828125 
Q 5.609375 19.09375 5.609375 36.375 
Q 5.609375 53.65625 14.8125 63.9375 
Q 24.03125 74.21875 39.40625 74.21875 
z
" id="DejaVuSans-79"/>
      <path d="M 41.109375 46.296875 
Q 39.59375 47.171875 37.8125 47.578125 
Q 36.03125 48 33.890625 48 
Q 26.265625 48 22.1875 43.046875 
Q 18.109375 38.09375 18.109375 28.8125 
L 18.109375 0 
L 9.078125 0 
L 9.078125 54.6875 
L 18.109375 54.6875 
L 18.109375 46.1875 
Q 20.953125 51.171875 25.484375 53.578125 
Q 30.03125 56 36.53125 56 
Q 37.453125 56 38.578125 55.875 
Q 39.703125 55.765625 41.0625 55.515625 
z
" id="DejaVuSans-114"/>
     </defs>
     <use xlink:href="#DejaVuSans-73"/>
     <use x="29.492188" xlink:href="#DejaVuSans-110"/>
     <use x="92.871094" xlink:href="#DejaVuSans-32"/>
     <use x="124.658203" xlink:href="#DejaVuSans-79"/>
     <use x="203.369141" xlink:href="#DejaVuSans-114"/>
     <use x="242.732422" xlink:href="#DejaVuSans-100"/>
     <use x="306.208984" xlink:href="#DejaVuSans-101"/>
     <use x="367.732422" xlink:href="#DejaVuSans-114"/>
    </g>
   </g>
   <g id="legend_1">
    <g id="patch_7">
     <path d="M 53.55 78.834375 
L 99.35 78.834375 
Q 101.35 78.834375 101.35 76.834375 
L 101.35 33.8 
Q 101.35 31.8 99.35 31.8 
L 53.55 31.8 
Q 51.55 31.8 51.55 33.8 
L 51.55 76.834375 
Q 51.55 78.834375 53.55 78.834375 
z
" style="fill:#ffffff;opacity:0.8;stroke:#cccccc;stroke-linejoin:miter;"/>
    </g>
    <g id="text_16">
     <!-- Sort -->
     <g transform="translate(66.200781 43.398437)scale(0.1 -0.1)">
      <defs>
       <path d="M 53.515625 70.515625 
L 53.515625 60.890625 
Q 47.90625 63.578125 42.921875 64.890625 
Q 37.9375 66.21875 33.296875 66.21875 
Q 25.25 66.21875 20.875 63.09375 
Q 16.5 59.96875 16.5 54.203125 
Q 16.5 49.359375 19.40625 46.890625 
Q 22.3125 44.4375 30.421875 42.921875 
L 36.375 41.703125 
Q 47.40625 39.59375 52.65625 34.296875 
Q 57.90625 29 57.90625 20.125 
Q 57.90625 9.515625 50.796875 4.046875 
Q 43.703125 -1.421875 29.984375 -1.421875 
Q 24.8125 -1.421875 18.96875 -0.25 
Q 13.140625 0.921875 6.890625 3.21875 
L 6.890625 13.375 
Q 12.890625 10.015625 18.65625 8.296875 
Q 24.421875 6.59375 29.984375 6.59375 
Q 38.421875 6.59375 43.015625 9.90625 
Q 47.609375 13.234375 47.609375 19.390625 
Q 47.609375 24.75 44.3125 27.78125 
Q 41.015625 30.8125 33.5 32.328125 
L 27.484375 33.5 
Q 16.453125 35.6875 11.515625 40.375 
Q 6.59375 45.0625 6.59375 53.421875 
Q 6.59375 63.09375 13.40625 68.65625 
Q 20.21875 74.21875 32.171875 74.21875 
Q 37.3125 74.21875 42.625 73.28125 
Q 47.953125 72.359375 53.515625 70.515625 
z
" id="DejaVuSans-83"/>
       <path d="M 30.609375 48.390625 
Q 23.390625 48.390625 19.1875 42.75 
Q 14.984375 37.109375 14.984375 27.296875 
Q 14.984375 17.484375 19.15625 11.84375 
Q 23.34375 6.203125 30.609375 6.203125 
Q 37.796875 6.203125 41.984375 11.859375 
Q 46.1875 17.53125 46.1875 27.296875 
Q 46.1875 37.015625 41.984375 42.703125 
Q 37.796875 48.390625 30.609375 48.390625 
z
M 30.609375 56 
Q 42.328125 56 49.015625 48.375 
Q 55.71875 40.765625 55.71875 27.296875 
Q 55.71875 13.875 49.015625 6.21875 
Q 42.328125 -1.421875 30.609375 -1.421875 
Q 18.84375 -1.421875 12.171875 6.21875 
Q 5.515625 13.875 5.515625 27.296875 
Q 5.515625 40.765625 12.171875 48.375 
Q 18.84375 56 30.609375 56 
z
" id="DejaVuSans-111"/>
       <path d="M 18.3125 70.21875 
L 18.3125 54.6875 
L 36.8125 54.6875 
L 36.8125 47.703125 
L 18.3125 47.703125 
L 18.3125 18.015625 
Q 18.3125 11.328125 20.140625 9.421875 
Q 21.96875 7.515625 27.59375 7.515625 
L 36.8125 7.515625 
L 36.8125 0 
L 27.59375 0 
Q 17.1875 0 13.234375 3.875 
Q 9.28125 7.765625 9.28125 18.015625 
L 9.28125 47.703125 
L 2.6875 47.703125 
L 2.6875 54.6875 
L 9.28125 54.6875 
L 9.28125 70.21875 
z
" id="DejaVuSans-116"/>
      </defs>
      <use xlink:href="#DejaVuSans-83"/>
      <use x="63.476562" xlink:href="#DejaVuSans-111"/>
      <use x="124.658203" xlink:href="#DejaVuSans-114"/>
      <use x="165.771484" xlink:href="#DejaVuSans-116"/>
     </g>
    </g>
    <g id="patch_8">
     <path d="M 55.55 58.076562 
L 75.55 58.076562 
L 75.55 51.076562 
L 55.55 51.076562 
z
" style="stroke:#000000;stroke-linejoin:miter;"/>
    </g>
    <g id="text_17">
     <!-- $\Delta S$ -->
     <g transform="translate(83.55 58.076562)scale(0.1 -0.1)">
      <defs>
       <path d="M 60.296875 70.515625 
L 58.40625 60.890625 
Q 53.46875 63.53125 48.609375 64.875 
Q 43.75 66.21875 39.203125 66.21875 
Q 30.375 66.21875 25.140625 62.359375 
Q 19.921875 58.5 19.921875 52.09375 
Q 19.921875 48.578125 21.84375 46.703125 
Q 23.78125 44.828125 31.78125 42.671875 
L 37.703125 41.21875 
Q 47.703125 38.625 51.609375 34.640625 
Q 55.515625 30.671875 55.515625 23.484375 
Q 55.515625 12.453125 46.84375 5.515625 
Q 38.1875 -1.421875 24.03125 -1.421875 
Q 18.21875 -1.421875 12.359375 -0.265625 
Q 6.5 0.875 0.59375 3.21875 
L 2.59375 13.375 
Q 8.015625 10.015625 13.453125 8.296875 
Q 18.890625 6.59375 24.3125 6.59375 
Q 33.546875 6.59375 39.109375 10.6875 
Q 44.671875 14.796875 44.671875 21.390625 
Q 44.671875 25.78125 42.453125 28.046875 
Q 40.234375 30.328125 32.90625 32.171875 
L 27 33.6875 
Q 16.890625 36.328125 13.203125 39.765625 
Q 9.515625 43.21875 9.515625 49.421875 
Q 9.515625 60.296875 17.890625 67.25 
Q 26.265625 74.21875 39.703125 74.21875 
Q 44.921875 74.21875 50.046875 73.28125 
Q 55.171875 72.359375 60.296875 70.515625 
z
" id="DejaVuSans-Oblique-83"/>
      </defs>
      <use transform="translate(0 0.78125)" xlink:href="#DejaVuSans-916"/>
      <use transform="translate(68.408203 0.78125)" xlink:href="#DejaVuSans-Oblique-83"/>
     </g>
    </g>
    <g id="patch_9">
     <path d="M 55.55 72.754687 
L 75.55 72.754687 
L 75.55 65.754687 
L 55.55 65.754687 
z
" style="fill:#00bfbf;stroke:#00bfbf;stroke-linejoin:miter;"/>
    </g>
    <g id="text_18">
     <!-- $\Delta R$ -->
     <g transform="translate(83.55 72.754687)scale(0.1 -0.1)">
      <defs>
       <path d="M 25.203125 64.796875 
L 20.21875 38.921875 
L 32.90625 38.921875 
Q 40.375 38.921875 44.984375 43.046875 
Q 49.609375 47.171875 49.609375 53.8125 
Q 49.609375 59.125 46.5 61.953125 
Q 43.40625 64.796875 37.59375 64.796875 
z
M 43.3125 35.015625 
Q 46.4375 34.28125 48.515625 31.390625 
Q 50.59375 28.515625 53.328125 19.921875 
L 59.515625 0 
L 49.125 0 
L 43.40625 18.703125 
Q 41.21875 25.921875 38.328125 28.359375 
Q 35.453125 30.8125 29.5 30.8125 
L 18.609375 30.8125 
L 12.59375 0 
L 2.6875 0 
L 16.890625 72.90625 
L 39.109375 72.90625 
Q 49.21875 72.90625 54.609375 68.328125 
Q 60.015625 63.765625 60.015625 55.171875 
Q 60.015625 47.5625 55.421875 41.984375 
Q 50.828125 36.421875 43.3125 35.015625 
z
" id="DejaVuSans-Oblique-82"/>
      </defs>
      <use transform="translate(0 0.09375)" xlink:href="#DejaVuSans-916"/>
      <use transform="translate(68.408203 0.09375)" xlink:href="#DejaVuSans-Oblique-82"/>
     </g>
    </g>
   </g>
  </g>
  <g id="axes_2">
   <g id="patch_10">
    <path d="M 244.55625 242.2 
L 414.825 242.2 
L 414.825 26.8 
L 244.55625 26.8 
z
" style="fill:#ffffff;"/>
   </g>
   <g id="PolyCollection_3">
    <defs>
     <path d="M 244.55625 -151.470738 
L 244.55625 -148.008121 
L 246.448125 -147.265325 
L 248.34 -147.699756 
L 250.231875 -148.454526 
L 252.12375 -147.4929 
L 254.015625 -147.949482 
L 255.9075 -146.83473 
L 257.799375 -147.715375 
L 259.69125 -146.94944 
L 261.583125 -145.365196 
L 263.475 -144.219212 
L 265.366875 -144.222203 
L 267.25875 -144.910475 
L 269.150625 -143.892227 
L 271.0425 -144.857526 
L 272.934375 -145.84543 
L 274.82625 -145.889976 
L 276.718125 -145.771642 
L 278.61 -145.965818 
L 280.501875 -146.572293 
L 282.39375 -145.837317 
L 284.285625 -144.922947 
L 286.1775 -146.61527 
L 288.069375 -147.438708 
L 289.96125 -146.574993 
L 291.853125 -146.613787 
L 293.745 -146.429424 
L 295.636875 -145.560288 
L 297.52875 -146.199096 
L 299.420625 -145.984456 
L 301.3125 -146.453958 
L 303.204375 -145.705928 
L 305.09625 -145.686857 
L 306.988125 -146.572983 
L 308.88 -147.02116 
L 310.771875 -146.857319 
L 312.66375 -146.835893 
L 314.555625 -147.251968 
L 316.4475 -148.318928 
L 318.339375 -149.021348 
L 320.23125 -148.711585 
L 322.123125 -149.647139 
L 324.015 -147.742586 
L 325.906875 -147.376913 
L 327.79875 -147.293863 
L 329.690625 -147.522471 
L 331.5825 -146.816456 
L 333.474375 -146.618374 
L 335.36625 -147.365073 
L 337.258125 -147.962861 
L 339.15 -147.017569 
L 341.041875 -145.955832 
L 342.93375 -146.694198 
L 344.825625 -147.22884 
L 346.7175 -146.588558 
L 348.609375 -146.672245 
L 350.50125 -146.368013 
L 352.393125 -146.076307 
L 354.285 -145.429929 
L 356.176875 -144.876926 
L 358.06875 -145.942821 
L 359.960625 -146.498882 
L 361.8525 -146.70628 
L 363.744375 -147.259945 
L 365.63625 -146.329064 
L 367.528125 -146.612793 
L 369.42 -147.753563 
L 371.311875 -145.581402 
L 373.20375 -147.144159 
L 375.095625 -148.804948 
L 376.9875 -148.656971 
L 378.879375 -148.666557 
L 380.77125 -148.558812 
L 382.663125 -148.83792 
L 384.555 -147.353439 
L 386.446875 -146.958042 
L 388.33875 -146.562965 
L 390.230625 -145.022696 
L 392.1225 -144.071926 
L 394.014375 -146.661046 
L 395.90625 -146.985064 
L 397.798125 -147.584963 
L 399.69 -148.593145 
L 401.581875 -148.659464 
L 403.47375 -148.073323 
L 405.365625 -146.353241 
L 407.2575 -146.448137 
L 409.149375 -145.398326 
L 411.04125 -144.16717 
L 412.933125 -146.036667 
L 414.825 -146.350127 
L 414.825 -149.890021 
L 414.825 -149.890021 
L 412.933125 -149.495641 
L 411.04125 -147.673725 
L 409.149375 -148.56585 
L 407.2575 -149.664634 
L 405.365625 -149.466715 
L 403.47375 -151.213279 
L 401.581875 -151.873269 
L 399.69 -151.762338 
L 397.798125 -150.777364 
L 395.90625 -150.168741 
L 394.014375 -149.789403 
L 392.1225 -147.148261 
L 390.230625 -148.06909 
L 388.33875 -149.662043 
L 386.446875 -150.052285 
L 384.555 -150.496432 
L 382.663125 -152.067648 
L 380.77125 -151.830357 
L 378.879375 -151.825883 
L 376.9875 -151.754078 
L 375.095625 -151.932272 
L 373.20375 -150.27845 
L 371.311875 -148.690848 
L 369.42 -150.87107 
L 367.528125 -149.714033 
L 365.63625 -149.444627 
L 363.744375 -150.386986 
L 361.8525 -149.835189 
L 359.960625 -149.566113 
L 358.06875 -149.108257 
L 356.176875 -148.088597 
L 354.285 -148.598056 
L 352.393125 -149.264094 
L 350.50125 -149.587134 
L 348.609375 -149.918906 
L 346.7175 -149.871014 
L 344.825625 -150.454132 
L 342.93375 -149.905271 
L 341.041875 -149.092252 
L 339.15 -150.024305 
L 337.258125 -151.017834 
L 335.36625 -150.397596 
L 333.474375 -149.639871 
L 331.5825 -149.8201 
L 329.690625 -150.617809 
L 327.79875 -150.47694 
L 325.906875 -150.678392 
L 324.015 -151.031554 
L 322.123125 -152.907757 
L 320.23125 -151.933164 
L 318.339375 -152.1802 
L 316.4475 -151.419397 
L 314.555625 -150.314151 
L 312.66375 -149.902473 
L 310.771875 -149.916433 
L 308.88 -150.204968 
L 306.988125 -149.730425 
L 305.09625 -148.869746 
L 303.204375 -148.917747 
L 301.3125 -149.65424 
L 299.420625 -149.200414 
L 297.52875 -149.375988 
L 295.636875 -148.622564 
L 293.745 -149.482379 
L 291.853125 -149.786403 
L 289.96125 -149.764617 
L 288.069375 -150.563565 
L 286.1775 -149.67001 
L 284.285625 -147.923511 
L 282.39375 -148.871914 
L 280.501875 -149.568849 
L 278.61 -149.083523 
L 276.718125 -148.93891 
L 274.82625 -149.066505 
L 272.934375 -148.958986 
L 271.0425 -147.93474 
L 269.150625 -147.082772 
L 267.25875 -148.100627 
L 265.366875 -147.365526 
L 263.475 -147.337188 
L 261.583125 -148.309907 
L 259.69125 -149.942918 
L 257.799375 -150.782792 
L 255.9075 -149.972219 
L 254.015625 -151.10671 
L 252.12375 -150.664851 
L 250.231875 -151.626358 
L 248.34 -151.206589 
L 246.448125 -150.666261 
L 244.55625 -151.470738 
z
" id="mb3dcd9364d" style="stroke:#000000;"/>
    </defs>
    <g clip-path="url(#pa0ff395ffd)">
     <use style="stroke:#000000;" x="0" xlink:href="#mb3dcd9364d" y="288"/>
    </g>
   </g>
   <g id="PolyCollection_4">
    <defs>
     <path d="M 244.55625 -147.418182 
L 244.55625 -143.861636 
L 246.448125 -144.226831 
L 248.34 -146.801956 
L 250.231875 -148.16521 
L 252.12375 -148.709671 
L 254.015625 -149.199529 
L 255.9075 -150.421832 
L 257.799375 -150.632777 
L 259.69125 -150.85 
L 261.583125 -150.1345 
L 263.475 -150.647853 
L 265.366875 -149.930817 
L 267.25875 -149.348976 
L 269.150625 -149.832594 
L 271.0425 -148.586027 
L 272.934375 -147.821617 
L 274.82625 -148.251015 
L 276.718125 -149.042898 
L 278.61 -149.115469 
L 280.501875 -149.620386 
L 282.39375 -149.235576 
L 284.285625 -148.609495 
L 286.1775 -146.464813 
L 288.069375 -144.993289 
L 289.96125 -144.510861 
L 291.853125 -142.97295 
L 293.745 -142.831744 
L 295.636875 -141.787876 
L 297.52875 -143.291212 
L 299.420625 -143.423608 
L 301.3125 -144.13254 
L 303.204375 -145.721517 
L 305.09625 -143.24442 
L 306.988125 -143.881549 
L 308.88 -145.254208 
L 310.771875 -145.675497 
L 312.66375 -144.217598 
L 314.555625 -143.145426 
L 316.4475 -145.176144 
L 318.339375 -145.961012 
L 320.23125 -145.474497 
L 322.123125 -145.525848 
L 324.015 -146.660847 
L 325.906875 -147.595833 
L 327.79875 -147.184042 
L 329.690625 -148.398908 
L 331.5825 -147.74543 
L 333.474375 -148.408256 
L 335.36625 -148.526295 
L 337.258125 -148.246738 
L 339.15 -149.152195 
L 341.041875 -148.172025 
L 342.93375 -148.030927 
L 344.825625 -148.847558 
L 346.7175 -148.651294 
L 348.609375 -149.447855 
L 350.50125 -149.163395 
L 352.393125 -149.12994 
L 354.285 -150.245563 
L 356.176875 -149.97099 
L 358.06875 -150.628963 
L 359.960625 -149.579901 
L 361.8525 -150.427854 
L 363.744375 -149.674586 
L 365.63625 -147.479487 
L 367.528125 -147.266662 
L 369.42 -146.863356 
L 371.311875 -146.922963 
L 373.20375 -145.812178 
L 375.095625 -145.660021 
L 376.9875 -147.517848 
L 378.879375 -147.25771 
L 380.77125 -147.565116 
L 382.663125 -147.618633 
L 384.555 -145.664395 
L 386.446875 -146.198809 
L 388.33875 -144.812836 
L 390.230625 -143.834264 
L 392.1225 -142.265476 
L 394.014375 -142.673965 
L 395.90625 -142.403512 
L 397.798125 -142.420284 
L 399.69 -142.892956 
L 401.581875 -143.810057 
L 403.47375 -145.083577 
L 405.365625 -144.047742 
L 407.2575 -144.52156 
L 409.149375 -143.968824 
L 411.04125 -143.125212 
L 412.933125 -143.52146 
L 414.825 -144.37385 
L 414.825 -147.770182 
L 414.825 -147.770182 
L 412.933125 -146.817679 
L 411.04125 -146.510408 
L 409.149375 -147.087769 
L 407.2575 -147.742551 
L 405.365625 -147.319433 
L 403.47375 -148.315513 
L 401.581875 -147.114737 
L 399.69 -146.098038 
L 397.798125 -145.654998 
L 395.90625 -145.567821 
L 394.014375 -145.782867 
L 392.1225 -145.419026 
L 390.230625 -147.057567 
L 388.33875 -147.960327 
L 386.446875 -149.331085 
L 384.555 -148.848004 
L 382.663125 -150.780161 
L 380.77125 -150.634459 
L 378.879375 -150.405683 
L 376.9875 -150.67239 
L 375.095625 -148.7037 
L 373.20375 -148.867234 
L 371.311875 -149.98735 
L 369.42 -149.882012 
L 367.528125 -150.225887 
L 365.63625 -150.477669 
L 363.744375 -152.645461 
L 361.8525 -153.384551 
L 359.960625 -152.618291 
L 358.06875 -153.641154 
L 356.176875 -153.032741 
L 354.285 -153.38267 
L 352.393125 -152.285977 
L 350.50125 -152.189812 
L 348.609375 -152.550633 
L 346.7175 -151.679051 
L 344.825625 -151.924842 
L 342.93375 -151.152547 
L 341.041875 -151.26398 
L 339.15 -152.290215 
L 337.258125 -151.370268 
L 335.36625 -151.706655 
L 333.474375 -151.602196 
L 331.5825 -150.881066 
L 329.690625 -151.557852 
L 327.79875 -150.419561 
L 325.906875 -150.828612 
L 324.015 -149.845926 
L 322.123125 -148.691959 
L 320.23125 -148.561765 
L 318.339375 -149.075595 
L 316.4475 -148.337979 
L 314.555625 -146.330297 
L 312.66375 -147.378752 
L 310.771875 -148.876238 
L 308.88 -148.449092 
L 306.988125 -147.131561 
L 305.09625 -146.469379 
L 303.204375 -148.948212 
L 301.3125 -147.246045 
L 299.420625 -146.596005 
L 297.52875 -146.51182 
L 295.636875 -145.043694 
L 293.745 -146.032481 
L 291.853125 -146.144116 
L 289.96125 -147.683891 
L 288.069375 -148.150484 
L 286.1775 -149.637767 
L 284.285625 -151.754987 
L 282.39375 -152.316132 
L 280.501875 -152.645101 
L 278.61 -152.229612 
L 276.718125 -152.177821 
L 274.82625 -151.389373 
L 272.934375 -150.939066 
L 271.0425 -151.710649 
L 269.150625 -153.057275 
L 267.25875 -152.680706 
L 265.366875 -153.097631 
L 263.475 -153.703157 
L 261.583125 -153.350658 
L 259.69125 -154.055095 
L 257.799375 -153.754039 
L 255.9075 -153.564208 
L 254.015625 -152.453859 
L 252.12375 -151.942463 
L 250.231875 -151.388348 
L 248.34 -150.285875 
L 246.448125 -147.866978 
L 244.55625 -147.418182 
z
" id="m2de16ff9ec" style="stroke:#00bfbf;"/>
    </defs>
    <g clip-path="url(#pa0ff395ffd)">
     <use style="fill:#00bfbf;stroke:#00bfbf;" x="0" xlink:href="#m2de16ff9ec" y="288"/>
    </g>
   </g>
   <g id="matplotlib.axis_3">
    <g id="xtick_6">
     <g id="line2d_15">
      <g>
       <use style="stroke:#000000;stroke-width:0.8;" x="244.55625" xlink:href="#md9aea792f2" y="242.2"/>
      </g>
     </g>
     <g id="text_19">
      <!-- −90 -->
      <g transform="translate(234.003906 256.798437)scale(0.1 -0.1)">
       <use xlink:href="#DejaVuSans-8722"/>
       <use x="83.789062" xlink:href="#DejaVuSans-57"/>
       <use x="147.412109" xlink:href="#DejaVuSans-48"/>
      </g>
     </g>
    </g>
    <g id="xtick_7">
     <g id="line2d_16">
      <g>
       <use style="stroke:#000000;stroke-width:0.8;" x="287.123437" xlink:href="#md9aea792f2" y="242.2"/>
      </g>
     </g>
     <g id="text_20">
      <!-- −45 -->
      <g transform="translate(276.571094 256.798437)scale(0.1 -0.1)">
       <use xlink:href="#DejaVuSans-8722"/>
       <use x="83.789062" xlink:href="#DejaVuSans-52"/>
       <use x="147.412109" xlink:href="#DejaVuSans-53"/>
      </g>
     </g>
    </g>
    <g id="xtick_8">
     <g id="line2d_17">
      <g>
       <use style="stroke:#000000;stroke-width:0.8;" x="329.690625" xlink:href="#md9aea792f2" y="242.2"/>
      </g>
     </g>
     <g id="text_21">
      <!-- 0 -->
      <g transform="translate(326.509375 256.798437)scale(0.1 -0.1)">
       <use xlink:href="#DejaVuSans-48"/>
      </g>
     </g>
    </g>
    <g id="xtick_9">
     <g id="line2d_18">
      <g>
       <use style="stroke:#000000;stroke-width:0.8;" x="372.257812" xlink:href="#md9aea792f2" y="242.2"/>
      </g>
     </g>
     <g id="text_22">
      <!-- 45 -->
      <g transform="translate(365.895312 256.798437)scale(0.1 -0.1)">
       <use xlink:href="#DejaVuSans-52"/>
       <use x="63.623047" xlink:href="#DejaVuSans-53"/>
      </g>
     </g>
    </g>
    <g id="xtick_10">
     <g id="line2d_19">
      <g>
       <use style="stroke:#000000;stroke-width:0.8;" x="414.825" xlink:href="#md9aea792f2" y="242.2"/>
      </g>
     </g>
     <g id="text_23">
      <!-- 90 -->
      <g transform="translate(408.4625 256.798437)scale(0.1 -0.1)">
       <use xlink:href="#DejaVuSans-57"/>
       <use x="63.623047" xlink:href="#DejaVuSans-48"/>
      </g>
     </g>
    </g>
    <g id="text_24">
     <!-- $\Delta\theta$ (deg) -->
     <g transform="translate(308.290625 270.578125)scale(0.1 -0.1)">
      <use transform="translate(0 0.234375)" xlink:href="#DejaVuSans-916"/>
      <use transform="translate(68.408203 0.234375)" xlink:href="#DejaVuSans-Oblique-952"/>
      <use transform="translate(129.589844 0.234375)" xlink:href="#DejaVuSans-32"/>
      <use transform="translate(161.376953 0.234375)" xlink:href="#DejaVuSans-40"/>
      <use transform="translate(200.390625 0.234375)" xlink:href="#DejaVuSans-100"/>
      <use transform="translate(263.867188 0.234375)" xlink:href="#DejaVuSans-101"/>
      <use transform="translate(325.390625 0.234375)" xlink:href="#DejaVuSans-103"/>
      <use transform="translate(388.867188 0.234375)" xlink:href="#DejaVuSans-41"/>
     </g>
    </g>
   </g>
   <g id="matplotlib.axis_4"/>
   <g id="line2d_20">
    <path clip-path="url(#pa0ff395ffd)" d="M 244.55625 134.5 
L 414.825 134.5 
" style="fill:none;stroke:#000000;stroke-dasharray:5.55,2.4;stroke-dashoffset:0;stroke-width:1.5;"/>
   </g>
   <g id="line2d_21">
    <path clip-path="url(#pa0ff395ffd)" d="M 329.690625 242.2 
L 329.690625 26.8 
" style="fill:none;stroke:#0000ff;stroke-dasharray:5.55,2.4;stroke-dashoffset:0;stroke-width:1.5;"/>
   </g>
   <g id="patch_11">
    <path d="M 244.55625 242.2 
L 244.55625 26.8 
" style="fill:none;stroke:#000000;stroke-linecap:square;stroke-linejoin:miter;stroke-width:0.8;"/>
   </g>
   <g id="patch_12">
    <path d="M 414.825 242.2 
L 414.825 26.8 
" style="fill:none;stroke:#000000;stroke-linecap:square;stroke-linejoin:miter;stroke-width:0.8;"/>
   </g>
   <g id="patch_13">
    <path d="M 244.55625 242.2 
L 414.825 242.2 
" style="fill:none;stroke:#000000;stroke-linecap:square;stroke-linejoin:miter;stroke-width:0.8;"/>
   </g>
   <g id="patch_14">
    <path d="M 244.55625 26.8 
L 414.825 26.8 
" style="fill:none;stroke:#000000;stroke-linecap:square;stroke-linejoin:miter;stroke-width:0.8;"/>
   </g>
   <g id="text_25">
    <!-- Shuffle -->
    <g transform="translate(308.693437 20.8)scale(0.12 -0.12)">
     <defs>
      <path d="M 54.890625 33.015625 
L 54.890625 0 
L 45.90625 0 
L 45.90625 32.71875 
Q 45.90625 40.484375 42.875 44.328125 
Q 39.84375 48.1875 33.796875 48.1875 
Q 26.515625 48.1875 22.3125 43.546875 
Q 18.109375 38.921875 18.109375 30.90625 
L 18.109375 0 
L 9.078125 0 
L 9.078125 75.984375 
L 18.109375 75.984375 
L 18.109375 46.1875 
Q 21.34375 51.125 25.703125 53.5625 
Q 30.078125 56 35.796875 56 
Q 45.21875 56 50.046875 50.171875 
Q 54.890625 44.34375 54.890625 33.015625 
z
" id="DejaVuSans-104"/>
      <path d="M 8.5 21.578125 
L 8.5 54.6875 
L 17.484375 54.6875 
L 17.484375 21.921875 
Q 17.484375 14.15625 20.5 10.265625 
Q 23.53125 6.390625 29.59375 6.390625 
Q 36.859375 6.390625 41.078125 11.03125 
Q 45.3125 15.671875 45.3125 23.6875 
L 45.3125 54.6875 
L 54.296875 54.6875 
L 54.296875 0 
L 45.3125 0 
L 45.3125 8.40625 
Q 42.046875 3.421875 37.71875 1 
Q 33.40625 -1.421875 27.6875 -1.421875 
Q 18.265625 -1.421875 13.375 4.4375 
Q 8.5 10.296875 8.5 21.578125 
z
M 31.109375 56 
z
" id="DejaVuSans-117"/>
      <path d="M 37.109375 75.984375 
L 37.109375 68.5 
L 28.515625 68.5 
Q 23.6875 68.5 21.796875 66.546875 
Q 19.921875 64.59375 19.921875 59.515625 
L 19.921875 54.6875 
L 34.71875 54.6875 
L 34.71875 47.703125 
L 19.921875 47.703125 
L 19.921875 0 
L 10.890625 0 
L 10.890625 47.703125 
L 2.296875 47.703125 
L 2.296875 54.6875 
L 10.890625 54.6875 
L 10.890625 58.5 
Q 10.890625 67.625 15.140625 71.796875 
Q 19.390625 75.984375 28.609375 75.984375 
z
" id="DejaVuSans-102"/>
      <path d="M 9.421875 75.984375 
L 18.40625 75.984375 
L 18.40625 0 
L 9.421875 0 
z
" id="DejaVuSans-108"/>
     </defs>
     <use xlink:href="#DejaVuSans-83"/>
     <use x="63.476562" xlink:href="#DejaVuSans-104"/>
     <use x="126.855469" xlink:href="#DejaVuSans-117"/>
     <use x="190.234375" xlink:href="#DejaVuSans-102"/>
     <use x="225.439453" xlink:href="#DejaVuSans-102"/>
     <use x="260.644531" xlink:href="#DejaVuSans-108"/>
     <use x="288.427734" xlink:href="#DejaVuSans-101"/>
    </g>
   </g>
   <g id="legend_2">
    <g id="patch_15">
     <path d="M 251.55625 78.834375 
L 297.35625 78.834375 
Q 299.35625 78.834375 299.35625 76.834375 
L 299.35625 33.8 
Q 299.35625 31.8 297.35625 31.8 
L 251.55625 31.8 
Q 249.55625 31.8 249.55625 33.8 
L 249.55625 76.834375 
Q 249.55625 78.834375 251.55625 78.834375 
z
" style="fill:#ffffff;opacity:0.8;stroke:#cccccc;stroke-linejoin:miter;"/>
    </g>
    <g id="text_26">
     <!-- Sort -->
     <g transform="translate(264.207031 43.398437)scale(0.1 -0.1)">
      <use xlink:href="#DejaVuSans-83"/>
      <use x="63.476562" xlink:href="#DejaVuSans-111"/>
      <use x="124.658203" xlink:href="#DejaVuSans-114"/>
      <use x="165.771484" xlink:href="#DejaVuSans-116"/>
     </g>
    </g>
    <g id="patch_16">
     <path d="M 253.55625 58.076562 
L 273.55625 58.076562 
L 273.55625 51.076562 
L 253.55625 51.076562 
z
" style="stroke:#000000;stroke-linejoin:miter;"/>
    </g>
    <g id="text_27">
     <!-- $\Delta S$ -->
     <g transform="translate(281.55625 58.076562)scale(0.1 -0.1)">
      <use transform="translate(0 0.78125)" xlink:href="#DejaVuSans-916"/>
      <use transform="translate(68.408203 0.78125)" xlink:href="#DejaVuSans-Oblique-83"/>
     </g>
    </g>
    <g id="patch_17">
     <path d="M 253.55625 72.754687 
L 273.55625 72.754687 
L 273.55625 65.754687 
L 253.55625 65.754687 
z
" style="fill:#00bfbf;stroke:#00bfbf;stroke-linejoin:miter;"/>
    </g>
    <g id="text_28">
     <!-- $\Delta R$ -->
     <g transform="translate(281.55625 72.754687)scale(0.1 -0.1)">
      <use transform="translate(0 0.09375)" xlink:href="#DejaVuSans-916"/>
      <use transform="translate(68.408203 0.09375)" xlink:href="#DejaVuSans-Oblique-82"/>
     </g>
    </g>
   </g>
  </g>
 </g>
 <defs>
  <clipPath id="p559f47f2ad">
   <rect height="215.4" width="170.26875" x="46.55" y="26.8"/>
  </clipPath>
  <clipPath id="pa0ff395ffd">
   <rect height="215.4" width="170.26875" x="244.55625" y="26.8"/>
  </clipPath>
 </defs>
</svg>
