<?xml version="1.0" encoding="utf-8" standalone="no"?>
<!DOCTYPE svg PUBLIC "-//W3C//DTD SVG 1.1//EN"
  "http://www.w3.org/Graphics/SVG/1.1/DTD/svg11.dtd">
<!-- Created with matplotlib (https://matplotlib.org/) -->
<svg height="288pt" version="1.1" viewBox="0 0 432 288" width="432pt" xmlns="http://www.w3.org/2000/svg" xmlns:xlink="http://www.w3.org/1999/xlink">
 <metadata>
  <rdf:RDF xmlns:cc="http://creativecommons.org/ns#" xmlns:dc="http://purl.org/dc/elements/1.1/" xmlns:rdf="http://www.w3.org/1999/02/22-rdf-syntax-ns#">
   <cc:Work>
    <dc:type rdf:resource="http://purl.org/dc/dcmitype/StillImage"/>
    <dc:date>2022-12-16T19:56:10.077297</dc:date>
    <dc:format>image/svg+xml</dc:format>
    <dc:creator>
     <cc:Agent>
      <dc:title>Matplotlib v3.3.1, https://matplotlib.org/</dc:title>
     </cc:Agent>
    </dc:creator>
   </cc:Work>
  </rdf:RDF>
 </metadata>
 <defs>
  <style type="text/css">*{stroke-linecap:butt;stroke-linejoin:round;}</style>
 </defs>
 <g id="figure_1">
  <g id="patch_1">
   <path d="M 0 288 
L 432 288 
L 432 0 
L 0 0 
z
" style="fill:none;"/>
  </g>
  <g id="axes_1">
   <g id="patch_2">
    <path d="M 46.55 242.2 
L 216.81875 242.2 
L 216.81875 26.8 
L 46.55 26.8 
z
" style="fill:#ffffff;"/>
   </g>
   <g id="PolyCollection_1">
    <defs>
     <path d="M 46.55 -138.234989 
L 46.55 -135.031187 
L 48.441875 -134.377316 
L 50.33375 -136.502498 
L 52.225625 -133.709264 
L 54.1175 -132.392208 
L 56.009375 -131.733701 
L 57.90125 -129.164624 
L 59.793125 -135.40858 
L 61.685 -135.034875 
L 63.576875 -134.173736 
L 65.46875 -138.830215 
L 67.360625 -140.271332 
L 69.2525 -146.127224 
L 71.144375 -128.353044 
L 73.03625 -132.589915 
L 74.928125 -123.133792 
L 76.82 -119.572536 
L 78.711875 -105.742066 
L 80.60375 -113.573144 
L 82.495625 -109.106988 
L 84.3875 -103.784557 
L 86.279375 -104.938101 
L 88.17125 -95.653345 
L 90.063125 -107.096205 
L 91.955 -100.857694 
L 93.846875 -106.957309 
L 95.73875 -106.668015 
L 97.630625 -110.565529 
L 99.5225 -125.112601 
L 101.414375 -117.234222 
L 103.30625 -108.706699 
L 105.198125 -104.39425 
L 107.09 -109.34348 
L 108.981875 -104.064535 
L 110.87375 -97.284156 
L 112.765625 -98.323972 
L 114.6575 -106.422101 
L 116.549375 -122.244556 
L 118.44125 -127.215201 
L 120.333125 -135.941681 
L 122.225 -136.938066 
L 124.116875 -147.099175 
L 126.00875 -144.317203 
L 127.900625 -149.364694 
L 129.7925 -151.760228 
L 131.684375 -150.298073 
L 133.57625 -158.854078 
L 135.468125 -161.486412 
L 137.36 -164.133616 
L 139.251875 -168.996494 
L 141.14375 -159.744532 
L 143.035625 -158.269449 
L 144.9275 -163.718935 
L 146.819375 -167.956551 
L 148.71125 -169.215225 
L 150.603125 -168.678944 
L 152.495 -170.657885 
L 154.386875 -174.039345 
L 156.27875 -177.164683 
L 158.170625 -170.105338 
L 160.0625 -173.729252 
L 161.954375 -180.461873 
L 163.84625 -187.257507 
L 165.738125 -193.852272 
L 167.63 -198.135003 
L 169.521875 -195.988379 
L 171.41375 -191.058517 
L 173.305625 -197.750714 
L 175.1975 -193.360144 
L 177.089375 -191.145157 
L 178.98125 -194.472066 
L 180.873125 -198.909369 
L 182.765 -206.806339 
L 184.656875 -196.421711 
L 186.54875 -185.942423 
L 188.440625 -169.703538 
L 190.3325 -165.871281 
L 192.224375 -157.218268 
L 194.11625 -154.05165 
L 196.008125 -147.264525 
L 197.9 -152.331298 
L 199.791875 -161.663944 
L 201.68375 -159.06813 
L 203.575625 -162.092042 
L 205.4675 -157.471748 
L 207.359375 -160.297762 
L 209.25125 -167.520946 
L 211.143125 -162.0808 
L 213.035 -160.101897 
L 214.926875 -155.494443 
L 216.81875 -146.013793 
L 216.81875 -149.153144 
L 216.81875 -149.153144 
L 214.926875 -158.801346 
L 213.035 -163.729415 
L 211.143125 -165.291888 
L 209.25125 -170.741633 
L 207.359375 -163.464406 
L 205.4675 -160.669368 
L 203.575625 -165.381007 
L 201.68375 -162.305015 
L 199.791875 -164.880537 
L 197.9 -155.411907 
L 196.008125 -150.403952 
L 194.11625 -157.091285 
L 192.224375 -160.152853 
L 190.3325 -168.916582 
L 188.440625 -172.742627 
L 186.54875 -188.953956 
L 184.656875 -199.379211 
L 182.765 -209.763401 
L 180.873125 -201.920791 
L 178.98125 -197.475769 
L 177.089375 -194.16534 
L 175.1975 -196.343428 
L 173.305625 -200.737633 
L 171.41375 -194.118443 
L 169.521875 -199.084598 
L 167.63 -201.201102 
L 165.738125 -196.870909 
L 163.84625 -190.29058 
L 161.954375 -183.410417 
L 160.0625 -176.667823 
L 158.170625 -173.005593 
L 156.27875 -179.885176 
L 154.386875 -176.728377 
L 152.495 -173.233632 
L 150.603125 -171.350986 
L 148.71125 -171.944821 
L 146.819375 -170.61164 
L 144.9275 -166.400875 
L 143.035625 -161.044894 
L 141.14375 -162.568419 
L 139.251875 -171.649877 
L 137.36 -166.762773 
L 135.468125 -164.137732 
L 133.57625 -161.557911 
L 131.684375 -153.066645 
L 129.7925 -154.594014 
L 127.900625 -152.102551 
L 126.00875 -147.044834 
L 124.116875 -149.614376 
L 122.225 -139.745076 
L 120.333125 -138.732859 
L 118.44125 -130.13443 
L 116.549375 -125.084505 
L 114.6575 -109.298612 
L 112.765625 -101.258167 
L 110.87375 -100.165368 
L 108.981875 -106.882281 
L 107.09 -112.164138 
L 105.198125 -107.340725 
L 103.30625 -111.761436 
L 101.414375 -120.426382 
L 99.5225 -128.388138 
L 97.630625 -113.84242 
L 95.73875 -109.93337 
L 93.846875 -110.186851 
L 91.955 -103.865505 
L 90.063125 -110.025597 
L 88.17125 -98.391405 
L 86.279375 -107.725657 
L 84.3875 -106.583833 
L 82.495625 -112.030431 
L 80.60375 -116.574534 
L 78.711875 -108.799481 
L 76.82 -122.736098 
L 74.928125 -126.169691 
L 73.03625 -135.729201 
L 71.144375 -131.512411 
L 69.2525 -149.257504 
L 67.360625 -143.374563 
L 65.46875 -141.922754 
L 63.576875 -137.407825 
L 61.685 -138.188553 
L 59.793125 -138.496703 
L 57.90125 -132.317843 
L 56.009375 -134.924459 
L 54.1175 -135.381429 
L 52.225625 -136.673156 
L 50.33375 -139.562492 
L 48.441875 -137.516321 
L 46.55 -138.234989 
z
" id="m909cef5d29" style="stroke:#000000;"/>
    </defs>
    <g clip-path="url(#pe916fca79b)">
     <use style="stroke:#000000;" x="0" xlink:href="#m909cef5d29" y="288"/>
    </g>
   </g>
   <g id="PolyCollection_2">
    <defs>
     <path d="M 46.55 -162.197165 
L 46.55 -158.954658 
L 48.441875 -160.004676 
L 50.33375 -144.48839 
L 52.225625 -149.623444 
L 54.1175 -160.192401 
L 56.009375 -153.332716 
L 57.90125 -154.030559 
L 59.793125 -153.23941 
L 61.685 -154.315792 
L 63.576875 -144.26362 
L 65.46875 -135.078248 
L 67.360625 -131.211848 
L 69.2525 -119.320651 
L 71.144375 -106.46604 
L 73.03625 -102.836804 
L 74.928125 -104.033131 
L 76.82 -112.23511 
L 78.711875 -96.59153 
L 80.60375 -109.132224 
L 82.495625 -106.948845 
L 84.3875 -102.112817 
L 86.279375 -96.741898 
L 88.17125 -84.344514 
L 90.063125 -86.06238 
L 91.955 -73.097773 
L 93.846875 -76.476629 
L 95.73875 -80.384996 
L 97.630625 -76.795906 
L 99.5225 -74.467433 
L 101.414375 -79.853881 
L 103.30625 -81.72755 
L 105.198125 -79.928531 
L 107.09 -82.861268 
L 108.981875 -86.193014 
L 110.87375 -94.423667 
L 112.765625 -105.241377 
L 114.6575 -103.413573 
L 116.549375 -103.059217 
L 118.44125 -107.759952 
L 120.333125 -104.855392 
L 122.225 -116.936265 
L 124.116875 -109.219961 
L 126.00875 -121.407432 
L 127.900625 -125.281821 
L 129.7925 -130.456972 
L 131.684375 -146.229357 
L 133.57625 -143.023643 
L 135.468125 -153.791971 
L 137.36 -157.443803 
L 139.251875 -170.241309 
L 141.14375 -179.34022 
L 143.035625 -182.198141 
L 144.9275 -189.717665 
L 146.819375 -197.993821 
L 148.71125 -199.341597 
L 150.603125 -202.14805 
L 152.495 -204.841341 
L 154.386875 -204.222813 
L 156.27875 -216.325383 
L 158.170625 -215.797815 
L 160.0625 -225.545261 
L 161.954375 -223.916816 
L 163.84625 -213.645108 
L 165.738125 -219.302339 
L 167.63 -198.976995 
L 169.521875 -199.445729 
L 171.41375 -185.739233 
L 173.305625 -191.36647 
L 175.1975 -215.813118 
L 177.089375 -218.264707 
L 178.98125 -224.091935 
L 180.873125 -218.489562 
L 182.765 -219.206686 
L 184.656875 -204.444587 
L 186.54875 -186.076374 
L 188.440625 -166.6828 
L 190.3325 -163.976439 
L 192.224375 -158.330151 
L 194.11625 -159.416672 
L 196.008125 -158.561849 
L 197.9 -146.685488 
L 199.791875 -156.79216 
L 201.68375 -147.459983 
L 203.575625 -137.78135 
L 205.4675 -134.632501 
L 207.359375 -138.123919 
L 209.25125 -143.636241 
L 211.143125 -147.212926 
L 213.035 -154.439608 
L 214.926875 -151.069147 
L 216.81875 -155.202734 
L 216.81875 -158.808046 
L 216.81875 -158.808046 
L 214.926875 -154.73551 
L 213.035 -158.004804 
L 211.143125 -150.52003 
L 209.25125 -146.652141 
L 207.359375 -141.08898 
L 205.4675 -137.734895 
L 203.575625 -140.764694 
L 201.68375 -150.551647 
L 199.791875 -159.752658 
L 197.9 -149.833178 
L 196.008125 -161.894002 
L 194.11625 -162.785918 
L 192.224375 -161.742971 
L 190.3325 -167.230905 
L 188.440625 -169.946891 
L 186.54875 -189.329525 
L 184.656875 -207.72515 
L 182.765 -222.390654 
L 180.873125 -221.566698 
L 178.98125 -227.137257 
L 177.089375 -221.420478 
L 175.1975 -219.058734 
L 173.305625 -194.502226 
L 171.41375 -188.897003 
L 169.521875 -202.579301 
L 167.63 -202.271553 
L 165.738125 -222.596783 
L 163.84625 -216.817694 
L 161.954375 -227.146097 
L 160.0625 -228.679937 
L 158.170625 -218.82188 
L 156.27875 -219.209558 
L 154.386875 -206.863598 
L 152.495 -207.31143 
L 150.603125 -204.561745 
L 148.71125 -201.772108 
L 146.819375 -200.402396 
L 144.9275 -192.141459 
L 143.035625 -184.56666 
L 141.14375 -181.776713 
L 139.251875 -172.639994 
L 137.36 -159.853763 
L 135.468125 -156.147127 
L 133.57625 -145.342547 
L 131.684375 -148.717853 
L 129.7925 -132.847873 
L 127.900625 -127.733566 
L 126.00875 -123.923875 
L 124.116875 -111.640022 
L 122.225 -119.505705 
L 120.333125 -107.391347 
L 118.44125 -110.389722 
L 116.549375 -105.88504 
L 114.6575 -106.292101 
L 112.765625 -108.275028 
L 110.87375 -97.209218 
L 108.981875 -89.099955 
L 107.09 -85.829501 
L 105.198125 -82.835429 
L 103.30625 -84.721858 
L 101.414375 -82.910574 
L 99.5225 -77.573406 
L 97.630625 -79.895354 
L 95.73875 -83.562032 
L 93.846875 -79.836453 
L 91.955 -76.310336 
L 90.063125 -89.134018 
L 88.17125 -87.616113 
L 86.279375 -99.998041 
L 84.3875 -105.300302 
L 82.495625 -110.353436 
L 80.60375 -112.445189 
L 78.711875 -100.297095 
L 76.82 -115.666944 
L 74.928125 -107.376965 
L 73.03625 -106.36891 
L 71.144375 -109.796914 
L 69.2525 -122.772937 
L 67.360625 -134.415019 
L 65.46875 -138.344897 
L 63.576875 -147.461373 
L 61.685 -157.565366 
L 59.793125 -156.482511 
L 57.90125 -157.216561 
L 56.009375 -156.32221 
L 54.1175 -163.249599 
L 52.225625 -152.698975 
L 50.33375 -147.820336 
L 48.441875 -163.251034 
L 46.55 -162.197165 
z
" id="mddda0dd96a" style="stroke:#00bfbf;"/>
    </defs>
    <g clip-path="url(#pe916fca79b)">
     <use style="fill:#00bfbf;stroke:#00bfbf;" x="0" xlink:href="#mddda0dd96a" y="288"/>
    </g>
   </g>
   <g id="matplotlib.axis_1">
    <g id="xtick_1">
     <g id="line2d_1">
      <defs>
       <path d="M 0 0 
L 0 3.5 
" id="mdeb6e62589" style="stroke:#000000;stroke-width:0.8;"/>
      </defs>
      <g>
       <use style="stroke:#000000;stroke-width:0.8;" x="46.55" xlink:href="#mdeb6e62589" y="242.2"/>
      </g>
     </g>
     <g id="text_1">
      <!-- −90 -->
      <g transform="translate(35.997656 256.798437)scale(0.1 -0.1)">
       <defs>
        <path d="M 10.59375 35.5 
L 73.1875 35.5 
L 73.1875 27.203125 
L 10.59375 27.203125 
z
" id="DejaVuSans-8722"/>
        <path d="M 10.984375 1.515625 
L 10.984375 10.5 
Q 14.703125 8.734375 18.5 7.8125 
Q 22.3125 6.890625 25.984375 6.890625 
Q 35.75 6.890625 40.890625 13.453125 
Q 46.046875 20.015625 46.78125 33.40625 
Q 43.953125 29.203125 39.59375 26.953125 
Q 35.25 24.703125 29.984375 24.703125 
Q 19.046875 24.703125 12.671875 31.3125 
Q 6.296875 37.9375 6.296875 49.421875 
Q 6.296875 60.640625 12.9375 67.421875 
Q 19.578125 74.21875 30.609375 74.21875 
Q 43.265625 74.21875 49.921875 64.515625 
Q 56.59375 54.828125 56.59375 36.375 
Q 56.59375 19.140625 48.40625 8.859375 
Q 40.234375 -1.421875 26.421875 -1.421875 
Q 22.703125 -1.421875 18.890625 -0.6875 
Q 15.09375 0.046875 10.984375 1.515625 
z
M 30.609375 32.421875 
Q 37.25 32.421875 41.125 36.953125 
Q 45.015625 41.5 45.015625 49.421875 
Q 45.015625 57.28125 41.125 61.84375 
Q 37.25 66.40625 30.609375 66.40625 
Q 23.96875 66.40625 20.09375 61.84375 
Q 16.21875 57.28125 16.21875 49.421875 
Q 16.21875 41.5 20.09375 36.953125 
Q 23.96875 32.421875 30.609375 32.421875 
z
" id="DejaVuSans-57"/>
        <path d="M 31.78125 66.40625 
Q 24.171875 66.40625 20.328125 58.90625 
Q 16.5 51.421875 16.5 36.375 
Q 16.5 21.390625 20.328125 13.890625 
Q 24.171875 6.390625 31.78125 6.390625 
Q 39.453125 6.390625 43.28125 13.890625 
Q 47.125 21.390625 47.125 36.375 
Q 47.125 51.421875 43.28125 58.90625 
Q 39.453125 66.40625 31.78125 66.40625 
z
M 31.78125 74.21875 
Q 44.046875 74.21875 50.515625 64.515625 
Q 56.984375 54.828125 56.984375 36.375 
Q 56.984375 17.96875 50.515625 8.265625 
Q 44.046875 -1.421875 31.78125 -1.421875 
Q 19.53125 -1.421875 13.0625 8.265625 
Q 6.59375 17.96875 6.59375 36.375 
Q 6.59375 54.828125 13.0625 64.515625 
Q 19.53125 74.21875 31.78125 74.21875 
z
" id="DejaVuSans-48"/>
       </defs>
       <use xlink:href="#DejaVuSans-8722"/>
       <use x="83.789062" xlink:href="#DejaVuSans-57"/>
       <use x="147.412109" xlink:href="#DejaVuSans-48"/>
      </g>
     </g>
    </g>
    <g id="xtick_2">
     <g id="line2d_2">
      <g>
       <use style="stroke:#000000;stroke-width:0.8;" x="89.117188" xlink:href="#mdeb6e62589" y="242.2"/>
      </g>
     </g>
     <g id="text_2">
      <!-- −45 -->
      <g transform="translate(78.564844 256.798437)scale(0.1 -0.1)">
       <defs>
        <path d="M 37.796875 64.3125 
L 12.890625 25.390625 
L 37.796875 25.390625 
z
M 35.203125 72.90625 
L 47.609375 72.90625 
L 47.609375 25.390625 
L 58.015625 25.390625 
L 58.015625 17.1875 
L 47.609375 17.1875 
L 47.609375 0 
L 37.796875 0 
L 37.796875 17.1875 
L 4.890625 17.1875 
L 4.890625 26.703125 
z
" id="DejaVuSans-52"/>
        <path d="M 10.796875 72.90625 
L 49.515625 72.90625 
L 49.515625 64.59375 
L 19.828125 64.59375 
L 19.828125 46.734375 
Q 21.96875 47.46875 24.109375 47.828125 
Q 26.265625 48.1875 28.421875 48.1875 
Q 40.625 48.1875 47.75 41.5 
Q 54.890625 34.8125 54.890625 23.390625 
Q 54.890625 11.625 47.5625 5.09375 
Q 40.234375 -1.421875 26.90625 -1.421875 
Q 22.3125 -1.421875 17.546875 -0.640625 
Q 12.796875 0.140625 7.71875 1.703125 
L 7.71875 11.625 
Q 12.109375 9.234375 16.796875 8.0625 
Q 21.484375 6.890625 26.703125 6.890625 
Q 35.15625 6.890625 40.078125 11.328125 
Q 45.015625 15.765625 45.015625 23.390625 
Q 45.015625 31 40.078125 35.4375 
Q 35.15625 39.890625 26.703125 39.890625 
Q 22.75 39.890625 18.8125 39.015625 
Q 14.890625 38.140625 10.796875 36.28125 
z
" id="DejaVuSans-53"/>
       </defs>
       <use xlink:href="#DejaVuSans-8722"/>
       <use x="83.789062" xlink:href="#DejaVuSans-52"/>
       <use x="147.412109" xlink:href="#DejaVuSans-53"/>
      </g>
     </g>
    </g>
    <g id="xtick_3">
     <g id="line2d_3">
      <g>
       <use style="stroke:#000000;stroke-width:0.8;" x="131.684375" xlink:href="#mdeb6e62589" y="242.2"/>
      </g>
     </g>
     <g id="text_3">
      <!-- 0 -->
      <g transform="translate(128.503125 256.798437)scale(0.1 -0.1)">
       <use xlink:href="#DejaVuSans-48"/>
      </g>
     </g>
    </g>
    <g id="xtick_4">
     <g id="line2d_4">
      <g>
       <use style="stroke:#000000;stroke-width:0.8;" x="174.251562" xlink:href="#mdeb6e62589" y="242.2"/>
      </g>
     </g>
     <g id="text_4">
      <!-- 45 -->
      <g transform="translate(167.889062 256.798437)scale(0.1 -0.1)">
       <use xlink:href="#DejaVuSans-52"/>
       <use x="63.623047" xlink:href="#DejaVuSans-53"/>
      </g>
     </g>
    </g>
    <g id="xtick_5">
     <g id="line2d_5">
      <g>
       <use style="stroke:#000000;stroke-width:0.8;" x="216.81875" xlink:href="#mdeb6e62589" y="242.2"/>
      </g>
     </g>
     <g id="text_5">
      <!-- 90 -->
      <g transform="translate(210.45625 256.798437)scale(0.1 -0.1)">
       <use xlink:href="#DejaVuSans-57"/>
       <use x="63.623047" xlink:href="#DejaVuSans-48"/>
      </g>
     </g>
    </g>
    <g id="text_6">
     <!-- $\Delta\theta$ (deg) -->
     <g transform="translate(110.284375 270.578125)scale(0.1 -0.1)">
      <defs>
       <path d="M 34.1875 63.1875 
L 14.15625 8.203125 
L 54.25 8.203125 
z
M 0.78125 0 
L 28.609375 72.90625 
L 39.796875 72.90625 
L 67.578125 0 
z
" id="DejaVuSans-916"/>
       <path d="M 45.515625 34.671875 
L 14.453125 34.671875 
Q 12.359375 20.0625 14.5 13.875 
Q 17.1875 6.25 24.46875 6.25 
Q 31.78125 6.25 37.359375 13.921875 
Q 42.234375 20.65625 45.515625 34.671875 
z
M 47.015625 42.96875 
Q 48.34375 56.84375 46.625 61.71875 
Q 43.953125 69.4375 36.765625 69.4375 
Q 29.296875 69.4375 23.828125 61.8125 
Q 19.53125 55.671875 16.15625 42.96875 
z
M 38.1875 76.765625 
Q 49.90625 76.765625 54.59375 66.40625 
Q 59.28125 56.109375 55.71875 37.84375 
Q 52.203125 19.625 43.453125 9.28125 
Q 34.765625 -1.125 23.046875 -1.125 
Q 11.28125 -1.125 6.640625 9.28125 
Q 2 19.625 5.515625 37.84375 
Q 9.078125 56.109375 17.71875 66.40625 
Q 26.421875 76.765625 38.1875 76.765625 
z
" id="DejaVuSans-Oblique-952"/>
       <path id="DejaVuSans-32"/>
       <path d="M 31 75.875 
Q 24.46875 64.65625 21.28125 53.65625 
Q 18.109375 42.671875 18.109375 31.390625 
Q 18.109375 20.125 21.3125 9.0625 
Q 24.515625 -2 31 -13.1875 
L 23.1875 -13.1875 
Q 15.875 -1.703125 12.234375 9.375 
Q 8.59375 20.453125 8.59375 31.390625 
Q 8.59375 42.28125 12.203125 53.3125 
Q 15.828125 64.359375 23.1875 75.875 
z
" id="DejaVuSans-40"/>
       <path d="M 45.40625 46.390625 
L 45.40625 75.984375 
L 54.390625 75.984375 
L 54.390625 0 
L 45.40625 0 
L 45.40625 8.203125 
Q 42.578125 3.328125 38.25 0.953125 
Q 33.9375 -1.421875 27.875 -1.421875 
Q 17.96875 -1.421875 11.734375 6.484375 
Q 5.515625 14.40625 5.515625 27.296875 
Q 5.515625 40.1875 11.734375 48.09375 
Q 17.96875 56 27.875 56 
Q 33.9375 56 38.25 53.625 
Q 42.578125 51.265625 45.40625 46.390625 
z
M 14.796875 27.296875 
Q 14.796875 17.390625 18.875 11.75 
Q 22.953125 6.109375 30.078125 6.109375 
Q 37.203125 6.109375 41.296875 11.75 
Q 45.40625 17.390625 45.40625 27.296875 
Q 45.40625 37.203125 41.296875 42.84375 
Q 37.203125 48.484375 30.078125 48.484375 
Q 22.953125 48.484375 18.875 42.84375 
Q 14.796875 37.203125 14.796875 27.296875 
z
" id="DejaVuSans-100"/>
       <path d="M 56.203125 29.59375 
L 56.203125 25.203125 
L 14.890625 25.203125 
Q 15.484375 15.921875 20.484375 11.0625 
Q 25.484375 6.203125 34.421875 6.203125 
Q 39.59375 6.203125 44.453125 7.46875 
Q 49.3125 8.734375 54.109375 11.28125 
L 54.109375 2.78125 
Q 49.265625 0.734375 44.1875 -0.34375 
Q 39.109375 -1.421875 33.890625 -1.421875 
Q 20.796875 -1.421875 13.15625 6.1875 
Q 5.515625 13.8125 5.515625 26.8125 
Q 5.515625 40.234375 12.765625 48.109375 
Q 20.015625 56 32.328125 56 
Q 43.359375 56 49.78125 48.890625 
Q 56.203125 41.796875 56.203125 29.59375 
z
M 47.21875 32.234375 
Q 47.125 39.59375 43.09375 43.984375 
Q 39.0625 48.390625 32.421875 48.390625 
Q 24.90625 48.390625 20.390625 44.140625 
Q 15.875 39.890625 15.1875 32.171875 
z
" id="DejaVuSans-101"/>
       <path d="M 45.40625 27.984375 
Q 45.40625 37.75 41.375 43.109375 
Q 37.359375 48.484375 30.078125 48.484375 
Q 22.859375 48.484375 18.828125 43.109375 
Q 14.796875 37.75 14.796875 27.984375 
Q 14.796875 18.265625 18.828125 12.890625 
Q 22.859375 7.515625 30.078125 7.515625 
Q 37.359375 7.515625 41.375 12.890625 
Q 45.40625 18.265625 45.40625 27.984375 
z
M 54.390625 6.78125 
Q 54.390625 -7.171875 48.1875 -13.984375 
Q 42 -20.796875 29.203125 -20.796875 
Q 24.46875 -20.796875 20.265625 -20.09375 
Q 16.0625 -19.390625 12.109375 -17.921875 
L 12.109375 -9.1875 
Q 16.0625 -11.328125 19.921875 -12.34375 
Q 23.78125 -13.375 27.78125 -13.375 
Q 36.625 -13.375 41.015625 -8.765625 
Q 45.40625 -4.15625 45.40625 5.171875 
L 45.40625 9.625 
Q 42.625 4.78125 38.28125 2.390625 
Q 33.9375 0 27.875 0 
Q 17.828125 0 11.671875 7.65625 
Q 5.515625 15.328125 5.515625 27.984375 
Q 5.515625 40.671875 11.671875 48.328125 
Q 17.828125 56 27.875 56 
Q 33.9375 56 38.28125 53.609375 
Q 42.625 51.21875 45.40625 46.390625 
L 45.40625 54.6875 
L 54.390625 54.6875 
z
" id="DejaVuSans-103"/>
       <path d="M 8.015625 75.875 
L 15.828125 75.875 
Q 23.140625 64.359375 26.78125 53.3125 
Q 30.421875 42.28125 30.421875 31.390625 
Q 30.421875 20.453125 26.78125 9.375 
Q 23.140625 -1.703125 15.828125 -13.1875 
L 8.015625 -13.1875 
Q 14.5 -2 17.703125 9.0625 
Q 20.90625 20.125 20.90625 31.390625 
Q 20.90625 42.671875 17.703125 53.65625 
Q 14.5 64.65625 8.015625 75.875 
z
" id="DejaVuSans-41"/>
      </defs>
      <use transform="translate(0 0.234375)" xlink:href="#DejaVuSans-916"/>
      <use transform="translate(68.408203 0.234375)" xlink:href="#DejaVuSans-Oblique-952"/>
      <use transform="translate(129.589844 0.234375)" xlink:href="#DejaVuSans-32"/>
      <use transform="translate(161.376953 0.234375)" xlink:href="#DejaVuSans-40"/>
      <use transform="translate(200.390625 0.234375)" xlink:href="#DejaVuSans-100"/>
      <use transform="translate(263.867188 0.234375)" xlink:href="#DejaVuSans-101"/>
      <use transform="translate(325.390625 0.234375)" xlink:href="#DejaVuSans-103"/>
      <use transform="translate(388.867188 0.234375)" xlink:href="#DejaVuSans-41"/>
     </g>
    </g>
   </g>
   <g id="matplotlib.axis_2">
    <g id="ytick_1">
     <g id="line2d_6">
      <defs>
       <path d="M 0 0 
L -3.5 0 
" id="ma4840535c8" style="stroke:#000000;stroke-width:0.8;"/>
      </defs>
      <g>
       <use style="stroke:#000000;stroke-width:0.8;" x="46.55" xlink:href="#ma4840535c8" y="226.814286"/>
      </g>
     </g>
     <g id="text_7">
      <!-- −6 -->
      <g transform="translate(24.807812 230.613504)scale(0.1 -0.1)">
       <defs>
        <path d="M 33.015625 40.375 
Q 26.375 40.375 22.484375 35.828125 
Q 18.609375 31.296875 18.609375 23.390625 
Q 18.609375 15.53125 22.484375 10.953125 
Q 26.375 6.390625 33.015625 6.390625 
Q 39.65625 6.390625 43.53125 10.953125 
Q 47.40625 15.53125 47.40625 23.390625 
Q 47.40625 31.296875 43.53125 35.828125 
Q 39.65625 40.375 33.015625 40.375 
z
M 52.59375 71.296875 
L 52.59375 62.3125 
Q 48.875 64.0625 45.09375 64.984375 
Q 41.3125 65.921875 37.59375 65.921875 
Q 27.828125 65.921875 22.671875 59.328125 
Q 17.53125 52.734375 16.796875 39.40625 
Q 19.671875 43.65625 24.015625 45.921875 
Q 28.375 48.1875 33.59375 48.1875 
Q 44.578125 48.1875 50.953125 41.515625 
Q 57.328125 34.859375 57.328125 23.390625 
Q 57.328125 12.15625 50.6875 5.359375 
Q 44.046875 -1.421875 33.015625 -1.421875 
Q 20.359375 -1.421875 13.671875 8.265625 
Q 6.984375 17.96875 6.984375 36.375 
Q 6.984375 53.65625 15.1875 63.9375 
Q 23.390625 74.21875 37.203125 74.21875 
Q 40.921875 74.21875 44.703125 73.484375 
Q 48.484375 72.75 52.59375 71.296875 
z
" id="DejaVuSans-54"/>
       </defs>
       <use xlink:href="#DejaVuSans-8722"/>
       <use x="83.789062" xlink:href="#DejaVuSans-54"/>
      </g>
     </g>
    </g>
    <g id="ytick_2">
     <g id="line2d_7">
      <g>
       <use style="stroke:#000000;stroke-width:0.8;" x="46.55" xlink:href="#ma4840535c8" y="196.042857"/>
      </g>
     </g>
     <g id="text_8">
      <!-- −4 -->
      <g transform="translate(24.807812 199.842076)scale(0.1 -0.1)">
       <use xlink:href="#DejaVuSans-8722"/>
       <use x="83.789062" xlink:href="#DejaVuSans-52"/>
      </g>
     </g>
    </g>
    <g id="ytick_3">
     <g id="line2d_8">
      <g>
       <use style="stroke:#000000;stroke-width:0.8;" x="46.55" xlink:href="#ma4840535c8" y="165.271429"/>
      </g>
     </g>
     <g id="text_9">
      <!-- −2 -->
      <g transform="translate(24.807812 169.070647)scale(0.1 -0.1)">
       <defs>
        <path d="M 19.1875 8.296875 
L 53.609375 8.296875 
L 53.609375 0 
L 7.328125 0 
L 7.328125 8.296875 
Q 12.9375 14.109375 22.625 23.890625 
Q 32.328125 33.6875 34.8125 36.53125 
Q 39.546875 41.84375 41.421875 45.53125 
Q 43.3125 49.21875 43.3125 52.78125 
Q 43.3125 58.59375 39.234375 62.25 
Q 35.15625 65.921875 28.609375 65.921875 
Q 23.96875 65.921875 18.8125 64.3125 
Q 13.671875 62.703125 7.8125 59.421875 
L 7.8125 69.390625 
Q 13.765625 71.78125 18.9375 73 
Q 24.125 74.21875 28.421875 74.21875 
Q 39.75 74.21875 46.484375 68.546875 
Q 53.21875 62.890625 53.21875 53.421875 
Q 53.21875 48.921875 51.53125 44.890625 
Q 49.859375 40.875 45.40625 35.40625 
Q 44.1875 33.984375 37.640625 27.21875 
Q 31.109375 20.453125 19.1875 8.296875 
z
" id="DejaVuSans-50"/>
       </defs>
       <use xlink:href="#DejaVuSans-8722"/>
       <use x="83.789062" xlink:href="#DejaVuSans-50"/>
      </g>
     </g>
    </g>
    <g id="ytick_4">
     <g id="line2d_9">
      <g>
       <use style="stroke:#000000;stroke-width:0.8;" x="46.55" xlink:href="#ma4840535c8" y="134.5"/>
      </g>
     </g>
     <g id="text_10">
      <!-- 0 -->
      <g transform="translate(33.1875 138.299219)scale(0.1 -0.1)">
       <use xlink:href="#DejaVuSans-48"/>
      </g>
     </g>
    </g>
    <g id="ytick_5">
     <g id="line2d_10">
      <g>
       <use style="stroke:#000000;stroke-width:0.8;" x="46.55" xlink:href="#ma4840535c8" y="103.728571"/>
      </g>
     </g>
     <g id="text_11">
      <!-- 2 -->
      <g transform="translate(33.1875 107.52779)scale(0.1 -0.1)">
       <use xlink:href="#DejaVuSans-50"/>
      </g>
     </g>
    </g>
    <g id="ytick_6">
     <g id="line2d_11">
      <g>
       <use style="stroke:#000000;stroke-width:0.8;" x="46.55" xlink:href="#ma4840535c8" y="72.957143"/>
      </g>
     </g>
     <g id="text_12">
      <!-- 4 -->
      <g transform="translate(33.1875 76.756362)scale(0.1 -0.1)">
       <use xlink:href="#DejaVuSans-52"/>
      </g>
     </g>
    </g>
    <g id="ytick_7">
     <g id="line2d_12">
      <g>
       <use style="stroke:#000000;stroke-width:0.8;" x="46.55" xlink:href="#ma4840535c8" y="42.185714"/>
      </g>
     </g>
     <g id="text_13">
      <!-- 6 -->
      <g transform="translate(33.1875 45.984933)scale(0.1 -0.1)">
       <use xlink:href="#DejaVuSans-54"/>
      </g>
     </g>
    </g>
    <g id="text_14">
     <!-- Bias (deg) -->
     <g transform="translate(18.728125 159.903906)rotate(-90)scale(0.1 -0.1)">
      <defs>
       <path d="M 19.671875 34.8125 
L 19.671875 8.109375 
L 35.5 8.109375 
Q 43.453125 8.109375 47.28125 11.40625 
Q 51.125 14.703125 51.125 21.484375 
Q 51.125 28.328125 47.28125 31.5625 
Q 43.453125 34.8125 35.5 34.8125 
z
M 19.671875 64.796875 
L 19.671875 42.828125 
L 34.28125 42.828125 
Q 41.5 42.828125 45.03125 45.53125 
Q 48.578125 48.25 48.578125 53.8125 
Q 48.578125 59.328125 45.03125 62.0625 
Q 41.5 64.796875 34.28125 64.796875 
z
M 9.8125 72.90625 
L 35.015625 72.90625 
Q 46.296875 72.90625 52.390625 68.21875 
Q 58.5 63.53125 58.5 54.890625 
Q 58.5 48.1875 55.375 44.234375 
Q 52.25 40.28125 46.1875 39.3125 
Q 53.46875 37.75 57.5 32.78125 
Q 61.53125 27.828125 61.53125 20.40625 
Q 61.53125 10.640625 54.890625 5.3125 
Q 48.25 0 35.984375 0 
L 9.8125 0 
z
" id="DejaVuSans-66"/>
       <path d="M 9.421875 54.6875 
L 18.40625 54.6875 
L 18.40625 0 
L 9.421875 0 
z
M 9.421875 75.984375 
L 18.40625 75.984375 
L 18.40625 64.59375 
L 9.421875 64.59375 
z
" id="DejaVuSans-105"/>
       <path d="M 34.28125 27.484375 
Q 23.390625 27.484375 19.1875 25 
Q 14.984375 22.515625 14.984375 16.5 
Q 14.984375 11.71875 18.140625 8.90625 
Q 21.296875 6.109375 26.703125 6.109375 
Q 34.1875 6.109375 38.703125 11.40625 
Q 43.21875 16.703125 43.21875 25.484375 
L 43.21875 27.484375 
z
M 52.203125 31.203125 
L 52.203125 0 
L 43.21875 0 
L 43.21875 8.296875 
Q 40.140625 3.328125 35.546875 0.953125 
Q 30.953125 -1.421875 24.3125 -1.421875 
Q 15.921875 -1.421875 10.953125 3.296875 
Q 6 8.015625 6 15.921875 
Q 6 25.140625 12.171875 29.828125 
Q 18.359375 34.515625 30.609375 34.515625 
L 43.21875 34.515625 
L 43.21875 35.40625 
Q 43.21875 41.609375 39.140625 45 
Q 35.0625 48.390625 27.6875 48.390625 
Q 23 48.390625 18.546875 47.265625 
Q 14.109375 46.140625 10.015625 43.890625 
L 10.015625 52.203125 
Q 14.9375 54.109375 19.578125 55.046875 
Q 24.21875 56 28.609375 56 
Q 40.484375 56 46.34375 49.84375 
Q 52.203125 43.703125 52.203125 31.203125 
z
" id="DejaVuSans-97"/>
       <path d="M 44.28125 53.078125 
L 44.28125 44.578125 
Q 40.484375 46.53125 36.375 47.5 
Q 32.28125 48.484375 27.875 48.484375 
Q 21.1875 48.484375 17.84375 46.4375 
Q 14.5 44.390625 14.5 40.28125 
Q 14.5 37.15625 16.890625 35.375 
Q 19.28125 33.59375 26.515625 31.984375 
L 29.59375 31.296875 
Q 39.15625 29.25 43.1875 25.515625 
Q 47.21875 21.78125 47.21875 15.09375 
Q 47.21875 7.46875 41.1875 3.015625 
Q 35.15625 -1.421875 24.609375 -1.421875 
Q 20.21875 -1.421875 15.453125 -0.5625 
Q 10.6875 0.296875 5.421875 2 
L 5.421875 11.28125 
Q 10.40625 8.6875 15.234375 7.390625 
Q 20.0625 6.109375 24.8125 6.109375 
Q 31.15625 6.109375 34.5625 8.28125 
Q 37.984375 10.453125 37.984375 14.40625 
Q 37.984375 18.0625 35.515625 20.015625 
Q 33.0625 21.96875 24.703125 23.78125 
L 21.578125 24.515625 
Q 13.234375 26.265625 9.515625 29.90625 
Q 5.8125 33.546875 5.8125 39.890625 
Q 5.8125 47.609375 11.28125 51.796875 
Q 16.75 56 26.8125 56 
Q 31.78125 56 36.171875 55.265625 
Q 40.578125 54.546875 44.28125 53.078125 
z
" id="DejaVuSans-115"/>
      </defs>
      <use xlink:href="#DejaVuSans-66"/>
      <use x="68.603516" xlink:href="#DejaVuSans-105"/>
      <use x="96.386719" xlink:href="#DejaVuSans-97"/>
      <use x="157.666016" xlink:href="#DejaVuSans-115"/>
      <use x="209.765625" xlink:href="#DejaVuSans-32"/>
      <use x="241.552734" xlink:href="#DejaVuSans-40"/>
      <use x="280.566406" xlink:href="#DejaVuSans-100"/>
      <use x="344.042969" xlink:href="#DejaVuSans-101"/>
      <use x="405.566406" xlink:href="#DejaVuSans-103"/>
      <use x="469.042969" xlink:href="#DejaVuSans-41"/>
     </g>
    </g>
   </g>
   <g id="line2d_13">
    <path clip-path="url(#pe916fca79b)" d="M 46.55 134.5 
L 216.81875 134.5 
" style="fill:none;stroke:#000000;stroke-dasharray:5.55,2.4;stroke-dashoffset:0;stroke-width:1.5;"/>
   </g>
   <g id="line2d_14">
    <path clip-path="url(#pe916fca79b)" d="M 131.684375 242.2 
L 131.684375 26.8 
" style="fill:none;stroke:#0000ff;stroke-dasharray:5.55,2.4;stroke-dashoffset:0;stroke-width:1.5;"/>
   </g>
   <g id="patch_3">
    <path d="M 46.55 242.2 
L 46.55 26.8 
" style="fill:none;stroke:#000000;stroke-linecap:square;stroke-linejoin:miter;stroke-width:0.8;"/>
   </g>
   <g id="patch_4">
    <path d="M 216.81875 242.2 
L 216.81875 26.8 
" style="fill:none;stroke:#000000;stroke-linecap:square;stroke-linejoin:miter;stroke-width:0.8;"/>
   </g>
   <g id="patch_5">
    <path d="M 46.55 242.2 
L 216.81875 242.2 
" style="fill:none;stroke:#000000;stroke-linecap:square;stroke-linejoin:miter;stroke-width:0.8;"/>
   </g>
   <g id="patch_6">
    <path d="M 46.55 26.8 
L 216.81875 26.8 
" style="fill:none;stroke:#000000;stroke-linecap:square;stroke-linejoin:miter;stroke-width:0.8;"/>
   </g>
   <g id="text_15">
    <!-- In Order -->
    <g transform="translate(107.152812 20.8)scale(0.12 -0.12)">
     <defs>
      <path d="M 9.8125 72.90625 
L 19.671875 72.90625 
L 19.671875 0 
L 9.8125 0 
z
" id="DejaVuSans-73"/>
      <path d="M 54.890625 33.015625 
L 54.890625 0 
L 45.90625 0 
L 45.90625 32.71875 
Q 45.90625 40.484375 42.875 44.328125 
Q 39.84375 48.1875 33.796875 48.1875 
Q 26.515625 48.1875 22.3125 43.546875 
Q 18.109375 38.921875 18.109375 30.90625 
L 18.109375 0 
L 9.078125 0 
L 9.078125 54.6875 
L 18.109375 54.6875 
L 18.109375 46.1875 
Q 21.34375 51.125 25.703125 53.5625 
Q 30.078125 56 35.796875 56 
Q 45.21875 56 50.046875 50.171875 
Q 54.890625 44.34375 54.890625 33.015625 
z
" id="DejaVuSans-110"/>
      <path d="M 39.40625 66.21875 
Q 28.65625 66.21875 22.328125 58.203125 
Q 16.015625 50.203125 16.015625 36.375 
Q 16.015625 22.609375 22.328125 14.59375 
Q 28.65625 6.59375 39.40625 6.59375 
Q 50.140625 6.59375 56.421875 14.59375 
Q 62.703125 22.609375 62.703125 36.375 
Q 62.703125 50.203125 56.421875 58.203125 
Q 50.140625 66.21875 39.40625 66.21875 
z
M 39.40625 74.21875 
Q 54.734375 74.21875 63.90625 63.9375 
Q 73.09375 53.65625 73.09375 36.375 
Q 73.09375 19.140625 63.90625 8.859375 
Q 54.734375 -1.421875 39.40625 -1.421875 
Q 24.03125 -1.421875 14.8125 8.828125 
Q 5.609375 19.09375 5.609375 36.375 
Q 5.609375 53.65625 14.8125 63.9375 
Q 24.03125 74.21875 39.40625 74.21875 
z
" id="DejaVuSans-79"/>
      <path d="M 41.109375 46.296875 
Q 39.59375 47.171875 37.8125 47.578125 
Q 36.03125 48 33.890625 48 
Q 26.265625 48 22.1875 43.046875 
Q 18.109375 38.09375 18.109375 28.8125 
L 18.109375 0 
L 9.078125 0 
L 9.078125 54.6875 
L 18.109375 54.6875 
L 18.109375 46.1875 
Q 20.953125 51.171875 25.484375 53.578125 
Q 30.03125 56 36.53125 56 
Q 37.453125 56 38.578125 55.875 
Q 39.703125 55.765625 41.0625 55.515625 
z
" id="DejaVuSans-114"/>
     </defs>
     <use xlink:href="#DejaVuSans-73"/>
     <use x="29.492188" xlink:href="#DejaVuSans-110"/>
     <use x="92.871094" xlink:href="#DejaVuSans-32"/>
     <use x="124.658203" xlink:href="#DejaVuSans-79"/>
     <use x="203.369141" xlink:href="#DejaVuSans-114"/>
     <use x="242.732422" xlink:href="#DejaVuSans-100"/>
     <use x="306.208984" xlink:href="#DejaVuSans-101"/>
     <use x="367.732422" xlink:href="#DejaVuSans-114"/>
    </g>
   </g>
   <g id="legend_1">
    <g id="patch_7">
     <path d="M 53.55 78.834375 
L 99.35 78.834375 
Q 101.35 78.834375 101.35 76.834375 
L 101.35 33.8 
Q 101.35 31.8 99.35 31.8 
L 53.55 31.8 
Q 51.55 31.8 51.55 33.8 
L 51.55 76.834375 
Q 51.55 78.834375 53.55 78.834375 
z
" style="fill:#ffffff;opacity:0.8;stroke:#cccccc;stroke-linejoin:miter;"/>
    </g>
    <g id="text_16">
     <!-- Sort -->
     <g transform="translate(66.200781 43.398437)scale(0.1 -0.1)">
      <defs>
       <path d="M 53.515625 70.515625 
L 53.515625 60.890625 
Q 47.90625 63.578125 42.921875 64.890625 
Q 37.9375 66.21875 33.296875 66.21875 
Q 25.25 66.21875 20.875 63.09375 
Q 16.5 59.96875 16.5 54.203125 
Q 16.5 49.359375 19.40625 46.890625 
Q 22.3125 44.4375 30.421875 42.921875 
L 36.375 41.703125 
Q 47.40625 39.59375 52.65625 34.296875 
Q 57.90625 29 57.90625 20.125 
Q 57.90625 9.515625 50.796875 4.046875 
Q 43.703125 -1.421875 29.984375 -1.421875 
Q 24.8125 -1.421875 18.96875 -0.25 
Q 13.140625 0.921875 6.890625 3.21875 
L 6.890625 13.375 
Q 12.890625 10.015625 18.65625 8.296875 
Q 24.421875 6.59375 29.984375 6.59375 
Q 38.421875 6.59375 43.015625 9.90625 
Q 47.609375 13.234375 47.609375 19.390625 
Q 47.609375 24.75 44.3125 27.78125 
Q 41.015625 30.8125 33.5 32.328125 
L 27.484375 33.5 
Q 16.453125 35.6875 11.515625 40.375 
Q 6.59375 45.0625 6.59375 53.421875 
Q 6.59375 63.09375 13.40625 68.65625 
Q 20.21875 74.21875 32.171875 74.21875 
Q 37.3125 74.21875 42.625 73.28125 
Q 47.953125 72.359375 53.515625 70.515625 
z
" id="DejaVuSans-83"/>
       <path d="M 30.609375 48.390625 
Q 23.390625 48.390625 19.1875 42.75 
Q 14.984375 37.109375 14.984375 27.296875 
Q 14.984375 17.484375 19.15625 11.84375 
Q 23.34375 6.203125 30.609375 6.203125 
Q 37.796875 6.203125 41.984375 11.859375 
Q 46.1875 17.53125 46.1875 27.296875 
Q 46.1875 37.015625 41.984375 42.703125 
Q 37.796875 48.390625 30.609375 48.390625 
z
M 30.609375 56 
Q 42.328125 56 49.015625 48.375 
Q 55.71875 40.765625 55.71875 27.296875 
Q 55.71875 13.875 49.015625 6.21875 
Q 42.328125 -1.421875 30.609375 -1.421875 
Q 18.84375 -1.421875 12.171875 6.21875 
Q 5.515625 13.875 5.515625 27.296875 
Q 5.515625 40.765625 12.171875 48.375 
Q 18.84375 56 30.609375 56 
z
" id="DejaVuSans-111"/>
       <path d="M 18.3125 70.21875 
L 18.3125 54.6875 
L 36.8125 54.6875 
L 36.8125 47.703125 
L 18.3125 47.703125 
L 18.3125 18.015625 
Q 18.3125 11.328125 20.140625 9.421875 
Q 21.96875 7.515625 27.59375 7.515625 
L 36.8125 7.515625 
L 36.8125 0 
L 27.59375 0 
Q 17.1875 0 13.234375 3.875 
Q 9.28125 7.765625 9.28125 18.015625 
L 9.28125 47.703125 
L 2.6875 47.703125 
L 2.6875 54.6875 
L 9.28125 54.6875 
L 9.28125 70.21875 
z
" id="DejaVuSans-116"/>
      </defs>
      <use xlink:href="#DejaVuSans-83"/>
      <use x="63.476562" xlink:href="#DejaVuSans-111"/>
      <use x="124.658203" xlink:href="#DejaVuSans-114"/>
      <use x="165.771484" xlink:href="#DejaVuSans-116"/>
     </g>
    </g>
    <g id="patch_8">
     <path d="M 55.55 58.076562 
L 75.55 58.076562 
L 75.55 51.076562 
L 55.55 51.076562 
z
" style="stroke:#000000;stroke-linejoin:miter;"/>
    </g>
    <g id="text_17">
     <!-- $\Delta S$ -->
     <g transform="translate(83.55 58.076562)scale(0.1 -0.1)">
      <defs>
       <path d="M 60.296875 70.515625 
L 58.40625 60.890625 
Q 53.46875 63.53125 48.609375 64.875 
Q 43.75 66.21875 39.203125 66.21875 
Q 30.375 66.21875 25.140625 62.359375 
Q 19.921875 58.5 19.921875 52.09375 
Q 19.921875 48.578125 21.84375 46.703125 
Q 23.78125 44.828125 31.78125 42.671875 
L 37.703125 41.21875 
Q 47.703125 38.625 51.609375 34.640625 
Q 55.515625 30.671875 55.515625 23.484375 
Q 55.515625 12.453125 46.84375 5.515625 
Q 38.1875 -1.421875 24.03125 -1.421875 
Q 18.21875 -1.421875 12.359375 -0.265625 
Q 6.5 0.875 0.59375 3.21875 
L 2.59375 13.375 
Q 8.015625 10.015625 13.453125 8.296875 
Q 18.890625 6.59375 24.3125 6.59375 
Q 33.546875 6.59375 39.109375 10.6875 
Q 44.671875 14.796875 44.671875 21.390625 
Q 44.671875 25.78125 42.453125 28.046875 
Q 40.234375 30.328125 32.90625 32.171875 
L 27 33.6875 
Q 16.890625 36.328125 13.203125 39.765625 
Q 9.515625 43.21875 9.515625 49.421875 
Q 9.515625 60.296875 17.890625 67.25 
Q 26.265625 74.21875 39.703125 74.21875 
Q 44.921875 74.21875 50.046875 73.28125 
Q 55.171875 72.359375 60.296875 70.515625 
z
" id="DejaVuSans-Oblique-83"/>
      </defs>
      <use transform="translate(0 0.78125)" xlink:href="#DejaVuSans-916"/>
      <use transform="translate(68.408203 0.78125)" xlink:href="#DejaVuSans-Oblique-83"/>
     </g>
    </g>
    <g id="patch_9">
     <path d="M 55.55 72.754687 
L 75.55 72.754687 
L 75.55 65.754687 
L 55.55 65.754687 
z
" style="fill:#00bfbf;stroke:#00bfbf;stroke-linejoin:miter;"/>
    </g>
    <g id="text_18">
     <!-- $\Delta R$ -->
     <g transform="translate(83.55 72.754687)scale(0.1 -0.1)">
      <defs>
       <path d="M 25.203125 64.796875 
L 20.21875 38.921875 
L 32.90625 38.921875 
Q 40.375 38.921875 44.984375 43.046875 
Q 49.609375 47.171875 49.609375 53.8125 
Q 49.609375 59.125 46.5 61.953125 
Q 43.40625 64.796875 37.59375 64.796875 
z
M 43.3125 35.015625 
Q 46.4375 34.28125 48.515625 31.390625 
Q 50.59375 28.515625 53.328125 19.921875 
L 59.515625 0 
L 49.125 0 
L 43.40625 18.703125 
Q 41.21875 25.921875 38.328125 28.359375 
Q 35.453125 30.8125 29.5 30.8125 
L 18.609375 30.8125 
L 12.59375 0 
L 2.6875 0 
L 16.890625 72.90625 
L 39.109375 72.90625 
Q 49.21875 72.90625 54.609375 68.328125 
Q 60.015625 63.765625 60.015625 55.171875 
Q 60.015625 47.5625 55.421875 41.984375 
Q 50.828125 36.421875 43.3125 35.015625 
z
" id="DejaVuSans-Oblique-82"/>
      </defs>
      <use transform="translate(0 0.09375)" xlink:href="#DejaVuSans-916"/>
      <use transform="translate(68.408203 0.09375)" xlink:href="#DejaVuSans-Oblique-82"/>
     </g>
    </g>
   </g>
  </g>
  <g id="axes_2">
   <g id="patch_10">
    <path d="M 244.55625 242.2 
L 414.825 242.2 
L 414.825 26.8 
L 244.55625 26.8 
z
" style="fill:#ffffff;"/>
   </g>
   <g id="PolyCollection_3">
    <defs>
     <path d="M 244.55625 -149.104329 
L 244.55625 -145.403809 
L 246.448125 -145.932515 
L 248.34 -146.384023 
L 250.231875 -147.927297 
L 252.12375 -149.548135 
L 254.015625 -149.606394 
L 255.9075 -150.735662 
L 257.799375 -151.009783 
L 259.69125 -151.717192 
L 261.583125 -150.776862 
L 263.475 -150.159637 
L 265.366875 -149.810162 
L 267.25875 -148.652068 
L 269.150625 -148.366239 
L 271.0425 -148.68605 
L 272.934375 -148.333194 
L 274.82625 -148.508606 
L 276.718125 -149.25072 
L 278.61 -149.243619 
L 280.501875 -150.000832 
L 282.39375 -149.093945 
L 284.285625 -149.130063 
L 286.1775 -147.816719 
L 288.069375 -146.348704 
L 289.96125 -146.165645 
L 291.853125 -146.032005 
L 293.745 -146.218842 
L 295.636875 -146.693221 
L 297.52875 -146.205105 
L 299.420625 -147.037357 
L 301.3125 -147.055993 
L 303.204375 -147.317635 
L 305.09625 -146.942247 
L 306.988125 -146.138723 
L 308.88 -147.204242 
L 310.771875 -147.019388 
L 312.66375 -147.309501 
L 314.555625 -148.184805 
L 316.4475 -150.317949 
L 318.339375 -150.417078 
L 320.23125 -149.406044 
L 322.123125 -149.407336 
L 324.015 -148.840328 
L 325.906875 -148.273296 
L 327.79875 -145.885848 
L 329.690625 -146.110956 
L 331.5825 -146.290389 
L 333.474375 -146.595385 
L 335.36625 -146.372826 
L 337.258125 -146.627331 
L 339.15 -147.944299 
L 341.041875 -148.133708 
L 342.93375 -147.797639 
L 344.825625 -146.215098 
L 346.7175 -147.043552 
L 348.609375 -146.333418 
L 350.50125 -146.27714 
L 352.393125 -146.873813 
L 354.285 -147.830199 
L 356.176875 -147.92811 
L 358.06875 -146.287087 
L 359.960625 -147.264782 
L 361.8525 -146.219657 
L 363.744375 -146.13115 
L 365.63625 -146.0391 
L 367.528125 -146.116181 
L 369.42 -146.394265 
L 371.311875 -145.216087 
L 373.20375 -145.851365 
L 375.095625 -146.002235 
L 376.9875 -146.279319 
L 378.879375 -147.275903 
L 380.77125 -148.924544 
L 382.663125 -146.889683 
L 384.555 -146.0004 
L 386.446875 -145.496499 
L 388.33875 -145.256418 
L 390.230625 -144.510604 
L 392.1225 -142.938458 
L 394.014375 -144.666399 
L 395.90625 -146.313005 
L 397.798125 -146.944666 
L 399.69 -145.732897 
L 401.581875 -145.138632 
L 403.47375 -145.582199 
L 405.365625 -145.486957 
L 407.2575 -145.079281 
L 409.149375 -144.20584 
L 411.04125 -144.469695 
L 412.933125 -143.354256 
L 414.825 -143.506374 
L 414.825 -147.099121 
L 414.825 -147.099121 
L 412.933125 -146.904107 
L 411.04125 -147.932069 
L 409.149375 -147.331255 
L 407.2575 -148.302011 
L 405.365625 -148.632584 
L 403.47375 -148.645677 
L 401.581875 -148.241447 
L 399.69 -148.843831 
L 397.798125 -150.025791 
L 395.90625 -149.34038 
L 394.014375 -147.787667 
L 392.1225 -146.075393 
L 390.230625 -147.679266 
L 388.33875 -148.476279 
L 386.446875 -148.639121 
L 384.555 -149.245206 
L 382.663125 -150.093196 
L 380.77125 -152.043885 
L 378.879375 -150.349815 
L 376.9875 -149.381889 
L 375.095625 -149.076443 
L 373.20375 -148.988359 
L 371.311875 -148.380165 
L 369.42 -149.585353 
L 367.528125 -149.357412 
L 365.63625 -149.135919 
L 363.744375 -149.360217 
L 361.8525 -149.430561 
L 359.960625 -150.424821 
L 358.06875 -149.387209 
L 356.176875 -150.970338 
L 354.285 -150.885033 
L 352.393125 -150.007842 
L 350.50125 -149.452085 
L 348.609375 -149.362982 
L 346.7175 -150.066495 
L 344.825625 -149.32493 
L 342.93375 -150.919343 
L 341.041875 -151.276818 
L 339.15 -151.084392 
L 337.258125 -149.756065 
L 335.36625 -149.516556 
L 333.474375 -149.654738 
L 331.5825 -149.285973 
L 329.690625 -149.123099 
L 327.79875 -148.881346 
L 325.906875 -151.382698 
L 324.015 -151.953622 
L 322.123125 -152.563327 
L 320.23125 -152.55198 
L 318.339375 -153.643301 
L 316.4475 -153.561913 
L 314.555625 -151.449583 
L 312.66375 -150.50499 
L 310.771875 -150.113386 
L 308.88 -150.176996 
L 306.988125 -149.132279 
L 305.09625 -150.036723 
L 303.204375 -150.419341 
L 301.3125 -150.157607 
L 299.420625 -150.133424 
L 297.52875 -149.282839 
L 295.636875 -149.821688 
L 293.745 -149.282552 
L 291.853125 -149.188114 
L 289.96125 -149.434055 
L 288.069375 -149.614377 
L 286.1775 -151.015369 
L 284.285625 -152.348054 
L 282.39375 -152.198701 
L 280.501875 -153.049528 
L 278.61 -152.265093 
L 276.718125 -152.31448 
L 274.82625 -151.575137 
L 272.934375 -151.45668 
L 271.0425 -151.781428 
L 269.150625 -151.468346 
L 267.25875 -151.75651 
L 265.366875 -152.903828 
L 263.475 -153.162509 
L 261.583125 -153.867543 
L 259.69125 -154.826829 
L 257.799375 -154.123482 
L 255.9075 -153.802665 
L 254.015625 -152.769016 
L 252.12375 -152.653875 
L 250.231875 -151.069608 
L 248.34 -149.909234 
L 246.448125 -149.531063 
L 244.55625 -149.104329 
z
" id="m9dad442a19" style="stroke:#000000;"/>
    </defs>
    <g clip-path="url(#p26b4a32d2a)">
     <use style="stroke:#000000;" x="0" xlink:href="#m9dad442a19" y="288"/>
    </g>
   </g>
   <g id="PolyCollection_4">
    <defs>
     <path d="M 244.55625 -153.597979 
L 244.55625 -150.2008 
L 246.448125 -150.261767 
L 248.34 -149.872538 
L 250.231875 -149.62798 
L 252.12375 -148.474361 
L 254.015625 -150.208721 
L 255.9075 -149.465971 
L 257.799375 -149.956053 
L 259.69125 -150.846172 
L 261.583125 -151.061988 
L 263.475 -152.732902 
L 265.366875 -151.649204 
L 267.25875 -152.801167 
L 269.150625 -153.502329 
L 271.0425 -153.221068 
L 272.934375 -153.16805 
L 274.82625 -153.77532 
L 276.718125 -153.556486 
L 278.61 -152.329461 
L 280.501875 -149.815211 
L 282.39375 -149.719567 
L 284.285625 -148.600537 
L 286.1775 -148.444504 
L 288.069375 -146.69885 
L 289.96125 -146.652826 
L 291.853125 -146.578035 
L 293.745 -146.269361 
L 295.636875 -145.757624 
L 297.52875 -143.855904 
L 299.420625 -145.144591 
L 301.3125 -145.265224 
L 303.204375 -145.448815 
L 305.09625 -144.048348 
L 306.988125 -144.699812 
L 308.88 -144.63972 
L 310.771875 -144.0344 
L 312.66375 -144.301693 
L 314.555625 -144.002592 
L 316.4475 -144.86924 
L 318.339375 -143.955908 
L 320.23125 -143.909068 
L 322.123125 -146.103067 
L 324.015 -146.06021 
L 325.906875 -146.397573 
L 327.79875 -146.805254 
L 329.690625 -146.715953 
L 331.5825 -147.442484 
L 333.474375 -145.963402 
L 335.36625 -143.946862 
L 337.258125 -144.553892 
L 339.15 -145.942425 
L 341.041875 -147.11732 
L 342.93375 -148.091725 
L 344.825625 -148.467292 
L 346.7175 -152.004091 
L 348.609375 -152.385058 
L 350.50125 -152.161131 
L 352.393125 -153.162179 
L 354.285 -152.774868 
L 356.176875 -152.29238 
L 358.06875 -150.872067 
L 359.960625 -149.692262 
L 361.8525 -148.756583 
L 363.744375 -147.170584 
L 365.63625 -147.588178 
L 367.528125 -145.265139 
L 369.42 -144.609242 
L 371.311875 -145.022682 
L 373.20375 -145.328898 
L 375.095625 -144.316934 
L 376.9875 -144.286099 
L 378.879375 -145.102599 
L 380.77125 -144.340527 
L 382.663125 -143.186145 
L 384.555 -142.905752 
L 386.446875 -143.019906 
L 388.33875 -141.879773 
L 390.230625 -142.473061 
L 392.1225 -141.721264 
L 394.014375 -141.773654 
L 395.90625 -142.0827 
L 397.798125 -143.385307 
L 399.69 -144.518003 
L 401.581875 -142.885691 
L 403.47375 -143.19249 
L 405.365625 -143.072252 
L 407.2575 -144.416878 
L 409.149375 -144.311163 
L 411.04125 -143.268447 
L 412.933125 -147.045813 
L 414.825 -147.857722 
L 414.825 -151.249635 
L 414.825 -151.249635 
L 412.933125 -150.472814 
L 411.04125 -146.77494 
L 409.149375 -147.475262 
L 407.2575 -147.571901 
L 405.365625 -146.194564 
L 403.47375 -146.354185 
L 401.581875 -146.038962 
L 399.69 -147.736086 
L 397.798125 -146.658615 
L 395.90625 -145.311667 
L 394.014375 -144.916878 
L 392.1225 -144.841155 
L 390.230625 -145.619052 
L 388.33875 -145.106952 
L 386.446875 -146.288522 
L 384.555 -146.075334 
L 382.663125 -146.24425 
L 380.77125 -147.392682 
L 378.879375 -148.322683 
L 376.9875 -147.47381 
L 375.095625 -147.360948 
L 373.20375 -148.434716 
L 371.311875 -148.161756 
L 369.42 -147.70683 
L 367.528125 -148.231732 
L 365.63625 -150.566346 
L 363.744375 -150.10413 
L 361.8525 -151.759967 
L 359.960625 -152.765293 
L 358.06875 -154.112552 
L 356.176875 -155.633981 
L 354.285 -156.083945 
L 352.393125 -156.32143 
L 350.50125 -155.260187 
L 348.609375 -155.490161 
L 346.7175 -155.130658 
L 344.825625 -151.626011 
L 342.93375 -151.262141 
L 341.041875 -150.250129 
L 339.15 -149.132579 
L 337.258125 -147.752258 
L 335.36625 -147.138314 
L 333.474375 -149.224034 
L 331.5825 -150.667276 
L 329.690625 -149.902059 
L 327.79875 -150.097952 
L 325.906875 -149.651458 
L 324.015 -149.330289 
L 322.123125 -149.236162 
L 320.23125 -147.069039 
L 318.339375 -147.039074 
L 316.4475 -147.983819 
L 314.555625 -147.057857 
L 312.66375 -147.46164 
L 310.771875 -147.152864 
L 308.88 -147.720737 
L 306.988125 -147.825208 
L 305.09625 -146.984925 
L 303.204375 -148.454991 
L 301.3125 -148.276392 
L 299.420625 -148.14376 
L 297.52875 -147.051457 
L 295.636875 -148.950604 
L 293.745 -149.366724 
L 291.853125 -149.642925 
L 289.96125 -149.633287 
L 288.069375 -149.69705 
L 286.1775 -151.430214 
L 284.285625 -151.640935 
L 282.39375 -152.73552 
L 280.501875 -152.912737 
L 278.61 -155.338077 
L 276.718125 -156.561053 
L 274.82625 -156.752219 
L 272.934375 -156.219011 
L 271.0425 -156.271616 
L 269.150625 -156.669022 
L 267.25875 -155.952033 
L 265.366875 -154.784873 
L 263.475 -155.855204 
L 261.583125 -154.258902 
L 259.69125 -154.040303 
L 257.799375 -153.0881 
L 255.9075 -152.731447 
L 254.015625 -153.523892 
L 252.12375 -151.691595 
L 250.231875 -152.73342 
L 248.34 -153.352791 
L 246.448125 -153.795174 
L 244.55625 -153.597979 
z
" id="mba7b9508a0" style="stroke:#00bfbf;"/>
    </defs>
    <g clip-path="url(#p26b4a32d2a)">
     <use style="fill:#00bfbf;stroke:#00bfbf;" x="0" xlink:href="#mba7b9508a0" y="288"/>
    </g>
   </g>
   <g id="matplotlib.axis_3">
    <g id="xtick_6">
     <g id="line2d_15">
      <g>
       <use style="stroke:#000000;stroke-width:0.8;" x="244.55625" xlink:href="#mdeb6e62589" y="242.2"/>
      </g>
     </g>
     <g id="text_19">
      <!-- −90 -->
      <g transform="translate(234.003906 256.798437)scale(0.1 -0.1)">
       <use xlink:href="#DejaVuSans-8722"/>
       <use x="83.789062" xlink:href="#DejaVuSans-57"/>
       <use x="147.412109" xlink:href="#DejaVuSans-48"/>
      </g>
     </g>
    </g>
    <g id="xtick_7">
     <g id="line2d_16">
      <g>
       <use style="stroke:#000000;stroke-width:0.8;" x="287.123437" xlink:href="#mdeb6e62589" y="242.2"/>
      </g>
     </g>
     <g id="text_20">
      <!-- −45 -->
      <g transform="translate(276.571094 256.798437)scale(0.1 -0.1)">
       <use xlink:href="#DejaVuSans-8722"/>
       <use x="83.789062" xlink:href="#DejaVuSans-52"/>
       <use x="147.412109" xlink:href="#DejaVuSans-53"/>
      </g>
     </g>
    </g>
    <g id="xtick_8">
     <g id="line2d_17">
      <g>
       <use style="stroke:#000000;stroke-width:0.8;" x="329.690625" xlink:href="#mdeb6e62589" y="242.2"/>
      </g>
     </g>
     <g id="text_21">
      <!-- 0 -->
      <g transform="translate(326.509375 256.798437)scale(0.1 -0.1)">
       <use xlink:href="#DejaVuSans-48"/>
      </g>
     </g>
    </g>
    <g id="xtick_9">
     <g id="line2d_18">
      <g>
       <use style="stroke:#000000;stroke-width:0.8;" x="372.257812" xlink:href="#mdeb6e62589" y="242.2"/>
      </g>
     </g>
     <g id="text_22">
      <!-- 45 -->
      <g transform="translate(365.895312 256.798437)scale(0.1 -0.1)">
       <use xlink:href="#DejaVuSans-52"/>
       <use x="63.623047" xlink:href="#DejaVuSans-53"/>
      </g>
     </g>
    </g>
    <g id="xtick_10">
     <g id="line2d_19">
      <g>
       <use style="stroke:#000000;stroke-width:0.8;" x="414.825" xlink:href="#mdeb6e62589" y="242.2"/>
      </g>
     </g>
     <g id="text_23">
      <!-- 90 -->
      <g transform="translate(408.4625 256.798437)scale(0.1 -0.1)">
       <use xlink:href="#DejaVuSans-57"/>
       <use x="63.623047" xlink:href="#DejaVuSans-48"/>
      </g>
     </g>
    </g>
    <g id="text_24">
     <!-- $\Delta\theta$ (deg) -->
     <g transform="translate(308.290625 270.578125)scale(0.1 -0.1)">
      <use transform="translate(0 0.234375)" xlink:href="#DejaVuSans-916"/>
      <use transform="translate(68.408203 0.234375)" xlink:href="#DejaVuSans-Oblique-952"/>
      <use transform="translate(129.589844 0.234375)" xlink:href="#DejaVuSans-32"/>
      <use transform="translate(161.376953 0.234375)" xlink:href="#DejaVuSans-40"/>
      <use transform="translate(200.390625 0.234375)" xlink:href="#DejaVuSans-100"/>
      <use transform="translate(263.867188 0.234375)" xlink:href="#DejaVuSans-101"/>
      <use transform="translate(325.390625 0.234375)" xlink:href="#DejaVuSans-103"/>
      <use transform="translate(388.867188 0.234375)" xlink:href="#DejaVuSans-41"/>
     </g>
    </g>
   </g>
   <g id="matplotlib.axis_4"/>
   <g id="line2d_20">
    <path clip-path="url(#p26b4a32d2a)" d="M 244.55625 134.5 
L 414.825 134.5 
" style="fill:none;stroke:#000000;stroke-dasharray:5.55,2.4;stroke-dashoffset:0;stroke-width:1.5;"/>
   </g>
   <g id="line2d_21">
    <path clip-path="url(#p26b4a32d2a)" d="M 329.690625 242.2 
L 329.690625 26.8 
" style="fill:none;stroke:#0000ff;stroke-dasharray:5.55,2.4;stroke-dashoffset:0;stroke-width:1.5;"/>
   </g>
   <g id="patch_11">
    <path d="M 244.55625 242.2 
L 244.55625 26.8 
" style="fill:none;stroke:#000000;stroke-linecap:square;stroke-linejoin:miter;stroke-width:0.8;"/>
   </g>
   <g id="patch_12">
    <path d="M 414.825 242.2 
L 414.825 26.8 
" style="fill:none;stroke:#000000;stroke-linecap:square;stroke-linejoin:miter;stroke-width:0.8;"/>
   </g>
   <g id="patch_13">
    <path d="M 244.55625 242.2 
L 414.825 242.2 
" style="fill:none;stroke:#000000;stroke-linecap:square;stroke-linejoin:miter;stroke-width:0.8;"/>
   </g>
   <g id="patch_14">
    <path d="M 244.55625 26.8 
L 414.825 26.8 
" style="fill:none;stroke:#000000;stroke-linecap:square;stroke-linejoin:miter;stroke-width:0.8;"/>
   </g>
   <g id="text_25">
    <!-- Shuffle -->
    <g transform="translate(308.693437 20.8)scale(0.12 -0.12)">
     <defs>
      <path d="M 54.890625 33.015625 
L 54.890625 0 
L 45.90625 0 
L 45.90625 32.71875 
Q 45.90625 40.484375 42.875 44.328125 
Q 39.84375 48.1875 33.796875 48.1875 
Q 26.515625 48.1875 22.3125 43.546875 
Q 18.109375 38.921875 18.109375 30.90625 
L 18.109375 0 
L 9.078125 0 
L 9.078125 75.984375 
L 18.109375 75.984375 
L 18.109375 46.1875 
Q 21.34375 51.125 25.703125 53.5625 
Q 30.078125 56 35.796875 56 
Q 45.21875 56 50.046875 50.171875 
Q 54.890625 44.34375 54.890625 33.015625 
z
" id="DejaVuSans-104"/>
      <path d="M 8.5 21.578125 
L 8.5 54.6875 
L 17.484375 54.6875 
L 17.484375 21.921875 
Q 17.484375 14.15625 20.5 10.265625 
Q 23.53125 6.390625 29.59375 6.390625 
Q 36.859375 6.390625 41.078125 11.03125 
Q 45.3125 15.671875 45.3125 23.6875 
L 45.3125 54.6875 
L 54.296875 54.6875 
L 54.296875 0 
L 45.3125 0 
L 45.3125 8.40625 
Q 42.046875 3.421875 37.71875 1 
Q 33.40625 -1.421875 27.6875 -1.421875 
Q 18.265625 -1.421875 13.375 4.4375 
Q 8.5 10.296875 8.5 21.578125 
z
M 31.109375 56 
z
" id="DejaVuSans-117"/>
      <path d="M 37.109375 75.984375 
L 37.109375 68.5 
L 28.515625 68.5 
Q 23.6875 68.5 21.796875 66.546875 
Q 19.921875 64.59375 19.921875 59.515625 
L 19.921875 54.6875 
L 34.71875 54.6875 
L 34.71875 47.703125 
L 19.921875 47.703125 
L 19.921875 0 
L 10.890625 0 
L 10.890625 47.703125 
L 2.296875 47.703125 
L 2.296875 54.6875 
L 10.890625 54.6875 
L 10.890625 58.5 
Q 10.890625 67.625 15.140625 71.796875 
Q 19.390625 75.984375 28.609375 75.984375 
z
" id="DejaVuSans-102"/>
      <path d="M 9.421875 75.984375 
L 18.40625 75.984375 
L 18.40625 0 
L 9.421875 0 
z
" id="DejaVuSans-108"/>
     </defs>
     <use xlink:href="#DejaVuSans-83"/>
     <use x="63.476562" xlink:href="#DejaVuSans-104"/>
     <use x="126.855469" xlink:href="#DejaVuSans-117"/>
     <use x="190.234375" xlink:href="#DejaVuSans-102"/>
     <use x="225.439453" xlink:href="#DejaVuSans-102"/>
     <use x="260.644531" xlink:href="#DejaVuSans-108"/>
     <use x="288.427734" xlink:href="#DejaVuSans-101"/>
    </g>
   </g>
   <g id="legend_2">
    <g id="patch_15">
     <path d="M 251.55625 78.834375 
L 297.35625 78.834375 
Q 299.35625 78.834375 299.35625 76.834375 
L 299.35625 33.8 
Q 299.35625 31.8 297.35625 31.8 
L 251.55625 31.8 
Q 249.55625 31.8 249.55625 33.8 
L 249.55625 76.834375 
Q 249.55625 78.834375 251.55625 78.834375 
z
" style="fill:#ffffff;opacity:0.8;stroke:#cccccc;stroke-linejoin:miter;"/>
    </g>
    <g id="text_26">
     <!-- Sort -->
     <g transform="translate(264.207031 43.398437)scale(0.1 -0.1)">
      <use xlink:href="#DejaVuSans-83"/>
      <use x="63.476562" xlink:href="#DejaVuSans-111"/>
      <use x="124.658203" xlink:href="#DejaVuSans-114"/>
      <use x="165.771484" xlink:href="#DejaVuSans-116"/>
     </g>
    </g>
    <g id="patch_16">
     <path d="M 253.55625 58.076562 
L 273.55625 58.076562 
L 273.55625 51.076562 
L 253.55625 51.076562 
z
" style="stroke:#000000;stroke-linejoin:miter;"/>
    </g>
    <g id="text_27">
     <!-- $\Delta S$ -->
     <g transform="translate(281.55625 58.076562)scale(0.1 -0.1)">
      <use transform="translate(0 0.78125)" xlink:href="#DejaVuSans-916"/>
      <use transform="translate(68.408203 0.78125)" xlink:href="#DejaVuSans-Oblique-83"/>
     </g>
    </g>
    <g id="patch_17">
     <path d="M 253.55625 72.754687 
L 273.55625 72.754687 
L 273.55625 65.754687 
L 253.55625 65.754687 
z
" style="fill:#00bfbf;stroke:#00bfbf;stroke-linejoin:miter;"/>
    </g>
    <g id="text_28">
     <!-- $\Delta R$ -->
     <g transform="translate(281.55625 72.754687)scale(0.1 -0.1)">
      <use transform="translate(0 0.09375)" xlink:href="#DejaVuSans-916"/>
      <use transform="translate(68.408203 0.09375)" xlink:href="#DejaVuSans-Oblique-82"/>
     </g>
    </g>
   </g>
  </g>
 </g>
 <defs>
  <clipPath id="pe916fca79b">
   <rect height="215.4" width="170.26875" x="46.55" y="26.8"/>
  </clipPath>
  <clipPath id="p26b4a32d2a">
   <rect height="215.4" width="170.26875" x="244.55625" y="26.8"/>
  </clipPath>
 </defs>
</svg>
