<?xml version="1.0" encoding="utf-8" standalone="no"?>
<!DOCTYPE svg PUBLIC "-//W3C//DTD SVG 1.1//EN"
  "http://www.w3.org/Graphics/SVG/1.1/DTD/svg11.dtd">
<!-- Created with matplotlib (https://matplotlib.org/) -->
<svg height="576pt" version="1.1" viewBox="0 0 216 576" width="216pt" xmlns="http://www.w3.org/2000/svg" xmlns:xlink="http://www.w3.org/1999/xlink">
 <metadata>
  <rdf:RDF xmlns:cc="http://creativecommons.org/ns#" xmlns:dc="http://purl.org/dc/elements/1.1/" xmlns:rdf="http://www.w3.org/1999/02/22-rdf-syntax-ns#">
   <cc:Work>
    <dc:type rdf:resource="http://purl.org/dc/dcmitype/StillImage"/>
    <dc:date>2022-12-15T18:58:34.159529</dc:date>
    <dc:format>image/svg+xml</dc:format>
    <dc:creator>
     <cc:Agent>
      <dc:title>Matplotlib v3.3.1, https://matplotlib.org/</dc:title>
     </cc:Agent>
    </dc:creator>
   </cc:Work>
  </rdf:RDF>
 </metadata>
 <defs>
  <style type="text/css">*{stroke-linecap:butt;stroke-linejoin:round;}</style>
 </defs>
 <g id="figure_1">
  <g id="patch_1">
   <path d="M 0 576 
L 216 576 
L 216 0 
L 0 0 
z
" style="fill:none;"/>
  </g>
  <g id="axes_1">
   <g id="patch_2">
    <path d="M 40.175 249.6 
L 198.825 249.6 
L 198.825 26.8 
L 40.175 26.8 
z
" style="fill:#ffffff;"/>
   </g>
   <g id="patch_3">
    <path clip-path="url(#p95663595c4)" d="M 40.175 249.6 
L 41.937778 249.6 
L 41.937778 191.329231 
L 40.175 191.329231 
z
" style="fill:#e2e2ef;"/>
   </g>
   <g id="patch_4">
    <path clip-path="url(#p95663595c4)" d="M 41.937778 249.6 
L 43.700556 249.6 
L 43.700556 196.470769 
L 41.937778 196.470769 
z
" style="fill:#e2e2ef;"/>
   </g>
   <g id="patch_5">
    <path clip-path="url(#p95663595c4)" d="M 43.700556 249.6 
L 45.463333 249.6 
L 45.463333 198.184615 
L 43.700556 198.184615 
z
" style="fill:#e2e2ef;"/>
   </g>
   <g id="patch_6">
    <path clip-path="url(#p95663595c4)" d="M 45.463333 249.6 
L 47.226111 249.6 
L 47.226111 207.182308 
L 45.463333 207.182308 
z
" style="fill:#e2e2ef;"/>
   </g>
   <g id="patch_7">
    <path clip-path="url(#p95663595c4)" d="M 47.226111 249.6 
L 48.988889 249.6 
L 48.988889 200.755385 
L 47.226111 200.755385 
z
" style="fill:#e2e2ef;"/>
   </g>
   <g id="patch_8">
    <path clip-path="url(#p95663595c4)" d="M 48.988889 249.6 
L 50.751667 249.6 
L 50.751667 196.042308 
L 48.988889 196.042308 
z
" style="fill:#e2e2ef;"/>
   </g>
   <g id="patch_9">
    <path clip-path="url(#p95663595c4)" d="M 50.751667 249.6 
L 52.514444 249.6 
L 52.514444 202.897692 
L 50.751667 202.897692 
z
" style="fill:#e2e2ef;"/>
   </g>
   <g id="patch_10">
    <path clip-path="url(#p95663595c4)" d="M 52.514444 249.6 
L 54.277222 249.6 
L 54.277222 206.753846 
L 52.514444 206.753846 
z
" style="fill:#e2e2ef;"/>
   </g>
   <g id="patch_11">
    <path clip-path="url(#p95663595c4)" d="M 54.277222 249.6 
L 56.04 249.6 
L 56.04 200.326923 
L 54.277222 200.326923 
z
" style="fill:#e2e2ef;"/>
   </g>
   <g id="patch_12">
    <path clip-path="url(#p95663595c4)" d="M 56.04 249.6 
L 57.802778 249.6 
L 57.802778 199.47 
L 56.04 199.47 
z
" style="fill:#e2e2ef;"/>
   </g>
   <g id="patch_13">
    <path clip-path="url(#p95663595c4)" d="M 57.802778 249.6 
L 59.565556 249.6 
L 59.565556 187.473077 
L 57.802778 187.473077 
z
" style="fill:#e2e2ef;"/>
   </g>
   <g id="patch_14">
    <path clip-path="url(#p95663595c4)" d="M 59.565556 249.6 
L 61.328333 249.6 
L 61.328333 197.756154 
L 59.565556 197.756154 
z
" style="fill:#e2e2ef;"/>
   </g>
   <g id="patch_15">
    <path clip-path="url(#p95663595c4)" d="M 61.328333 249.6 
L 63.091111 249.6 
L 63.091111 196.899231 
L 61.328333 196.899231 
z
" style="fill:#e2e2ef;"/>
   </g>
   <g id="patch_16">
    <path clip-path="url(#p95663595c4)" d="M 63.091111 249.6 
L 64.853889 249.6 
L 64.853889 187.044615 
L 63.091111 187.044615 
z
" style="fill:#e2e2ef;"/>
   </g>
   <g id="patch_17">
    <path clip-path="url(#p95663595c4)" d="M 64.853889 249.6 
L 66.616667 249.6 
L 66.616667 186.187692 
L 64.853889 186.187692 
z
" style="fill:#e2e2ef;"/>
   </g>
   <g id="patch_18">
    <path clip-path="url(#p95663595c4)" d="M 66.616667 249.6 
L 68.379444 249.6 
L 68.379444 194.328462 
L 66.616667 194.328462 
z
" style="fill:#e2e2ef;"/>
   </g>
   <g id="patch_19">
    <path clip-path="url(#p95663595c4)" d="M 68.379444 249.6 
L 70.142222 249.6 
L 70.142222 191.757692 
L 68.379444 191.757692 
z
" style="fill:#e2e2ef;"/>
   </g>
   <g id="patch_20">
    <path clip-path="url(#p95663595c4)" d="M 70.142222 249.6 
L 71.905 249.6 
L 71.905 189.615385 
L 70.142222 189.615385 
z
" style="fill:#e2e2ef;"/>
   </g>
   <g id="patch_21">
    <path clip-path="url(#p95663595c4)" d="M 71.905 249.6 
L 73.667778 249.6 
L 73.667778 182.76 
L 71.905 182.76 
z
" style="fill:#e2e2ef;"/>
   </g>
   <g id="patch_22">
    <path clip-path="url(#p95663595c4)" d="M 73.667778 249.6 
L 75.430556 249.6 
L 75.430556 173.333846 
L 73.667778 173.333846 
z
" style="fill:#e2e2ef;"/>
   </g>
   <g id="patch_23">
    <path clip-path="url(#p95663595c4)" d="M 75.430556 249.6 
L 77.193333 249.6 
L 77.193333 163.050769 
L 75.430556 163.050769 
z
" style="fill:#e2e2ef;"/>
   </g>
   <g id="patch_24">
    <path clip-path="url(#p95663595c4)" d="M 77.193333 249.6 
L 78.956111 249.6 
L 78.956111 172.048462 
L 77.193333 172.048462 
z
" style="fill:#e2e2ef;"/>
   </g>
   <g id="patch_25">
    <path clip-path="url(#p95663595c4)" d="M 78.956111 249.6 
L 80.718889 249.6 
L 80.718889 170.334615 
L 78.956111 170.334615 
z
" style="fill:#e2e2ef;"/>
   </g>
   <g id="patch_26">
    <path clip-path="url(#p95663595c4)" d="M 80.718889 249.6 
L 82.481667 249.6 
L 82.481667 166.478462 
L 80.718889 166.478462 
z
" style="fill:#e2e2ef;"/>
   </g>
   <g id="patch_27">
    <path clip-path="url(#p95663595c4)" d="M 82.481667 249.6 
L 84.244444 249.6 
L 84.244444 154.91 
L 82.481667 154.91 
z
" style="fill:#e2e2ef;"/>
   </g>
   <g id="patch_28">
    <path clip-path="url(#p95663595c4)" d="M 84.244444 249.6 
L 86.007222 249.6 
L 86.007222 157.052308 
L 84.244444 157.052308 
z
" style="fill:#e2e2ef;"/>
   </g>
   <g id="patch_29">
    <path clip-path="url(#p95663595c4)" d="M 86.007222 249.6 
L 87.77 249.6 
L 87.77 154.91 
L 86.007222 154.91 
z
" style="fill:#e2e2ef;"/>
   </g>
   <g id="patch_30">
    <path clip-path="url(#p95663595c4)" d="M 87.77 249.6 
L 89.532778 249.6 
L 89.532778 149.34 
L 87.77 149.34 
z
" style="fill:#e2e2ef;"/>
   </g>
   <g id="patch_31">
    <path clip-path="url(#p95663595c4)" d="M 89.532778 249.6 
L 91.295556 249.6 
L 91.295556 142.056154 
L 89.532778 142.056154 
z
" style="fill:#e2e2ef;"/>
   </g>
   <g id="patch_32">
    <path clip-path="url(#p95663595c4)" d="M 91.295556 249.6 
L 93.058333 249.6 
L 93.058333 144.626923 
L 91.295556 144.626923 
z
" style="fill:#e2e2ef;"/>
   </g>
   <g id="patch_33">
    <path clip-path="url(#p95663595c4)" d="M 93.058333 249.6 
L 94.821111 249.6 
L 94.821111 117.633846 
L 93.058333 117.633846 
z
" style="fill:#e2e2ef;"/>
   </g>
   <g id="patch_34">
    <path clip-path="url(#p95663595c4)" d="M 94.821111 249.6 
L 96.583889 249.6 
L 96.583889 127.488462 
L 94.821111 127.488462 
z
" style="fill:#e2e2ef;"/>
   </g>
   <g id="patch_35">
    <path clip-path="url(#p95663595c4)" d="M 96.583889 249.6 
L 98.346667 249.6 
L 98.346667 130.487692 
L 96.583889 130.487692 
z
" style="fill:#e2e2ef;"/>
   </g>
   <g id="patch_36">
    <path clip-path="url(#p95663595c4)" d="M 98.346667 249.6 
L 100.109444 249.6 
L 100.109444 113.777692 
L 98.346667 113.777692 
z
" style="fill:#e2e2ef;"/>
   </g>
   <g id="patch_37">
    <path clip-path="url(#p95663595c4)" d="M 100.109444 249.6 
L 101.872222 249.6 
L 101.872222 105.208462 
L 100.109444 105.208462 
z
" style="fill:#e2e2ef;"/>
   </g>
   <g id="patch_38">
    <path clip-path="url(#p95663595c4)" d="M 101.872222 249.6 
L 103.635 249.6 
L 103.635 117.633846 
L 101.872222 117.633846 
z
" style="fill:#e2e2ef;"/>
   </g>
   <g id="patch_39">
    <path clip-path="url(#p95663595c4)" d="M 103.635 249.6 
L 105.397778 249.6 
L 105.397778 103.066154 
L 103.635 103.066154 
z
" style="fill:#e2e2ef;"/>
   </g>
   <g id="patch_40">
    <path clip-path="url(#p95663595c4)" d="M 105.397778 249.6 
L 107.160556 249.6 
L 107.160556 108.207692 
L 105.397778 108.207692 
z
" style="fill:#e2e2ef;"/>
   </g>
   <g id="patch_41">
    <path clip-path="url(#p95663595c4)" d="M 107.160556 249.6 
L 108.923333 249.6 
L 108.923333 83.356923 
L 107.160556 83.356923 
z
" style="fill:#e2e2ef;"/>
   </g>
   <g id="patch_42">
    <path clip-path="url(#p95663595c4)" d="M 108.923333 249.6 
L 110.686111 249.6 
L 110.686111 87.213077 
L 108.923333 87.213077 
z
" style="fill:#e2e2ef;"/>
   </g>
   <g id="patch_43">
    <path clip-path="url(#p95663595c4)" d="M 110.686111 249.6 
L 112.448889 249.6 
L 112.448889 75.216154 
L 110.686111 75.216154 
z
" style="fill:#e2e2ef;"/>
   </g>
   <g id="patch_44">
    <path clip-path="url(#p95663595c4)" d="M 112.448889 249.6 
L 114.211667 249.6 
L 114.211667 76.073077 
L 112.448889 76.073077 
z
" style="fill:#e2e2ef;"/>
   </g>
   <g id="patch_45">
    <path clip-path="url(#p95663595c4)" d="M 114.211667 249.6 
L 115.974444 249.6 
L 115.974444 68.360769 
L 114.211667 68.360769 
z
" style="fill:#e2e2ef;"/>
   </g>
   <g id="patch_46">
    <path clip-path="url(#p95663595c4)" d="M 115.974444 249.6 
L 117.737222 249.6 
L 117.737222 76.93 
L 115.974444 76.93 
z
" style="fill:#e2e2ef;"/>
   </g>
   <g id="patch_47">
    <path clip-path="url(#p95663595c4)" d="M 117.737222 249.6 
L 119.5 249.6 
L 119.5 96.210769 
L 117.737222 96.210769 
z
" style="fill:#e2e2ef;"/>
   </g>
   <g id="patch_48">
    <path clip-path="url(#p95663595c4)" d="M 119.5 249.6 
L 121.262778 249.6 
L 121.262778 67.075385 
L 119.5 67.075385 
z
" style="fill:#e2e2ef;"/>
   </g>
   <g id="patch_49">
    <path clip-path="url(#p95663595c4)" d="M 121.262778 249.6 
L 123.025556 249.6 
L 123.025556 67.503846 
L 121.262778 67.503846 
z
" style="fill:#e2e2ef;"/>
   </g>
   <g id="patch_50">
    <path clip-path="url(#p95663595c4)" d="M 123.025556 249.6 
L 124.788333 249.6 
L 124.788333 82.5 
L 123.025556 82.5 
z
" style="fill:#e2e2ef;"/>
   </g>
   <g id="patch_51">
    <path clip-path="url(#p95663595c4)" d="M 124.788333 249.6 
L 126.551111 249.6 
L 126.551111 81.643077 
L 124.788333 81.643077 
z
" style="fill:#e2e2ef;"/>
   </g>
   <g id="patch_52">
    <path clip-path="url(#p95663595c4)" d="M 126.551111 249.6 
L 128.313889 249.6 
L 128.313889 85.499231 
L 126.551111 85.499231 
z
" style="fill:#e2e2ef;"/>
   </g>
   <g id="patch_53">
    <path clip-path="url(#p95663595c4)" d="M 128.313889 249.6 
L 130.076667 249.6 
L 130.076667 77.786923 
L 128.313889 77.786923 
z
" style="fill:#e2e2ef;"/>
   </g>
   <g id="patch_54">
    <path clip-path="url(#p95663595c4)" d="M 130.076667 249.6 
L 131.839444 249.6 
L 131.839444 97.924615 
L 130.076667 97.924615 
z
" style="fill:#e2e2ef;"/>
   </g>
   <g id="patch_55">
    <path clip-path="url(#p95663595c4)" d="M 131.839444 249.6 
L 133.602222 249.6 
L 133.602222 92.354615 
L 131.839444 92.354615 
z
" style="fill:#e2e2ef;"/>
   </g>
   <g id="patch_56">
    <path clip-path="url(#p95663595c4)" d="M 133.602222 249.6 
L 135.365 249.6 
L 135.365 109.064615 
L 133.602222 109.064615 
z
" style="fill:#e2e2ef;"/>
   </g>
   <g id="patch_57">
    <path clip-path="url(#p95663595c4)" d="M 135.365 249.6 
L 137.127778 249.6 
L 137.127778 92.783077 
L 135.365 92.783077 
z
" style="fill:#e2e2ef;"/>
   </g>
   <g id="patch_58">
    <path clip-path="url(#p95663595c4)" d="M 137.127778 249.6 
L 138.890556 249.6 
L 138.890556 108.636154 
L 137.127778 108.636154 
z
" style="fill:#e2e2ef;"/>
   </g>
   <g id="patch_59">
    <path clip-path="url(#p95663595c4)" d="M 138.890556 249.6 
L 140.653333 249.6 
L 140.653333 121.918462 
L 138.890556 121.918462 
z
" style="fill:#e2e2ef;"/>
   </g>
   <g id="patch_60">
    <path clip-path="url(#p95663595c4)" d="M 140.653333 249.6 
L 142.416111 249.6 
L 142.416111 123.632308 
L 140.653333 123.632308 
z
" style="fill:#e2e2ef;"/>
   </g>
   <g id="patch_61">
    <path clip-path="url(#p95663595c4)" d="M 142.416111 249.6 
L 144.178889 249.6 
L 144.178889 126.631538 
L 142.416111 126.631538 
z
" style="fill:#e2e2ef;"/>
   </g>
   <g id="patch_62">
    <path clip-path="url(#p95663595c4)" d="M 144.178889 249.6 
L 145.941667 249.6 
L 145.941667 126.631538 
L 144.178889 126.631538 
z
" style="fill:#e2e2ef;"/>
   </g>
   <g id="patch_63">
    <path clip-path="url(#p95663595c4)" d="M 145.941667 249.6 
L 147.704444 249.6 
L 147.704444 124.489231 
L 145.941667 124.489231 
z
" style="fill:#e2e2ef;"/>
   </g>
   <g id="patch_64">
    <path clip-path="url(#p95663595c4)" d="M 147.704444 249.6 
L 149.467222 249.6 
L 149.467222 148.911538 
L 147.704444 148.911538 
z
" style="fill:#e2e2ef;"/>
   </g>
   <g id="patch_65">
    <path clip-path="url(#p95663595c4)" d="M 149.467222 249.6 
L 151.23 249.6 
L 151.23 148.054615 
L 149.467222 148.054615 
z
" style="fill:#e2e2ef;"/>
   </g>
   <g id="patch_66">
    <path clip-path="url(#p95663595c4)" d="M 151.23 249.6 
L 152.992778 249.6 
L 152.992778 149.768462 
L 151.23 149.768462 
z
" style="fill:#e2e2ef;"/>
   </g>
   <g id="patch_67">
    <path clip-path="url(#p95663595c4)" d="M 152.992778 249.6 
L 154.755556 249.6 
L 154.755556 162.193846 
L 152.992778 162.193846 
z
" style="fill:#e2e2ef;"/>
   </g>
   <g id="patch_68">
    <path clip-path="url(#p95663595c4)" d="M 154.755556 249.6 
L 156.518333 249.6 
L 156.518333 152.767692 
L 154.755556 152.767692 
z
" style="fill:#e2e2ef;"/>
   </g>
   <g id="patch_69">
    <path clip-path="url(#p95663595c4)" d="M 156.518333 249.6 
L 158.281111 249.6 
L 158.281111 167.763846 
L 156.518333 167.763846 
z
" style="fill:#e2e2ef;"/>
   </g>
   <g id="patch_70">
    <path clip-path="url(#p95663595c4)" d="M 158.281111 249.6 
L 160.043889 249.6 
L 160.043889 161.336923 
L 158.281111 161.336923 
z
" style="fill:#e2e2ef;"/>
   </g>
   <g id="patch_71">
    <path clip-path="url(#p95663595c4)" d="M 160.043889 249.6 
L 161.806667 249.6 
L 161.806667 180.617692 
L 160.043889 180.617692 
z
" style="fill:#e2e2ef;"/>
   </g>
   <g id="patch_72">
    <path clip-path="url(#p95663595c4)" d="M 161.806667 249.6 
L 163.569444 249.6 
L 163.569444 171.191538 
L 161.806667 171.191538 
z
" style="fill:#e2e2ef;"/>
   </g>
   <g id="patch_73">
    <path clip-path="url(#p95663595c4)" d="M 163.569444 249.6 
L 165.332222 249.6 
L 165.332222 176.761538 
L 163.569444 176.761538 
z
" style="fill:#e2e2ef;"/>
   </g>
   <g id="patch_74">
    <path clip-path="url(#p95663595c4)" d="M 165.332222 249.6 
L 167.095 249.6 
L 167.095 185.759231 
L 165.332222 185.759231 
z
" style="fill:#e2e2ef;"/>
   </g>
   <g id="patch_75">
    <path clip-path="url(#p95663595c4)" d="M 167.095 249.6 
L 168.857778 249.6 
L 168.857778 182.76 
L 167.095 182.76 
z
" style="fill:#e2e2ef;"/>
   </g>
   <g id="patch_76">
    <path clip-path="url(#p95663595c4)" d="M 168.857778 249.6 
L 170.620556 249.6 
L 170.620556 190.900769 
L 168.857778 190.900769 
z
" style="fill:#e2e2ef;"/>
   </g>
   <g id="patch_77">
    <path clip-path="url(#p95663595c4)" d="M 170.620556 249.6 
L 172.383333 249.6 
L 172.383333 197.327692 
L 170.620556 197.327692 
z
" style="fill:#e2e2ef;"/>
   </g>
   <g id="patch_78">
    <path clip-path="url(#p95663595c4)" d="M 172.383333 249.6 
L 174.146111 249.6 
L 174.146111 193.471538 
L 172.383333 193.471538 
z
" style="fill:#e2e2ef;"/>
   </g>
   <g id="patch_79">
    <path clip-path="url(#p95663595c4)" d="M 174.146111 249.6 
L 175.908889 249.6 
L 175.908889 195.613846 
L 174.146111 195.613846 
z
" style="fill:#e2e2ef;"/>
   </g>
   <g id="patch_80">
    <path clip-path="url(#p95663595c4)" d="M 175.908889 249.6 
L 177.671667 249.6 
L 177.671667 192.186154 
L 175.908889 192.186154 
z
" style="fill:#e2e2ef;"/>
   </g>
   <g id="patch_81">
    <path clip-path="url(#p95663595c4)" d="M 177.671667 249.6 
L 179.434444 249.6 
L 179.434444 197.327692 
L 177.671667 197.327692 
z
" style="fill:#e2e2ef;"/>
   </g>
   <g id="patch_82">
    <path clip-path="url(#p95663595c4)" d="M 179.434444 249.6 
L 181.197222 249.6 
L 181.197222 199.898462 
L 179.434444 199.898462 
z
" style="fill:#e2e2ef;"/>
   </g>
   <g id="patch_83">
    <path clip-path="url(#p95663595c4)" d="M 181.197222 249.6 
L 182.96 249.6 
L 182.96 198.184615 
L 181.197222 198.184615 
z
" style="fill:#e2e2ef;"/>
   </g>
   <g id="patch_84">
    <path clip-path="url(#p95663595c4)" d="M 182.96 249.6 
L 184.722778 249.6 
L 184.722778 199.47 
L 182.96 199.47 
z
" style="fill:#e2e2ef;"/>
   </g>
   <g id="patch_85">
    <path clip-path="url(#p95663595c4)" d="M 184.722778 249.6 
L 186.485556 249.6 
L 186.485556 199.47 
L 184.722778 199.47 
z
" style="fill:#e2e2ef;"/>
   </g>
   <g id="patch_86">
    <path clip-path="url(#p95663595c4)" d="M 186.485556 249.6 
L 188.248333 249.6 
L 188.248333 196.899231 
L 186.485556 196.899231 
z
" style="fill:#e2e2ef;"/>
   </g>
   <g id="patch_87">
    <path clip-path="url(#p95663595c4)" d="M 188.248333 249.6 
L 190.011111 249.6 
L 190.011111 195.185385 
L 188.248333 195.185385 
z
" style="fill:#e2e2ef;"/>
   </g>
   <g id="patch_88">
    <path clip-path="url(#p95663595c4)" d="M 190.011111 249.6 
L 191.773889 249.6 
L 191.773889 202.469231 
L 190.011111 202.469231 
z
" style="fill:#e2e2ef;"/>
   </g>
   <g id="patch_89">
    <path clip-path="url(#p95663595c4)" d="M 191.773889 249.6 
L 193.536667 249.6 
L 193.536667 204.611538 
L 191.773889 204.611538 
z
" style="fill:#e2e2ef;"/>
   </g>
   <g id="patch_90">
    <path clip-path="url(#p95663595c4)" d="M 193.536667 249.6 
L 195.299444 249.6 
L 195.299444 202.469231 
L 193.536667 202.469231 
z
" style="fill:#e2e2ef;"/>
   </g>
   <g id="patch_91">
    <path clip-path="url(#p95663595c4)" d="M 195.299444 249.6 
L 197.062222 249.6 
L 197.062222 208.896154 
L 195.299444 208.896154 
z
" style="fill:#e2e2ef;"/>
   </g>
   <g id="patch_92">
    <path clip-path="url(#p95663595c4)" d="M 197.062222 249.6 
L 198.825 249.6 
L 198.825 198.184615 
L 197.062222 198.184615 
z
" style="fill:#e2e2ef;"/>
   </g>
   <g id="matplotlib.axis_1">
    <g id="xtick_1">
     <g id="line2d_1">
      <defs>
       <path d="M 0 0 
L 0 3.5 
" id="mb7780f5c04" style="stroke:#000000;stroke-width:0.8;"/>
      </defs>
      <g>
       <use style="stroke:#000000;stroke-width:0.8;" x="40.175" xlink:href="#mb7780f5c04" y="249.6"/>
      </g>
     </g>
     <g id="text_1">
      <!-- −90 -->
      <g transform="translate(29.622656 264.198438)scale(0.1 -0.1)">
       <defs>
        <path d="M 10.59375 35.5 
L 73.1875 35.5 
L 73.1875 27.203125 
L 10.59375 27.203125 
z
" id="DejaVuSans-8722"/>
        <path d="M 10.984375 1.515625 
L 10.984375 10.5 
Q 14.703125 8.734375 18.5 7.8125 
Q 22.3125 6.890625 25.984375 6.890625 
Q 35.75 6.890625 40.890625 13.453125 
Q 46.046875 20.015625 46.78125 33.40625 
Q 43.953125 29.203125 39.59375 26.953125 
Q 35.25 24.703125 29.984375 24.703125 
Q 19.046875 24.703125 12.671875 31.3125 
Q 6.296875 37.9375 6.296875 49.421875 
Q 6.296875 60.640625 12.9375 67.421875 
Q 19.578125 74.21875 30.609375 74.21875 
Q 43.265625 74.21875 49.921875 64.515625 
Q 56.59375 54.828125 56.59375 36.375 
Q 56.59375 19.140625 48.40625 8.859375 
Q 40.234375 -1.421875 26.421875 -1.421875 
Q 22.703125 -1.421875 18.890625 -0.6875 
Q 15.09375 0.046875 10.984375 1.515625 
z
M 30.609375 32.421875 
Q 37.25 32.421875 41.125 36.953125 
Q 45.015625 41.5 45.015625 49.421875 
Q 45.015625 57.28125 41.125 61.84375 
Q 37.25 66.40625 30.609375 66.40625 
Q 23.96875 66.40625 20.09375 61.84375 
Q 16.21875 57.28125 16.21875 49.421875 
Q 16.21875 41.5 20.09375 36.953125 
Q 23.96875 32.421875 30.609375 32.421875 
z
" id="DejaVuSans-57"/>
        <path d="M 31.78125 66.40625 
Q 24.171875 66.40625 20.328125 58.90625 
Q 16.5 51.421875 16.5 36.375 
Q 16.5 21.390625 20.328125 13.890625 
Q 24.171875 6.390625 31.78125 6.390625 
Q 39.453125 6.390625 43.28125 13.890625 
Q 47.125 21.390625 47.125 36.375 
Q 47.125 51.421875 43.28125 58.90625 
Q 39.453125 66.40625 31.78125 66.40625 
z
M 31.78125 74.21875 
Q 44.046875 74.21875 50.515625 64.515625 
Q 56.984375 54.828125 56.984375 36.375 
Q 56.984375 17.96875 50.515625 8.265625 
Q 44.046875 -1.421875 31.78125 -1.421875 
Q 19.53125 -1.421875 13.0625 8.265625 
Q 6.59375 17.96875 6.59375 36.375 
Q 6.59375 54.828125 13.0625 64.515625 
Q 19.53125 74.21875 31.78125 74.21875 
z
" id="DejaVuSans-48"/>
       </defs>
       <use xlink:href="#DejaVuSans-8722"/>
       <use x="83.789062" xlink:href="#DejaVuSans-57"/>
       <use x="147.412109" xlink:href="#DejaVuSans-48"/>
      </g>
     </g>
    </g>
    <g id="xtick_2">
     <g id="line2d_2">
      <g>
       <use style="stroke:#000000;stroke-width:0.8;" x="79.8375" xlink:href="#mb7780f5c04" y="249.6"/>
      </g>
     </g>
     <g id="text_2">
      <!-- −45 -->
      <g transform="translate(69.285156 264.198438)scale(0.1 -0.1)">
       <defs>
        <path d="M 37.796875 64.3125 
L 12.890625 25.390625 
L 37.796875 25.390625 
z
M 35.203125 72.90625 
L 47.609375 72.90625 
L 47.609375 25.390625 
L 58.015625 25.390625 
L 58.015625 17.1875 
L 47.609375 17.1875 
L 47.609375 0 
L 37.796875 0 
L 37.796875 17.1875 
L 4.890625 17.1875 
L 4.890625 26.703125 
z
" id="DejaVuSans-52"/>
        <path d="M 10.796875 72.90625 
L 49.515625 72.90625 
L 49.515625 64.59375 
L 19.828125 64.59375 
L 19.828125 46.734375 
Q 21.96875 47.46875 24.109375 47.828125 
Q 26.265625 48.1875 28.421875 48.1875 
Q 40.625 48.1875 47.75 41.5 
Q 54.890625 34.8125 54.890625 23.390625 
Q 54.890625 11.625 47.5625 5.09375 
Q 40.234375 -1.421875 26.90625 -1.421875 
Q 22.3125 -1.421875 17.546875 -0.640625 
Q 12.796875 0.140625 7.71875 1.703125 
L 7.71875 11.625 
Q 12.109375 9.234375 16.796875 8.0625 
Q 21.484375 6.890625 26.703125 6.890625 
Q 35.15625 6.890625 40.078125 11.328125 
Q 45.015625 15.765625 45.015625 23.390625 
Q 45.015625 31 40.078125 35.4375 
Q 35.15625 39.890625 26.703125 39.890625 
Q 22.75 39.890625 18.8125 39.015625 
Q 14.890625 38.140625 10.796875 36.28125 
z
" id="DejaVuSans-53"/>
       </defs>
       <use xlink:href="#DejaVuSans-8722"/>
       <use x="83.789062" xlink:href="#DejaVuSans-52"/>
       <use x="147.412109" xlink:href="#DejaVuSans-53"/>
      </g>
     </g>
    </g>
    <g id="xtick_3">
     <g id="line2d_3">
      <g>
       <use style="stroke:#000000;stroke-width:0.8;" x="119.5" xlink:href="#mb7780f5c04" y="249.6"/>
      </g>
     </g>
     <g id="text_3">
      <!-- 0 -->
      <g transform="translate(116.31875 264.198438)scale(0.1 -0.1)">
       <use xlink:href="#DejaVuSans-48"/>
      </g>
     </g>
    </g>
    <g id="xtick_4">
     <g id="line2d_4">
      <g>
       <use style="stroke:#000000;stroke-width:0.8;" x="159.1625" xlink:href="#mb7780f5c04" y="249.6"/>
      </g>
     </g>
     <g id="text_4">
      <!-- 45 -->
      <g transform="translate(152.8 264.198438)scale(0.1 -0.1)">
       <use xlink:href="#DejaVuSans-52"/>
       <use x="63.623047" xlink:href="#DejaVuSans-53"/>
      </g>
     </g>
    </g>
    <g id="xtick_5">
     <g id="line2d_5">
      <g>
       <use style="stroke:#000000;stroke-width:0.8;" x="198.825" xlink:href="#mb7780f5c04" y="249.6"/>
      </g>
     </g>
     <g id="text_5">
      <!-- 90 -->
      <g transform="translate(192.4625 264.198438)scale(0.1 -0.1)">
       <use xlink:href="#DejaVuSans-57"/>
       <use x="63.623047" xlink:href="#DejaVuSans-48"/>
      </g>
     </g>
    </g>
    <g id="text_6">
     <!-- $\Delta \theta$ -->
     <g transform="translate(113 277.876563)scale(0.1 -0.1)">
      <defs>
       <path d="M 34.1875 63.1875 
L 14.15625 8.203125 
L 54.25 8.203125 
z
M 0.78125 0 
L 28.609375 72.90625 
L 39.796875 72.90625 
L 67.578125 0 
z
" id="DejaVuSans-916"/>
       <path d="M 45.515625 34.671875 
L 14.453125 34.671875 
Q 12.359375 20.0625 14.5 13.875 
Q 17.1875 6.25 24.46875 6.25 
Q 31.78125 6.25 37.359375 13.921875 
Q 42.234375 20.65625 45.515625 34.671875 
z
M 47.015625 42.96875 
Q 48.34375 56.84375 46.625 61.71875 
Q 43.953125 69.4375 36.765625 69.4375 
Q 29.296875 69.4375 23.828125 61.8125 
Q 19.53125 55.671875 16.15625 42.96875 
z
M 38.1875 76.765625 
Q 49.90625 76.765625 54.59375 66.40625 
Q 59.28125 56.109375 55.71875 37.84375 
Q 52.203125 19.625 43.453125 9.28125 
Q 34.765625 -1.125 23.046875 -1.125 
Q 11.28125 -1.125 6.640625 9.28125 
Q 2 19.625 5.515625 37.84375 
Q 9.078125 56.109375 17.71875 66.40625 
Q 26.421875 76.765625 38.1875 76.765625 
z
" id="DejaVuSans-Oblique-952"/>
      </defs>
      <use transform="translate(0 0.234375)" xlink:href="#DejaVuSans-916"/>
      <use transform="translate(68.408203 0.234375)" xlink:href="#DejaVuSans-Oblique-952"/>
     </g>
    </g>
   </g>
   <g id="matplotlib.axis_2">
    <g id="ytick_1">
     <g id="line2d_6">
      <defs>
       <path d="M 0 0 
L -3.5 0 
" id="m751d700432" style="stroke:#000000;stroke-width:0.8;"/>
      </defs>
      <g>
       <use style="stroke:#000000;stroke-width:0.8;" x="40.175" xlink:href="#m751d700432" y="249.6"/>
      </g>
     </g>
     <g id="text_7">
      <!-- 0.00 -->
      <g transform="translate(10.909375 253.399219)scale(0.1 -0.1)">
       <defs>
        <path d="M 10.6875 12.40625 
L 21 12.40625 
L 21 0 
L 10.6875 0 
z
" id="DejaVuSans-46"/>
       </defs>
       <use xlink:href="#DejaVuSans-48"/>
       <use x="63.623047" xlink:href="#DejaVuSans-46"/>
       <use x="95.410156" xlink:href="#DejaVuSans-48"/>
       <use x="159.033203" xlink:href="#DejaVuSans-48"/>
      </g>
     </g>
    </g>
    <g id="ytick_2">
     <g id="line2d_7">
      <g>
       <use style="stroke:#000000;stroke-width:0.8;" x="40.175" xlink:href="#m751d700432" y="78.215385"/>
      </g>
     </g>
     <g id="text_8">
      <!-- 0.01 -->
      <g transform="translate(10.909375 82.014603)scale(0.1 -0.1)">
       <defs>
        <path d="M 12.40625 8.296875 
L 28.515625 8.296875 
L 28.515625 63.921875 
L 10.984375 60.40625 
L 10.984375 69.390625 
L 28.421875 72.90625 
L 38.28125 72.90625 
L 38.28125 8.296875 
L 54.390625 8.296875 
L 54.390625 0 
L 12.40625 0 
z
" id="DejaVuSans-49"/>
       </defs>
       <use xlink:href="#DejaVuSans-48"/>
       <use x="63.623047" xlink:href="#DejaVuSans-46"/>
       <use x="95.410156" xlink:href="#DejaVuSans-48"/>
       <use x="159.033203" xlink:href="#DejaVuSans-49"/>
      </g>
     </g>
    </g>
   </g>
   <g id="line2d_8">
    <path clip-path="url(#p95663595c4)" d="M 40.175 201.669601 
L 42.87475 201.558691 
L 45.574499 201.223428 
L 48.274249 200.656199 
L 50.81519 199.899111 
L 53.356131 198.910553 
L 55.897072 197.671741 
L 58.279204 196.26291 
L 60.661336 194.592444 
L 63.043468 192.635957 
L 65.266792 190.5284 
L 67.490115 188.125617 
L 69.713438 185.404136 
L 71.936762 182.340763 
L 74.160085 178.913678 
L 76.542217 174.816581 
L 78.924349 170.262239 
L 81.46529 164.889824 
L 84.006231 158.989405 
L 86.705981 152.16651 
L 89.723348 143.933997 
L 93.375951 133.295 
L 104.17495 101.342354 
L 106.715891 94.809419 
L 108.780405 90.092812 
L 110.527302 86.604072 
L 112.11539 83.886388 
L 113.54467 81.844616 
L 114.81514 80.372309 
L 116.085611 79.237619 
L 117.197272 78.530671 
L 118.308934 78.096331 
L 119.261787 77.943612 
L 120.21464 77.994543 
L 121.167492 78.248833 
L 122.279154 78.800538 
L 123.390816 79.622774 
L 124.502477 80.709247 
L 125.772948 82.263816 
L 127.202227 84.393215 
L 128.790315 87.20104 
L 130.537212 90.778884 
L 132.442918 95.196005 
L 134.666241 100.914171 
L 137.5248 108.937453 
L 141.653829 121.282488 
L 148.323799 141.219474 
L 151.658784 150.483402 
L 154.676151 158.21558 
L 157.375901 164.536394 
L 159.916842 169.942069 
L 162.457783 174.816581 
L 164.839915 178.913678 
L 167.222047 182.571391 
L 169.604179 185.81332 
L 171.986311 188.666526 
L 174.368443 191.159665 
L 176.750576 193.321502 
L 179.132708 195.179791 
L 181.51484 196.760459 
L 183.896972 198.087049 
L 186.437913 199.245398 
L 188.978854 200.159792 
L 191.519795 200.847764 
L 194.219545 201.345676 
L 196.919294 201.61439 
L 198.825 201.669601 
L 198.825 201.669601 
" style="fill:none;stroke:#ff0000;stroke-linecap:square;stroke-width:1.5;"/>
   </g>
   <g id="patch_93">
    <path d="M 40.175 249.6 
L 40.175 26.8 
" style="fill:none;stroke:#000000;stroke-linecap:square;stroke-linejoin:miter;stroke-width:0.8;"/>
   </g>
   <g id="patch_94">
    <path d="M 198.825 249.6 
L 198.825 26.8 
" style="fill:none;stroke:#000000;stroke-linecap:square;stroke-linejoin:miter;stroke-width:0.8;"/>
   </g>
   <g id="patch_95">
    <path d="M 40.175 249.6 
L 198.825 249.6 
" style="fill:none;stroke:#000000;stroke-linecap:square;stroke-linejoin:miter;stroke-width:0.8;"/>
   </g>
   <g id="patch_96">
    <path d="M 40.175 26.8 
L 198.825 26.8 
" style="fill:none;stroke:#000000;stroke-linecap:square;stroke-linejoin:miter;stroke-width:0.8;"/>
   </g>
   <g id="text_9">
    <!-- (+) Autocorrelation -->
    <g transform="translate(61.76125 20.8)scale(0.12 -0.12)">
     <defs>
      <path d="M 31 75.875 
Q 24.46875 64.65625 21.28125 53.65625 
Q 18.109375 42.671875 18.109375 31.390625 
Q 18.109375 20.125 21.3125 9.0625 
Q 24.515625 -2 31 -13.1875 
L 23.1875 -13.1875 
Q 15.875 -1.703125 12.234375 9.375 
Q 8.59375 20.453125 8.59375 31.390625 
Q 8.59375 42.28125 12.203125 53.3125 
Q 15.828125 64.359375 23.1875 75.875 
z
" id="DejaVuSans-40"/>
      <path d="M 46 62.703125 
L 46 35.5 
L 73.1875 35.5 
L 73.1875 27.203125 
L 46 27.203125 
L 46 0 
L 37.796875 0 
L 37.796875 27.203125 
L 10.59375 27.203125 
L 10.59375 35.5 
L 37.796875 35.5 
L 37.796875 62.703125 
z
" id="DejaVuSans-43"/>
      <path d="M 8.015625 75.875 
L 15.828125 75.875 
Q 23.140625 64.359375 26.78125 53.3125 
Q 30.421875 42.28125 30.421875 31.390625 
Q 30.421875 20.453125 26.78125 9.375 
Q 23.140625 -1.703125 15.828125 -13.1875 
L 8.015625 -13.1875 
Q 14.5 -2 17.703125 9.0625 
Q 20.90625 20.125 20.90625 31.390625 
Q 20.90625 42.671875 17.703125 53.65625 
Q 14.5 64.65625 8.015625 75.875 
z
" id="DejaVuSans-41"/>
      <path id="DejaVuSans-32"/>
      <path d="M 34.1875 63.1875 
L 20.796875 26.90625 
L 47.609375 26.90625 
z
M 28.609375 72.90625 
L 39.796875 72.90625 
L 67.578125 0 
L 57.328125 0 
L 50.6875 18.703125 
L 17.828125 18.703125 
L 11.1875 0 
L 0.78125 0 
z
" id="DejaVuSans-65"/>
      <path d="M 8.5 21.578125 
L 8.5 54.6875 
L 17.484375 54.6875 
L 17.484375 21.921875 
Q 17.484375 14.15625 20.5 10.265625 
Q 23.53125 6.390625 29.59375 6.390625 
Q 36.859375 6.390625 41.078125 11.03125 
Q 45.3125 15.671875 45.3125 23.6875 
L 45.3125 54.6875 
L 54.296875 54.6875 
L 54.296875 0 
L 45.3125 0 
L 45.3125 8.40625 
Q 42.046875 3.421875 37.71875 1 
Q 33.40625 -1.421875 27.6875 -1.421875 
Q 18.265625 -1.421875 13.375 4.4375 
Q 8.5 10.296875 8.5 21.578125 
z
M 31.109375 56 
z
" id="DejaVuSans-117"/>
      <path d="M 18.3125 70.21875 
L 18.3125 54.6875 
L 36.8125 54.6875 
L 36.8125 47.703125 
L 18.3125 47.703125 
L 18.3125 18.015625 
Q 18.3125 11.328125 20.140625 9.421875 
Q 21.96875 7.515625 27.59375 7.515625 
L 36.8125 7.515625 
L 36.8125 0 
L 27.59375 0 
Q 17.1875 0 13.234375 3.875 
Q 9.28125 7.765625 9.28125 18.015625 
L 9.28125 47.703125 
L 2.6875 47.703125 
L 2.6875 54.6875 
L 9.28125 54.6875 
L 9.28125 70.21875 
z
" id="DejaVuSans-116"/>
      <path d="M 30.609375 48.390625 
Q 23.390625 48.390625 19.1875 42.75 
Q 14.984375 37.109375 14.984375 27.296875 
Q 14.984375 17.484375 19.15625 11.84375 
Q 23.34375 6.203125 30.609375 6.203125 
Q 37.796875 6.203125 41.984375 11.859375 
Q 46.1875 17.53125 46.1875 27.296875 
Q 46.1875 37.015625 41.984375 42.703125 
Q 37.796875 48.390625 30.609375 48.390625 
z
M 30.609375 56 
Q 42.328125 56 49.015625 48.375 
Q 55.71875 40.765625 55.71875 27.296875 
Q 55.71875 13.875 49.015625 6.21875 
Q 42.328125 -1.421875 30.609375 -1.421875 
Q 18.84375 -1.421875 12.171875 6.21875 
Q 5.515625 13.875 5.515625 27.296875 
Q 5.515625 40.765625 12.171875 48.375 
Q 18.84375 56 30.609375 56 
z
" id="DejaVuSans-111"/>
      <path d="M 48.78125 52.59375 
L 48.78125 44.1875 
Q 44.96875 46.296875 41.140625 47.34375 
Q 37.3125 48.390625 33.40625 48.390625 
Q 24.65625 48.390625 19.8125 42.84375 
Q 14.984375 37.3125 14.984375 27.296875 
Q 14.984375 17.28125 19.8125 11.734375 
Q 24.65625 6.203125 33.40625 6.203125 
Q 37.3125 6.203125 41.140625 7.25 
Q 44.96875 8.296875 48.78125 10.40625 
L 48.78125 2.09375 
Q 45.015625 0.34375 40.984375 -0.53125 
Q 36.96875 -1.421875 32.421875 -1.421875 
Q 20.0625 -1.421875 12.78125 6.34375 
Q 5.515625 14.109375 5.515625 27.296875 
Q 5.515625 40.671875 12.859375 48.328125 
Q 20.21875 56 33.015625 56 
Q 37.15625 56 41.109375 55.140625 
Q 45.0625 54.296875 48.78125 52.59375 
z
" id="DejaVuSans-99"/>
      <path d="M 41.109375 46.296875 
Q 39.59375 47.171875 37.8125 47.578125 
Q 36.03125 48 33.890625 48 
Q 26.265625 48 22.1875 43.046875 
Q 18.109375 38.09375 18.109375 28.8125 
L 18.109375 0 
L 9.078125 0 
L 9.078125 54.6875 
L 18.109375 54.6875 
L 18.109375 46.1875 
Q 20.953125 51.171875 25.484375 53.578125 
Q 30.03125 56 36.53125 56 
Q 37.453125 56 38.578125 55.875 
Q 39.703125 55.765625 41.0625 55.515625 
z
" id="DejaVuSans-114"/>
      <path d="M 56.203125 29.59375 
L 56.203125 25.203125 
L 14.890625 25.203125 
Q 15.484375 15.921875 20.484375 11.0625 
Q 25.484375 6.203125 34.421875 6.203125 
Q 39.59375 6.203125 44.453125 7.46875 
Q 49.3125 8.734375 54.109375 11.28125 
L 54.109375 2.78125 
Q 49.265625 0.734375 44.1875 -0.34375 
Q 39.109375 -1.421875 33.890625 -1.421875 
Q 20.796875 -1.421875 13.15625 6.1875 
Q 5.515625 13.8125 5.515625 26.8125 
Q 5.515625 40.234375 12.765625 48.109375 
Q 20.015625 56 32.328125 56 
Q 43.359375 56 49.78125 48.890625 
Q 56.203125 41.796875 56.203125 29.59375 
z
M 47.21875 32.234375 
Q 47.125 39.59375 43.09375 43.984375 
Q 39.0625 48.390625 32.421875 48.390625 
Q 24.90625 48.390625 20.390625 44.140625 
Q 15.875 39.890625 15.1875 32.171875 
z
" id="DejaVuSans-101"/>
      <path d="M 9.421875 75.984375 
L 18.40625 75.984375 
L 18.40625 0 
L 9.421875 0 
z
" id="DejaVuSans-108"/>
      <path d="M 34.28125 27.484375 
Q 23.390625 27.484375 19.1875 25 
Q 14.984375 22.515625 14.984375 16.5 
Q 14.984375 11.71875 18.140625 8.90625 
Q 21.296875 6.109375 26.703125 6.109375 
Q 34.1875 6.109375 38.703125 11.40625 
Q 43.21875 16.703125 43.21875 25.484375 
L 43.21875 27.484375 
z
M 52.203125 31.203125 
L 52.203125 0 
L 43.21875 0 
L 43.21875 8.296875 
Q 40.140625 3.328125 35.546875 0.953125 
Q 30.953125 -1.421875 24.3125 -1.421875 
Q 15.921875 -1.421875 10.953125 3.296875 
Q 6 8.015625 6 15.921875 
Q 6 25.140625 12.171875 29.828125 
Q 18.359375 34.515625 30.609375 34.515625 
L 43.21875 34.515625 
L 43.21875 35.40625 
Q 43.21875 41.609375 39.140625 45 
Q 35.0625 48.390625 27.6875 48.390625 
Q 23 48.390625 18.546875 47.265625 
Q 14.109375 46.140625 10.015625 43.890625 
L 10.015625 52.203125 
Q 14.9375 54.109375 19.578125 55.046875 
Q 24.21875 56 28.609375 56 
Q 40.484375 56 46.34375 49.84375 
Q 52.203125 43.703125 52.203125 31.203125 
z
" id="DejaVuSans-97"/>
      <path d="M 9.421875 54.6875 
L 18.40625 54.6875 
L 18.40625 0 
L 9.421875 0 
z
M 9.421875 75.984375 
L 18.40625 75.984375 
L 18.40625 64.59375 
L 9.421875 64.59375 
z
" id="DejaVuSans-105"/>
      <path d="M 54.890625 33.015625 
L 54.890625 0 
L 45.90625 0 
L 45.90625 32.71875 
Q 45.90625 40.484375 42.875 44.328125 
Q 39.84375 48.1875 33.796875 48.1875 
Q 26.515625 48.1875 22.3125 43.546875 
Q 18.109375 38.921875 18.109375 30.90625 
L 18.109375 0 
L 9.078125 0 
L 9.078125 54.6875 
L 18.109375 54.6875 
L 18.109375 46.1875 
Q 21.34375 51.125 25.703125 53.5625 
Q 30.078125 56 35.796875 56 
Q 45.21875 56 50.046875 50.171875 
Q 54.890625 44.34375 54.890625 33.015625 
z
" id="DejaVuSans-110"/>
     </defs>
     <use xlink:href="#DejaVuSans-40"/>
     <use x="39.013672" xlink:href="#DejaVuSans-43"/>
     <use x="122.802734" xlink:href="#DejaVuSans-41"/>
     <use x="161.816406" xlink:href="#DejaVuSans-32"/>
     <use x="193.603516" xlink:href="#DejaVuSans-65"/>
     <use x="262.011719" xlink:href="#DejaVuSans-117"/>
     <use x="325.390625" xlink:href="#DejaVuSans-116"/>
     <use x="364.599609" xlink:href="#DejaVuSans-111"/>
     <use x="425.78125" xlink:href="#DejaVuSans-99"/>
     <use x="480.761719" xlink:href="#DejaVuSans-111"/>
     <use x="541.943359" xlink:href="#DejaVuSans-114"/>
     <use x="581.306641" xlink:href="#DejaVuSans-114"/>
     <use x="620.169922" xlink:href="#DejaVuSans-101"/>
     <use x="681.693359" xlink:href="#DejaVuSans-108"/>
     <use x="709.476562" xlink:href="#DejaVuSans-97"/>
     <use x="770.755859" xlink:href="#DejaVuSans-116"/>
     <use x="809.964844" xlink:href="#DejaVuSans-105"/>
     <use x="837.748047" xlink:href="#DejaVuSans-111"/>
     <use x="898.929688" xlink:href="#DejaVuSans-110"/>
    </g>
   </g>
  </g>
  <g id="axes_2">
   <g id="patch_97">
    <path d="M 40.175 532.2 
L 198.825 532.2 
L 198.825 309.4 
L 40.175 309.4 
z
" style="fill:#ffffff;"/>
   </g>
   <g id="patch_98">
    <path clip-path="url(#p222139c951)" d="M 40.175 532.2 
L 41.937778 532.2 
L 41.937778 338.106923 
L 40.175 338.106923 
z
" style="fill:#e2e2ef;"/>
   </g>
   <g id="patch_99">
    <path clip-path="url(#p222139c951)" d="M 41.937778 532.2 
L 43.700556 532.2 
L 43.700556 356.959231 
L 41.937778 356.959231 
z
" style="fill:#e2e2ef;"/>
   </g>
   <g id="patch_100">
    <path clip-path="url(#p222139c951)" d="M 43.700556 532.2 
L 45.463333 532.2 
L 45.463333 364.243077 
L 43.700556 364.243077 
z
" style="fill:#e2e2ef;"/>
   </g>
   <g id="patch_101">
    <path clip-path="url(#p222139c951)" d="M 45.463333 532.2 
L 47.226111 532.2 
L 47.226111 363.814615 
L 45.463333 363.814615 
z
" style="fill:#e2e2ef;"/>
   </g>
   <g id="patch_102">
    <path clip-path="url(#p222139c951)" d="M 47.226111 532.2 
L 48.988889 532.2 
L 48.988889 355.673846 
L 47.226111 355.673846 
z
" style="fill:#e2e2ef;"/>
   </g>
   <g id="patch_103">
    <path clip-path="url(#p222139c951)" d="M 48.988889 532.2 
L 50.751667 532.2 
L 50.751667 374.097692 
L 48.988889 374.097692 
z
" style="fill:#e2e2ef;"/>
   </g>
   <g id="patch_104">
    <path clip-path="url(#p222139c951)" d="M 50.751667 532.2 
L 52.514444 532.2 
L 52.514444 374.954615 
L 50.751667 374.954615 
z
" style="fill:#e2e2ef;"/>
   </g>
   <g id="patch_105">
    <path clip-path="url(#p222139c951)" d="M 52.514444 532.2 
L 54.277222 532.2 
L 54.277222 380.524615 
L 52.514444 380.524615 
z
" style="fill:#e2e2ef;"/>
   </g>
   <g id="patch_106">
    <path clip-path="url(#p222139c951)" d="M 54.277222 532.2 
L 56.04 532.2 
L 56.04 388.665385 
L 54.277222 388.665385 
z
" style="fill:#e2e2ef;"/>
   </g>
   <g id="patch_107">
    <path clip-path="url(#p222139c951)" d="M 56.04 532.2 
L 57.802778 532.2 
L 57.802778 394.235385 
L 56.04 394.235385 
z
" style="fill:#e2e2ef;"/>
   </g>
   <g id="patch_108">
    <path clip-path="url(#p222139c951)" d="M 57.802778 532.2 
L 59.565556 532.2 
L 59.565556 383.523846 
L 57.802778 383.523846 
z
" style="fill:#e2e2ef;"/>
   </g>
   <g id="patch_109">
    <path clip-path="url(#p222139c951)" d="M 59.565556 532.2 
L 61.328333 532.2 
L 61.328333 402.376154 
L 59.565556 402.376154 
z
" style="fill:#e2e2ef;"/>
   </g>
   <g id="patch_110">
    <path clip-path="url(#p222139c951)" d="M 61.328333 532.2 
L 63.091111 532.2 
L 63.091111 400.662308 
L 61.328333 400.662308 
z
" style="fill:#e2e2ef;"/>
   </g>
   <g id="patch_111">
    <path clip-path="url(#p222139c951)" d="M 63.091111 532.2 
L 64.853889 532.2 
L 64.853889 410.945385 
L 63.091111 410.945385 
z
" style="fill:#e2e2ef;"/>
   </g>
   <g id="patch_112">
    <path clip-path="url(#p222139c951)" d="M 64.853889 532.2 
L 66.616667 532.2 
L 66.616667 430.654615 
L 64.853889 430.654615 
z
" style="fill:#e2e2ef;"/>
   </g>
   <g id="patch_113">
    <path clip-path="url(#p222139c951)" d="M 66.616667 532.2 
L 68.379444 532.2 
L 68.379444 415.23 
L 66.616667 415.23 
z
" style="fill:#e2e2ef;"/>
   </g>
   <g id="patch_114">
    <path clip-path="url(#p222139c951)" d="M 68.379444 532.2 
L 70.142222 532.2 
L 70.142222 426.798462 
L 68.379444 426.798462 
z
" style="fill:#e2e2ef;"/>
   </g>
   <g id="patch_115">
    <path clip-path="url(#p222139c951)" d="M 70.142222 532.2 
L 71.905 532.2 
L 71.905 423.370769 
L 70.142222 423.370769 
z
" style="fill:#e2e2ef;"/>
   </g>
   <g id="patch_116">
    <path clip-path="url(#p222139c951)" d="M 71.905 532.2 
L 73.667778 532.2 
L 73.667778 429.369231 
L 71.905 429.369231 
z
" style="fill:#e2e2ef;"/>
   </g>
   <g id="patch_117">
    <path clip-path="url(#p222139c951)" d="M 73.667778 532.2 
L 75.430556 532.2 
L 75.430556 442.223077 
L 73.667778 442.223077 
z
" style="fill:#e2e2ef;"/>
   </g>
   <g id="patch_118">
    <path clip-path="url(#p222139c951)" d="M 75.430556 532.2 
L 77.193333 532.2 
L 77.193333 438.795385 
L 75.430556 438.795385 
z
" style="fill:#e2e2ef;"/>
   </g>
   <g id="patch_119">
    <path clip-path="url(#p222139c951)" d="M 77.193333 532.2 
L 78.956111 532.2 
L 78.956111 450.363846 
L 77.193333 450.363846 
z
" style="fill:#e2e2ef;"/>
   </g>
   <g id="patch_120">
    <path clip-path="url(#p222139c951)" d="M 78.956111 532.2 
L 80.718889 532.2 
L 80.718889 455.076923 
L 78.956111 455.076923 
z
" style="fill:#e2e2ef;"/>
   </g>
   <g id="patch_121">
    <path clip-path="url(#p222139c951)" d="M 80.718889 532.2 
L 82.481667 532.2 
L 82.481667 455.076923 
L 80.718889 455.076923 
z
" style="fill:#e2e2ef;"/>
   </g>
   <g id="patch_122">
    <path clip-path="url(#p222139c951)" d="M 82.481667 532.2 
L 84.244444 532.2 
L 84.244444 459.361538 
L 82.481667 459.361538 
z
" style="fill:#e2e2ef;"/>
   </g>
   <g id="patch_123">
    <path clip-path="url(#p222139c951)" d="M 84.244444 532.2 
L 86.007222 532.2 
L 86.007222 450.792308 
L 84.244444 450.792308 
z
" style="fill:#e2e2ef;"/>
   </g>
   <g id="patch_124">
    <path clip-path="url(#p222139c951)" d="M 86.007222 532.2 
L 87.77 532.2 
L 87.77 468.359231 
L 86.007222 468.359231 
z
" style="fill:#e2e2ef;"/>
   </g>
   <g id="patch_125">
    <path clip-path="url(#p222139c951)" d="M 87.77 532.2 
L 89.532778 532.2 
L 89.532778 470.501538 
L 87.77 470.501538 
z
" style="fill:#e2e2ef;"/>
   </g>
   <g id="patch_126">
    <path clip-path="url(#p222139c951)" d="M 89.532778 532.2 
L 91.295556 532.2 
L 91.295556 476.928462 
L 89.532778 476.928462 
z
" style="fill:#e2e2ef;"/>
   </g>
   <g id="patch_127">
    <path clip-path="url(#p222139c951)" d="M 91.295556 532.2 
L 93.058333 532.2 
L 93.058333 464.931538 
L 91.295556 464.931538 
z
" style="fill:#e2e2ef;"/>
   </g>
   <g id="patch_128">
    <path clip-path="url(#p222139c951)" d="M 93.058333 532.2 
L 94.821111 532.2 
L 94.821111 470.501538 
L 93.058333 470.501538 
z
" style="fill:#e2e2ef;"/>
   </g>
   <g id="patch_129">
    <path clip-path="url(#p222139c951)" d="M 94.821111 532.2 
L 96.583889 532.2 
L 96.583889 479.927692 
L 94.821111 479.927692 
z
" style="fill:#e2e2ef;"/>
   </g>
   <g id="patch_130">
    <path clip-path="url(#p222139c951)" d="M 96.583889 532.2 
L 98.346667 532.2 
L 98.346667 478.213846 
L 96.583889 478.213846 
z
" style="fill:#e2e2ef;"/>
   </g>
   <g id="patch_131">
    <path clip-path="url(#p222139c951)" d="M 98.346667 532.2 
L 100.109444 532.2 
L 100.109444 476.928462 
L 98.346667 476.928462 
z
" style="fill:#e2e2ef;"/>
   </g>
   <g id="patch_132">
    <path clip-path="url(#p222139c951)" d="M 100.109444 532.2 
L 101.872222 532.2 
L 101.872222 479.927692 
L 100.109444 479.927692 
z
" style="fill:#e2e2ef;"/>
   </g>
   <g id="patch_133">
    <path clip-path="url(#p222139c951)" d="M 101.872222 532.2 
L 103.635 532.2 
L 103.635 474.357692 
L 101.872222 474.357692 
z
" style="fill:#e2e2ef;"/>
   </g>
   <g id="patch_134">
    <path clip-path="url(#p222139c951)" d="M 103.635 532.2 
L 105.397778 532.2 
L 105.397778 477.356923 
L 103.635 477.356923 
z
" style="fill:#e2e2ef;"/>
   </g>
   <g id="patch_135">
    <path clip-path="url(#p222139c951)" d="M 105.397778 532.2 
L 107.160556 532.2 
L 107.160556 481.213077 
L 105.397778 481.213077 
z
" style="fill:#e2e2ef;"/>
   </g>
   <g id="patch_136">
    <path clip-path="url(#p222139c951)" d="M 107.160556 532.2 
L 108.923333 532.2 
L 108.923333 488.496923 
L 107.160556 488.496923 
z
" style="fill:#e2e2ef;"/>
   </g>
   <g id="patch_137">
    <path clip-path="url(#p222139c951)" d="M 108.923333 532.2 
L 110.686111 532.2 
L 110.686111 472.215385 
L 108.923333 472.215385 
z
" style="fill:#e2e2ef;"/>
   </g>
   <g id="patch_138">
    <path clip-path="url(#p222139c951)" d="M 110.686111 532.2 
L 112.448889 532.2 
L 112.448889 485.926154 
L 110.686111 485.926154 
z
" style="fill:#e2e2ef;"/>
   </g>
   <g id="patch_139">
    <path clip-path="url(#p222139c951)" d="M 112.448889 532.2 
L 114.211667 532.2 
L 114.211667 486.354615 
L 112.448889 486.354615 
z
" style="fill:#e2e2ef;"/>
   </g>
   <g id="patch_140">
    <path clip-path="url(#p222139c951)" d="M 114.211667 532.2 
L 115.974444 532.2 
L 115.974444 480.784615 
L 114.211667 480.784615 
z
" style="fill:#e2e2ef;"/>
   </g>
   <g id="patch_141">
    <path clip-path="url(#p222139c951)" d="M 115.974444 532.2 
L 117.737222 532.2 
L 117.737222 473.929231 
L 115.974444 473.929231 
z
" style="fill:#e2e2ef;"/>
   </g>
   <g id="patch_142">
    <path clip-path="url(#p222139c951)" d="M 117.737222 532.2 
L 119.5 532.2 
L 119.5 484.212308 
L 117.737222 484.212308 
z
" style="fill:#e2e2ef;"/>
   </g>
   <g id="patch_143">
    <path clip-path="url(#p222139c951)" d="M 119.5 532.2 
L 121.262778 532.2 
L 121.262778 483.355385 
L 119.5 483.355385 
z
" style="fill:#e2e2ef;"/>
   </g>
   <g id="patch_144">
    <path clip-path="url(#p222139c951)" d="M 121.262778 532.2 
L 123.025556 532.2 
L 123.025556 481.641538 
L 121.262778 481.641538 
z
" style="fill:#e2e2ef;"/>
   </g>
   <g id="patch_145">
    <path clip-path="url(#p222139c951)" d="M 123.025556 532.2 
L 124.788333 532.2 
L 124.788333 482.07 
L 123.025556 482.07 
z
" style="fill:#e2e2ef;"/>
   </g>
   <g id="patch_146">
    <path clip-path="url(#p222139c951)" d="M 124.788333 532.2 
L 126.551111 532.2 
L 126.551111 479.499231 
L 124.788333 479.499231 
z
" style="fill:#e2e2ef;"/>
   </g>
   <g id="patch_147">
    <path clip-path="url(#p222139c951)" d="M 126.551111 532.2 
L 128.313889 532.2 
L 128.313889 483.783846 
L 126.551111 483.783846 
z
" style="fill:#e2e2ef;"/>
   </g>
   <g id="patch_148">
    <path clip-path="url(#p222139c951)" d="M 128.313889 532.2 
L 130.076667 532.2 
L 130.076667 488.925385 
L 128.313889 488.925385 
z
" style="fill:#e2e2ef;"/>
   </g>
   <g id="patch_149">
    <path clip-path="url(#p222139c951)" d="M 130.076667 532.2 
L 131.839444 532.2 
L 131.839444 483.355385 
L 130.076667 483.355385 
z
" style="fill:#e2e2ef;"/>
   </g>
   <g id="patch_150">
    <path clip-path="url(#p222139c951)" d="M 131.839444 532.2 
L 133.602222 532.2 
L 133.602222 478.213846 
L 131.839444 478.213846 
z
" style="fill:#e2e2ef;"/>
   </g>
   <g id="patch_151">
    <path clip-path="url(#p222139c951)" d="M 133.602222 532.2 
L 135.365 532.2 
L 135.365 483.783846 
L 133.602222 483.783846 
z
" style="fill:#e2e2ef;"/>
   </g>
   <g id="patch_152">
    <path clip-path="url(#p222139c951)" d="M 135.365 532.2 
L 137.127778 532.2 
L 137.127778 476.928462 
L 135.365 476.928462 
z
" style="fill:#e2e2ef;"/>
   </g>
   <g id="patch_153">
    <path clip-path="url(#p222139c951)" d="M 137.127778 532.2 
L 138.890556 532.2 
L 138.890556 470.93 
L 137.127778 470.93 
z
" style="fill:#e2e2ef;"/>
   </g>
   <g id="patch_154">
    <path clip-path="url(#p222139c951)" d="M 138.890556 532.2 
L 140.653333 532.2 
L 140.653333 477.356923 
L 138.890556 477.356923 
z
" style="fill:#e2e2ef;"/>
   </g>
   <g id="patch_155">
    <path clip-path="url(#p222139c951)" d="M 140.653333 532.2 
L 142.416111 532.2 
L 142.416111 461.503846 
L 140.653333 461.503846 
z
" style="fill:#e2e2ef;"/>
   </g>
   <g id="patch_156">
    <path clip-path="url(#p222139c951)" d="M 142.416111 532.2 
L 144.178889 532.2 
L 144.178889 477.785385 
L 142.416111 477.785385 
z
" style="fill:#e2e2ef;"/>
   </g>
   <g id="patch_157">
    <path clip-path="url(#p222139c951)" d="M 144.178889 532.2 
L 145.941667 532.2 
L 145.941667 472.643846 
L 144.178889 472.643846 
z
" style="fill:#e2e2ef;"/>
   </g>
   <g id="patch_158">
    <path clip-path="url(#p222139c951)" d="M 145.941667 532.2 
L 147.704444 532.2 
L 147.704444 464.503077 
L 145.941667 464.503077 
z
" style="fill:#e2e2ef;"/>
   </g>
   <g id="patch_159">
    <path clip-path="url(#p222139c951)" d="M 147.704444 532.2 
L 149.467222 532.2 
L 149.467222 464.503077 
L 147.704444 464.503077 
z
" style="fill:#e2e2ef;"/>
   </g>
   <g id="patch_160">
    <path clip-path="url(#p222139c951)" d="M 149.467222 532.2 
L 151.23 532.2 
L 151.23 463.217692 
L 149.467222 463.217692 
z
" style="fill:#e2e2ef;"/>
   </g>
   <g id="patch_161">
    <path clip-path="url(#p222139c951)" d="M 151.23 532.2 
L 152.992778 532.2 
L 152.992778 461.932308 
L 151.23 461.932308 
z
" style="fill:#e2e2ef;"/>
   </g>
   <g id="patch_162">
    <path clip-path="url(#p222139c951)" d="M 152.992778 532.2 
L 154.755556 532.2 
L 154.755556 469.644615 
L 152.992778 469.644615 
z
" style="fill:#e2e2ef;"/>
   </g>
   <g id="patch_163">
    <path clip-path="url(#p222139c951)" d="M 154.755556 532.2 
L 156.518333 532.2 
L 156.518333 458.076154 
L 154.755556 458.076154 
z
" style="fill:#e2e2ef;"/>
   </g>
   <g id="patch_164">
    <path clip-path="url(#p222139c951)" d="M 156.518333 532.2 
L 158.281111 532.2 
L 158.281111 464.074615 
L 156.518333 464.074615 
z
" style="fill:#e2e2ef;"/>
   </g>
   <g id="patch_165">
    <path clip-path="url(#p222139c951)" d="M 158.281111 532.2 
L 160.043889 532.2 
L 160.043889 454.22 
L 158.281111 454.22 
z
" style="fill:#e2e2ef;"/>
   </g>
   <g id="patch_166">
    <path clip-path="url(#p222139c951)" d="M 160.043889 532.2 
L 161.806667 532.2 
L 161.806667 444.365385 
L 160.043889 444.365385 
z
" style="fill:#e2e2ef;"/>
   </g>
   <g id="patch_167">
    <path clip-path="url(#p222139c951)" d="M 161.806667 532.2 
L 163.569444 532.2 
L 163.569444 443.08 
L 161.806667 443.08 
z
" style="fill:#e2e2ef;"/>
   </g>
   <g id="patch_168">
    <path clip-path="url(#p222139c951)" d="M 163.569444 532.2 
L 165.332222 532.2 
L 165.332222 440.509231 
L 163.569444 440.509231 
z
" style="fill:#e2e2ef;"/>
   </g>
   <g id="patch_169">
    <path clip-path="url(#p222139c951)" d="M 165.332222 532.2 
L 167.095 532.2 
L 167.095 442.223077 
L 165.332222 442.223077 
z
" style="fill:#e2e2ef;"/>
   </g>
   <g id="patch_170">
    <path clip-path="url(#p222139c951)" d="M 167.095 532.2 
L 168.857778 532.2 
L 168.857778 428.512308 
L 167.095 428.512308 
z
" style="fill:#e2e2ef;"/>
   </g>
   <g id="patch_171">
    <path clip-path="url(#p222139c951)" d="M 168.857778 532.2 
L 170.620556 532.2 
L 170.620556 439.223846 
L 168.857778 439.223846 
z
" style="fill:#e2e2ef;"/>
   </g>
   <g id="patch_172">
    <path clip-path="url(#p222139c951)" d="M 170.620556 532.2 
L 172.383333 532.2 
L 172.383333 426.798462 
L 170.620556 426.798462 
z
" style="fill:#e2e2ef;"/>
   </g>
   <g id="patch_173">
    <path clip-path="url(#p222139c951)" d="M 172.383333 532.2 
L 174.146111 532.2 
L 174.146111 415.23 
L 172.383333 415.23 
z
" style="fill:#e2e2ef;"/>
   </g>
   <g id="patch_174">
    <path clip-path="url(#p222139c951)" d="M 174.146111 532.2 
L 175.908889 532.2 
L 175.908889 428.940769 
L 174.146111 428.940769 
z
" style="fill:#e2e2ef;"/>
   </g>
   <g id="patch_175">
    <path clip-path="url(#p222139c951)" d="M 175.908889 532.2 
L 177.671667 532.2 
L 177.671667 398.948462 
L 175.908889 398.948462 
z
" style="fill:#e2e2ef;"/>
   </g>
   <g id="patch_176">
    <path clip-path="url(#p222139c951)" d="M 177.671667 532.2 
L 179.434444 532.2 
L 179.434444 408.374615 
L 177.671667 408.374615 
z
" style="fill:#e2e2ef;"/>
   </g>
   <g id="patch_177">
    <path clip-path="url(#p222139c951)" d="M 179.434444 532.2 
L 181.197222 532.2 
L 181.197222 394.235385 
L 179.434444 394.235385 
z
" style="fill:#e2e2ef;"/>
   </g>
   <g id="patch_178">
    <path clip-path="url(#p222139c951)" d="M 181.197222 532.2 
L 182.96 532.2 
L 182.96 365.956923 
L 181.197222 365.956923 
z
" style="fill:#e2e2ef;"/>
   </g>
   <g id="patch_179">
    <path clip-path="url(#p222139c951)" d="M 182.96 532.2 
L 184.722778 532.2 
L 184.722778 386.094615 
L 182.96 386.094615 
z
" style="fill:#e2e2ef;"/>
   </g>
   <g id="patch_180">
    <path clip-path="url(#p222139c951)" d="M 184.722778 532.2 
L 186.485556 532.2 
L 186.485556 378.382308 
L 184.722778 378.382308 
z
" style="fill:#e2e2ef;"/>
   </g>
   <g id="patch_181">
    <path clip-path="url(#p222139c951)" d="M 186.485556 532.2 
L 188.248333 532.2 
L 188.248333 382.666923 
L 186.485556 382.666923 
z
" style="fill:#e2e2ef;"/>
   </g>
   <g id="patch_182">
    <path clip-path="url(#p222139c951)" d="M 188.248333 532.2 
L 190.011111 532.2 
L 190.011111 373.240769 
L 188.248333 373.240769 
z
" style="fill:#e2e2ef;"/>
   </g>
   <g id="patch_183">
    <path clip-path="url(#p222139c951)" d="M 190.011111 532.2 
L 191.773889 532.2 
L 191.773889 363.386154 
L 190.011111 363.386154 
z
" style="fill:#e2e2ef;"/>
   </g>
   <g id="patch_184">
    <path clip-path="url(#p222139c951)" d="M 191.773889 532.2 
L 193.536667 532.2 
L 193.536667 359.958462 
L 191.773889 359.958462 
z
" style="fill:#e2e2ef;"/>
   </g>
   <g id="patch_185">
    <path clip-path="url(#p222139c951)" d="M 193.536667 532.2 
L 195.299444 532.2 
L 195.299444 376.24 
L 193.536667 376.24 
z
" style="fill:#e2e2ef;"/>
   </g>
   <g id="patch_186">
    <path clip-path="url(#p222139c951)" d="M 195.299444 532.2 
L 197.062222 532.2 
L 197.062222 368.099231 
L 195.299444 368.099231 
z
" style="fill:#e2e2ef;"/>
   </g>
   <g id="patch_187">
    <path clip-path="url(#p222139c951)" d="M 197.062222 532.2 
L 198.825 532.2 
L 198.825 345.390769 
L 197.062222 345.390769 
z
" style="fill:#e2e2ef;"/>
   </g>
   <g id="matplotlib.axis_3">
    <g id="xtick_6">
     <g id="line2d_9">
      <g>
       <use style="stroke:#000000;stroke-width:0.8;" x="40.175" xlink:href="#mb7780f5c04" y="532.2"/>
      </g>
     </g>
     <g id="text_10">
      <!-- −90 -->
      <g transform="translate(29.622656 546.798437)scale(0.1 -0.1)">
       <use xlink:href="#DejaVuSans-8722"/>
       <use x="83.789062" xlink:href="#DejaVuSans-57"/>
       <use x="147.412109" xlink:href="#DejaVuSans-48"/>
      </g>
     </g>
    </g>
    <g id="xtick_7">
     <g id="line2d_10">
      <g>
       <use style="stroke:#000000;stroke-width:0.8;" x="79.8375" xlink:href="#mb7780f5c04" y="532.2"/>
      </g>
     </g>
     <g id="text_11">
      <!-- −45 -->
      <g transform="translate(69.285156 546.798437)scale(0.1 -0.1)">
       <use xlink:href="#DejaVuSans-8722"/>
       <use x="83.789062" xlink:href="#DejaVuSans-52"/>
       <use x="147.412109" xlink:href="#DejaVuSans-53"/>
      </g>
     </g>
    </g>
    <g id="xtick_8">
     <g id="line2d_11">
      <g>
       <use style="stroke:#000000;stroke-width:0.8;" x="119.5" xlink:href="#mb7780f5c04" y="532.2"/>
      </g>
     </g>
     <g id="text_12">
      <!-- 0 -->
      <g transform="translate(116.31875 546.798437)scale(0.1 -0.1)">
       <use xlink:href="#DejaVuSans-48"/>
      </g>
     </g>
    </g>
    <g id="xtick_9">
     <g id="line2d_12">
      <g>
       <use style="stroke:#000000;stroke-width:0.8;" x="159.1625" xlink:href="#mb7780f5c04" y="532.2"/>
      </g>
     </g>
     <g id="text_13">
      <!-- 45 -->
      <g transform="translate(152.8 546.798437)scale(0.1 -0.1)">
       <use xlink:href="#DejaVuSans-52"/>
       <use x="63.623047" xlink:href="#DejaVuSans-53"/>
      </g>
     </g>
    </g>
    <g id="xtick_10">
     <g id="line2d_13">
      <g>
       <use style="stroke:#000000;stroke-width:0.8;" x="198.825" xlink:href="#mb7780f5c04" y="532.2"/>
      </g>
     </g>
     <g id="text_14">
      <!-- 90 -->
      <g transform="translate(192.4625 546.798437)scale(0.1 -0.1)">
       <use xlink:href="#DejaVuSans-57"/>
       <use x="63.623047" xlink:href="#DejaVuSans-48"/>
      </g>
     </g>
    </g>
    <g id="text_15">
     <!-- $\Delta \theta$ -->
     <g transform="translate(113 560.476562)scale(0.1 -0.1)">
      <use transform="translate(0 0.234375)" xlink:href="#DejaVuSans-916"/>
      <use transform="translate(68.408203 0.234375)" xlink:href="#DejaVuSans-Oblique-952"/>
     </g>
    </g>
   </g>
   <g id="matplotlib.axis_4">
    <g id="ytick_3">
     <g id="line2d_14">
      <g>
       <use style="stroke:#000000;stroke-width:0.8;" x="40.175" xlink:href="#m751d700432" y="532.2"/>
      </g>
     </g>
     <g id="text_16">
      <!-- 0.00 -->
      <g transform="translate(10.909375 535.999219)scale(0.1 -0.1)">
       <use xlink:href="#DejaVuSans-48"/>
       <use x="63.623047" xlink:href="#DejaVuSans-46"/>
       <use x="95.410156" xlink:href="#DejaVuSans-48"/>
       <use x="159.033203" xlink:href="#DejaVuSans-48"/>
      </g>
     </g>
    </g>
    <g id="ytick_4">
     <g id="line2d_15">
      <g>
       <use style="stroke:#000000;stroke-width:0.8;" x="40.175" xlink:href="#m751d700432" y="360.815385"/>
      </g>
     </g>
     <g id="text_17">
      <!-- 0.01 -->
      <g transform="translate(10.909375 364.614603)scale(0.1 -0.1)">
       <use xlink:href="#DejaVuSans-48"/>
       <use x="63.623047" xlink:href="#DejaVuSans-46"/>
       <use x="95.410156" xlink:href="#DejaVuSans-48"/>
       <use x="159.033203" xlink:href="#DejaVuSans-49"/>
      </g>
     </g>
    </g>
   </g>
   <g id="line2d_16">
    <path clip-path="url(#p222139c951)" d="M 40.175 360.537244 
L 41.127853 360.639087 
L 42.080706 360.944036 
L 43.192367 361.554141 
L 44.304029 362.433598 
L 45.574499 363.759796 
L 46.84497 365.415848 
L 48.274249 367.652971 
L 49.862337 370.571143 
L 51.609234 374.257491 
L 53.673749 379.17345 
L 56.055881 385.459143 
L 59.073248 394.096913 
L 64.472748 410.39587 
L 69.395821 424.956505 
L 72.730806 434.13866 
L 75.589364 441.396691 
L 78.289114 447.665763 
L 80.830055 453.021545 
L 83.370996 457.846628 
L 85.753128 461.898869 
L 88.13526 465.513868 
L 90.517392 468.715667 
L 92.899525 471.531565 
L 95.281657 473.990289 
L 97.663789 476.120546 
L 100.045921 477.949942 
L 102.428053 479.504186 
L 104.810185 480.806559 
L 107.351126 481.941184 
L 109.892067 482.833669 
L 112.433008 483.501169 
L 115.132758 483.978481 
L 117.832508 484.22734 
L 120.532257 484.253413 
L 123.232007 484.057296 
L 125.931757 483.634516 
L 128.631507 482.975512 
L 131.172447 482.126397 
L 133.713388 481.038665 
L 136.095521 479.784113 
L 138.477653 478.28202 
L 140.859785 476.50964 
L 143.241917 474.441712 
L 145.46524 472.220953 
L 147.688564 469.695773 
L 149.911887 466.842695 
L 152.13521 463.638919 
L 154.358534 460.06352 
L 156.740666 455.800458 
L 159.122798 451.075554 
L 161.663739 445.520446 
L 164.363488 439.0458 
L 167.222047 431.587891 
L 170.557032 422.214113 
L 174.84487 409.432837 
L 181.832457 388.569907 
L 184.691016 380.791914 
L 186.914339 375.341635 
L 188.820045 371.205903 
L 190.566942 367.924906 
L 192.15503 365.415848 
L 193.584309 363.575683 
L 194.85478 362.291704 
L 195.966441 361.45036 
L 197.078103 360.879166 
L 198.189765 360.582519 
L 198.825 360.537244 
L 198.825 360.537244 
" style="fill:none;stroke:#ff0000;stroke-linecap:square;stroke-width:1.5;"/>
   </g>
   <g id="patch_188">
    <path d="M 40.175 532.2 
L 40.175 309.4 
" style="fill:none;stroke:#000000;stroke-linecap:square;stroke-linejoin:miter;stroke-width:0.8;"/>
   </g>
   <g id="patch_189">
    <path d="M 198.825 532.2 
L 198.825 309.4 
" style="fill:none;stroke:#000000;stroke-linecap:square;stroke-linejoin:miter;stroke-width:0.8;"/>
   </g>
   <g id="patch_190">
    <path d="M 40.175 532.2 
L 198.825 532.2 
" style="fill:none;stroke:#000000;stroke-linecap:square;stroke-linejoin:miter;stroke-width:0.8;"/>
   </g>
   <g id="patch_191">
    <path d="M 40.175 309.4 
L 198.825 309.4 
" style="fill:none;stroke:#000000;stroke-linecap:square;stroke-linejoin:miter;stroke-width:0.8;"/>
   </g>
   <g id="text_18">
    <!-- (-) Autocorrelation -->
    <g transform="translate(64.624375 303.4)scale(0.12 -0.12)">
     <defs>
      <path d="M 4.890625 31.390625 
L 31.203125 31.390625 
L 31.203125 23.390625 
L 4.890625 23.390625 
z
" id="DejaVuSans-45"/>
     </defs>
     <use xlink:href="#DejaVuSans-40"/>
     <use x="39.013672" xlink:href="#DejaVuSans-45"/>
     <use x="75.097656" xlink:href="#DejaVuSans-41"/>
     <use x="114.111328" xlink:href="#DejaVuSans-32"/>
     <use x="145.898438" xlink:href="#DejaVuSans-65"/>
     <use x="214.306641" xlink:href="#DejaVuSans-117"/>
     <use x="277.685547" xlink:href="#DejaVuSans-116"/>
     <use x="316.894531" xlink:href="#DejaVuSans-111"/>
     <use x="378.076172" xlink:href="#DejaVuSans-99"/>
     <use x="433.056641" xlink:href="#DejaVuSans-111"/>
     <use x="494.238281" xlink:href="#DejaVuSans-114"/>
     <use x="533.601562" xlink:href="#DejaVuSans-114"/>
     <use x="572.464844" xlink:href="#DejaVuSans-101"/>
     <use x="633.988281" xlink:href="#DejaVuSans-108"/>
     <use x="661.771484" xlink:href="#DejaVuSans-97"/>
     <use x="723.050781" xlink:href="#DejaVuSans-116"/>
     <use x="762.259766" xlink:href="#DejaVuSans-105"/>
     <use x="790.042969" xlink:href="#DejaVuSans-111"/>
     <use x="851.224609" xlink:href="#DejaVuSans-110"/>
    </g>
   </g>
  </g>
 </g>
 <defs>
  <clipPath id="p95663595c4">
   <rect height="222.8" width="158.65" x="40.175" y="26.8"/>
  </clipPath>
  <clipPath id="p222139c951">
   <rect height="222.8" width="158.65" x="40.175" y="309.4"/>
  </clipPath>
 </defs>
</svg>
