<?xml version="1.0" encoding="utf-8" standalone="no"?>
<!DOCTYPE svg PUBLIC "-//W3C//DTD SVG 1.1//EN"
  "http://www.w3.org/Graphics/SVG/1.1/DTD/svg11.dtd">
<!-- Created with matplotlib (https://matplotlib.org/) -->
<svg height="288pt" version="1.1" viewBox="0 0 540 288" width="540pt" xmlns="http://www.w3.org/2000/svg" xmlns:xlink="http://www.w3.org/1999/xlink">
 <metadata>
  <rdf:RDF xmlns:cc="http://creativecommons.org/ns#" xmlns:dc="http://purl.org/dc/elements/1.1/" xmlns:rdf="http://www.w3.org/1999/02/22-rdf-syntax-ns#">
   <cc:Work>
    <dc:type rdf:resource="http://purl.org/dc/dcmitype/StillImage"/>
    <dc:date>2022-12-15T21:44:56.214178</dc:date>
    <dc:format>image/svg+xml</dc:format>
    <dc:creator>
     <cc:Agent>
      <dc:title>Matplotlib v3.3.1, https://matplotlib.org/</dc:title>
     </cc:Agent>
    </dc:creator>
   </cc:Work>
  </rdf:RDF>
 </metadata>
 <defs>
  <style type="text/css">*{stroke-linecap:butt;stroke-linejoin:round;}</style>
 </defs>
 <g id="figure_1">
  <g id="patch_1">
   <path d="M 0 288 
L 540 288 
L 540 0 
L 0 0 
z
" style="fill:none;"/>
  </g>
  <g id="axes_1">
   <g id="patch_2">
    <path d="M 46.55 242.2 
L 186.816667 242.2 
L 186.816667 26.8 
L 46.55 26.8 
z
" style="fill:#ffffff;"/>
   </g>
   <g id="PolyCollection_1">
    <defs>
     <path d="M 46.55 -156.213016 
L 46.55 -150.614864 
L 48.108519 -148.826996 
L 49.667037 -151.171138 
L 51.225556 -153.253446 
L 52.784074 -154.458829 
L 54.342593 -153.62304 
L 55.901111 -155.009678 
L 57.45963 -155.301941 
L 59.018148 -154.275579 
L 60.576667 -154.415307 
L 62.135185 -154.393588 
L 63.693704 -155.56107 
L 65.252222 -153.912858 
L 66.810741 -154.168045 
L 68.369259 -155.69047 
L 69.927778 -154.286539 
L 71.486296 -151.235709 
L 73.044815 -148.424976 
L 74.603333 -148.97249 
L 76.161852 -145.254486 
L 77.72037 -143.416098 
L 79.278889 -134.655026 
L 80.837407 -131.813879 
L 82.395926 -129.390305 
L 83.954444 -119.178639 
L 85.512963 -113.27012 
L 87.071481 -101.306626 
L 88.63 -93.996576 
L 90.188519 -84.749606 
L 91.747037 -73.677755 
L 93.305556 -71.125138 
L 94.864074 -69.141694 
L 96.422593 -73.525341 
L 97.981111 -72.559642 
L 99.53963 -68.820682 
L 101.098148 -74.671456 
L 102.656667 -76.995184 
L 104.215185 -81.415049 
L 105.773704 -85.547632 
L 107.332222 -95.782897 
L 108.890741 -106.033721 
L 110.449259 -110.689585 
L 112.007778 -118.494254 
L 113.566296 -130.931536 
L 115.124815 -139.204632 
L 116.683333 -149.172151 
L 118.241852 -160.863315 
L 119.80037 -171.774942 
L 121.358889 -180.870713 
L 122.917407 -187.979319 
L 124.475926 -192.917669 
L 126.034444 -196.601627 
L 127.592963 -202.516861 
L 129.151481 -207.108789 
L 130.71 -211.449098 
L 132.268519 -217.42726 
L 133.827037 -227.276069 
L 135.385556 -226.802286 
L 136.944074 -228.749629 
L 138.502593 -229.145881 
L 140.061111 -224.538431 
L 141.61963 -210.800878 
L 143.178148 -200.305758 
L 144.736667 -195.695337 
L 146.295185 -190.670679 
L 147.853704 -185.291878 
L 149.412222 -175.258228 
L 150.970741 -168.730352 
L 152.529259 -169.365186 
L 154.087778 -167.851741 
L 155.646296 -162.678173 
L 157.204815 -159.238343 
L 158.763333 -160.072071 
L 160.321852 -162.167366 
L 161.88037 -158.122287 
L 163.438889 -152.632012 
L 164.997407 -150.394818 
L 166.555926 -151.366309 
L 168.114444 -152.819629 
L 169.672963 -150.843663 
L 171.231481 -152.687107 
L 172.79 -153.915496 
L 174.348519 -155.771035 
L 175.907037 -154.775155 
L 177.465556 -151.544348 
L 179.024074 -153.276845 
L 180.582593 -153.608758 
L 182.141111 -152.696177 
L 183.69963 -152.348143 
L 185.258148 -150.403968 
L 186.816667 -153.23962 
L 186.816667 -158.469294 
L 186.816667 -158.469294 
L 185.258148 -156.788852 
L 183.69963 -158.141384 
L 182.141111 -158.454033 
L 180.582593 -158.221373 
L 179.024074 -158.669246 
L 177.465556 -156.695666 
L 175.907037 -159.112773 
L 174.348519 -160.461773 
L 172.79 -158.373998 
L 171.231481 -157.360082 
L 169.672963 -157.306778 
L 168.114444 -159.169603 
L 166.555926 -157.075226 
L 164.997407 -157.169501 
L 163.438889 -159.537026 
L 161.88037 -165.718722 
L 160.321852 -169.080476 
L 158.763333 -167.180341 
L 157.204815 -167.142948 
L 155.646296 -169.447672 
L 154.087778 -175.252493 
L 152.529259 -176.40052 
L 150.970741 -177.135924 
L 149.412222 -184.437909 
L 147.853704 -195.230956 
L 146.295185 -202.992455 
L 144.736667 -209.166336 
L 143.178148 -211.429076 
L 141.61963 -223.854571 
L 140.061111 -232.962795 
L 138.502593 -238.012729 
L 136.944074 -239.953424 
L 135.385556 -237.516475 
L 133.827037 -237.085435 
L 132.268519 -226.253801 
L 130.71 -220.128354 
L 129.151481 -217.745826 
L 127.592963 -211.15856 
L 126.034444 -204.962332 
L 124.475926 -199.245016 
L 122.917407 -194.648954 
L 121.358889 -188.449227 
L 119.80037 -178.662785 
L 118.241852 -167.609492 
L 116.683333 -155.469891 
L 115.124815 -145.402307 
L 113.566296 -137.663199 
L 112.007778 -125.351049 
L 110.449259 -117.875857 
L 108.890741 -113.651638 
L 107.332222 -103.084138 
L 105.773704 -94.084729 
L 104.215185 -89.536695 
L 102.656667 -84.255562 
L 101.098148 -82.750591 
L 99.53963 -75.131092 
L 97.981111 -81.493259 
L 96.422593 -83.097037 
L 94.864074 -79.741282 
L 93.305556 -83.076277 
L 91.747037 -86.632437 
L 90.188519 -97.61733 
L 88.63 -105.682063 
L 87.071481 -111.19226 
L 85.512963 -124.320786 
L 83.954444 -129.974938 
L 82.395926 -139.48464 
L 80.837407 -141.239801 
L 79.278889 -143.144871 
L 77.72037 -150.359476 
L 76.161852 -153.192798 
L 74.603333 -156.786646 
L 73.044815 -156.237603 
L 71.486296 -158.361986 
L 69.927778 -160.89295 
L 68.369259 -162.079123 
L 66.810741 -159.669024 
L 65.252222 -159.3993 
L 63.693704 -161.280638 
L 62.135185 -160.111032 
L 60.576667 -159.24978 
L 59.018148 -158.81448 
L 57.45963 -160.081043 
L 55.901111 -160.165574 
L 54.342593 -157.735726 
L 52.784074 -157.790254 
L 51.225556 -157.823324 
L 49.667037 -156.399124 
L 48.108519 -154.465312 
L 46.55 -156.213016 
z
" id="m1203d29688" style="stroke:#000000;"/>
    </defs>
    <g clip-path="url(#p134059cea9)">
     <use style="stroke:#000000;" x="0" xlink:href="#m1203d29688" y="288"/>
    </g>
   </g>
   <g id="PolyCollection_2">
    <defs>
     <path d="M 46.55 -160.75043 
L 46.55 -155.696243 
L 48.108519 -158.103121 
L 49.667037 -155.718846 
L 51.225556 -154.602584 
L 52.784074 -151.795276 
L 54.342593 -150.168194 
L 55.901111 -151.818257 
L 57.45963 -148.079744 
L 59.018148 -149.200122 
L 60.576667 -150.800562 
L 62.135185 -153.355461 
L 63.693704 -152.773655 
L 65.252222 -154.975807 
L 66.810741 -154.803858 
L 68.369259 -154.659858 
L 69.927778 -151.754625 
L 71.486296 -148.444213 
L 73.044815 -144.657425 
L 74.603333 -140.710724 
L 76.161852 -141.725149 
L 77.72037 -138.257712 
L 79.278889 -137.224043 
L 80.837407 -133.019006 
L 82.395926 -130.477825 
L 83.954444 -128.016395 
L 85.512963 -118.604244 
L 87.071481 -113.494527 
L 88.63 -113.693268 
L 90.188519 -112.45042 
L 91.747037 -107.411956 
L 93.305556 -101.28786 
L 94.864074 -100.894148 
L 96.422593 -98.711846 
L 97.981111 -89.445257 
L 99.53963 -88.556759 
L 101.098148 -92.843338 
L 102.656667 -95.012597 
L 104.215185 -97.316486 
L 105.773704 -104.35095 
L 107.332222 -112.00437 
L 108.890741 -119.382693 
L 110.449259 -123.079218 
L 112.007778 -127.938228 
L 113.566296 -131.120269 
L 115.124815 -134.83241 
L 116.683333 -143.417547 
L 118.241852 -149.776014 
L 119.80037 -160.358874 
L 121.358889 -167.676678 
L 122.917407 -170.616407 
L 124.475926 -181.958269 
L 126.034444 -189.43781 
L 127.592963 -193.762715 
L 129.151481 -196.327136 
L 130.71 -198.733056 
L 132.268519 -208.440839 
L 133.827037 -205.302236 
L 135.385556 -200.261816 
L 136.944074 -205.092053 
L 138.502593 -199.387006 
L 140.061111 -202.091401 
L 141.61963 -197.166885 
L 143.178148 -189.202877 
L 144.736667 -186.220937 
L 146.295185 -180.740388 
L 147.853704 -179.715041 
L 149.412222 -175.952006 
L 150.970741 -171.751387 
L 152.529259 -169.363713 
L 154.087778 -167.712748 
L 155.646296 -166.963147 
L 157.204815 -165.85482 
L 158.763333 -162.191698 
L 160.321852 -162.237816 
L 161.88037 -162.404347 
L 163.438889 -161.332461 
L 164.997407 -155.087518 
L 166.555926 -153.271337 
L 168.114444 -151.678317 
L 169.672963 -148.296133 
L 171.231481 -146.967489 
L 172.79 -146.394112 
L 174.348519 -148.374563 
L 175.907037 -148.607391 
L 177.465556 -150.638159 
L 179.024074 -152.302472 
L 180.582593 -153.605563 
L 182.141111 -153.664452 
L 183.69963 -154.224432 
L 185.258148 -155.30388 
L 186.816667 -155.86731 
L 186.816667 -160.829759 
L 186.816667 -160.829759 
L 185.258148 -159.700675 
L 183.69963 -159.374525 
L 182.141111 -158.38497 
L 180.582593 -159.132448 
L 179.024074 -158.57478 
L 177.465556 -156.310195 
L 175.907037 -155.05073 
L 174.348519 -154.09992 
L 172.79 -152.551458 
L 171.231481 -153.270764 
L 169.672963 -155.00698 
L 168.114444 -158.497353 
L 166.555926 -159.88043 
L 164.997407 -162.200092 
L 163.438889 -168.284373 
L 161.88037 -169.011821 
L 160.321852 -168.56854 
L 158.763333 -169.133942 
L 157.204815 -172.404234 
L 155.646296 -174.36102 
L 154.087778 -176.114157 
L 152.529259 -177.619703 
L 150.970741 -179.341076 
L 149.412222 -183.531813 
L 147.853704 -188.201156 
L 146.295185 -189.509111 
L 144.736667 -194.790996 
L 143.178148 -198.038409 
L 141.61963 -205.630009 
L 140.061111 -212.033558 
L 138.502593 -211.868264 
L 136.944074 -215.711576 
L 135.385556 -212.849349 
L 133.827037 -216.009445 
L 132.268519 -217.561302 
L 130.71 -207.689274 
L 129.151481 -207.394133 
L 127.592963 -204.236285 
L 126.034444 -199.058725 
L 124.475926 -191.514974 
L 122.917407 -181.62493 
L 121.358889 -176.499932 
L 119.80037 -168.919771 
L 118.241852 -159.583972 
L 116.683333 -154.981462 
L 115.124815 -146.73386 
L 113.566296 -142.603491 
L 112.007778 -138.873441 
L 110.449259 -133.241397 
L 108.890741 -128.019326 
L 107.332222 -120.910516 
L 105.773704 -115.796472 
L 104.215185 -107.723189 
L 102.656667 -104.861532 
L 101.098148 -102.841371 
L 99.53963 -98.986446 
L 97.981111 -99.539447 
L 96.422593 -108.804437 
L 94.864074 -112.089421 
L 93.305556 -112.063054 
L 91.747037 -120.026975 
L 90.188519 -124.213764 
L 88.63 -124.463887 
L 87.071481 -124.448951 
L 85.512963 -128.502775 
L 83.954444 -136.343275 
L 82.395926 -140.422021 
L 80.837407 -142.159634 
L 79.278889 -144.747945 
L 77.72037 -145.079797 
L 76.161852 -148.508373 
L 74.603333 -148.50317 
L 73.044815 -151.363734 
L 71.486296 -154.717308 
L 69.927778 -158.924197 
L 68.369259 -161.266382 
L 66.810741 -161.240977 
L 65.252222 -160.641105 
L 63.693704 -159.957164 
L 62.135185 -159.312658 
L 60.576667 -155.703217 
L 59.018148 -154.013849 
L 57.45963 -153.45435 
L 55.901111 -157.568831 
L 54.342593 -156.002524 
L 52.784074 -157.532774 
L 51.225556 -158.830704 
L 49.667037 -160.600987 
L 48.108519 -162.750527 
L 46.55 -160.75043 
z
" id="ma03e65ae24" style="stroke:#00bfbf;"/>
    </defs>
    <g clip-path="url(#p134059cea9)">
     <use style="fill:#00bfbf;stroke:#00bfbf;" x="0" xlink:href="#ma03e65ae24" y="288"/>
    </g>
   </g>
   <g id="matplotlib.axis_1">
    <g id="xtick_1">
     <g id="line2d_1">
      <defs>
       <path d="M 0 0 
L 0 3.5 
" id="m3013b3e49d" style="stroke:#000000;stroke-width:0.8;"/>
      </defs>
      <g>
       <use style="stroke:#000000;stroke-width:0.8;" x="46.55" xlink:href="#m3013b3e49d" y="242.2"/>
      </g>
     </g>
     <g id="text_1">
      <!-- −90 -->
      <g transform="translate(35.997656 256.798437)scale(0.1 -0.1)">
       <defs>
        <path d="M 10.59375 35.5 
L 73.1875 35.5 
L 73.1875 27.203125 
L 10.59375 27.203125 
z
" id="DejaVuSans-8722"/>
        <path d="M 10.984375 1.515625 
L 10.984375 10.5 
Q 14.703125 8.734375 18.5 7.8125 
Q 22.3125 6.890625 25.984375 6.890625 
Q 35.75 6.890625 40.890625 13.453125 
Q 46.046875 20.015625 46.78125 33.40625 
Q 43.953125 29.203125 39.59375 26.953125 
Q 35.25 24.703125 29.984375 24.703125 
Q 19.046875 24.703125 12.671875 31.3125 
Q 6.296875 37.9375 6.296875 49.421875 
Q 6.296875 60.640625 12.9375 67.421875 
Q 19.578125 74.21875 30.609375 74.21875 
Q 43.265625 74.21875 49.921875 64.515625 
Q 56.59375 54.828125 56.59375 36.375 
Q 56.59375 19.140625 48.40625 8.859375 
Q 40.234375 -1.421875 26.421875 -1.421875 
Q 22.703125 -1.421875 18.890625 -0.6875 
Q 15.09375 0.046875 10.984375 1.515625 
z
M 30.609375 32.421875 
Q 37.25 32.421875 41.125 36.953125 
Q 45.015625 41.5 45.015625 49.421875 
Q 45.015625 57.28125 41.125 61.84375 
Q 37.25 66.40625 30.609375 66.40625 
Q 23.96875 66.40625 20.09375 61.84375 
Q 16.21875 57.28125 16.21875 49.421875 
Q 16.21875 41.5 20.09375 36.953125 
Q 23.96875 32.421875 30.609375 32.421875 
z
" id="DejaVuSans-57"/>
        <path d="M 31.78125 66.40625 
Q 24.171875 66.40625 20.328125 58.90625 
Q 16.5 51.421875 16.5 36.375 
Q 16.5 21.390625 20.328125 13.890625 
Q 24.171875 6.390625 31.78125 6.390625 
Q 39.453125 6.390625 43.28125 13.890625 
Q 47.125 21.390625 47.125 36.375 
Q 47.125 51.421875 43.28125 58.90625 
Q 39.453125 66.40625 31.78125 66.40625 
z
M 31.78125 74.21875 
Q 44.046875 74.21875 50.515625 64.515625 
Q 56.984375 54.828125 56.984375 36.375 
Q 56.984375 17.96875 50.515625 8.265625 
Q 44.046875 -1.421875 31.78125 -1.421875 
Q 19.53125 -1.421875 13.0625 8.265625 
Q 6.59375 17.96875 6.59375 36.375 
Q 6.59375 54.828125 13.0625 64.515625 
Q 19.53125 74.21875 31.78125 74.21875 
z
" id="DejaVuSans-48"/>
       </defs>
       <use xlink:href="#DejaVuSans-8722"/>
       <use x="83.789062" xlink:href="#DejaVuSans-57"/>
       <use x="147.412109" xlink:href="#DejaVuSans-48"/>
      </g>
     </g>
    </g>
    <g id="xtick_2">
     <g id="line2d_2">
      <g>
       <use style="stroke:#000000;stroke-width:0.8;" x="81.616667" xlink:href="#m3013b3e49d" y="242.2"/>
      </g>
     </g>
     <g id="text_2">
      <!-- −45 -->
      <g transform="translate(71.064323 256.798437)scale(0.1 -0.1)">
       <defs>
        <path d="M 37.796875 64.3125 
L 12.890625 25.390625 
L 37.796875 25.390625 
z
M 35.203125 72.90625 
L 47.609375 72.90625 
L 47.609375 25.390625 
L 58.015625 25.390625 
L 58.015625 17.1875 
L 47.609375 17.1875 
L 47.609375 0 
L 37.796875 0 
L 37.796875 17.1875 
L 4.890625 17.1875 
L 4.890625 26.703125 
z
" id="DejaVuSans-52"/>
        <path d="M 10.796875 72.90625 
L 49.515625 72.90625 
L 49.515625 64.59375 
L 19.828125 64.59375 
L 19.828125 46.734375 
Q 21.96875 47.46875 24.109375 47.828125 
Q 26.265625 48.1875 28.421875 48.1875 
Q 40.625 48.1875 47.75 41.5 
Q 54.890625 34.8125 54.890625 23.390625 
Q 54.890625 11.625 47.5625 5.09375 
Q 40.234375 -1.421875 26.90625 -1.421875 
Q 22.3125 -1.421875 17.546875 -0.640625 
Q 12.796875 0.140625 7.71875 1.703125 
L 7.71875 11.625 
Q 12.109375 9.234375 16.796875 8.0625 
Q 21.484375 6.890625 26.703125 6.890625 
Q 35.15625 6.890625 40.078125 11.328125 
Q 45.015625 15.765625 45.015625 23.390625 
Q 45.015625 31 40.078125 35.4375 
Q 35.15625 39.890625 26.703125 39.890625 
Q 22.75 39.890625 18.8125 39.015625 
Q 14.890625 38.140625 10.796875 36.28125 
z
" id="DejaVuSans-53"/>
       </defs>
       <use xlink:href="#DejaVuSans-8722"/>
       <use x="83.789062" xlink:href="#DejaVuSans-52"/>
       <use x="147.412109" xlink:href="#DejaVuSans-53"/>
      </g>
     </g>
    </g>
    <g id="xtick_3">
     <g id="line2d_3">
      <g>
       <use style="stroke:#000000;stroke-width:0.8;" x="116.683333" xlink:href="#m3013b3e49d" y="242.2"/>
      </g>
     </g>
     <g id="text_3">
      <!-- 0 -->
      <g transform="translate(113.502083 256.798437)scale(0.1 -0.1)">
       <use xlink:href="#DejaVuSans-48"/>
      </g>
     </g>
    </g>
    <g id="xtick_4">
     <g id="line2d_4">
      <g>
       <use style="stroke:#000000;stroke-width:0.8;" x="151.75" xlink:href="#m3013b3e49d" y="242.2"/>
      </g>
     </g>
     <g id="text_4">
      <!-- 45 -->
      <g transform="translate(145.3875 256.798437)scale(0.1 -0.1)">
       <use xlink:href="#DejaVuSans-52"/>
       <use x="63.623047" xlink:href="#DejaVuSans-53"/>
      </g>
     </g>
    </g>
    <g id="xtick_5">
     <g id="line2d_5">
      <g>
       <use style="stroke:#000000;stroke-width:0.8;" x="186.816667" xlink:href="#m3013b3e49d" y="242.2"/>
      </g>
     </g>
     <g id="text_5">
      <!-- 90 -->
      <g transform="translate(180.454167 256.798437)scale(0.1 -0.1)">
       <use xlink:href="#DejaVuSans-57"/>
       <use x="63.623047" xlink:href="#DejaVuSans-48"/>
      </g>
     </g>
    </g>
    <g id="text_6">
     <!-- $\Delta \theta$ (deg) -->
     <g transform="translate(95.283333 270.578125)scale(0.1 -0.1)">
      <defs>
       <path d="M 34.1875 63.1875 
L 14.15625 8.203125 
L 54.25 8.203125 
z
M 0.78125 0 
L 28.609375 72.90625 
L 39.796875 72.90625 
L 67.578125 0 
z
" id="DejaVuSans-916"/>
       <path d="M 45.515625 34.671875 
L 14.453125 34.671875 
Q 12.359375 20.0625 14.5 13.875 
Q 17.1875 6.25 24.46875 6.25 
Q 31.78125 6.25 37.359375 13.921875 
Q 42.234375 20.65625 45.515625 34.671875 
z
M 47.015625 42.96875 
Q 48.34375 56.84375 46.625 61.71875 
Q 43.953125 69.4375 36.765625 69.4375 
Q 29.296875 69.4375 23.828125 61.8125 
Q 19.53125 55.671875 16.15625 42.96875 
z
M 38.1875 76.765625 
Q 49.90625 76.765625 54.59375 66.40625 
Q 59.28125 56.109375 55.71875 37.84375 
Q 52.203125 19.625 43.453125 9.28125 
Q 34.765625 -1.125 23.046875 -1.125 
Q 11.28125 -1.125 6.640625 9.28125 
Q 2 19.625 5.515625 37.84375 
Q 9.078125 56.109375 17.71875 66.40625 
Q 26.421875 76.765625 38.1875 76.765625 
z
" id="DejaVuSans-Oblique-952"/>
       <path id="DejaVuSans-32"/>
       <path d="M 31 75.875 
Q 24.46875 64.65625 21.28125 53.65625 
Q 18.109375 42.671875 18.109375 31.390625 
Q 18.109375 20.125 21.3125 9.0625 
Q 24.515625 -2 31 -13.1875 
L 23.1875 -13.1875 
Q 15.875 -1.703125 12.234375 9.375 
Q 8.59375 20.453125 8.59375 31.390625 
Q 8.59375 42.28125 12.203125 53.3125 
Q 15.828125 64.359375 23.1875 75.875 
z
" id="DejaVuSans-40"/>
       <path d="M 45.40625 46.390625 
L 45.40625 75.984375 
L 54.390625 75.984375 
L 54.390625 0 
L 45.40625 0 
L 45.40625 8.203125 
Q 42.578125 3.328125 38.25 0.953125 
Q 33.9375 -1.421875 27.875 -1.421875 
Q 17.96875 -1.421875 11.734375 6.484375 
Q 5.515625 14.40625 5.515625 27.296875 
Q 5.515625 40.1875 11.734375 48.09375 
Q 17.96875 56 27.875 56 
Q 33.9375 56 38.25 53.625 
Q 42.578125 51.265625 45.40625 46.390625 
z
M 14.796875 27.296875 
Q 14.796875 17.390625 18.875 11.75 
Q 22.953125 6.109375 30.078125 6.109375 
Q 37.203125 6.109375 41.296875 11.75 
Q 45.40625 17.390625 45.40625 27.296875 
Q 45.40625 37.203125 41.296875 42.84375 
Q 37.203125 48.484375 30.078125 48.484375 
Q 22.953125 48.484375 18.875 42.84375 
Q 14.796875 37.203125 14.796875 27.296875 
z
" id="DejaVuSans-100"/>
       <path d="M 56.203125 29.59375 
L 56.203125 25.203125 
L 14.890625 25.203125 
Q 15.484375 15.921875 20.484375 11.0625 
Q 25.484375 6.203125 34.421875 6.203125 
Q 39.59375 6.203125 44.453125 7.46875 
Q 49.3125 8.734375 54.109375 11.28125 
L 54.109375 2.78125 
Q 49.265625 0.734375 44.1875 -0.34375 
Q 39.109375 -1.421875 33.890625 -1.421875 
Q 20.796875 -1.421875 13.15625 6.1875 
Q 5.515625 13.8125 5.515625 26.8125 
Q 5.515625 40.234375 12.765625 48.109375 
Q 20.015625 56 32.328125 56 
Q 43.359375 56 49.78125 48.890625 
Q 56.203125 41.796875 56.203125 29.59375 
z
M 47.21875 32.234375 
Q 47.125 39.59375 43.09375 43.984375 
Q 39.0625 48.390625 32.421875 48.390625 
Q 24.90625 48.390625 20.390625 44.140625 
Q 15.875 39.890625 15.1875 32.171875 
z
" id="DejaVuSans-101"/>
       <path d="M 45.40625 27.984375 
Q 45.40625 37.75 41.375 43.109375 
Q 37.359375 48.484375 30.078125 48.484375 
Q 22.859375 48.484375 18.828125 43.109375 
Q 14.796875 37.75 14.796875 27.984375 
Q 14.796875 18.265625 18.828125 12.890625 
Q 22.859375 7.515625 30.078125 7.515625 
Q 37.359375 7.515625 41.375 12.890625 
Q 45.40625 18.265625 45.40625 27.984375 
z
M 54.390625 6.78125 
Q 54.390625 -7.171875 48.1875 -13.984375 
Q 42 -20.796875 29.203125 -20.796875 
Q 24.46875 -20.796875 20.265625 -20.09375 
Q 16.0625 -19.390625 12.109375 -17.921875 
L 12.109375 -9.1875 
Q 16.0625 -11.328125 19.921875 -12.34375 
Q 23.78125 -13.375 27.78125 -13.375 
Q 36.625 -13.375 41.015625 -8.765625 
Q 45.40625 -4.15625 45.40625 5.171875 
L 45.40625 9.625 
Q 42.625 4.78125 38.28125 2.390625 
Q 33.9375 0 27.875 0 
Q 17.828125 0 11.671875 7.65625 
Q 5.515625 15.328125 5.515625 27.984375 
Q 5.515625 40.671875 11.671875 48.328125 
Q 17.828125 56 27.875 56 
Q 33.9375 56 38.28125 53.609375 
Q 42.625 51.21875 45.40625 46.390625 
L 45.40625 54.6875 
L 54.390625 54.6875 
z
" id="DejaVuSans-103"/>
       <path d="M 8.015625 75.875 
L 15.828125 75.875 
Q 23.140625 64.359375 26.78125 53.3125 
Q 30.421875 42.28125 30.421875 31.390625 
Q 30.421875 20.453125 26.78125 9.375 
Q 23.140625 -1.703125 15.828125 -13.1875 
L 8.015625 -13.1875 
Q 14.5 -2 17.703125 9.0625 
Q 20.90625 20.125 20.90625 31.390625 
Q 20.90625 42.671875 17.703125 53.65625 
Q 14.5 64.65625 8.015625 75.875 
z
" id="DejaVuSans-41"/>
      </defs>
      <use transform="translate(0 0.234375)" xlink:href="#DejaVuSans-916"/>
      <use transform="translate(68.408203 0.234375)" xlink:href="#DejaVuSans-Oblique-952"/>
      <use transform="translate(129.589844 0.234375)" xlink:href="#DejaVuSans-32"/>
      <use transform="translate(161.376953 0.234375)" xlink:href="#DejaVuSans-40"/>
      <use transform="translate(200.390625 0.234375)" xlink:href="#DejaVuSans-100"/>
      <use transform="translate(263.867188 0.234375)" xlink:href="#DejaVuSans-101"/>
      <use transform="translate(325.390625 0.234375)" xlink:href="#DejaVuSans-103"/>
      <use transform="translate(388.867188 0.234375)" xlink:href="#DejaVuSans-41"/>
     </g>
    </g>
   </g>
   <g id="matplotlib.axis_2">
    <g id="ytick_1">
     <g id="line2d_6">
      <defs>
       <path d="M 0 0 
L -3.5 0 
" id="m6bcf1e5d44" style="stroke:#000000;stroke-width:0.8;"/>
      </defs>
      <g>
       <use style="stroke:#000000;stroke-width:0.8;" x="46.55" xlink:href="#m6bcf1e5d44" y="216.557143"/>
      </g>
     </g>
     <g id="text_7">
      <!-- −8 -->
      <g transform="translate(24.807813 220.356362)scale(0.1 -0.1)">
       <defs>
        <path d="M 31.78125 34.625 
Q 24.75 34.625 20.71875 30.859375 
Q 16.703125 27.09375 16.703125 20.515625 
Q 16.703125 13.921875 20.71875 10.15625 
Q 24.75 6.390625 31.78125 6.390625 
Q 38.8125 6.390625 42.859375 10.171875 
Q 46.921875 13.96875 46.921875 20.515625 
Q 46.921875 27.09375 42.890625 30.859375 
Q 38.875 34.625 31.78125 34.625 
z
M 21.921875 38.8125 
Q 15.578125 40.375 12.03125 44.71875 
Q 8.5 49.078125 8.5 55.328125 
Q 8.5 64.0625 14.71875 69.140625 
Q 20.953125 74.21875 31.78125 74.21875 
Q 42.671875 74.21875 48.875 69.140625 
Q 55.078125 64.0625 55.078125 55.328125 
Q 55.078125 49.078125 51.53125 44.71875 
Q 48 40.375 41.703125 38.8125 
Q 48.828125 37.15625 52.796875 32.3125 
Q 56.78125 27.484375 56.78125 20.515625 
Q 56.78125 9.90625 50.3125 4.234375 
Q 43.84375 -1.421875 31.78125 -1.421875 
Q 19.734375 -1.421875 13.25 4.234375 
Q 6.78125 9.90625 6.78125 20.515625 
Q 6.78125 27.484375 10.78125 32.3125 
Q 14.796875 37.15625 21.921875 38.8125 
z
M 18.3125 54.390625 
Q 18.3125 48.734375 21.84375 45.5625 
Q 25.390625 42.390625 31.78125 42.390625 
Q 38.140625 42.390625 41.71875 45.5625 
Q 45.3125 48.734375 45.3125 54.390625 
Q 45.3125 60.0625 41.71875 63.234375 
Q 38.140625 66.40625 31.78125 66.40625 
Q 25.390625 66.40625 21.84375 63.234375 
Q 18.3125 60.0625 18.3125 54.390625 
z
" id="DejaVuSans-56"/>
       </defs>
       <use xlink:href="#DejaVuSans-8722"/>
       <use x="83.789062" xlink:href="#DejaVuSans-56"/>
      </g>
     </g>
    </g>
    <g id="ytick_2">
     <g id="line2d_7">
      <g>
       <use style="stroke:#000000;stroke-width:0.8;" x="46.55" xlink:href="#m6bcf1e5d44" y="175.528571"/>
      </g>
     </g>
     <g id="text_8">
      <!-- −4 -->
      <g transform="translate(24.807813 179.32779)scale(0.1 -0.1)">
       <use xlink:href="#DejaVuSans-8722"/>
       <use x="83.789062" xlink:href="#DejaVuSans-52"/>
      </g>
     </g>
    </g>
    <g id="ytick_3">
     <g id="line2d_8">
      <g>
       <use style="stroke:#000000;stroke-width:0.8;" x="46.55" xlink:href="#m6bcf1e5d44" y="134.5"/>
      </g>
     </g>
     <g id="text_9">
      <!-- 0 -->
      <g transform="translate(33.1875 138.299219)scale(0.1 -0.1)">
       <use xlink:href="#DejaVuSans-48"/>
      </g>
     </g>
    </g>
    <g id="ytick_4">
     <g id="line2d_9">
      <g>
       <use style="stroke:#000000;stroke-width:0.8;" x="46.55" xlink:href="#m6bcf1e5d44" y="93.471429"/>
      </g>
     </g>
     <g id="text_10">
      <!-- 4 -->
      <g transform="translate(33.1875 97.270647)scale(0.1 -0.1)">
       <use xlink:href="#DejaVuSans-52"/>
      </g>
     </g>
    </g>
    <g id="ytick_5">
     <g id="line2d_10">
      <g>
       <use style="stroke:#000000;stroke-width:0.8;" x="46.55" xlink:href="#m6bcf1e5d44" y="52.442857"/>
      </g>
     </g>
     <g id="text_11">
      <!-- 8 -->
      <g transform="translate(33.1875 56.242076)scale(0.1 -0.1)">
       <use xlink:href="#DejaVuSans-56"/>
      </g>
     </g>
    </g>
    <g id="text_12">
     <!-- Bias (deg) -->
     <g transform="translate(18.728125 159.903906)rotate(-90)scale(0.1 -0.1)">
      <defs>
       <path d="M 19.671875 34.8125 
L 19.671875 8.109375 
L 35.5 8.109375 
Q 43.453125 8.109375 47.28125 11.40625 
Q 51.125 14.703125 51.125 21.484375 
Q 51.125 28.328125 47.28125 31.5625 
Q 43.453125 34.8125 35.5 34.8125 
z
M 19.671875 64.796875 
L 19.671875 42.828125 
L 34.28125 42.828125 
Q 41.5 42.828125 45.03125 45.53125 
Q 48.578125 48.25 48.578125 53.8125 
Q 48.578125 59.328125 45.03125 62.0625 
Q 41.5 64.796875 34.28125 64.796875 
z
M 9.8125 72.90625 
L 35.015625 72.90625 
Q 46.296875 72.90625 52.390625 68.21875 
Q 58.5 63.53125 58.5 54.890625 
Q 58.5 48.1875 55.375 44.234375 
Q 52.25 40.28125 46.1875 39.3125 
Q 53.46875 37.75 57.5 32.78125 
Q 61.53125 27.828125 61.53125 20.40625 
Q 61.53125 10.640625 54.890625 5.3125 
Q 48.25 0 35.984375 0 
L 9.8125 0 
z
" id="DejaVuSans-66"/>
       <path d="M 9.421875 54.6875 
L 18.40625 54.6875 
L 18.40625 0 
L 9.421875 0 
z
M 9.421875 75.984375 
L 18.40625 75.984375 
L 18.40625 64.59375 
L 9.421875 64.59375 
z
" id="DejaVuSans-105"/>
       <path d="M 34.28125 27.484375 
Q 23.390625 27.484375 19.1875 25 
Q 14.984375 22.515625 14.984375 16.5 
Q 14.984375 11.71875 18.140625 8.90625 
Q 21.296875 6.109375 26.703125 6.109375 
Q 34.1875 6.109375 38.703125 11.40625 
Q 43.21875 16.703125 43.21875 25.484375 
L 43.21875 27.484375 
z
M 52.203125 31.203125 
L 52.203125 0 
L 43.21875 0 
L 43.21875 8.296875 
Q 40.140625 3.328125 35.546875 0.953125 
Q 30.953125 -1.421875 24.3125 -1.421875 
Q 15.921875 -1.421875 10.953125 3.296875 
Q 6 8.015625 6 15.921875 
Q 6 25.140625 12.171875 29.828125 
Q 18.359375 34.515625 30.609375 34.515625 
L 43.21875 34.515625 
L 43.21875 35.40625 
Q 43.21875 41.609375 39.140625 45 
Q 35.0625 48.390625 27.6875 48.390625 
Q 23 48.390625 18.546875 47.265625 
Q 14.109375 46.140625 10.015625 43.890625 
L 10.015625 52.203125 
Q 14.9375 54.109375 19.578125 55.046875 
Q 24.21875 56 28.609375 56 
Q 40.484375 56 46.34375 49.84375 
Q 52.203125 43.703125 52.203125 31.203125 
z
" id="DejaVuSans-97"/>
       <path d="M 44.28125 53.078125 
L 44.28125 44.578125 
Q 40.484375 46.53125 36.375 47.5 
Q 32.28125 48.484375 27.875 48.484375 
Q 21.1875 48.484375 17.84375 46.4375 
Q 14.5 44.390625 14.5 40.28125 
Q 14.5 37.15625 16.890625 35.375 
Q 19.28125 33.59375 26.515625 31.984375 
L 29.59375 31.296875 
Q 39.15625 29.25 43.1875 25.515625 
Q 47.21875 21.78125 47.21875 15.09375 
Q 47.21875 7.46875 41.1875 3.015625 
Q 35.15625 -1.421875 24.609375 -1.421875 
Q 20.21875 -1.421875 15.453125 -0.5625 
Q 10.6875 0.296875 5.421875 2 
L 5.421875 11.28125 
Q 10.40625 8.6875 15.234375 7.390625 
Q 20.0625 6.109375 24.8125 6.109375 
Q 31.15625 6.109375 34.5625 8.28125 
Q 37.984375 10.453125 37.984375 14.40625 
Q 37.984375 18.0625 35.515625 20.015625 
Q 33.0625 21.96875 24.703125 23.78125 
L 21.578125 24.515625 
Q 13.234375 26.265625 9.515625 29.90625 
Q 5.8125 33.546875 5.8125 39.890625 
Q 5.8125 47.609375 11.28125 51.796875 
Q 16.75 56 26.8125 56 
Q 31.78125 56 36.171875 55.265625 
Q 40.578125 54.546875 44.28125 53.078125 
z
" id="DejaVuSans-115"/>
      </defs>
      <use xlink:href="#DejaVuSans-66"/>
      <use x="68.603516" xlink:href="#DejaVuSans-105"/>
      <use x="96.386719" xlink:href="#DejaVuSans-97"/>
      <use x="157.666016" xlink:href="#DejaVuSans-115"/>
      <use x="209.765625" xlink:href="#DejaVuSans-32"/>
      <use x="241.552734" xlink:href="#DejaVuSans-40"/>
      <use x="280.566406" xlink:href="#DejaVuSans-100"/>
      <use x="344.042969" xlink:href="#DejaVuSans-101"/>
      <use x="405.566406" xlink:href="#DejaVuSans-103"/>
      <use x="469.042969" xlink:href="#DejaVuSans-41"/>
     </g>
    </g>
   </g>
   <g id="line2d_11">
    <path clip-path="url(#p134059cea9)" d="M 46.55 134.5 
L 186.816667 134.5 
" style="fill:none;stroke:#000000;stroke-dasharray:5.55,2.4;stroke-dashoffset:0;stroke-width:1.5;"/>
   </g>
   <g id="line2d_12">
    <path clip-path="url(#p134059cea9)" d="M 116.683333 242.2 
L 116.683333 26.8 
" style="fill:none;stroke:#0000ff;stroke-dasharray:5.55,2.4;stroke-dashoffset:0;stroke-width:1.5;"/>
   </g>
   <g id="patch_3">
    <path d="M 46.55 242.2 
L 46.55 26.8 
" style="fill:none;stroke:#000000;stroke-linecap:square;stroke-linejoin:miter;stroke-width:0.8;"/>
   </g>
   <g id="patch_4">
    <path d="M 186.816667 242.2 
L 186.816667 26.8 
" style="fill:none;stroke:#000000;stroke-linecap:square;stroke-linejoin:miter;stroke-width:0.8;"/>
   </g>
   <g id="patch_5">
    <path d="M 46.55 242.2 
L 186.816667 242.2 
" style="fill:none;stroke:#000000;stroke-linecap:square;stroke-linejoin:miter;stroke-width:0.8;"/>
   </g>
   <g id="patch_6">
    <path d="M 46.55 26.8 
L 186.816667 26.8 
" style="fill:none;stroke:#000000;stroke-linecap:square;stroke-linejoin:miter;stroke-width:0.8;"/>
   </g>
   <g id="text_13">
    <!-- *** -->
    <g transform="translate(163.438889 47.314286)scale(0.1 -0.1)">
     <defs>
      <path d="M 47.015625 60.890625 
L 29.5 51.421875 
L 47.015625 41.890625 
L 44.1875 37.109375 
L 27.78125 47.015625 
L 27.78125 28.609375 
L 22.21875 28.609375 
L 22.21875 47.015625 
L 5.8125 37.109375 
L 2.984375 41.890625 
L 20.515625 51.421875 
L 2.984375 60.890625 
L 5.8125 65.71875 
L 22.21875 55.8125 
L 22.21875 74.21875 
L 27.78125 74.21875 
L 27.78125 55.8125 
L 44.1875 65.71875 
z
" id="DejaVuSans-42"/>
     </defs>
     <use xlink:href="#DejaVuSans-42"/>
     <use x="50" xlink:href="#DejaVuSans-42"/>
     <use x="100" xlink:href="#DejaVuSans-42"/>
    </g>
   </g>
   <g id="text_14">
    <!-- *** -->
    <g style="fill:#00bfbf;" transform="translate(163.438889 57.571429)scale(0.1 -0.1)">
     <use xlink:href="#DejaVuSans-42"/>
     <use x="50" xlink:href="#DejaVuSans-42"/>
     <use x="100" xlink:href="#DejaVuSans-42"/>
    </g>
   </g>
   <g id="text_15">
    <!-- S*** -->
    <g style="fill:#bf00bf;" transform="translate(163.438889 67.828571)scale(0.1 -0.1)">
     <defs>
      <path d="M 53.515625 70.515625 
L 53.515625 60.890625 
Q 47.90625 63.578125 42.921875 64.890625 
Q 37.9375 66.21875 33.296875 66.21875 
Q 25.25 66.21875 20.875 63.09375 
Q 16.5 59.96875 16.5 54.203125 
Q 16.5 49.359375 19.40625 46.890625 
Q 22.3125 44.4375 30.421875 42.921875 
L 36.375 41.703125 
Q 47.40625 39.59375 52.65625 34.296875 
Q 57.90625 29 57.90625 20.125 
Q 57.90625 9.515625 50.796875 4.046875 
Q 43.703125 -1.421875 29.984375 -1.421875 
Q 24.8125 -1.421875 18.96875 -0.25 
Q 13.140625 0.921875 6.890625 3.21875 
L 6.890625 13.375 
Q 12.890625 10.015625 18.65625 8.296875 
Q 24.421875 6.59375 29.984375 6.59375 
Q 38.421875 6.59375 43.015625 9.90625 
Q 47.609375 13.234375 47.609375 19.390625 
Q 47.609375 24.75 44.3125 27.78125 
Q 41.015625 30.8125 33.5 32.328125 
L 27.484375 33.5 
Q 16.453125 35.6875 11.515625 40.375 
Q 6.59375 45.0625 6.59375 53.421875 
Q 6.59375 63.09375 13.40625 68.65625 
Q 20.21875 74.21875 32.171875 74.21875 
Q 37.3125 74.21875 42.625 73.28125 
Q 47.953125 72.359375 53.515625 70.515625 
z
" id="DejaVuSans-83"/>
     </defs>
     <use xlink:href="#DejaVuSans-83"/>
     <use x="63.476562" xlink:href="#DejaVuSans-42"/>
     <use x="113.476562" xlink:href="#DejaVuSans-42"/>
     <use x="163.476562" xlink:href="#DejaVuSans-42"/>
    </g>
   </g>
   <g id="text_16">
    <!-- nb:-1 | Stim SD -->
    <g transform="translate(71.224896 20.8)scale(0.12 -0.12)">
     <defs>
      <path d="M 54.890625 33.015625 
L 54.890625 0 
L 45.90625 0 
L 45.90625 32.71875 
Q 45.90625 40.484375 42.875 44.328125 
Q 39.84375 48.1875 33.796875 48.1875 
Q 26.515625 48.1875 22.3125 43.546875 
Q 18.109375 38.921875 18.109375 30.90625 
L 18.109375 0 
L 9.078125 0 
L 9.078125 54.6875 
L 18.109375 54.6875 
L 18.109375 46.1875 
Q 21.34375 51.125 25.703125 53.5625 
Q 30.078125 56 35.796875 56 
Q 45.21875 56 50.046875 50.171875 
Q 54.890625 44.34375 54.890625 33.015625 
z
" id="DejaVuSans-110"/>
      <path d="M 48.6875 27.296875 
Q 48.6875 37.203125 44.609375 42.84375 
Q 40.53125 48.484375 33.40625 48.484375 
Q 26.265625 48.484375 22.1875 42.84375 
Q 18.109375 37.203125 18.109375 27.296875 
Q 18.109375 17.390625 22.1875 11.75 
Q 26.265625 6.109375 33.40625 6.109375 
Q 40.53125 6.109375 44.609375 11.75 
Q 48.6875 17.390625 48.6875 27.296875 
z
M 18.109375 46.390625 
Q 20.953125 51.265625 25.265625 53.625 
Q 29.59375 56 35.59375 56 
Q 45.5625 56 51.78125 48.09375 
Q 58.015625 40.1875 58.015625 27.296875 
Q 58.015625 14.40625 51.78125 6.484375 
Q 45.5625 -1.421875 35.59375 -1.421875 
Q 29.59375 -1.421875 25.265625 0.953125 
Q 20.953125 3.328125 18.109375 8.203125 
L 18.109375 0 
L 9.078125 0 
L 9.078125 75.984375 
L 18.109375 75.984375 
z
" id="DejaVuSans-98"/>
      <path d="M 11.71875 12.40625 
L 22.015625 12.40625 
L 22.015625 0 
L 11.71875 0 
z
M 11.71875 51.703125 
L 22.015625 51.703125 
L 22.015625 39.3125 
L 11.71875 39.3125 
z
" id="DejaVuSans-58"/>
      <path d="M 4.890625 31.390625 
L 31.203125 31.390625 
L 31.203125 23.390625 
L 4.890625 23.390625 
z
" id="DejaVuSans-45"/>
      <path d="M 12.40625 8.296875 
L 28.515625 8.296875 
L 28.515625 63.921875 
L 10.984375 60.40625 
L 10.984375 69.390625 
L 28.421875 72.90625 
L 38.28125 72.90625 
L 38.28125 8.296875 
L 54.390625 8.296875 
L 54.390625 0 
L 12.40625 0 
z
" id="DejaVuSans-49"/>
      <path d="M 21 76.421875 
L 21 -23.578125 
L 12.703125 -23.578125 
L 12.703125 76.421875 
z
" id="DejaVuSans-124"/>
      <path d="M 18.3125 70.21875 
L 18.3125 54.6875 
L 36.8125 54.6875 
L 36.8125 47.703125 
L 18.3125 47.703125 
L 18.3125 18.015625 
Q 18.3125 11.328125 20.140625 9.421875 
Q 21.96875 7.515625 27.59375 7.515625 
L 36.8125 7.515625 
L 36.8125 0 
L 27.59375 0 
Q 17.1875 0 13.234375 3.875 
Q 9.28125 7.765625 9.28125 18.015625 
L 9.28125 47.703125 
L 2.6875 47.703125 
L 2.6875 54.6875 
L 9.28125 54.6875 
L 9.28125 70.21875 
z
" id="DejaVuSans-116"/>
      <path d="M 52 44.1875 
Q 55.375 50.25 60.0625 53.125 
Q 64.75 56 71.09375 56 
Q 79.640625 56 84.28125 50.015625 
Q 88.921875 44.046875 88.921875 33.015625 
L 88.921875 0 
L 79.890625 0 
L 79.890625 32.71875 
Q 79.890625 40.578125 77.09375 44.375 
Q 74.3125 48.1875 68.609375 48.1875 
Q 61.625 48.1875 57.5625 43.546875 
Q 53.515625 38.921875 53.515625 30.90625 
L 53.515625 0 
L 44.484375 0 
L 44.484375 32.71875 
Q 44.484375 40.625 41.703125 44.40625 
Q 38.921875 48.1875 33.109375 48.1875 
Q 26.21875 48.1875 22.15625 43.53125 
Q 18.109375 38.875 18.109375 30.90625 
L 18.109375 0 
L 9.078125 0 
L 9.078125 54.6875 
L 18.109375 54.6875 
L 18.109375 46.1875 
Q 21.1875 51.21875 25.484375 53.609375 
Q 29.78125 56 35.6875 56 
Q 41.65625 56 45.828125 52.96875 
Q 50 49.953125 52 44.1875 
z
" id="DejaVuSans-109"/>
      <path d="M 19.671875 64.796875 
L 19.671875 8.109375 
L 31.59375 8.109375 
Q 46.6875 8.109375 53.6875 14.9375 
Q 60.6875 21.78125 60.6875 36.53125 
Q 60.6875 51.171875 53.6875 57.984375 
Q 46.6875 64.796875 31.59375 64.796875 
z
M 9.8125 72.90625 
L 30.078125 72.90625 
Q 51.265625 72.90625 61.171875 64.09375 
Q 71.09375 55.28125 71.09375 36.53125 
Q 71.09375 17.671875 61.125 8.828125 
Q 51.171875 0 30.078125 0 
L 9.8125 0 
z
" id="DejaVuSans-68"/>
     </defs>
     <use xlink:href="#DejaVuSans-110"/>
     <use x="63.378906" xlink:href="#DejaVuSans-98"/>
     <use x="126.855469" xlink:href="#DejaVuSans-58"/>
     <use x="160.546875" xlink:href="#DejaVuSans-45"/>
     <use x="196.630859" xlink:href="#DejaVuSans-49"/>
     <use x="260.253906" xlink:href="#DejaVuSans-32"/>
     <use x="292.041016" xlink:href="#DejaVuSans-124"/>
     <use x="325.732422" xlink:href="#DejaVuSans-32"/>
     <use x="357.519531" xlink:href="#DejaVuSans-83"/>
     <use x="420.996094" xlink:href="#DejaVuSans-116"/>
     <use x="460.205078" xlink:href="#DejaVuSans-105"/>
     <use x="487.988281" xlink:href="#DejaVuSans-109"/>
     <use x="585.400391" xlink:href="#DejaVuSans-32"/>
     <use x="617.1875" xlink:href="#DejaVuSans-83"/>
     <use x="680.664062" xlink:href="#DejaVuSans-68"/>
    </g>
   </g>
  </g>
  <g id="axes_2">
   <g id="patch_7">
    <path d="M 214.554167 242.2 
L 354.820833 242.2 
L 354.820833 26.8 
L 214.554167 26.8 
z
" style="fill:#ffffff;"/>
   </g>
   <g id="PolyCollection_3">
    <defs>
     <path d="M 214.554167 -156.719911 
L 214.554167 -150.994228 
L 216.112685 -148.920937 
L 217.671204 -151.212975 
L 219.229722 -153.180038 
L 220.788241 -154.249181 
L 222.346759 -153.387523 
L 223.905278 -154.67431 
L 225.463796 -155.016506 
L 227.022315 -154.042374 
L 228.580833 -154.043681 
L 230.139352 -153.952023 
L 231.69787 -154.680319 
L 233.256389 -152.613982 
L 234.814907 -152.04046 
L 236.373426 -151.952891 
L 237.931944 -148.480758 
L 239.490463 -143.145113 
L 241.048981 -137.625301 
L 242.6075 -136.994542 
L 244.166019 -131.419498 
L 245.724537 -128.174107 
L 247.283056 -120.7262 
L 248.841574 -119.30487 
L 250.400093 -118.276695 
L 251.958611 -110.94346 
L 253.51713 -111.089102 
L 255.075648 -106.140524 
L 256.634167 -103.1839 
L 258.192685 -102.980092 
L 259.751204 -99.973297 
L 261.309722 -101.800427 
L 262.868241 -98.736025 
L 264.426759 -104.471148 
L 265.985278 -104.248691 
L 267.543796 -100.154203 
L 269.102315 -102.993741 
L 270.660833 -101.960916 
L 272.219352 -103.871031 
L 273.77787 -103.842893 
L 275.336389 -112.218555 
L 276.894907 -116.738502 
L 278.453426 -120.80012 
L 280.011944 -126.388281 
L 281.570463 -135.680136 
L 283.128981 -142.852192 
L 284.6875 -147.093102 
L 286.246019 -158.391157 
L 287.804537 -168.706054 
L 289.363056 -175.746507 
L 290.921574 -181.007711 
L 292.480093 -184.502515 
L 294.038611 -186.36814 
L 295.59713 -188.327077 
L 297.155648 -190.938415 
L 298.714167 -191.334602 
L 300.272685 -196.672899 
L 301.831204 -203.460593 
L 303.389722 -203.013036 
L 304.948241 -205.001963 
L 306.506759 -205.791439 
L 308.065278 -205.61652 
L 309.623796 -195.335333 
L 311.182315 -190.462562 
L 312.740833 -190.176922 
L 314.299352 -191.279611 
L 315.85787 -189.098453 
L 317.416389 -182.904361 
L 318.974907 -179.851041 
L 320.533426 -181.75831 
L 322.091944 -181.914685 
L 323.650463 -176.422797 
L 325.208981 -172.433796 
L 326.7675 -170.062137 
L 328.326019 -170.474128 
L 329.884537 -163.847453 
L 331.443056 -156.789243 
L 333.001574 -152.96245 
L 334.560093 -153.040029 
L 336.118611 -154.285347 
L 337.67713 -151.553906 
L 339.235648 -153.277761 
L 340.794167 -154.101392 
L 342.352685 -156.040707 
L 343.911204 -154.883056 
L 345.469722 -151.581567 
L 347.028241 -153.545791 
L 348.586759 -153.912519 
L 350.145278 -153.15339 
L 351.703796 -152.782417 
L 353.262315 -151.093127 
L 354.820833 -153.81044 
L 354.820833 -159.069989 
L 354.820833 -159.069989 
L 353.262315 -157.467143 
L 351.703796 -158.586158 
L 350.145278 -158.880083 
L 348.586759 -158.474498 
L 347.028241 -158.936704 
L 345.469722 -156.766495 
L 343.911204 -159.25067 
L 342.352685 -160.659338 
L 340.794167 -158.56223 
L 339.235648 -157.953987 
L 337.67713 -157.820506 
L 336.118611 -160.527815 
L 334.560093 -158.896659 
L 333.001574 -160.352011 
L 331.443056 -164.741698 
L 329.884537 -172.526581 
L 328.326019 -178.621323 
L 326.7675 -178.563139 
L 325.208981 -180.949565 
L 323.650463 -183.916728 
L 322.091944 -189.824474 
L 320.533426 -189.543027 
L 318.974907 -189.054029 
L 317.416389 -192.088384 
L 315.85787 -198.420315 
L 314.299352 -201.963975 
L 312.740833 -201.884436 
L 311.182315 -200.84531 
L 309.623796 -207.05844 
L 308.065278 -213.827456 
L 306.506759 -213.628975 
L 304.948241 -214.283521 
L 303.389722 -211.897705 
L 301.831204 -212.495486 
L 300.272685 -205.091299 
L 298.714167 -201.184192 
L 297.155648 -202.668983 
L 295.59713 -197.507162 
L 294.038611 -196.065588 
L 292.480093 -192.023396 
L 290.921574 -188.620824 
L 289.363056 -184.81567 
L 287.804537 -177.468101 
L 286.246019 -166.014199 
L 284.6875 -155.050622 
L 283.128981 -150.522151 
L 281.570463 -143.886683 
L 280.011944 -134.737278 
L 278.453426 -129.865131 
L 276.894907 -125.657346 
L 275.336389 -120.814341 
L 273.77787 -111.422958 
L 272.219352 -112.543195 
L 270.660833 -110.259756 
L 269.102315 -110.601616 
L 267.543796 -108.840351 
L 265.985278 -113.214356 
L 264.426759 -113.679417 
L 262.868241 -108.279562 
L 261.309722 -111.346041 
L 259.751204 -110.338423 
L 258.192685 -113.77785 
L 256.634167 -112.844501 
L 255.075648 -114.673261 
L 253.51713 -121.090725 
L 251.958611 -120.352054 
L 250.400093 -126.062673 
L 248.841574 -127.392632 
L 247.283056 -128.347293 
L 245.724537 -135.641677 
L 244.166019 -139.606227 
L 242.6075 -144.659441 
L 241.048981 -145.696998 
L 239.490463 -150.104441 
L 237.931944 -155.089504 
L 236.373426 -158.31273 
L 234.814907 -157.1329 
L 233.256389 -158.108815 
L 231.69787 -160.421067 
L 230.139352 -159.696917 
L 228.580833 -158.983776 
L 227.022315 -158.639245 
L 225.463796 -159.866925 
L 223.905278 -159.908446 
L 222.346759 -157.516021 
L 220.788241 -157.617129 
L 219.229722 -157.719507 
L 217.671204 -156.413816 
L 216.112685 -154.610468 
L 214.554167 -156.719911 
z
" id="m1ffca590e8" style="stroke:#000000;"/>
    </defs>
    <g clip-path="url(#p42d6bee6c7)">
     <use style="stroke:#000000;" x="0" xlink:href="#m1ffca590e8" y="288"/>
    </g>
   </g>
   <g id="PolyCollection_4">
    <defs>
     <path d="M 214.554167 -162.140249 
L 214.554167 -157.117865 
L 216.112685 -158.62888 
L 217.671204 -155.64141 
L 219.229722 -154.45864 
L 220.788241 -151.634761 
L 222.346759 -149.736926 
L 223.905278 -152.224666 
L 225.463796 -148.948342 
L 227.022315 -149.377712 
L 228.580833 -149.975937 
L 230.139352 -152.507863 
L 231.69787 -152.667544 
L 233.256389 -150.057964 
L 234.814907 -151.751055 
L 236.373426 -152.296947 
L 237.931944 -151.650891 
L 239.490463 -146.76015 
L 241.048981 -144.827319 
L 242.6075 -142.295895 
L 244.166019 -141.714218 
L 245.724537 -138.174923 
L 247.283056 -135.370275 
L 248.841574 -129.848956 
L 250.400093 -128.164167 
L 251.958611 -125.393211 
L 253.51713 -117.131311 
L 255.075648 -112.070256 
L 256.634167 -106.094146 
L 258.192685 -101.052914 
L 259.751204 -93.299759 
L 261.309722 -84.874069 
L 262.868241 -80.766281 
L 264.426759 -75.868443 
L 265.985278 -74.662357 
L 267.543796 -76.843151 
L 269.102315 -82.144792 
L 270.660833 -87.596288 
L 272.219352 -89.630916 
L 273.77787 -97.461701 
L 275.336389 -107.338999 
L 276.894907 -115.564109 
L 278.453426 -120.091816 
L 280.011944 -128.235435 
L 281.570463 -133.181913 
L 283.128981 -137.492413 
L 284.6875 -145.351931 
L 286.246019 -154.006278 
L 287.804537 -163.391343 
L 289.363056 -169.483755 
L 290.921574 -179.55816 
L 292.480093 -189.139635 
L 294.038611 -195.413341 
L 295.59713 -203.750807 
L 297.155648 -209.649338 
L 298.714167 -216.826815 
L 300.272685 -222.933949 
L 301.831204 -226.008366 
L 303.389722 -225.815873 
L 304.948241 -228.306083 
L 306.506759 -226.967525 
L 308.065278 -226.993342 
L 309.623796 -215.827058 
L 311.182315 -203.980658 
L 312.740833 -197.723837 
L 314.299352 -192.448568 
L 315.85787 -185.165265 
L 317.416389 -176.707339 
L 318.974907 -168.731943 
L 320.533426 -166.571359 
L 322.091944 -165.527986 
L 323.650463 -165.963187 
L 325.208981 -163.261928 
L 326.7675 -161.849715 
L 328.326019 -163.218356 
L 329.884537 -164.243829 
L 331.443056 -161.372127 
L 333.001574 -154.90837 
L 334.560093 -153.413693 
L 336.118611 -152.165612 
L 337.67713 -148.910882 
L 339.235648 -147.091989 
L 340.794167 -146.414257 
L 342.352685 -149.22996 
L 343.911204 -149.822032 
L 345.469722 -151.586448 
L 347.028241 -153.91473 
L 348.586759 -155.409605 
L 350.145278 -156.183765 
L 351.703796 -156.545432 
L 353.262315 -158.118299 
L 354.820833 -157.61455 
L 354.820833 -161.929958 
L 354.820833 -161.929958 
L 353.262315 -161.715167 
L 351.703796 -160.922935 
L 350.145278 -160.590495 
L 348.586759 -160.295106 
L 347.028241 -159.549268 
L 345.469722 -157.668426 
L 343.911204 -156.001186 
L 342.352685 -154.204532 
L 340.794167 -152.628486 
L 339.235648 -152.950104 
L 337.67713 -154.516869 
L 336.118611 -158.922155 
L 334.560093 -159.712325 
L 333.001574 -160.881001 
L 331.443056 -168.03577 
L 329.884537 -170.597766 
L 328.326019 -169.272397 
L 326.7675 -168.528876 
L 325.208981 -170.599951 
L 323.650463 -173.202438 
L 322.091944 -174.481272 
L 320.533426 -175.221142 
L 318.974907 -177.001368 
L 317.416389 -185.137659 
L 315.85787 -194.557148 
L 314.299352 -201.972516 
L 312.740833 -207.207727 
L 311.182315 -214.079161 
L 309.623796 -226.138886 
L 308.065278 -236.727444 
L 306.506759 -237.23534 
L 304.948241 -237.683816 
L 303.389722 -235.323555 
L 301.831204 -234.092835 
L 300.272685 -230.02657 
L 298.714167 -223.550661 
L 297.155648 -217.1829 
L 295.59713 -210.136451 
L 294.038611 -200.869844 
L 292.480093 -194.95788 
L 290.921574 -185.219904 
L 289.363056 -175.493068 
L 287.804537 -168.746325 
L 286.246019 -159.144132 
L 284.6875 -152.246351 
L 283.128981 -144.302873 
L 281.570463 -139.5163 
L 280.011944 -134.216054 
L 278.453426 -126.107607 
L 276.894907 -121.281947 
L 275.336389 -113.247158 
L 273.77787 -103.930906 
L 272.219352 -97.244788 
L 270.660833 -94.041523 
L 269.102315 -90.52486 
L 267.543796 -85.578712 
L 265.985278 -83.743639 
L 264.426759 -85.194901 
L 262.868241 -90.70322 
L 261.309722 -95.201629 
L 259.751204 -105.288596 
L 258.192685 -112.673271 
L 256.634167 -115.792003 
L 255.075648 -120.661732 
L 253.51713 -126.674854 
L 251.958611 -135.652167 
L 250.400093 -138.844105 
L 248.841574 -140.684701 
L 247.283056 -143.967861 
L 245.724537 -145.344245 
L 244.166019 -148.275121 
L 242.6075 -149.661522 
L 241.048981 -151.194271 
L 239.490463 -153.640434 
L 237.931944 -158.437496 
L 236.373426 -158.516149 
L 234.814907 -158.321777 
L 233.256389 -156.152684 
L 231.69787 -158.663235 
L 230.139352 -158.002641 
L 228.580833 -155.492866 
L 227.022315 -155.111479 
L 225.463796 -154.970808 
L 223.905278 -158.670289 
L 222.346759 -155.907052 
L 220.788241 -157.036116 
L 219.229722 -158.889864 
L 217.671204 -160.321157 
L 216.112685 -162.994206 
L 214.554167 -162.140249 
z
" id="ma8b7b0e2f8" style="stroke:#00bfbf;"/>
    </defs>
    <g clip-path="url(#p42d6bee6c7)">
     <use style="fill:#00bfbf;stroke:#00bfbf;" x="0" xlink:href="#ma8b7b0e2f8" y="288"/>
    </g>
   </g>
   <g id="matplotlib.axis_3">
    <g id="xtick_6">
     <g id="line2d_13">
      <g>
       <use style="stroke:#000000;stroke-width:0.8;" x="214.554167" xlink:href="#m3013b3e49d" y="242.2"/>
      </g>
     </g>
     <g id="text_17">
      <!-- −90 -->
      <g transform="translate(204.001823 256.798437)scale(0.1 -0.1)">
       <use xlink:href="#DejaVuSans-8722"/>
       <use x="83.789062" xlink:href="#DejaVuSans-57"/>
       <use x="147.412109" xlink:href="#DejaVuSans-48"/>
      </g>
     </g>
    </g>
    <g id="xtick_7">
     <g id="line2d_14">
      <g>
       <use style="stroke:#000000;stroke-width:0.8;" x="249.620833" xlink:href="#m3013b3e49d" y="242.2"/>
      </g>
     </g>
     <g id="text_18">
      <!-- −45 -->
      <g transform="translate(239.06849 256.798437)scale(0.1 -0.1)">
       <use xlink:href="#DejaVuSans-8722"/>
       <use x="83.789062" xlink:href="#DejaVuSans-52"/>
       <use x="147.412109" xlink:href="#DejaVuSans-53"/>
      </g>
     </g>
    </g>
    <g id="xtick_8">
     <g id="line2d_15">
      <g>
       <use style="stroke:#000000;stroke-width:0.8;" x="284.6875" xlink:href="#m3013b3e49d" y="242.2"/>
      </g>
     </g>
     <g id="text_19">
      <!-- 0 -->
      <g transform="translate(281.50625 256.798437)scale(0.1 -0.1)">
       <use xlink:href="#DejaVuSans-48"/>
      </g>
     </g>
    </g>
    <g id="xtick_9">
     <g id="line2d_16">
      <g>
       <use style="stroke:#000000;stroke-width:0.8;" x="319.754167" xlink:href="#m3013b3e49d" y="242.2"/>
      </g>
     </g>
     <g id="text_20">
      <!-- 45 -->
      <g transform="translate(313.391667 256.798437)scale(0.1 -0.1)">
       <use xlink:href="#DejaVuSans-52"/>
       <use x="63.623047" xlink:href="#DejaVuSans-53"/>
      </g>
     </g>
    </g>
    <g id="xtick_10">
     <g id="line2d_17">
      <g>
       <use style="stroke:#000000;stroke-width:0.8;" x="354.820833" xlink:href="#m3013b3e49d" y="242.2"/>
      </g>
     </g>
     <g id="text_21">
      <!-- 90 -->
      <g transform="translate(348.458333 256.798437)scale(0.1 -0.1)">
       <use xlink:href="#DejaVuSans-57"/>
       <use x="63.623047" xlink:href="#DejaVuSans-48"/>
      </g>
     </g>
    </g>
    <g id="text_22">
     <!-- $\Delta \theta$ (deg) -->
     <g transform="translate(263.2875 270.578125)scale(0.1 -0.1)">
      <use transform="translate(0 0.234375)" xlink:href="#DejaVuSans-916"/>
      <use transform="translate(68.408203 0.234375)" xlink:href="#DejaVuSans-Oblique-952"/>
      <use transform="translate(129.589844 0.234375)" xlink:href="#DejaVuSans-32"/>
      <use transform="translate(161.376953 0.234375)" xlink:href="#DejaVuSans-40"/>
      <use transform="translate(200.390625 0.234375)" xlink:href="#DejaVuSans-100"/>
      <use transform="translate(263.867188 0.234375)" xlink:href="#DejaVuSans-101"/>
      <use transform="translate(325.390625 0.234375)" xlink:href="#DejaVuSans-103"/>
      <use transform="translate(388.867188 0.234375)" xlink:href="#DejaVuSans-41"/>
     </g>
    </g>
   </g>
   <g id="matplotlib.axis_4"/>
   <g id="line2d_18">
    <path clip-path="url(#p42d6bee6c7)" d="M 214.554167 134.5 
L 354.820833 134.5 
" style="fill:none;stroke:#000000;stroke-dasharray:5.55,2.4;stroke-dashoffset:0;stroke-width:1.5;"/>
   </g>
   <g id="line2d_19">
    <path clip-path="url(#p42d6bee6c7)" d="M 284.6875 242.2 
L 284.6875 26.8 
" style="fill:none;stroke:#0000ff;stroke-dasharray:5.55,2.4;stroke-dashoffset:0;stroke-width:1.5;"/>
   </g>
   <g id="patch_8">
    <path d="M 214.554167 242.2 
L 214.554167 26.8 
" style="fill:none;stroke:#000000;stroke-linecap:square;stroke-linejoin:miter;stroke-width:0.8;"/>
   </g>
   <g id="patch_9">
    <path d="M 354.820833 242.2 
L 354.820833 26.8 
" style="fill:none;stroke:#000000;stroke-linecap:square;stroke-linejoin:miter;stroke-width:0.8;"/>
   </g>
   <g id="patch_10">
    <path d="M 214.554167 242.2 
L 354.820833 242.2 
" style="fill:none;stroke:#000000;stroke-linecap:square;stroke-linejoin:miter;stroke-width:0.8;"/>
   </g>
   <g id="patch_11">
    <path d="M 214.554167 26.8 
L 354.820833 26.8 
" style="fill:none;stroke:#000000;stroke-linecap:square;stroke-linejoin:miter;stroke-width:0.8;"/>
   </g>
   <g id="text_23">
    <!-- *** -->
    <g transform="translate(331.443056 47.314286)scale(0.1 -0.1)">
     <use xlink:href="#DejaVuSans-42"/>
     <use x="50" xlink:href="#DejaVuSans-42"/>
     <use x="100" xlink:href="#DejaVuSans-42"/>
    </g>
   </g>
   <g id="text_24">
    <!-- *** -->
    <g style="fill:#00bfbf;" transform="translate(331.443056 57.571429)scale(0.1 -0.1)">
     <use xlink:href="#DejaVuSans-42"/>
     <use x="50" xlink:href="#DejaVuSans-42"/>
     <use x="100" xlink:href="#DejaVuSans-42"/>
    </g>
   </g>
   <g id="text_25">
    <!-- R*** -->
    <g style="fill:#bf00bf;" transform="translate(331.443056 67.828571)scale(0.1 -0.1)">
     <defs>
      <path d="M 44.390625 34.1875 
Q 47.5625 33.109375 50.5625 29.59375 
Q 53.5625 26.078125 56.59375 19.921875 
L 66.609375 0 
L 56 0 
L 46.6875 18.703125 
Q 43.0625 26.03125 39.671875 28.421875 
Q 36.28125 30.8125 30.421875 30.8125 
L 19.671875 30.8125 
L 19.671875 0 
L 9.8125 0 
L 9.8125 72.90625 
L 32.078125 72.90625 
Q 44.578125 72.90625 50.734375 67.671875 
Q 56.890625 62.453125 56.890625 51.90625 
Q 56.890625 45.015625 53.6875 40.46875 
Q 50.484375 35.9375 44.390625 34.1875 
z
M 19.671875 64.796875 
L 19.671875 38.921875 
L 32.078125 38.921875 
Q 39.203125 38.921875 42.84375 42.21875 
Q 46.484375 45.515625 46.484375 51.90625 
Q 46.484375 58.296875 42.84375 61.546875 
Q 39.203125 64.796875 32.078125 64.796875 
z
" id="DejaVuSans-82"/>
     </defs>
     <use xlink:href="#DejaVuSans-82"/>
     <use x="69.482422" xlink:href="#DejaVuSans-42"/>
     <use x="119.482422" xlink:href="#DejaVuSans-42"/>
     <use x="169.482422" xlink:href="#DejaVuSans-42"/>
    </g>
   </g>
   <g id="text_26">
    <!-- nb:-1 | Resp SD -->
    <g transform="translate(238.375937 20.8)scale(0.12 -0.12)">
     <defs>
      <path d="M 18.109375 8.203125 
L 18.109375 -20.796875 
L 9.078125 -20.796875 
L 9.078125 54.6875 
L 18.109375 54.6875 
L 18.109375 46.390625 
Q 20.953125 51.265625 25.265625 53.625 
Q 29.59375 56 35.59375 56 
Q 45.5625 56 51.78125 48.09375 
Q 58.015625 40.1875 58.015625 27.296875 
Q 58.015625 14.40625 51.78125 6.484375 
Q 45.5625 -1.421875 35.59375 -1.421875 
Q 29.59375 -1.421875 25.265625 0.953125 
Q 20.953125 3.328125 18.109375 8.203125 
z
M 48.6875 27.296875 
Q 48.6875 37.203125 44.609375 42.84375 
Q 40.53125 48.484375 33.40625 48.484375 
Q 26.265625 48.484375 22.1875 42.84375 
Q 18.109375 37.203125 18.109375 27.296875 
Q 18.109375 17.390625 22.1875 11.75 
Q 26.265625 6.109375 33.40625 6.109375 
Q 40.53125 6.109375 44.609375 11.75 
Q 48.6875 17.390625 48.6875 27.296875 
z
" id="DejaVuSans-112"/>
     </defs>
     <use xlink:href="#DejaVuSans-110"/>
     <use x="63.378906" xlink:href="#DejaVuSans-98"/>
     <use x="126.855469" xlink:href="#DejaVuSans-58"/>
     <use x="160.546875" xlink:href="#DejaVuSans-45"/>
     <use x="196.630859" xlink:href="#DejaVuSans-49"/>
     <use x="260.253906" xlink:href="#DejaVuSans-32"/>
     <use x="292.041016" xlink:href="#DejaVuSans-124"/>
     <use x="325.732422" xlink:href="#DejaVuSans-32"/>
     <use x="357.519531" xlink:href="#DejaVuSans-82"/>
     <use x="422.501953" xlink:href="#DejaVuSans-101"/>
     <use x="484.025391" xlink:href="#DejaVuSans-115"/>
     <use x="536.125" xlink:href="#DejaVuSans-112"/>
     <use x="599.601562" xlink:href="#DejaVuSans-32"/>
     <use x="631.388672" xlink:href="#DejaVuSans-83"/>
     <use x="694.865234" xlink:href="#DejaVuSans-68"/>
    </g>
   </g>
  </g>
  <g id="axes_3">
   <g id="patch_12">
    <path d="M 382.558333 242.2 
L 522.825 242.2 
L 522.825 26.8 
L 382.558333 26.8 
z
" style="fill:#ffffff;"/>
   </g>
   <g id="PolyCollection_5">
    <defs>
     <path d="M 382.558333 -156.500245 
L 382.558333 -150.918756 
L 384.116852 -149.008093 
L 385.67537 -151.22272 
L 387.233889 -153.298139 
L 388.792407 -154.459454 
L 390.350926 -153.595688 
L 391.909444 -154.902641 
L 393.467963 -155.294969 
L 395.026481 -154.392741 
L 396.585 -154.332618 
L 398.143519 -154.495961 
L 399.702037 -155.749148 
L 401.260556 -154.215376 
L 402.819074 -154.454174 
L 404.377593 -156.786826 
L 405.936111 -155.632662 
L 407.49463 -153.461655 
L 409.053148 -152.237035 
L 410.611667 -154.037888 
L 412.170185 -152.15367 
L 413.728704 -151.751146 
L 415.287222 -148.518855 
L 416.845741 -149.830189 
L 418.404259 -151.254163 
L 419.962778 -147.570096 
L 421.521296 -147.690735 
L 423.079815 -143.396596 
L 424.638333 -142.59874 
L 426.196852 -142.146914 
L 427.75537 -138.795537 
L 429.313889 -142.132047 
L 430.872407 -143.942195 
L 432.430926 -147.264394 
L 433.989444 -147.301364 
L 435.547963 -142.803018 
L 437.106481 -145.248623 
L 438.665 -144.980539 
L 440.223519 -147.054225 
L 441.782037 -144.553099 
L 443.340556 -148.248362 
L 444.899074 -149.940201 
L 446.457593 -147.481906 
L 448.016111 -149.218989 
L 449.57463 -149.796653 
L 451.133148 -151.544459 
L 452.691667 -149.556467 
L 454.250185 -153.546843 
L 455.808704 -155.537872 
L 457.367222 -155.138039 
L 458.925741 -151.053979 
L 460.484259 -145.347079 
L 462.042778 -141.617736 
L 463.601296 -137.836627 
L 465.159815 -137.155547 
L 466.718333 -139.166583 
L 468.276852 -146.398534 
L 469.83537 -154.596964 
L 471.393889 -154.410383 
L 472.952407 -155.717071 
L 474.510926 -156.88596 
L 476.069444 -154.989913 
L 477.627963 -147.743136 
L 479.186481 -145.317653 
L 480.745 -147.509807 
L 482.303519 -150.830115 
L 483.862037 -151.30194 
L 485.420556 -149.911825 
L 486.979074 -149.453217 
L 488.537593 -153.065279 
L 490.096111 -155.121859 
L 491.65463 -153.624546 
L 493.213148 -153.056988 
L 494.771667 -155.131894 
L 496.330185 -158.021155 
L 497.888704 -154.931663 
L 499.447222 -150.645962 
L 501.005741 -149.227653 
L 502.564259 -150.346073 
L 504.122778 -152.204977 
L 505.681296 -150.291615 
L 507.239815 -152.468143 
L 508.798333 -153.844804 
L 510.356852 -155.874692 
L 511.91537 -154.92121 
L 513.473889 -151.855174 
L 515.032407 -153.746911 
L 516.590926 -154.106728 
L 518.149444 -153.123803 
L 519.707963 -152.6476 
L 521.266481 -150.862949 
L 522.825 -153.59899 
L 522.825 -158.734056 
L 522.825 -158.734056 
L 521.266481 -157.209556 
L 519.707963 -158.475628 
L 518.149444 -158.882122 
L 516.590926 -158.688823 
L 515.032407 -159.120376 
L 513.473889 -156.948572 
L 511.91537 -159.21607 
L 510.356852 -160.504179 
L 508.798333 -158.238599 
L 507.239815 -157.064093 
L 505.681296 -156.640723 
L 504.122778 -158.607611 
L 502.564259 -156.197959 
L 501.005741 -156.097837 
L 499.447222 -157.588818 
L 497.888704 -162.25189 
L 496.330185 -164.628096 
L 494.771667 -161.464039 
L 493.213148 -159.930321 
L 491.65463 -159.476592 
L 490.096111 -161.592401 
L 488.537593 -158.36568 
L 486.979074 -155.642446 
L 485.420556 -156.742723 
L 483.862037 -158.477601 
L 482.303519 -158.871776 
L 480.745 -155.844849 
L 479.186481 -153.895667 
L 477.627963 -157.970712 
L 476.069444 -161.226718 
L 474.510926 -164.300354 
L 472.952407 -165.569423 
L 471.393889 -164.543848 
L 469.83537 -164.908791 
L 468.276852 -156.110478 
L 466.718333 -150.521132 
L 465.159815 -150.90637 
L 463.601296 -149.540138 
L 462.042778 -152.573305 
L 460.484259 -153.544362 
L 458.925741 -159.217661 
L 457.367222 -163.611079 
L 455.808704 -164.359261 
L 454.250185 -161.664399 
L 452.691667 -158.685917 
L 451.133148 -160.198859 
L 449.57463 -159.351604 
L 448.016111 -158.30332 
L 446.457593 -158.355583 
L 444.899074 -160.484656 
L 443.340556 -157.683893 
L 441.782037 -154.204179 
L 440.223519 -156.795278 
L 438.665 -152.124652 
L 437.106481 -153.31548 
L 435.547963 -149.941069 
L 433.989444 -154.997217 
L 432.430926 -154.24175 
L 430.872407 -150.395653 
L 429.313889 -149.93047 
L 427.75537 -147.296192 
L 426.196852 -150.298269 
L 424.638333 -150.930938 
L 423.079815 -150.549585 
L 421.521296 -155.097072 
L 419.962778 -154.807502 
L 418.404259 -158.08457 
L 416.845741 -156.369728 
L 415.287222 -154.801553 
L 413.728704 -157.505447 
L 412.170185 -158.540985 
L 410.611667 -160.625115 
L 409.053148 -159.285039 
L 407.49463 -160.128 
L 405.936111 -161.844031 
L 404.377593 -162.965482 
L 402.819074 -159.947877 
L 401.260556 -159.536309 
L 399.702037 -161.315893 
L 398.143519 -160.158183 
L 396.585 -159.238036 
L 395.026481 -158.918183 
L 393.467963 -160.070339 
L 391.909444 -160.184005 
L 390.350926 -157.789095 
L 388.792407 -157.88614 
L 387.233889 -157.870056 
L 385.67537 -156.474859 
L 384.116852 -154.675943 
L 382.558333 -156.500245 
z
" id="m9f9f66776e" style="stroke:#000000;"/>
    </defs>
    <g clip-path="url(#pd194e69bc1)">
     <use style="stroke:#000000;" x="0" xlink:href="#m9f9f66776e" y="288"/>
    </g>
   </g>
   <g id="PolyCollection_6">
    <defs>
     <path d="M 382.558333 -163.100676 
L 382.558333 -158.564198 
L 384.116852 -158.875926 
L 385.67537 -156.207294 
L 387.233889 -154.494506 
L 388.792407 -152.220748 
L 390.350926 -151.268906 
L 391.909444 -151.013443 
L 393.467963 -147.597076 
L 395.026481 -149.680193 
L 396.585 -151.916938 
L 398.143519 -155.773296 
L 399.702037 -154.753099 
L 401.260556 -155.297704 
L 402.819074 -157.155012 
L 404.377593 -157.026346 
L 405.936111 -156.012335 
L 407.49463 -151.082151 
L 409.053148 -149.465926 
L 410.611667 -147.178591 
L 412.170185 -145.094381 
L 413.728704 -144.194207 
L 415.287222 -144.72163 
L 416.845741 -145.242379 
L 418.404259 -147.497487 
L 419.962778 -151.766184 
L 421.521296 -152.638089 
L 423.079815 -153.453446 
L 424.638333 -154.941853 
L 426.196852 -155.008859 
L 427.75537 -153.643933 
L 429.313889 -151.00899 
L 430.872407 -150.023775 
L 432.430926 -149.597612 
L 433.989444 -144.645242 
L 435.547963 -144.690319 
L 437.106481 -146.830032 
L 438.665 -148.835727 
L 440.223519 -149.961957 
L 441.782037 -153.268417 
L 443.340556 -153.848754 
L 444.899074 -151.962973 
L 446.457593 -150.203491 
L 448.016111 -148.076669 
L 449.57463 -147.288342 
L 451.133148 -141.186636 
L 452.691667 -139.433595 
L 454.250185 -143.391419 
L 455.808704 -142.654114 
L 457.367222 -144.576321 
L 458.925741 -144.66619 
L 460.484259 -148.986695 
L 462.042778 -150.352059 
L 463.601296 -149.952771 
L 465.159815 -150.411284 
L 466.718333 -149.078571 
L 468.276852 -153.588278 
L 469.83537 -151.368962 
L 471.393889 -147.218404 
L 472.952407 -151.34675 
L 474.510926 -151.153866 
L 476.069444 -154.303789 
L 477.627963 -152.60447 
L 479.186481 -148.722992 
L 480.745 -149.828094 
L 482.303519 -152.112108 
L 483.862037 -151.469276 
L 485.420556 -152.340096 
L 486.979074 -151.152769 
L 488.537593 -153.313202 
L 490.096111 -155.871807 
L 491.65463 -156.854745 
L 493.213148 -158.510773 
L 494.771667 -157.135527 
L 496.330185 -156.428757 
L 497.888704 -157.496891 
L 499.447222 -157.057337 
L 501.005741 -152.399399 
L 502.564259 -150.063275 
L 504.122778 -149.968701 
L 505.681296 -148.529324 
L 507.239815 -147.775234 
L 508.798333 -148.090707 
L 510.356852 -148.368143 
L 511.91537 -149.066947 
L 513.473889 -149.960308 
L 515.032407 -153.179958 
L 516.590926 -155.52508 
L 518.149444 -155.018877 
L 519.707963 -156.303215 
L 521.266481 -157.373187 
L 522.825 -158.834267 
L 522.825 -163.175749 
L 522.825 -163.175749 
L 521.266481 -161.967904 
L 519.707963 -161.918389 
L 518.149444 -160.301646 
L 516.590926 -160.961039 
L 515.032407 -158.86422 
L 513.473889 -155.749608 
L 511.91537 -155.060135 
L 510.356852 -153.089353 
L 508.798333 -153.172735 
L 507.239815 -152.346825 
L 505.681296 -153.58832 
L 504.122778 -155.55009 
L 502.564259 -155.305997 
L 501.005741 -157.884187 
L 499.447222 -161.946348 
L 497.888704 -162.786849 
L 496.330185 -161.008819 
L 494.771667 -161.586541 
L 493.213148 -164.367267 
L 491.65463 -162.982979 
L 490.096111 -163.062619 
L 488.537593 -159.999851 
L 486.979074 -157.068101 
L 485.420556 -158.455464 
L 483.862037 -157.516558 
L 482.303519 -159.569176 
L 480.745 -156.330966 
L 479.186481 -156.182865 
L 477.627963 -160.367144 
L 476.069444 -162.106051 
L 474.510926 -160.379397 
L 472.952407 -159.465543 
L 471.393889 -157.808836 
L 469.83537 -159.398369 
L 468.276852 -161.15665 
L 466.718333 -157.041102 
L 465.159815 -159.726445 
L 463.601296 -159.419157 
L 462.042778 -160.209454 
L 460.484259 -159.193465 
L 458.925741 -154.534093 
L 457.367222 -153.1006 
L 455.808704 -151.59836 
L 454.250185 -152.858435 
L 452.691667 -150.228644 
L 451.133148 -151.925525 
L 449.57463 -156.251099 
L 448.016111 -157.593816 
L 446.457593 -158.982214 
L 444.899074 -160.909777 
L 443.340556 -162.419897 
L 441.782037 -161.932329 
L 440.223519 -157.230585 
L 438.665 -156.286526 
L 437.106481 -154.54431 
L 435.547963 -152.277505 
L 433.989444 -151.728558 
L 432.430926 -156.984731 
L 430.872407 -157.708895 
L 429.313889 -158.035109 
L 427.75537 -161.157451 
L 426.196852 -161.84646 
L 424.638333 -161.763679 
L 423.079815 -160.51511 
L 421.521296 -158.844058 
L 419.962778 -158.467781 
L 418.404259 -155.303629 
L 416.845741 -152.754229 
L 415.287222 -151.440845 
L 413.728704 -150.396263 
L 412.170185 -152.109253 
L 410.611667 -154.032231 
L 409.053148 -156.016454 
L 407.49463 -156.893446 
L 405.936111 -162.456961 
L 404.377593 -163.807155 
L 402.819074 -164.128145 
L 401.260556 -161.787843 
L 399.702037 -161.171502 
L 398.143519 -161.243819 
L 396.585 -156.681241 
L 395.026481 -153.873636 
L 393.467963 -151.792581 
L 391.909444 -155.623562 
L 390.350926 -155.882004 
L 388.792407 -157.446671 
L 387.233889 -159.049383 
L 385.67537 -161.487605 
L 384.116852 -163.121868 
L 382.558333 -163.100676 
z
" id="m0970039b07" style="stroke:#00bfbf;"/>
    </defs>
    <g clip-path="url(#pd194e69bc1)">
     <use style="fill:#00bfbf;stroke:#00bfbf;" x="0" xlink:href="#m0970039b07" y="288"/>
    </g>
   </g>
   <g id="matplotlib.axis_5">
    <g id="xtick_11">
     <g id="line2d_20">
      <g>
       <use style="stroke:#000000;stroke-width:0.8;" x="382.558333" xlink:href="#m3013b3e49d" y="242.2"/>
      </g>
     </g>
     <g id="text_27">
      <!-- −90 -->
      <g transform="translate(372.00599 256.798437)scale(0.1 -0.1)">
       <use xlink:href="#DejaVuSans-8722"/>
       <use x="83.789062" xlink:href="#DejaVuSans-57"/>
       <use x="147.412109" xlink:href="#DejaVuSans-48"/>
      </g>
     </g>
    </g>
    <g id="xtick_12">
     <g id="line2d_21">
      <g>
       <use style="stroke:#000000;stroke-width:0.8;" x="417.625" xlink:href="#m3013b3e49d" y="242.2"/>
      </g>
     </g>
     <g id="text_28">
      <!-- −45 -->
      <g transform="translate(407.072656 256.798437)scale(0.1 -0.1)">
       <use xlink:href="#DejaVuSans-8722"/>
       <use x="83.789062" xlink:href="#DejaVuSans-52"/>
       <use x="147.412109" xlink:href="#DejaVuSans-53"/>
      </g>
     </g>
    </g>
    <g id="xtick_13">
     <g id="line2d_22">
      <g>
       <use style="stroke:#000000;stroke-width:0.8;" x="452.691667" xlink:href="#m3013b3e49d" y="242.2"/>
      </g>
     </g>
     <g id="text_29">
      <!-- 0 -->
      <g transform="translate(449.510417 256.798437)scale(0.1 -0.1)">
       <use xlink:href="#DejaVuSans-48"/>
      </g>
     </g>
    </g>
    <g id="xtick_14">
     <g id="line2d_23">
      <g>
       <use style="stroke:#000000;stroke-width:0.8;" x="487.758333" xlink:href="#m3013b3e49d" y="242.2"/>
      </g>
     </g>
     <g id="text_30">
      <!-- 45 -->
      <g transform="translate(481.395833 256.798437)scale(0.1 -0.1)">
       <use xlink:href="#DejaVuSans-52"/>
       <use x="63.623047" xlink:href="#DejaVuSans-53"/>
      </g>
     </g>
    </g>
    <g id="xtick_15">
     <g id="line2d_24">
      <g>
       <use style="stroke:#000000;stroke-width:0.8;" x="522.825" xlink:href="#m3013b3e49d" y="242.2"/>
      </g>
     </g>
     <g id="text_31">
      <!-- 90 -->
      <g transform="translate(516.4625 256.798437)scale(0.1 -0.1)">
       <use xlink:href="#DejaVuSans-57"/>
       <use x="63.623047" xlink:href="#DejaVuSans-48"/>
      </g>
     </g>
    </g>
    <g id="text_32">
     <!-- $\Delta \theta$ (deg) -->
     <g transform="translate(431.291667 270.578125)scale(0.1 -0.1)">
      <use transform="translate(0 0.234375)" xlink:href="#DejaVuSans-916"/>
      <use transform="translate(68.408203 0.234375)" xlink:href="#DejaVuSans-Oblique-952"/>
      <use transform="translate(129.589844 0.234375)" xlink:href="#DejaVuSans-32"/>
      <use transform="translate(161.376953 0.234375)" xlink:href="#DejaVuSans-40"/>
      <use transform="translate(200.390625 0.234375)" xlink:href="#DejaVuSans-100"/>
      <use transform="translate(263.867188 0.234375)" xlink:href="#DejaVuSans-101"/>
      <use transform="translate(325.390625 0.234375)" xlink:href="#DejaVuSans-103"/>
      <use transform="translate(388.867188 0.234375)" xlink:href="#DejaVuSans-41"/>
     </g>
    </g>
   </g>
   <g id="matplotlib.axis_6"/>
   <g id="line2d_25">
    <path clip-path="url(#pd194e69bc1)" d="M 382.558333 134.5 
L 522.825 134.5 
" style="fill:none;stroke:#000000;stroke-dasharray:5.55,2.4;stroke-dashoffset:0;stroke-width:1.5;"/>
   </g>
   <g id="line2d_26">
    <path clip-path="url(#pd194e69bc1)" d="M 452.691667 242.2 
L 452.691667 26.8 
" style="fill:none;stroke:#0000ff;stroke-dasharray:5.55,2.4;stroke-dashoffset:0;stroke-width:1.5;"/>
   </g>
   <g id="patch_13">
    <path d="M 382.558333 242.2 
L 382.558333 26.8 
" style="fill:none;stroke:#000000;stroke-linecap:square;stroke-linejoin:miter;stroke-width:0.8;"/>
   </g>
   <g id="patch_14">
    <path d="M 522.825 242.2 
L 522.825 26.8 
" style="fill:none;stroke:#000000;stroke-linecap:square;stroke-linejoin:miter;stroke-width:0.8;"/>
   </g>
   <g id="patch_15">
    <path d="M 382.558333 242.2 
L 522.825 242.2 
" style="fill:none;stroke:#000000;stroke-linecap:square;stroke-linejoin:miter;stroke-width:0.8;"/>
   </g>
   <g id="patch_16">
    <path d="M 382.558333 26.8 
L 522.825 26.8 
" style="fill:none;stroke:#000000;stroke-linecap:square;stroke-linejoin:miter;stroke-width:0.8;"/>
   </g>
   <g id="text_33">
    <!-- Yes E Corrected -->
    <g transform="translate(386.45463 47.314286)scale(0.1 -0.1)">
     <defs>
      <path d="M -0.203125 72.90625 
L 10.40625 72.90625 
L 30.609375 42.921875 
L 50.6875 72.90625 
L 61.28125 72.90625 
L 35.5 34.71875 
L 35.5 0 
L 25.59375 0 
L 25.59375 34.71875 
z
" id="DejaVuSans-89"/>
      <path d="M 9.8125 72.90625 
L 55.90625 72.90625 
L 55.90625 64.59375 
L 19.671875 64.59375 
L 19.671875 43.015625 
L 54.390625 43.015625 
L 54.390625 34.71875 
L 19.671875 34.71875 
L 19.671875 8.296875 
L 56.78125 8.296875 
L 56.78125 0 
L 9.8125 0 
z
" id="DejaVuSans-69"/>
      <path d="M 64.40625 67.28125 
L 64.40625 56.890625 
Q 59.421875 61.53125 53.78125 63.8125 
Q 48.140625 66.109375 41.796875 66.109375 
Q 29.296875 66.109375 22.65625 58.46875 
Q 16.015625 50.828125 16.015625 36.375 
Q 16.015625 21.96875 22.65625 14.328125 
Q 29.296875 6.6875 41.796875 6.6875 
Q 48.140625 6.6875 53.78125 8.984375 
Q 59.421875 11.28125 64.40625 15.921875 
L 64.40625 5.609375 
Q 59.234375 2.09375 53.4375 0.328125 
Q 47.65625 -1.421875 41.21875 -1.421875 
Q 24.65625 -1.421875 15.125 8.703125 
Q 5.609375 18.84375 5.609375 36.375 
Q 5.609375 53.953125 15.125 64.078125 
Q 24.65625 74.21875 41.21875 74.21875 
Q 47.75 74.21875 53.53125 72.484375 
Q 59.328125 70.75 64.40625 67.28125 
z
" id="DejaVuSans-67"/>
      <path d="M 30.609375 48.390625 
Q 23.390625 48.390625 19.1875 42.75 
Q 14.984375 37.109375 14.984375 27.296875 
Q 14.984375 17.484375 19.15625 11.84375 
Q 23.34375 6.203125 30.609375 6.203125 
Q 37.796875 6.203125 41.984375 11.859375 
Q 46.1875 17.53125 46.1875 27.296875 
Q 46.1875 37.015625 41.984375 42.703125 
Q 37.796875 48.390625 30.609375 48.390625 
z
M 30.609375 56 
Q 42.328125 56 49.015625 48.375 
Q 55.71875 40.765625 55.71875 27.296875 
Q 55.71875 13.875 49.015625 6.21875 
Q 42.328125 -1.421875 30.609375 -1.421875 
Q 18.84375 -1.421875 12.171875 6.21875 
Q 5.515625 13.875 5.515625 27.296875 
Q 5.515625 40.765625 12.171875 48.375 
Q 18.84375 56 30.609375 56 
z
" id="DejaVuSans-111"/>
      <path d="M 41.109375 46.296875 
Q 39.59375 47.171875 37.8125 47.578125 
Q 36.03125 48 33.890625 48 
Q 26.265625 48 22.1875 43.046875 
Q 18.109375 38.09375 18.109375 28.8125 
L 18.109375 0 
L 9.078125 0 
L 9.078125 54.6875 
L 18.109375 54.6875 
L 18.109375 46.1875 
Q 20.953125 51.171875 25.484375 53.578125 
Q 30.03125 56 36.53125 56 
Q 37.453125 56 38.578125 55.875 
Q 39.703125 55.765625 41.0625 55.515625 
z
" id="DejaVuSans-114"/>
      <path d="M 48.78125 52.59375 
L 48.78125 44.1875 
Q 44.96875 46.296875 41.140625 47.34375 
Q 37.3125 48.390625 33.40625 48.390625 
Q 24.65625 48.390625 19.8125 42.84375 
Q 14.984375 37.3125 14.984375 27.296875 
Q 14.984375 17.28125 19.8125 11.734375 
Q 24.65625 6.203125 33.40625 6.203125 
Q 37.3125 6.203125 41.140625 7.25 
Q 44.96875 8.296875 48.78125 10.40625 
L 48.78125 2.09375 
Q 45.015625 0.34375 40.984375 -0.53125 
Q 36.96875 -1.421875 32.421875 -1.421875 
Q 20.0625 -1.421875 12.78125 6.34375 
Q 5.515625 14.109375 5.515625 27.296875 
Q 5.515625 40.671875 12.859375 48.328125 
Q 20.21875 56 33.015625 56 
Q 37.15625 56 41.109375 55.140625 
Q 45.0625 54.296875 48.78125 52.59375 
z
" id="DejaVuSans-99"/>
     </defs>
     <use xlink:href="#DejaVuSans-89"/>
     <use x="47.833984" xlink:href="#DejaVuSans-101"/>
     <use x="109.357422" xlink:href="#DejaVuSans-115"/>
     <use x="161.457031" xlink:href="#DejaVuSans-32"/>
     <use x="193.244141" xlink:href="#DejaVuSans-69"/>
     <use x="256.427734" xlink:href="#DejaVuSans-32"/>
     <use x="288.214844" xlink:href="#DejaVuSans-67"/>
     <use x="358.039062" xlink:href="#DejaVuSans-111"/>
     <use x="419.220703" xlink:href="#DejaVuSans-114"/>
     <use x="458.583984" xlink:href="#DejaVuSans-114"/>
     <use x="497.447266" xlink:href="#DejaVuSans-101"/>
     <use x="558.970703" xlink:href="#DejaVuSans-99"/>
     <use x="613.951172" xlink:href="#DejaVuSans-116"/>
     <use x="653.160156" xlink:href="#DejaVuSans-101"/>
     <use x="714.683594" xlink:href="#DejaVuSans-100"/>
    </g>
   </g>
   <g id="text_34">
    <!-- No resp Corrected -->
    <g transform="translate(386.45463 67.828571)scale(0.1 -0.1)">
     <defs>
      <path d="M 9.8125 72.90625 
L 23.09375 72.90625 
L 55.421875 11.921875 
L 55.421875 72.90625 
L 64.984375 72.90625 
L 64.984375 0 
L 51.703125 0 
L 19.390625 60.984375 
L 19.390625 0 
L 9.8125 0 
z
" id="DejaVuSans-78"/>
     </defs>
     <use xlink:href="#DejaVuSans-78"/>
     <use x="74.804688" xlink:href="#DejaVuSans-111"/>
     <use x="135.986328" xlink:href="#DejaVuSans-32"/>
     <use x="167.773438" xlink:href="#DejaVuSans-114"/>
     <use x="206.636719" xlink:href="#DejaVuSans-101"/>
     <use x="268.160156" xlink:href="#DejaVuSans-115"/>
     <use x="320.259766" xlink:href="#DejaVuSans-112"/>
     <use x="383.736328" xlink:href="#DejaVuSans-32"/>
     <use x="415.523438" xlink:href="#DejaVuSans-67"/>
     <use x="485.347656" xlink:href="#DejaVuSans-111"/>
     <use x="546.529297" xlink:href="#DejaVuSans-114"/>
     <use x="585.892578" xlink:href="#DejaVuSans-114"/>
     <use x="624.755859" xlink:href="#DejaVuSans-101"/>
     <use x="686.279297" xlink:href="#DejaVuSans-99"/>
     <use x="741.259766" xlink:href="#DejaVuSans-116"/>
     <use x="780.46875" xlink:href="#DejaVuSans-101"/>
     <use x="841.992188" xlink:href="#DejaVuSans-100"/>
    </g>
   </g>
   <g id="text_35">
    <!-- (-) AutoCorr -->
    <g transform="translate(386.45463 221.685714)scale(0.1 -0.1)">
     <defs>
      <path d="M 34.1875 63.1875 
L 20.796875 26.90625 
L 47.609375 26.90625 
z
M 28.609375 72.90625 
L 39.796875 72.90625 
L 67.578125 0 
L 57.328125 0 
L 50.6875 18.703125 
L 17.828125 18.703125 
L 11.1875 0 
L 0.78125 0 
z
" id="DejaVuSans-65"/>
      <path d="M 8.5 21.578125 
L 8.5 54.6875 
L 17.484375 54.6875 
L 17.484375 21.921875 
Q 17.484375 14.15625 20.5 10.265625 
Q 23.53125 6.390625 29.59375 6.390625 
Q 36.859375 6.390625 41.078125 11.03125 
Q 45.3125 15.671875 45.3125 23.6875 
L 45.3125 54.6875 
L 54.296875 54.6875 
L 54.296875 0 
L 45.3125 0 
L 45.3125 8.40625 
Q 42.046875 3.421875 37.71875 1 
Q 33.40625 -1.421875 27.6875 -1.421875 
Q 18.265625 -1.421875 13.375 4.4375 
Q 8.5 10.296875 8.5 21.578125 
z
M 31.109375 56 
z
" id="DejaVuSans-117"/>
     </defs>
     <use xlink:href="#DejaVuSans-40"/>
     <use x="39.013672" xlink:href="#DejaVuSans-45"/>
     <use x="75.097656" xlink:href="#DejaVuSans-41"/>
     <use x="114.111328" xlink:href="#DejaVuSans-32"/>
     <use x="145.898438" xlink:href="#DejaVuSans-65"/>
     <use x="214.306641" xlink:href="#DejaVuSans-117"/>
     <use x="277.685547" xlink:href="#DejaVuSans-116"/>
     <use x="316.894531" xlink:href="#DejaVuSans-111"/>
     <use x="378.076172" xlink:href="#DejaVuSans-67"/>
     <use x="447.900391" xlink:href="#DejaVuSans-111"/>
     <use x="509.082031" xlink:href="#DejaVuSans-114"/>
     <use x="548.445312" xlink:href="#DejaVuSans-114"/>
    </g>
   </g>
   <g id="text_36">
    <!-- Yes CB Yes Oblique -->
    <g transform="translate(386.45463 201.171429)scale(0.1 -0.1)">
     <defs>
      <path d="M 39.40625 66.21875 
Q 28.65625 66.21875 22.328125 58.203125 
Q 16.015625 50.203125 16.015625 36.375 
Q 16.015625 22.609375 22.328125 14.59375 
Q 28.65625 6.59375 39.40625 6.59375 
Q 50.140625 6.59375 56.421875 14.59375 
Q 62.703125 22.609375 62.703125 36.375 
Q 62.703125 50.203125 56.421875 58.203125 
Q 50.140625 66.21875 39.40625 66.21875 
z
M 39.40625 74.21875 
Q 54.734375 74.21875 63.90625 63.9375 
Q 73.09375 53.65625 73.09375 36.375 
Q 73.09375 19.140625 63.90625 8.859375 
Q 54.734375 -1.421875 39.40625 -1.421875 
Q 24.03125 -1.421875 14.8125 8.828125 
Q 5.609375 19.09375 5.609375 36.375 
Q 5.609375 53.65625 14.8125 63.9375 
Q 24.03125 74.21875 39.40625 74.21875 
z
" id="DejaVuSans-79"/>
      <path d="M 9.421875 75.984375 
L 18.40625 75.984375 
L 18.40625 0 
L 9.421875 0 
z
" id="DejaVuSans-108"/>
      <path d="M 14.796875 27.296875 
Q 14.796875 17.390625 18.875 11.75 
Q 22.953125 6.109375 30.078125 6.109375 
Q 37.203125 6.109375 41.296875 11.75 
Q 45.40625 17.390625 45.40625 27.296875 
Q 45.40625 37.203125 41.296875 42.84375 
Q 37.203125 48.484375 30.078125 48.484375 
Q 22.953125 48.484375 18.875 42.84375 
Q 14.796875 37.203125 14.796875 27.296875 
z
M 45.40625 8.203125 
Q 42.578125 3.328125 38.25 0.953125 
Q 33.9375 -1.421875 27.875 -1.421875 
Q 17.96875 -1.421875 11.734375 6.484375 
Q 5.515625 14.40625 5.515625 27.296875 
Q 5.515625 40.1875 11.734375 48.09375 
Q 17.96875 56 27.875 56 
Q 33.9375 56 38.25 53.625 
Q 42.578125 51.265625 45.40625 46.390625 
L 45.40625 54.6875 
L 54.390625 54.6875 
L 54.390625 -20.796875 
L 45.40625 -20.796875 
z
" id="DejaVuSans-113"/>
     </defs>
     <use xlink:href="#DejaVuSans-89"/>
     <use x="47.833984" xlink:href="#DejaVuSans-101"/>
     <use x="109.357422" xlink:href="#DejaVuSans-115"/>
     <use x="161.457031" xlink:href="#DejaVuSans-32"/>
     <use x="193.244141" xlink:href="#DejaVuSans-67"/>
     <use x="263.068359" xlink:href="#DejaVuSans-66"/>
     <use x="331.671875" xlink:href="#DejaVuSans-32"/>
     <use x="363.458984" xlink:href="#DejaVuSans-89"/>
     <use x="411.292969" xlink:href="#DejaVuSans-101"/>
     <use x="472.816406" xlink:href="#DejaVuSans-115"/>
     <use x="524.916016" xlink:href="#DejaVuSans-32"/>
     <use x="556.703125" xlink:href="#DejaVuSans-79"/>
     <use x="635.414062" xlink:href="#DejaVuSans-98"/>
     <use x="698.890625" xlink:href="#DejaVuSans-108"/>
     <use x="726.673828" xlink:href="#DejaVuSans-105"/>
     <use x="754.457031" xlink:href="#DejaVuSans-113"/>
     <use x="817.933594" xlink:href="#DejaVuSans-117"/>
     <use x="881.3125" xlink:href="#DejaVuSans-101"/>
    </g>
   </g>
   <g id="text_37">
    <!-- nb:-1 | No SD -->
    <g transform="translate(412.745729 20.8)scale(0.12 -0.12)">
     <use xlink:href="#DejaVuSans-110"/>
     <use x="63.378906" xlink:href="#DejaVuSans-98"/>
     <use x="126.855469" xlink:href="#DejaVuSans-58"/>
     <use x="160.546875" xlink:href="#DejaVuSans-45"/>
     <use x="196.630859" xlink:href="#DejaVuSans-49"/>
     <use x="260.253906" xlink:href="#DejaVuSans-32"/>
     <use x="292.041016" xlink:href="#DejaVuSans-124"/>
     <use x="325.732422" xlink:href="#DejaVuSans-32"/>
     <use x="357.519531" xlink:href="#DejaVuSans-78"/>
     <use x="432.324219" xlink:href="#DejaVuSans-111"/>
     <use x="493.505859" xlink:href="#DejaVuSans-32"/>
     <use x="525.292969" xlink:href="#DejaVuSans-83"/>
     <use x="588.769531" xlink:href="#DejaVuSans-68"/>
    </g>
   </g>
  </g>
 </g>
 <defs>
  <clipPath id="p134059cea9">
   <rect height="215.4" width="140.266667" x="46.55" y="26.8"/>
  </clipPath>
  <clipPath id="p42d6bee6c7">
   <rect height="215.4" width="140.266667" x="214.554167" y="26.8"/>
  </clipPath>
  <clipPath id="pd194e69bc1">
   <rect height="215.4" width="140.266667" x="382.558333" y="26.8"/>
  </clipPath>
 </defs>
</svg>
