<?xml version="1.0" encoding="utf-8" standalone="no"?>
<!DOCTYPE svg PUBLIC "-//W3C//DTD SVG 1.1//EN"
  "http://www.w3.org/Graphics/SVG/1.1/DTD/svg11.dtd">
<!-- Created with matplotlib (https://matplotlib.org/) -->
<svg height="288pt" version="1.1" viewBox="0 0 540 288" width="540pt" xmlns="http://www.w3.org/2000/svg" xmlns:xlink="http://www.w3.org/1999/xlink">
 <metadata>
  <rdf:RDF xmlns:cc="http://creativecommons.org/ns#" xmlns:dc="http://purl.org/dc/elements/1.1/" xmlns:rdf="http://www.w3.org/1999/02/22-rdf-syntax-ns#">
   <cc:Work>
    <dc:type rdf:resource="http://purl.org/dc/dcmitype/StillImage"/>
    <dc:date>2022-12-29T20:56:00.281590</dc:date>
    <dc:format>image/svg+xml</dc:format>
    <dc:creator>
     <cc:Agent>
      <dc:title>Matplotlib v3.3.1, https://matplotlib.org/</dc:title>
     </cc:Agent>
    </dc:creator>
   </cc:Work>
  </rdf:RDF>
 </metadata>
 <defs>
  <style type="text/css">*{stroke-linecap:butt;stroke-linejoin:round;}</style>
 </defs>
 <g id="figure_1">
  <g id="patch_1">
   <path d="M 0 288 
L 540 288 
L 540 0 
L 0 0 
z
" style="fill:none;"/>
  </g>
  <g id="axes_1">
   <g id="patch_2">
    <path d="M 46.55 242.2 
L 186.816667 242.2 
L 186.816667 26.8 
L 46.55 26.8 
z
" style="fill:#ffffff;"/>
   </g>
   <g id="PolyCollection_1">
    <defs>
     <path d="M 46.55 -154.907629 
L 46.55 -149.470867 
L 48.108519 -148.256991 
L 49.667037 -148.380442 
L 51.225556 -148.110575 
L 52.784074 -149.940938 
L 54.342593 -148.824137 
L 55.901111 -150.346781 
L 57.45963 -149.628481 
L 59.018148 -150.613331 
L 60.576667 -152.714292 
L 62.135185 -155.230333 
L 63.693704 -154.073622 
L 65.252222 -153.479013 
L 66.810741 -152.449437 
L 68.369259 -150.917288 
L 69.927778 -150.077737 
L 71.486296 -146.457953 
L 73.044815 -143.684887 
L 74.603333 -142.100095 
L 76.161852 -141.184837 
L 77.72037 -142.199729 
L 79.278889 -135.694605 
L 80.837407 -129.165128 
L 82.395926 -124.834707 
L 83.954444 -120.308537 
L 85.512963 -109.724965 
L 87.071481 -102.051099 
L 88.63 -104.597845 
L 90.188519 -100.943619 
L 91.747037 -91.322414 
L 93.305556 -79.260565 
L 94.864074 -77.223187 
L 96.422593 -76.314427 
L 97.981111 -72.330793 
L 99.53963 -74.664945 
L 101.098148 -75.993943 
L 102.656667 -83.270855 
L 104.215185 -85.329886 
L 105.773704 -92.673669 
L 107.332222 -99.34709 
L 108.890741 -105.228089 
L 110.449259 -112.919314 
L 112.007778 -121.862291 
L 113.566296 -132.879516 
L 115.124815 -136.71243 
L 116.683333 -147.839843 
L 118.241852 -159.083812 
L 119.80037 -170.723267 
L 121.358889 -180.379969 
L 122.917407 -187.433977 
L 124.475926 -199.212186 
L 126.034444 -204.874779 
L 127.592963 -210.833356 
L 129.151481 -215.532691 
L 130.71 -220.387126 
L 132.268519 -223.720009 
L 133.827037 -222.335566 
L 135.385556 -217.878789 
L 136.944074 -214.390414 
L 138.502593 -217.726496 
L 140.061111 -205.500485 
L 141.61963 -203.214472 
L 143.178148 -192.903584 
L 144.736667 -189.045343 
L 146.295185 -182.765178 
L 147.853704 -168.963532 
L 149.412222 -165.18877 
L 150.970741 -160.450217 
L 152.529259 -161.398184 
L 154.087778 -159.201935 
L 155.646296 -158.759287 
L 157.204815 -157.57109 
L 158.763333 -160.870048 
L 160.321852 -160.220258 
L 161.88037 -156.589316 
L 163.438889 -154.542173 
L 164.997407 -151.572029 
L 166.555926 -149.889066 
L 168.114444 -147.969853 
L 169.672963 -151.267333 
L 171.231481 -151.641713 
L 172.79 -150.955053 
L 174.348519 -153.423106 
L 175.907037 -152.88819 
L 177.465556 -152.426387 
L 179.024074 -150.186011 
L 180.582593 -151.706234 
L 182.141111 -152.045961 
L 183.69963 -150.151836 
L 185.258148 -149.661025 
L 186.816667 -150.994602 
L 186.816667 -156.553931 
L 186.816667 -156.553931 
L 185.258148 -155.329281 
L 183.69963 -155.5531 
L 182.141111 -156.527501 
L 180.582593 -156.559946 
L 179.024074 -155.047073 
L 177.465556 -157.237247 
L 175.907037 -157.356478 
L 174.348519 -158.274771 
L 172.79 -157.139823 
L 171.231481 -158.460678 
L 169.672963 -156.716636 
L 168.114444 -153.687457 
L 166.555926 -156.39953 
L 164.997407 -157.582543 
L 163.438889 -160.37019 
L 161.88037 -162.760632 
L 160.321852 -167.356663 
L 158.763333 -167.823549 
L 157.204815 -165.539726 
L 155.646296 -166.987276 
L 154.087778 -167.178718 
L 152.529259 -170.73627 
L 150.970741 -169.098151 
L 149.412222 -174.962124 
L 147.853704 -180.657124 
L 146.295185 -193.629844 
L 144.736667 -200.565834 
L 143.178148 -204.544953 
L 141.61963 -214.141223 
L 140.061111 -219.501412 
L 138.502593 -230.789156 
L 136.944074 -225.700293 
L 135.385556 -227.734031 
L 133.827037 -232.149265 
L 132.268519 -232.202492 
L 130.71 -227.179146 
L 129.151481 -221.595881 
L 127.592963 -217.480237 
L 126.034444 -211.318249 
L 124.475926 -206.051863 
L 122.917407 -194.121682 
L 121.358889 -187.771309 
L 119.80037 -178.119056 
L 118.241852 -167.209355 
L 116.683333 -156.437337 
L 115.124815 -145.025138 
L 113.566296 -139.820471 
L 112.007778 -128.520121 
L 110.449259 -119.231295 
L 108.890741 -111.550095 
L 107.332222 -105.246964 
L 105.773704 -99.476714 
L 104.215185 -92.548424 
L 102.656667 -90.932284 
L 101.098148 -84.401571 
L 99.53963 -83.965238 
L 97.981111 -81.62606 
L 96.422593 -88.802353 
L 94.864074 -89.527648 
L 93.305556 -92.456047 
L 91.747037 -103.14813 
L 90.188519 -112.526625 
L 88.63 -114.697322 
L 87.071481 -113.244005 
L 85.512963 -122.0176 
L 83.954444 -130.255688 
L 82.395926 -134.010808 
L 80.837407 -137.719497 
L 79.278889 -144.476365 
L 77.72037 -149.890033 
L 76.161852 -149.302238 
L 74.603333 -150.252071 
L 73.044815 -152.153704 
L 71.486296 -152.992888 
L 69.927778 -156.844323 
L 68.369259 -156.850879 
L 66.810741 -158.333859 
L 65.252222 -160.013565 
L 63.693704 -160.332704 
L 62.135185 -160.382422 
L 60.576667 -157.644764 
L 59.018148 -155.628937 
L 57.45963 -154.605586 
L 55.901111 -154.484628 
L 54.342593 -153.086702 
L 52.784074 -155.235934 
L 51.225556 -153.75601 
L 49.667037 -154.036086 
L 48.108519 -153.956725 
L 46.55 -154.907629 
z
" id="mfbb2c73598" style="stroke:#000000;"/>
    </defs>
    <g clip-path="url(#pd4e1ab7e22)">
     <use style="stroke:#000000;" x="0" xlink:href="#mfbb2c73598" y="288"/>
    </g>
   </g>
   <g id="PolyCollection_2">
    <defs>
     <path d="M 46.55 -156.284611 
L 46.55 -149.256316 
L 48.108519 -150.25371 
L 49.667037 -151.137178 
L 51.225556 -149.122633 
L 52.784074 -150.800107 
L 54.342593 -147.969821 
L 55.901111 -148.27534 
L 57.45963 -150.186283 
L 59.018148 -150.991206 
L 60.576667 -152.753168 
L 62.135185 -152.662572 
L 63.693704 -151.476002 
L 65.252222 -150.588456 
L 66.810741 -148.854931 
L 68.369259 -148.030431 
L 69.927778 -150.931789 
L 71.486296 -147.390231 
L 73.044815 -144.999818 
L 74.603333 -143.019218 
L 76.161852 -142.347171 
L 77.72037 -138.471722 
L 79.278889 -132.827051 
L 80.837407 -129.934881 
L 82.395926 -127.473633 
L 83.954444 -125.441872 
L 85.512963 -120.430966 
L 87.071481 -116.508912 
L 88.63 -109.965619 
L 90.188519 -113.334072 
L 91.747037 -111.867082 
L 93.305556 -103.327378 
L 94.864074 -101.674024 
L 96.422593 -101.236906 
L 97.981111 -99.944066 
L 99.53963 -97.028771 
L 101.098148 -93.032605 
L 102.656667 -99.821225 
L 104.215185 -96.790745 
L 105.773704 -99.981446 
L 107.332222 -106.728806 
L 108.890741 -114.985061 
L 110.449259 -122.628152 
L 112.007778 -125.739484 
L 113.566296 -133.596679 
L 115.124815 -141.431958 
L 116.683333 -147.773085 
L 118.241852 -155.454652 
L 119.80037 -158.564759 
L 121.358889 -165.058312 
L 122.917407 -170.120533 
L 124.475926 -175.669013 
L 126.034444 -179.471231 
L 127.592963 -186.009882 
L 129.151481 -190.687759 
L 130.71 -192.030724 
L 132.268519 -191.168008 
L 133.827037 -194.302657 
L 135.385556 -198.51364 
L 136.944074 -200.103993 
L 138.502593 -192.971674 
L 140.061111 -193.98749 
L 141.61963 -190.177678 
L 143.178148 -184.659074 
L 144.736667 -181.634402 
L 146.295185 -173.975685 
L 147.853704 -173.87061 
L 149.412222 -170.663525 
L 150.970741 -167.468671 
L 152.529259 -165.741818 
L 154.087778 -157.48894 
L 155.646296 -156.70436 
L 157.204815 -154.412547 
L 158.763333 -151.531599 
L 160.321852 -151.314811 
L 161.88037 -150.454928 
L 163.438889 -151.18306 
L 164.997407 -149.442504 
L 166.555926 -151.897785 
L 168.114444 -154.871389 
L 169.672963 -156.520961 
L 171.231481 -154.575649 
L 172.79 -153.701244 
L 174.348519 -153.817331 
L 175.907037 -153.947521 
L 177.465556 -153.228762 
L 179.024074 -151.770674 
L 180.582593 -151.748043 
L 182.141111 -151.23745 
L 183.69963 -150.48723 
L 185.258148 -147.768104 
L 186.816667 -149.765045 
L 186.816667 -155.552777 
L 186.816667 -155.552777 
L 185.258148 -154.644321 
L 183.69963 -156.786001 
L 182.141111 -156.556399 
L 180.582593 -157.602944 
L 179.024074 -157.340017 
L 177.465556 -159.100077 
L 175.907037 -159.541547 
L 174.348519 -159.446823 
L 172.79 -158.834995 
L 171.231481 -159.551588 
L 169.672963 -161.810845 
L 168.114444 -160.613829 
L 166.555926 -157.702977 
L 164.997407 -155.860574 
L 163.438889 -158.642681 
L 161.88037 -158.409242 
L 160.321852 -158.8798 
L 158.763333 -159.245432 
L 157.204815 -163.688023 
L 155.646296 -165.699064 
L 154.087778 -167.475511 
L 152.529259 -174.598628 
L 150.970741 -175.316261 
L 149.412222 -176.804911 
L 147.853704 -182.65536 
L 146.295185 -182.742759 
L 144.736667 -190.246595 
L 143.178148 -192.392091 
L 141.61963 -199.498179 
L 140.061111 -203.735748 
L 138.502593 -204.013968 
L 136.944074 -211.440066 
L 135.385556 -210.633559 
L 133.827037 -207.04838 
L 132.268519 -202.431909 
L 130.71 -203.686325 
L 129.151481 -202.37281 
L 127.592963 -196.343032 
L 126.034444 -191.315091 
L 124.475926 -186.767372 
L 122.917407 -181.493439 
L 121.358889 -175.315815 
L 119.80037 -168.572398 
L 118.241852 -165.602905 
L 116.683333 -158.608925 
L 115.124815 -152.667614 
L 113.566296 -145.309513 
L 112.007778 -136.641412 
L 110.449259 -134.716277 
L 108.890741 -126.688203 
L 107.332222 -117.992122 
L 105.773704 -110.128318 
L 104.215185 -106.413731 
L 102.656667 -109.85496 
L 101.098148 -104.495219 
L 99.53963 -108.495206 
L 97.981111 -112.104008 
L 96.422593 -112.352232 
L 94.864074 -112.055032 
L 93.305556 -113.392425 
L 91.747037 -121.7334 
L 90.188519 -124.401782 
L 88.63 -120.653125 
L 87.071481 -126.60947 
L 85.512963 -129.19717 
L 83.954444 -134.301977 
L 82.395926 -136.313988 
L 80.837407 -138.452214 
L 79.278889 -140.330663 
L 77.72037 -146.673324 
L 76.161852 -150.297846 
L 74.603333 -149.749926 
L 73.044815 -150.173802 
L 71.486296 -152.784785 
L 69.927778 -155.616893 
L 68.369259 -153.350472 
L 66.810741 -154.2098 
L 65.252222 -156.614833 
L 63.693704 -157.607262 
L 62.135185 -158.590775 
L 60.576667 -157.945001 
L 59.018148 -156.722235 
L 57.45963 -155.550643 
L 55.901111 -153.706318 
L 54.342593 -152.819698 
L 52.784074 -155.496112 
L 51.225556 -154.468031 
L 49.667037 -157.700679 
L 48.108519 -156.061221 
L 46.55 -156.284611 
z
" id="me8555ffc22" style="stroke:#00bfbf;"/>
    </defs>
    <g clip-path="url(#pd4e1ab7e22)">
     <use style="fill:#00bfbf;stroke:#00bfbf;" x="0" xlink:href="#me8555ffc22" y="288"/>
    </g>
   </g>
   <g id="matplotlib.axis_1">
    <g id="xtick_1">
     <g id="line2d_1">
      <defs>
       <path d="M 0 0 
L 0 3.5 
" id="m4d5ae54f21" style="stroke:#000000;stroke-width:0.8;"/>
      </defs>
      <g>
       <use style="stroke:#000000;stroke-width:0.8;" x="46.55" xlink:href="#m4d5ae54f21" y="242.2"/>
      </g>
     </g>
     <g id="text_1">
      <!-- −90 -->
      <g transform="translate(35.997656 256.798437)scale(0.1 -0.1)">
       <defs>
        <path d="M 10.59375 35.5 
L 73.1875 35.5 
L 73.1875 27.203125 
L 10.59375 27.203125 
z
" id="DejaVuSans-8722"/>
        <path d="M 10.984375 1.515625 
L 10.984375 10.5 
Q 14.703125 8.734375 18.5 7.8125 
Q 22.3125 6.890625 25.984375 6.890625 
Q 35.75 6.890625 40.890625 13.453125 
Q 46.046875 20.015625 46.78125 33.40625 
Q 43.953125 29.203125 39.59375 26.953125 
Q 35.25 24.703125 29.984375 24.703125 
Q 19.046875 24.703125 12.671875 31.3125 
Q 6.296875 37.9375 6.296875 49.421875 
Q 6.296875 60.640625 12.9375 67.421875 
Q 19.578125 74.21875 30.609375 74.21875 
Q 43.265625 74.21875 49.921875 64.515625 
Q 56.59375 54.828125 56.59375 36.375 
Q 56.59375 19.140625 48.40625 8.859375 
Q 40.234375 -1.421875 26.421875 -1.421875 
Q 22.703125 -1.421875 18.890625 -0.6875 
Q 15.09375 0.046875 10.984375 1.515625 
z
M 30.609375 32.421875 
Q 37.25 32.421875 41.125 36.953125 
Q 45.015625 41.5 45.015625 49.421875 
Q 45.015625 57.28125 41.125 61.84375 
Q 37.25 66.40625 30.609375 66.40625 
Q 23.96875 66.40625 20.09375 61.84375 
Q 16.21875 57.28125 16.21875 49.421875 
Q 16.21875 41.5 20.09375 36.953125 
Q 23.96875 32.421875 30.609375 32.421875 
z
" id="DejaVuSans-57"/>
        <path d="M 31.78125 66.40625 
Q 24.171875 66.40625 20.328125 58.90625 
Q 16.5 51.421875 16.5 36.375 
Q 16.5 21.390625 20.328125 13.890625 
Q 24.171875 6.390625 31.78125 6.390625 
Q 39.453125 6.390625 43.28125 13.890625 
Q 47.125 21.390625 47.125 36.375 
Q 47.125 51.421875 43.28125 58.90625 
Q 39.453125 66.40625 31.78125 66.40625 
z
M 31.78125 74.21875 
Q 44.046875 74.21875 50.515625 64.515625 
Q 56.984375 54.828125 56.984375 36.375 
Q 56.984375 17.96875 50.515625 8.265625 
Q 44.046875 -1.421875 31.78125 -1.421875 
Q 19.53125 -1.421875 13.0625 8.265625 
Q 6.59375 17.96875 6.59375 36.375 
Q 6.59375 54.828125 13.0625 64.515625 
Q 19.53125 74.21875 31.78125 74.21875 
z
" id="DejaVuSans-48"/>
       </defs>
       <use xlink:href="#DejaVuSans-8722"/>
       <use x="83.789062" xlink:href="#DejaVuSans-57"/>
       <use x="147.412109" xlink:href="#DejaVuSans-48"/>
      </g>
     </g>
    </g>
    <g id="xtick_2">
     <g id="line2d_2">
      <g>
       <use style="stroke:#000000;stroke-width:0.8;" x="81.616667" xlink:href="#m4d5ae54f21" y="242.2"/>
      </g>
     </g>
     <g id="text_2">
      <!-- −45 -->
      <g transform="translate(71.064323 256.798437)scale(0.1 -0.1)">
       <defs>
        <path d="M 37.796875 64.3125 
L 12.890625 25.390625 
L 37.796875 25.390625 
z
M 35.203125 72.90625 
L 47.609375 72.90625 
L 47.609375 25.390625 
L 58.015625 25.390625 
L 58.015625 17.1875 
L 47.609375 17.1875 
L 47.609375 0 
L 37.796875 0 
L 37.796875 17.1875 
L 4.890625 17.1875 
L 4.890625 26.703125 
z
" id="DejaVuSans-52"/>
        <path d="M 10.796875 72.90625 
L 49.515625 72.90625 
L 49.515625 64.59375 
L 19.828125 64.59375 
L 19.828125 46.734375 
Q 21.96875 47.46875 24.109375 47.828125 
Q 26.265625 48.1875 28.421875 48.1875 
Q 40.625 48.1875 47.75 41.5 
Q 54.890625 34.8125 54.890625 23.390625 
Q 54.890625 11.625 47.5625 5.09375 
Q 40.234375 -1.421875 26.90625 -1.421875 
Q 22.3125 -1.421875 17.546875 -0.640625 
Q 12.796875 0.140625 7.71875 1.703125 
L 7.71875 11.625 
Q 12.109375 9.234375 16.796875 8.0625 
Q 21.484375 6.890625 26.703125 6.890625 
Q 35.15625 6.890625 40.078125 11.328125 
Q 45.015625 15.765625 45.015625 23.390625 
Q 45.015625 31 40.078125 35.4375 
Q 35.15625 39.890625 26.703125 39.890625 
Q 22.75 39.890625 18.8125 39.015625 
Q 14.890625 38.140625 10.796875 36.28125 
z
" id="DejaVuSans-53"/>
       </defs>
       <use xlink:href="#DejaVuSans-8722"/>
       <use x="83.789062" xlink:href="#DejaVuSans-52"/>
       <use x="147.412109" xlink:href="#DejaVuSans-53"/>
      </g>
     </g>
    </g>
    <g id="xtick_3">
     <g id="line2d_3">
      <g>
       <use style="stroke:#000000;stroke-width:0.8;" x="116.683333" xlink:href="#m4d5ae54f21" y="242.2"/>
      </g>
     </g>
     <g id="text_3">
      <!-- 0 -->
      <g transform="translate(113.502083 256.798437)scale(0.1 -0.1)">
       <use xlink:href="#DejaVuSans-48"/>
      </g>
     </g>
    </g>
    <g id="xtick_4">
     <g id="line2d_4">
      <g>
       <use style="stroke:#000000;stroke-width:0.8;" x="151.75" xlink:href="#m4d5ae54f21" y="242.2"/>
      </g>
     </g>
     <g id="text_4">
      <!-- 45 -->
      <g transform="translate(145.3875 256.798437)scale(0.1 -0.1)">
       <use xlink:href="#DejaVuSans-52"/>
       <use x="63.623047" xlink:href="#DejaVuSans-53"/>
      </g>
     </g>
    </g>
    <g id="xtick_5">
     <g id="line2d_5">
      <g>
       <use style="stroke:#000000;stroke-width:0.8;" x="186.816667" xlink:href="#m4d5ae54f21" y="242.2"/>
      </g>
     </g>
     <g id="text_5">
      <!-- 90 -->
      <g transform="translate(180.454167 256.798437)scale(0.1 -0.1)">
       <use xlink:href="#DejaVuSans-57"/>
       <use x="63.623047" xlink:href="#DejaVuSans-48"/>
      </g>
     </g>
    </g>
    <g id="text_6">
     <!-- $\Delta \theta$ (deg) -->
     <g transform="translate(95.283333 270.578125)scale(0.1 -0.1)">
      <defs>
       <path d="M 34.1875 63.1875 
L 14.15625 8.203125 
L 54.25 8.203125 
z
M 0.78125 0 
L 28.609375 72.90625 
L 39.796875 72.90625 
L 67.578125 0 
z
" id="DejaVuSans-916"/>
       <path d="M 45.515625 34.671875 
L 14.453125 34.671875 
Q 12.359375 20.0625 14.5 13.875 
Q 17.1875 6.25 24.46875 6.25 
Q 31.78125 6.25 37.359375 13.921875 
Q 42.234375 20.65625 45.515625 34.671875 
z
M 47.015625 42.96875 
Q 48.34375 56.84375 46.625 61.71875 
Q 43.953125 69.4375 36.765625 69.4375 
Q 29.296875 69.4375 23.828125 61.8125 
Q 19.53125 55.671875 16.15625 42.96875 
z
M 38.1875 76.765625 
Q 49.90625 76.765625 54.59375 66.40625 
Q 59.28125 56.109375 55.71875 37.84375 
Q 52.203125 19.625 43.453125 9.28125 
Q 34.765625 -1.125 23.046875 -1.125 
Q 11.28125 -1.125 6.640625 9.28125 
Q 2 19.625 5.515625 37.84375 
Q 9.078125 56.109375 17.71875 66.40625 
Q 26.421875 76.765625 38.1875 76.765625 
z
" id="DejaVuSans-Oblique-952"/>
       <path id="DejaVuSans-32"/>
       <path d="M 31 75.875 
Q 24.46875 64.65625 21.28125 53.65625 
Q 18.109375 42.671875 18.109375 31.390625 
Q 18.109375 20.125 21.3125 9.0625 
Q 24.515625 -2 31 -13.1875 
L 23.1875 -13.1875 
Q 15.875 -1.703125 12.234375 9.375 
Q 8.59375 20.453125 8.59375 31.390625 
Q 8.59375 42.28125 12.203125 53.3125 
Q 15.828125 64.359375 23.1875 75.875 
z
" id="DejaVuSans-40"/>
       <path d="M 45.40625 46.390625 
L 45.40625 75.984375 
L 54.390625 75.984375 
L 54.390625 0 
L 45.40625 0 
L 45.40625 8.203125 
Q 42.578125 3.328125 38.25 0.953125 
Q 33.9375 -1.421875 27.875 -1.421875 
Q 17.96875 -1.421875 11.734375 6.484375 
Q 5.515625 14.40625 5.515625 27.296875 
Q 5.515625 40.1875 11.734375 48.09375 
Q 17.96875 56 27.875 56 
Q 33.9375 56 38.25 53.625 
Q 42.578125 51.265625 45.40625 46.390625 
z
M 14.796875 27.296875 
Q 14.796875 17.390625 18.875 11.75 
Q 22.953125 6.109375 30.078125 6.109375 
Q 37.203125 6.109375 41.296875 11.75 
Q 45.40625 17.390625 45.40625 27.296875 
Q 45.40625 37.203125 41.296875 42.84375 
Q 37.203125 48.484375 30.078125 48.484375 
Q 22.953125 48.484375 18.875 42.84375 
Q 14.796875 37.203125 14.796875 27.296875 
z
" id="DejaVuSans-100"/>
       <path d="M 56.203125 29.59375 
L 56.203125 25.203125 
L 14.890625 25.203125 
Q 15.484375 15.921875 20.484375 11.0625 
Q 25.484375 6.203125 34.421875 6.203125 
Q 39.59375 6.203125 44.453125 7.46875 
Q 49.3125 8.734375 54.109375 11.28125 
L 54.109375 2.78125 
Q 49.265625 0.734375 44.1875 -0.34375 
Q 39.109375 -1.421875 33.890625 -1.421875 
Q 20.796875 -1.421875 13.15625 6.1875 
Q 5.515625 13.8125 5.515625 26.8125 
Q 5.515625 40.234375 12.765625 48.109375 
Q 20.015625 56 32.328125 56 
Q 43.359375 56 49.78125 48.890625 
Q 56.203125 41.796875 56.203125 29.59375 
z
M 47.21875 32.234375 
Q 47.125 39.59375 43.09375 43.984375 
Q 39.0625 48.390625 32.421875 48.390625 
Q 24.90625 48.390625 20.390625 44.140625 
Q 15.875 39.890625 15.1875 32.171875 
z
" id="DejaVuSans-101"/>
       <path d="M 45.40625 27.984375 
Q 45.40625 37.75 41.375 43.109375 
Q 37.359375 48.484375 30.078125 48.484375 
Q 22.859375 48.484375 18.828125 43.109375 
Q 14.796875 37.75 14.796875 27.984375 
Q 14.796875 18.265625 18.828125 12.890625 
Q 22.859375 7.515625 30.078125 7.515625 
Q 37.359375 7.515625 41.375 12.890625 
Q 45.40625 18.265625 45.40625 27.984375 
z
M 54.390625 6.78125 
Q 54.390625 -7.171875 48.1875 -13.984375 
Q 42 -20.796875 29.203125 -20.796875 
Q 24.46875 -20.796875 20.265625 -20.09375 
Q 16.0625 -19.390625 12.109375 -17.921875 
L 12.109375 -9.1875 
Q 16.0625 -11.328125 19.921875 -12.34375 
Q 23.78125 -13.375 27.78125 -13.375 
Q 36.625 -13.375 41.015625 -8.765625 
Q 45.40625 -4.15625 45.40625 5.171875 
L 45.40625 9.625 
Q 42.625 4.78125 38.28125 2.390625 
Q 33.9375 0 27.875 0 
Q 17.828125 0 11.671875 7.65625 
Q 5.515625 15.328125 5.515625 27.984375 
Q 5.515625 40.671875 11.671875 48.328125 
Q 17.828125 56 27.875 56 
Q 33.9375 56 38.28125 53.609375 
Q 42.625 51.21875 45.40625 46.390625 
L 45.40625 54.6875 
L 54.390625 54.6875 
z
" id="DejaVuSans-103"/>
       <path d="M 8.015625 75.875 
L 15.828125 75.875 
Q 23.140625 64.359375 26.78125 53.3125 
Q 30.421875 42.28125 30.421875 31.390625 
Q 30.421875 20.453125 26.78125 9.375 
Q 23.140625 -1.703125 15.828125 -13.1875 
L 8.015625 -13.1875 
Q 14.5 -2 17.703125 9.0625 
Q 20.90625 20.125 20.90625 31.390625 
Q 20.90625 42.671875 17.703125 53.65625 
Q 14.5 64.65625 8.015625 75.875 
z
" id="DejaVuSans-41"/>
      </defs>
      <use transform="translate(0 0.234375)" xlink:href="#DejaVuSans-916"/>
      <use transform="translate(68.408203 0.234375)" xlink:href="#DejaVuSans-Oblique-952"/>
      <use transform="translate(129.589844 0.234375)" xlink:href="#DejaVuSans-32"/>
      <use transform="translate(161.376953 0.234375)" xlink:href="#DejaVuSans-40"/>
      <use transform="translate(200.390625 0.234375)" xlink:href="#DejaVuSans-100"/>
      <use transform="translate(263.867188 0.234375)" xlink:href="#DejaVuSans-101"/>
      <use transform="translate(325.390625 0.234375)" xlink:href="#DejaVuSans-103"/>
      <use transform="translate(388.867188 0.234375)" xlink:href="#DejaVuSans-41"/>
     </g>
    </g>
   </g>
   <g id="matplotlib.axis_2">
    <g id="ytick_1">
     <g id="line2d_6">
      <defs>
       <path d="M 0 0 
L -3.5 0 
" id="mfb3f33b813" style="stroke:#000000;stroke-width:0.8;"/>
      </defs>
      <g>
       <use style="stroke:#000000;stroke-width:0.8;" x="46.55" xlink:href="#mfb3f33b813" y="216.557143"/>
      </g>
     </g>
     <g id="text_7">
      <!-- −8 -->
      <g transform="translate(24.807813 220.356362)scale(0.1 -0.1)">
       <defs>
        <path d="M 31.78125 34.625 
Q 24.75 34.625 20.71875 30.859375 
Q 16.703125 27.09375 16.703125 20.515625 
Q 16.703125 13.921875 20.71875 10.15625 
Q 24.75 6.390625 31.78125 6.390625 
Q 38.8125 6.390625 42.859375 10.171875 
Q 46.921875 13.96875 46.921875 20.515625 
Q 46.921875 27.09375 42.890625 30.859375 
Q 38.875 34.625 31.78125 34.625 
z
M 21.921875 38.8125 
Q 15.578125 40.375 12.03125 44.71875 
Q 8.5 49.078125 8.5 55.328125 
Q 8.5 64.0625 14.71875 69.140625 
Q 20.953125 74.21875 31.78125 74.21875 
Q 42.671875 74.21875 48.875 69.140625 
Q 55.078125 64.0625 55.078125 55.328125 
Q 55.078125 49.078125 51.53125 44.71875 
Q 48 40.375 41.703125 38.8125 
Q 48.828125 37.15625 52.796875 32.3125 
Q 56.78125 27.484375 56.78125 20.515625 
Q 56.78125 9.90625 50.3125 4.234375 
Q 43.84375 -1.421875 31.78125 -1.421875 
Q 19.734375 -1.421875 13.25 4.234375 
Q 6.78125 9.90625 6.78125 20.515625 
Q 6.78125 27.484375 10.78125 32.3125 
Q 14.796875 37.15625 21.921875 38.8125 
z
M 18.3125 54.390625 
Q 18.3125 48.734375 21.84375 45.5625 
Q 25.390625 42.390625 31.78125 42.390625 
Q 38.140625 42.390625 41.71875 45.5625 
Q 45.3125 48.734375 45.3125 54.390625 
Q 45.3125 60.0625 41.71875 63.234375 
Q 38.140625 66.40625 31.78125 66.40625 
Q 25.390625 66.40625 21.84375 63.234375 
Q 18.3125 60.0625 18.3125 54.390625 
z
" id="DejaVuSans-56"/>
       </defs>
       <use xlink:href="#DejaVuSans-8722"/>
       <use x="83.789062" xlink:href="#DejaVuSans-56"/>
      </g>
     </g>
    </g>
    <g id="ytick_2">
     <g id="line2d_7">
      <g>
       <use style="stroke:#000000;stroke-width:0.8;" x="46.55" xlink:href="#mfb3f33b813" y="175.528571"/>
      </g>
     </g>
     <g id="text_8">
      <!-- −4 -->
      <g transform="translate(24.807813 179.32779)scale(0.1 -0.1)">
       <use xlink:href="#DejaVuSans-8722"/>
       <use x="83.789062" xlink:href="#DejaVuSans-52"/>
      </g>
     </g>
    </g>
    <g id="ytick_3">
     <g id="line2d_8">
      <g>
       <use style="stroke:#000000;stroke-width:0.8;" x="46.55" xlink:href="#mfb3f33b813" y="134.5"/>
      </g>
     </g>
     <g id="text_9">
      <!-- 0 -->
      <g transform="translate(33.1875 138.299219)scale(0.1 -0.1)">
       <use xlink:href="#DejaVuSans-48"/>
      </g>
     </g>
    </g>
    <g id="ytick_4">
     <g id="line2d_9">
      <g>
       <use style="stroke:#000000;stroke-width:0.8;" x="46.55" xlink:href="#mfb3f33b813" y="93.471429"/>
      </g>
     </g>
     <g id="text_10">
      <!-- 4 -->
      <g transform="translate(33.1875 97.270647)scale(0.1 -0.1)">
       <use xlink:href="#DejaVuSans-52"/>
      </g>
     </g>
    </g>
    <g id="ytick_5">
     <g id="line2d_10">
      <g>
       <use style="stroke:#000000;stroke-width:0.8;" x="46.55" xlink:href="#mfb3f33b813" y="52.442857"/>
      </g>
     </g>
     <g id="text_11">
      <!-- 8 -->
      <g transform="translate(33.1875 56.242076)scale(0.1 -0.1)">
       <use xlink:href="#DejaVuSans-56"/>
      </g>
     </g>
    </g>
    <g id="text_12">
     <!-- Bias (deg) -->
     <g transform="translate(18.728125 159.903906)rotate(-90)scale(0.1 -0.1)">
      <defs>
       <path d="M 19.671875 34.8125 
L 19.671875 8.109375 
L 35.5 8.109375 
Q 43.453125 8.109375 47.28125 11.40625 
Q 51.125 14.703125 51.125 21.484375 
Q 51.125 28.328125 47.28125 31.5625 
Q 43.453125 34.8125 35.5 34.8125 
z
M 19.671875 64.796875 
L 19.671875 42.828125 
L 34.28125 42.828125 
Q 41.5 42.828125 45.03125 45.53125 
Q 48.578125 48.25 48.578125 53.8125 
Q 48.578125 59.328125 45.03125 62.0625 
Q 41.5 64.796875 34.28125 64.796875 
z
M 9.8125 72.90625 
L 35.015625 72.90625 
Q 46.296875 72.90625 52.390625 68.21875 
Q 58.5 63.53125 58.5 54.890625 
Q 58.5 48.1875 55.375 44.234375 
Q 52.25 40.28125 46.1875 39.3125 
Q 53.46875 37.75 57.5 32.78125 
Q 61.53125 27.828125 61.53125 20.40625 
Q 61.53125 10.640625 54.890625 5.3125 
Q 48.25 0 35.984375 0 
L 9.8125 0 
z
" id="DejaVuSans-66"/>
       <path d="M 9.421875 54.6875 
L 18.40625 54.6875 
L 18.40625 0 
L 9.421875 0 
z
M 9.421875 75.984375 
L 18.40625 75.984375 
L 18.40625 64.59375 
L 9.421875 64.59375 
z
" id="DejaVuSans-105"/>
       <path d="M 34.28125 27.484375 
Q 23.390625 27.484375 19.1875 25 
Q 14.984375 22.515625 14.984375 16.5 
Q 14.984375 11.71875 18.140625 8.90625 
Q 21.296875 6.109375 26.703125 6.109375 
Q 34.1875 6.109375 38.703125 11.40625 
Q 43.21875 16.703125 43.21875 25.484375 
L 43.21875 27.484375 
z
M 52.203125 31.203125 
L 52.203125 0 
L 43.21875 0 
L 43.21875 8.296875 
Q 40.140625 3.328125 35.546875 0.953125 
Q 30.953125 -1.421875 24.3125 -1.421875 
Q 15.921875 -1.421875 10.953125 3.296875 
Q 6 8.015625 6 15.921875 
Q 6 25.140625 12.171875 29.828125 
Q 18.359375 34.515625 30.609375 34.515625 
L 43.21875 34.515625 
L 43.21875 35.40625 
Q 43.21875 41.609375 39.140625 45 
Q 35.0625 48.390625 27.6875 48.390625 
Q 23 48.390625 18.546875 47.265625 
Q 14.109375 46.140625 10.015625 43.890625 
L 10.015625 52.203125 
Q 14.9375 54.109375 19.578125 55.046875 
Q 24.21875 56 28.609375 56 
Q 40.484375 56 46.34375 49.84375 
Q 52.203125 43.703125 52.203125 31.203125 
z
" id="DejaVuSans-97"/>
       <path d="M 44.28125 53.078125 
L 44.28125 44.578125 
Q 40.484375 46.53125 36.375 47.5 
Q 32.28125 48.484375 27.875 48.484375 
Q 21.1875 48.484375 17.84375 46.4375 
Q 14.5 44.390625 14.5 40.28125 
Q 14.5 37.15625 16.890625 35.375 
Q 19.28125 33.59375 26.515625 31.984375 
L 29.59375 31.296875 
Q 39.15625 29.25 43.1875 25.515625 
Q 47.21875 21.78125 47.21875 15.09375 
Q 47.21875 7.46875 41.1875 3.015625 
Q 35.15625 -1.421875 24.609375 -1.421875 
Q 20.21875 -1.421875 15.453125 -0.5625 
Q 10.6875 0.296875 5.421875 2 
L 5.421875 11.28125 
Q 10.40625 8.6875 15.234375 7.390625 
Q 20.0625 6.109375 24.8125 6.109375 
Q 31.15625 6.109375 34.5625 8.28125 
Q 37.984375 10.453125 37.984375 14.40625 
Q 37.984375 18.0625 35.515625 20.015625 
Q 33.0625 21.96875 24.703125 23.78125 
L 21.578125 24.515625 
Q 13.234375 26.265625 9.515625 29.90625 
Q 5.8125 33.546875 5.8125 39.890625 
Q 5.8125 47.609375 11.28125 51.796875 
Q 16.75 56 26.8125 56 
Q 31.78125 56 36.171875 55.265625 
Q 40.578125 54.546875 44.28125 53.078125 
z
" id="DejaVuSans-115"/>
      </defs>
      <use xlink:href="#DejaVuSans-66"/>
      <use x="68.603516" xlink:href="#DejaVuSans-105"/>
      <use x="96.386719" xlink:href="#DejaVuSans-97"/>
      <use x="157.666016" xlink:href="#DejaVuSans-115"/>
      <use x="209.765625" xlink:href="#DejaVuSans-32"/>
      <use x="241.552734" xlink:href="#DejaVuSans-40"/>
      <use x="280.566406" xlink:href="#DejaVuSans-100"/>
      <use x="344.042969" xlink:href="#DejaVuSans-101"/>
      <use x="405.566406" xlink:href="#DejaVuSans-103"/>
      <use x="469.042969" xlink:href="#DejaVuSans-41"/>
     </g>
    </g>
   </g>
   <g id="line2d_11">
    <path clip-path="url(#pd4e1ab7e22)" d="M 46.55 134.5 
L 186.816667 134.5 
" style="fill:none;stroke:#000000;stroke-dasharray:5.55,2.4;stroke-dashoffset:0;stroke-width:1.5;"/>
   </g>
   <g id="line2d_12">
    <path clip-path="url(#pd4e1ab7e22)" d="M 116.683333 242.2 
L 116.683333 26.8 
" style="fill:none;stroke:#0000ff;stroke-dasharray:5.55,2.4;stroke-dashoffset:0;stroke-width:1.5;"/>
   </g>
   <g id="patch_3">
    <path d="M 46.55 242.2 
L 46.55 26.8 
" style="fill:none;stroke:#000000;stroke-linecap:square;stroke-linejoin:miter;stroke-width:0.8;"/>
   </g>
   <g id="patch_4">
    <path d="M 186.816667 242.2 
L 186.816667 26.8 
" style="fill:none;stroke:#000000;stroke-linecap:square;stroke-linejoin:miter;stroke-width:0.8;"/>
   </g>
   <g id="patch_5">
    <path d="M 46.55 242.2 
L 186.816667 242.2 
" style="fill:none;stroke:#000000;stroke-linecap:square;stroke-linejoin:miter;stroke-width:0.8;"/>
   </g>
   <g id="patch_6">
    <path d="M 46.55 26.8 
L 186.816667 26.8 
" style="fill:none;stroke:#000000;stroke-linecap:square;stroke-linejoin:miter;stroke-width:0.8;"/>
   </g>
   <g id="text_13">
    <!-- *** -->
    <g transform="translate(163.438889 47.314286)scale(0.1 -0.1)">
     <defs>
      <path d="M 47.015625 60.890625 
L 29.5 51.421875 
L 47.015625 41.890625 
L 44.1875 37.109375 
L 27.78125 47.015625 
L 27.78125 28.609375 
L 22.21875 28.609375 
L 22.21875 47.015625 
L 5.8125 37.109375 
L 2.984375 41.890625 
L 20.515625 51.421875 
L 2.984375 60.890625 
L 5.8125 65.71875 
L 22.21875 55.8125 
L 22.21875 74.21875 
L 27.78125 74.21875 
L 27.78125 55.8125 
L 44.1875 65.71875 
z
" id="DejaVuSans-42"/>
     </defs>
     <use xlink:href="#DejaVuSans-42"/>
     <use x="50" xlink:href="#DejaVuSans-42"/>
     <use x="100" xlink:href="#DejaVuSans-42"/>
    </g>
   </g>
   <g id="text_14">
    <!-- *** -->
    <g style="fill:#00bfbf;" transform="translate(163.438889 57.571429)scale(0.1 -0.1)">
     <use xlink:href="#DejaVuSans-42"/>
     <use x="50" xlink:href="#DejaVuSans-42"/>
     <use x="100" xlink:href="#DejaVuSans-42"/>
    </g>
   </g>
   <g id="text_15">
    <!-- S*** -->
    <g style="fill:#bf00bf;" transform="translate(163.438889 67.828571)scale(0.1 -0.1)">
     <defs>
      <path d="M 53.515625 70.515625 
L 53.515625 60.890625 
Q 47.90625 63.578125 42.921875 64.890625 
Q 37.9375 66.21875 33.296875 66.21875 
Q 25.25 66.21875 20.875 63.09375 
Q 16.5 59.96875 16.5 54.203125 
Q 16.5 49.359375 19.40625 46.890625 
Q 22.3125 44.4375 30.421875 42.921875 
L 36.375 41.703125 
Q 47.40625 39.59375 52.65625 34.296875 
Q 57.90625 29 57.90625 20.125 
Q 57.90625 9.515625 50.796875 4.046875 
Q 43.703125 -1.421875 29.984375 -1.421875 
Q 24.8125 -1.421875 18.96875 -0.25 
Q 13.140625 0.921875 6.890625 3.21875 
L 6.890625 13.375 
Q 12.890625 10.015625 18.65625 8.296875 
Q 24.421875 6.59375 29.984375 6.59375 
Q 38.421875 6.59375 43.015625 9.90625 
Q 47.609375 13.234375 47.609375 19.390625 
Q 47.609375 24.75 44.3125 27.78125 
Q 41.015625 30.8125 33.5 32.328125 
L 27.484375 33.5 
Q 16.453125 35.6875 11.515625 40.375 
Q 6.59375 45.0625 6.59375 53.421875 
Q 6.59375 63.09375 13.40625 68.65625 
Q 20.21875 74.21875 32.171875 74.21875 
Q 37.3125 74.21875 42.625 73.28125 
Q 47.953125 72.359375 53.515625 70.515625 
z
" id="DejaVuSans-83"/>
     </defs>
     <use xlink:href="#DejaVuSans-83"/>
     <use x="63.476562" xlink:href="#DejaVuSans-42"/>
     <use x="113.476562" xlink:href="#DejaVuSans-42"/>
     <use x="163.476562" xlink:href="#DejaVuSans-42"/>
    </g>
   </g>
   <g id="text_16">
    <!-- nb:-1 | Stim SD -->
    <g transform="translate(71.224896 20.8)scale(0.12 -0.12)">
     <defs>
      <path d="M 54.890625 33.015625 
L 54.890625 0 
L 45.90625 0 
L 45.90625 32.71875 
Q 45.90625 40.484375 42.875 44.328125 
Q 39.84375 48.1875 33.796875 48.1875 
Q 26.515625 48.1875 22.3125 43.546875 
Q 18.109375 38.921875 18.109375 30.90625 
L 18.109375 0 
L 9.078125 0 
L 9.078125 54.6875 
L 18.109375 54.6875 
L 18.109375 46.1875 
Q 21.34375 51.125 25.703125 53.5625 
Q 30.078125 56 35.796875 56 
Q 45.21875 56 50.046875 50.171875 
Q 54.890625 44.34375 54.890625 33.015625 
z
" id="DejaVuSans-110"/>
      <path d="M 48.6875 27.296875 
Q 48.6875 37.203125 44.609375 42.84375 
Q 40.53125 48.484375 33.40625 48.484375 
Q 26.265625 48.484375 22.1875 42.84375 
Q 18.109375 37.203125 18.109375 27.296875 
Q 18.109375 17.390625 22.1875 11.75 
Q 26.265625 6.109375 33.40625 6.109375 
Q 40.53125 6.109375 44.609375 11.75 
Q 48.6875 17.390625 48.6875 27.296875 
z
M 18.109375 46.390625 
Q 20.953125 51.265625 25.265625 53.625 
Q 29.59375 56 35.59375 56 
Q 45.5625 56 51.78125 48.09375 
Q 58.015625 40.1875 58.015625 27.296875 
Q 58.015625 14.40625 51.78125 6.484375 
Q 45.5625 -1.421875 35.59375 -1.421875 
Q 29.59375 -1.421875 25.265625 0.953125 
Q 20.953125 3.328125 18.109375 8.203125 
L 18.109375 0 
L 9.078125 0 
L 9.078125 75.984375 
L 18.109375 75.984375 
z
" id="DejaVuSans-98"/>
      <path d="M 11.71875 12.40625 
L 22.015625 12.40625 
L 22.015625 0 
L 11.71875 0 
z
M 11.71875 51.703125 
L 22.015625 51.703125 
L 22.015625 39.3125 
L 11.71875 39.3125 
z
" id="DejaVuSans-58"/>
      <path d="M 4.890625 31.390625 
L 31.203125 31.390625 
L 31.203125 23.390625 
L 4.890625 23.390625 
z
" id="DejaVuSans-45"/>
      <path d="M 12.40625 8.296875 
L 28.515625 8.296875 
L 28.515625 63.921875 
L 10.984375 60.40625 
L 10.984375 69.390625 
L 28.421875 72.90625 
L 38.28125 72.90625 
L 38.28125 8.296875 
L 54.390625 8.296875 
L 54.390625 0 
L 12.40625 0 
z
" id="DejaVuSans-49"/>
      <path d="M 21 76.421875 
L 21 -23.578125 
L 12.703125 -23.578125 
L 12.703125 76.421875 
z
" id="DejaVuSans-124"/>
      <path d="M 18.3125 70.21875 
L 18.3125 54.6875 
L 36.8125 54.6875 
L 36.8125 47.703125 
L 18.3125 47.703125 
L 18.3125 18.015625 
Q 18.3125 11.328125 20.140625 9.421875 
Q 21.96875 7.515625 27.59375 7.515625 
L 36.8125 7.515625 
L 36.8125 0 
L 27.59375 0 
Q 17.1875 0 13.234375 3.875 
Q 9.28125 7.765625 9.28125 18.015625 
L 9.28125 47.703125 
L 2.6875 47.703125 
L 2.6875 54.6875 
L 9.28125 54.6875 
L 9.28125 70.21875 
z
" id="DejaVuSans-116"/>
      <path d="M 52 44.1875 
Q 55.375 50.25 60.0625 53.125 
Q 64.75 56 71.09375 56 
Q 79.640625 56 84.28125 50.015625 
Q 88.921875 44.046875 88.921875 33.015625 
L 88.921875 0 
L 79.890625 0 
L 79.890625 32.71875 
Q 79.890625 40.578125 77.09375 44.375 
Q 74.3125 48.1875 68.609375 48.1875 
Q 61.625 48.1875 57.5625 43.546875 
Q 53.515625 38.921875 53.515625 30.90625 
L 53.515625 0 
L 44.484375 0 
L 44.484375 32.71875 
Q 44.484375 40.625 41.703125 44.40625 
Q 38.921875 48.1875 33.109375 48.1875 
Q 26.21875 48.1875 22.15625 43.53125 
Q 18.109375 38.875 18.109375 30.90625 
L 18.109375 0 
L 9.078125 0 
L 9.078125 54.6875 
L 18.109375 54.6875 
L 18.109375 46.1875 
Q 21.1875 51.21875 25.484375 53.609375 
Q 29.78125 56 35.6875 56 
Q 41.65625 56 45.828125 52.96875 
Q 50 49.953125 52 44.1875 
z
" id="DejaVuSans-109"/>
      <path d="M 19.671875 64.796875 
L 19.671875 8.109375 
L 31.59375 8.109375 
Q 46.6875 8.109375 53.6875 14.9375 
Q 60.6875 21.78125 60.6875 36.53125 
Q 60.6875 51.171875 53.6875 57.984375 
Q 46.6875 64.796875 31.59375 64.796875 
z
M 9.8125 72.90625 
L 30.078125 72.90625 
Q 51.265625 72.90625 61.171875 64.09375 
Q 71.09375 55.28125 71.09375 36.53125 
Q 71.09375 17.671875 61.125 8.828125 
Q 51.171875 0 30.078125 0 
L 9.8125 0 
z
" id="DejaVuSans-68"/>
     </defs>
     <use xlink:href="#DejaVuSans-110"/>
     <use x="63.378906" xlink:href="#DejaVuSans-98"/>
     <use x="126.855469" xlink:href="#DejaVuSans-58"/>
     <use x="160.546875" xlink:href="#DejaVuSans-45"/>
     <use x="196.630859" xlink:href="#DejaVuSans-49"/>
     <use x="260.253906" xlink:href="#DejaVuSans-32"/>
     <use x="292.041016" xlink:href="#DejaVuSans-124"/>
     <use x="325.732422" xlink:href="#DejaVuSans-32"/>
     <use x="357.519531" xlink:href="#DejaVuSans-83"/>
     <use x="420.996094" xlink:href="#DejaVuSans-116"/>
     <use x="460.205078" xlink:href="#DejaVuSans-105"/>
     <use x="487.988281" xlink:href="#DejaVuSans-109"/>
     <use x="585.400391" xlink:href="#DejaVuSans-32"/>
     <use x="617.1875" xlink:href="#DejaVuSans-83"/>
     <use x="680.664062" xlink:href="#DejaVuSans-68"/>
    </g>
   </g>
  </g>
  <g id="axes_2">
   <g id="patch_7">
    <path d="M 214.554167 242.2 
L 354.820833 242.2 
L 354.820833 26.8 
L 214.554167 26.8 
z
" style="fill:#ffffff;"/>
   </g>
   <g id="PolyCollection_3">
    <defs>
     <path d="M 214.554167 -155.348144 
L 214.554167 -149.854369 
L 216.112685 -148.608466 
L 217.671204 -148.677686 
L 219.229722 -148.496839 
L 220.788241 -150.211352 
L 222.346759 -149.114763 
L 223.905278 -150.57834 
L 225.463796 -149.590361 
L 227.022315 -150.570023 
L 228.580833 -152.428775 
L 230.139352 -154.817642 
L 231.69787 -153.109653 
L 233.256389 -151.615985 
L 234.814907 -149.162459 
L 236.373426 -146.126929 
L 237.931944 -143.677481 
L 239.490463 -137.989159 
L 241.048981 -133.235364 
L 242.6075 -129.13198 
L 244.166019 -126.764865 
L 245.724537 -127.179376 
L 247.283056 -119.734648 
L 248.841574 -115.18418 
L 250.400093 -114.03454 
L 251.958611 -112.227789 
L 253.51713 -107.397489 
L 255.075648 -105.317853 
L 256.634167 -109.146178 
L 258.192685 -111.177728 
L 259.751204 -108.693566 
L 261.309722 -105.980699 
L 262.868241 -108.309378 
L 264.426759 -109.449906 
L 265.985278 -106.887557 
L 267.543796 -106.687254 
L 269.102315 -104.43135 
L 270.660833 -105.978314 
L 272.219352 -100.676359 
L 273.77787 -103.603481 
L 275.336389 -109.397478 
L 276.894907 -114.355873 
L 278.453426 -118.882533 
L 280.011944 -126.918387 
L 281.570463 -136.610568 
L 283.128981 -139.815605 
L 284.6875 -148.169121 
L 286.246019 -157.901018 
L 287.804537 -167.629394 
L 289.363056 -174.083217 
L 290.921574 -181.21017 
L 292.480093 -190.215586 
L 294.038611 -194.72821 
L 295.59713 -197.460341 
L 297.155648 -201.497111 
L 298.714167 -201.859991 
L 300.272685 -202.160671 
L 301.831204 -201.890027 
L 303.389722 -196.842379 
L 304.948241 -196.122581 
L 306.506759 -199.060724 
L 308.065278 -192.624222 
L 309.623796 -191.148032 
L 311.182315 -186.231414 
L 312.740833 -185.995609 
L 314.299352 -181.18728 
L 315.85787 -174.394918 
L 317.416389 -169.427402 
L 318.974907 -167.68196 
L 320.533426 -169.465004 
L 322.091944 -167.737551 
L 323.650463 -168.164269 
L 325.208981 -166.509007 
L 326.7675 -169.419841 
L 328.326019 -168.092825 
L 329.884537 -163.329169 
L 331.443056 -159.963638 
L 333.001574 -155.534993 
L 334.560093 -152.630929 
L 336.118611 -149.992659 
L 337.67713 -152.700469 
L 339.235648 -152.425002 
L 340.794167 -151.39798 
L 342.352685 -153.792262 
L 343.911204 -152.855091 
L 345.469722 -152.286881 
L 347.028241 -150.115775 
L 348.586759 -151.759092 
L 350.145278 -152.207886 
L 351.703796 -150.292891 
L 353.262315 -150.030191 
L 354.820833 -151.361252 
L 354.820833 -157.014018 
L 354.820833 -157.014018 
L 353.262315 -155.745734 
L 351.703796 -155.796083 
L 350.145278 -156.812847 
L 348.586759 -156.699794 
L 347.028241 -154.985708 
L 345.469722 -157.145426 
L 343.911204 -157.452745 
L 342.352685 -158.776622 
L 340.794167 -157.700601 
L 339.235648 -159.38567 
L 337.67713 -158.316418 
L 336.118611 -156.042889 
L 334.560093 -159.324175 
L 333.001574 -161.729409 
L 331.443056 -165.808669 
L 329.884537 -169.120686 
L 328.326019 -174.853258 
L 326.7675 -176.173985 
L 325.208981 -174.272997 
L 323.650463 -176.245373 
L 322.091944 -175.22461 
L 320.533426 -178.266954 
L 318.974907 -176.593874 
L 317.416389 -179.542695 
L 315.85787 -185.013625 
L 314.299352 -191.572639 
L 312.740833 -196.044743 
L 311.182315 -196.567754 
L 309.623796 -199.89614 
L 308.065278 -205.10796 
L 306.506759 -210.825856 
L 304.948241 -206.0938 
L 303.389722 -205.913757 
L 301.831204 -210.719492 
L 300.272685 -211.378183 
L 298.714167 -210.430957 
L 297.155648 -208.413949 
L 295.59713 -205.507738 
L 294.038611 -203.576389 
L 292.480093 -199.471425 
L 290.921574 -189.744366 
L 289.363056 -182.562696 
L 287.804537 -175.814735 
L 286.246019 -165.38804 
L 284.6875 -155.458841 
L 283.128981 -147.116701 
L 281.570463 -144.526741 
L 280.011944 -134.412986 
L 278.453426 -126.9966 
L 276.894907 -122.175134 
L 275.336389 -118.298268 
L 273.77787 -112.366958 
L 272.219352 -109.550834 
L 270.660833 -114.041511 
L 269.102315 -112.593474 
L 267.543796 -113.975312 
L 265.985278 -114.583489 
L 264.426759 -117.994531 
L 262.868241 -116.441336 
L 261.309722 -114.149257 
L 259.751204 -116.746913 
L 258.192685 -119.159748 
L 256.634167 -116.304039 
L 255.075648 -112.621269 
L 253.51713 -115.860127 
L 251.958611 -119.980291 
L 250.400093 -122.283978 
L 248.841574 -123.624839 
L 247.283056 -128.578527 
L 245.724537 -135.64084 
L 244.166019 -135.434229 
L 242.6075 -138.003632 
L 241.048981 -142.4479 
L 239.490463 -145.023567 
L 237.931944 -150.74035 
L 236.373426 -152.663666 
L 234.814907 -155.618144 
L 233.256389 -158.416715 
L 231.69787 -159.482313 
L 230.139352 -160.132417 
L 228.580833 -157.479302 
L 227.022315 -155.759878 
L 225.463796 -154.69189 
L 223.905278 -154.801589 
L 222.346759 -153.415946 
L 220.788241 -155.453723 
L 219.229722 -153.99207 
L 217.671204 -154.19734 
L 216.112685 -154.255997 
L 214.554167 -155.348144 
z
" id="mec08068435" style="stroke:#000000;"/>
    </defs>
    <g clip-path="url(#p7b1dda9769)">
     <use style="stroke:#000000;" x="0" xlink:href="#mec08068435" y="288"/>
    </g>
   </g>
   <g id="PolyCollection_4">
    <defs>
     <path d="M 214.554167 -155.688744 
L 214.554167 -149.069584 
L 216.112685 -150.452625 
L 217.671204 -150.294419 
L 219.229722 -148.828803 
L 220.788241 -149.996543 
L 222.346759 -146.499405 
L 223.905278 -147.61888 
L 225.463796 -149.590396 
L 227.022315 -150.81458 
L 228.580833 -150.479894 
L 230.139352 -150.657772 
L 231.69787 -149.685638 
L 233.256389 -151.230938 
L 234.814907 -149.173355 
L 236.373426 -148.094938 
L 237.931944 -149.302882 
L 239.490463 -147.276002 
L 241.048981 -145.564994 
L 242.6075 -143.504699 
L 244.166019 -143.518731 
L 245.724537 -137.728332 
L 247.283056 -134.485675 
L 248.841574 -128.727836 
L 250.400093 -123.646226 
L 251.958611 -119.367625 
L 253.51713 -110.688228 
L 255.075648 -108.314295 
L 256.634167 -99.37402 
L 258.192685 -98.031441 
L 259.751204 -89.26159 
L 261.309722 -79.639332 
L 262.868241 -80.34198 
L 264.426759 -76.575137 
L 265.985278 -80.426657 
L 267.543796 -80.811272 
L 269.102315 -83.97053 
L 270.660833 -90.646842 
L 272.219352 -91.110574 
L 273.77787 -97.16523 
L 275.336389 -103.459699 
L 276.894907 -112.438429 
L 278.453426 -122.444803 
L 280.011944 -129.644188 
L 281.570463 -134.88283 
L 283.128981 -145.431797 
L 284.6875 -153.244223 
L 286.246019 -159.30967 
L 287.804537 -163.720201 
L 289.363056 -171.43562 
L 290.921574 -178.882182 
L 292.480093 -185.882415 
L 294.038611 -190.753716 
L 295.59713 -199.954507 
L 297.155648 -204.659969 
L 298.714167 -204.847387 
L 300.272685 -204.527248 
L 301.831204 -209.329556 
L 303.389722 -217.331195 
L 304.948241 -216.932977 
L 306.506759 -212.854477 
L 308.065278 -215.212925 
L 309.623796 -212.133178 
L 311.182315 -202.102385 
L 312.740833 -194.677272 
L 314.299352 -186.924774 
L 315.85787 -181.412464 
L 317.416389 -174.796161 
L 318.974907 -168.364379 
L 320.533426 -165.630032 
L 322.091944 -158.598942 
L 323.650463 -155.986216 
L 325.208981 -152.966998 
L 326.7675 -151.818706 
L 328.326019 -149.219228 
L 329.884537 -149.48726 
L 331.443056 -149.014407 
L 333.001574 -148.563445 
L 334.560093 -151.276728 
L 336.118611 -154.151042 
L 337.67713 -157.858237 
L 339.235648 -156.579064 
L 340.794167 -155.753216 
L 342.352685 -155.777723 
L 343.911204 -155.572354 
L 345.469722 -154.823015 
L 347.028241 -153.459285 
L 348.586759 -152.691116 
L 350.145278 -152.830776 
L 351.703796 -151.583212 
L 353.262315 -148.816294 
L 354.820833 -151.03588 
L 354.820833 -157.216413 
L 354.820833 -157.216413 
L 353.262315 -156.375006 
L 351.703796 -158.418533 
L 350.145278 -158.252927 
L 348.586759 -158.58585 
L 347.028241 -158.906512 
L 345.469722 -160.23412 
L 343.911204 -160.893717 
L 342.352685 -161.765815 
L 340.794167 -161.71916 
L 339.235648 -163.0599 
L 337.67713 -164.253132 
L 336.118611 -160.224546 
L 334.560093 -157.182481 
L 333.001574 -153.795186 
L 331.443056 -155.490754 
L 329.884537 -156.83581 
L 328.326019 -156.241353 
L 326.7675 -159.487199 
L 325.208981 -162.441832 
L 323.650463 -165.274613 
L 322.091944 -167.684892 
L 320.533426 -173.544143 
L 318.974907 -176.891206 
L 317.416389 -182.848041 
L 315.85787 -192.096866 
L 314.299352 -196.8752 
L 312.740833 -204.331295 
L 311.182315 -212.653183 
L 309.623796 -222.306239 
L 308.065278 -224.510732 
L 306.506759 -224.260994 
L 304.948241 -227.986473 
L 303.389722 -227.910219 
L 301.831204 -219.140063 
L 300.272685 -214.965705 
L 298.714167 -213.54308 
L 297.155648 -213.961384 
L 295.59713 -209.217245 
L 294.038611 -198.23752 
L 292.480093 -193.629364 
L 290.921574 -186.026051 
L 289.363056 -177.796446 
L 287.804537 -170.048228 
L 286.246019 -165.873665 
L 284.6875 -160.317384 
L 283.128981 -153.149857 
L 281.570463 -142.957682 
L 280.011944 -137.011805 
L 278.453426 -130.473596 
L 276.894907 -119.414157 
L 275.336389 -110.128482 
L 273.77787 -104.471453 
L 272.219352 -98.979344 
L 270.660833 -97.805164 
L 269.102315 -90.740998 
L 267.543796 -89.261474 
L 265.985278 -88.591359 
L 264.426759 -84.812129 
L 262.868241 -87.648138 
L 261.309722 -86.065035 
L 259.751204 -99.2869 
L 258.192685 -108.264996 
L 256.634167 -110.690998 
L 255.075648 -118.679597 
L 253.51713 -121.158678 
L 251.958611 -129.528002 
L 250.400093 -133.258786 
L 248.841574 -137.598774 
L 247.283056 -141.383671 
L 245.724537 -145.697511 
L 244.166019 -150.826544 
L 242.6075 -150.297307 
L 241.048981 -151.462834 
L 239.490463 -152.806157 
L 237.931944 -154.742809 
L 236.373426 -153.744233 
L 234.814907 -154.52769 
L 233.256389 -157.468751 
L 231.69787 -156.359283 
L 230.139352 -156.65943 
L 228.580833 -155.358082 
L 227.022315 -156.193015 
L 225.463796 -154.070682 
L 223.905278 -152.804987 
L 222.346759 -151.491475 
L 220.788241 -154.486884 
L 219.229722 -153.060532 
L 217.671204 -155.584397 
L 216.112685 -155.722194 
L 214.554167 -155.688744 
z
" id="md2db23b34f" style="stroke:#00bfbf;"/>
    </defs>
    <g clip-path="url(#p7b1dda9769)">
     <use style="fill:#00bfbf;stroke:#00bfbf;" x="0" xlink:href="#md2db23b34f" y="288"/>
    </g>
   </g>
   <g id="matplotlib.axis_3">
    <g id="xtick_6">
     <g id="line2d_13">
      <g>
       <use style="stroke:#000000;stroke-width:0.8;" x="214.554167" xlink:href="#m4d5ae54f21" y="242.2"/>
      </g>
     </g>
     <g id="text_17">
      <!-- −90 -->
      <g transform="translate(204.001823 256.798437)scale(0.1 -0.1)">
       <use xlink:href="#DejaVuSans-8722"/>
       <use x="83.789062" xlink:href="#DejaVuSans-57"/>
       <use x="147.412109" xlink:href="#DejaVuSans-48"/>
      </g>
     </g>
    </g>
    <g id="xtick_7">
     <g id="line2d_14">
      <g>
       <use style="stroke:#000000;stroke-width:0.8;" x="249.620833" xlink:href="#m4d5ae54f21" y="242.2"/>
      </g>
     </g>
     <g id="text_18">
      <!-- −45 -->
      <g transform="translate(239.06849 256.798437)scale(0.1 -0.1)">
       <use xlink:href="#DejaVuSans-8722"/>
       <use x="83.789062" xlink:href="#DejaVuSans-52"/>
       <use x="147.412109" xlink:href="#DejaVuSans-53"/>
      </g>
     </g>
    </g>
    <g id="xtick_8">
     <g id="line2d_15">
      <g>
       <use style="stroke:#000000;stroke-width:0.8;" x="284.6875" xlink:href="#m4d5ae54f21" y="242.2"/>
      </g>
     </g>
     <g id="text_19">
      <!-- 0 -->
      <g transform="translate(281.50625 256.798437)scale(0.1 -0.1)">
       <use xlink:href="#DejaVuSans-48"/>
      </g>
     </g>
    </g>
    <g id="xtick_9">
     <g id="line2d_16">
      <g>
       <use style="stroke:#000000;stroke-width:0.8;" x="319.754167" xlink:href="#m4d5ae54f21" y="242.2"/>
      </g>
     </g>
     <g id="text_20">
      <!-- 45 -->
      <g transform="translate(313.391667 256.798437)scale(0.1 -0.1)">
       <use xlink:href="#DejaVuSans-52"/>
       <use x="63.623047" xlink:href="#DejaVuSans-53"/>
      </g>
     </g>
    </g>
    <g id="xtick_10">
     <g id="line2d_17">
      <g>
       <use style="stroke:#000000;stroke-width:0.8;" x="354.820833" xlink:href="#m4d5ae54f21" y="242.2"/>
      </g>
     </g>
     <g id="text_21">
      <!-- 90 -->
      <g transform="translate(348.458333 256.798437)scale(0.1 -0.1)">
       <use xlink:href="#DejaVuSans-57"/>
       <use x="63.623047" xlink:href="#DejaVuSans-48"/>
      </g>
     </g>
    </g>
    <g id="text_22">
     <!-- $\Delta \theta$ (deg) -->
     <g transform="translate(263.2875 270.578125)scale(0.1 -0.1)">
      <use transform="translate(0 0.234375)" xlink:href="#DejaVuSans-916"/>
      <use transform="translate(68.408203 0.234375)" xlink:href="#DejaVuSans-Oblique-952"/>
      <use transform="translate(129.589844 0.234375)" xlink:href="#DejaVuSans-32"/>
      <use transform="translate(161.376953 0.234375)" xlink:href="#DejaVuSans-40"/>
      <use transform="translate(200.390625 0.234375)" xlink:href="#DejaVuSans-100"/>
      <use transform="translate(263.867188 0.234375)" xlink:href="#DejaVuSans-101"/>
      <use transform="translate(325.390625 0.234375)" xlink:href="#DejaVuSans-103"/>
      <use transform="translate(388.867188 0.234375)" xlink:href="#DejaVuSans-41"/>
     </g>
    </g>
   </g>
   <g id="matplotlib.axis_4"/>
   <g id="line2d_18">
    <path clip-path="url(#p7b1dda9769)" d="M 214.554167 134.5 
L 354.820833 134.5 
" style="fill:none;stroke:#000000;stroke-dasharray:5.55,2.4;stroke-dashoffset:0;stroke-width:1.5;"/>
   </g>
   <g id="line2d_19">
    <path clip-path="url(#p7b1dda9769)" d="M 284.6875 242.2 
L 284.6875 26.8 
" style="fill:none;stroke:#0000ff;stroke-dasharray:5.55,2.4;stroke-dashoffset:0;stroke-width:1.5;"/>
   </g>
   <g id="patch_8">
    <path d="M 214.554167 242.2 
L 214.554167 26.8 
" style="fill:none;stroke:#000000;stroke-linecap:square;stroke-linejoin:miter;stroke-width:0.8;"/>
   </g>
   <g id="patch_9">
    <path d="M 354.820833 242.2 
L 354.820833 26.8 
" style="fill:none;stroke:#000000;stroke-linecap:square;stroke-linejoin:miter;stroke-width:0.8;"/>
   </g>
   <g id="patch_10">
    <path d="M 214.554167 242.2 
L 354.820833 242.2 
" style="fill:none;stroke:#000000;stroke-linecap:square;stroke-linejoin:miter;stroke-width:0.8;"/>
   </g>
   <g id="patch_11">
    <path d="M 214.554167 26.8 
L 354.820833 26.8 
" style="fill:none;stroke:#000000;stroke-linecap:square;stroke-linejoin:miter;stroke-width:0.8;"/>
   </g>
   <g id="text_23">
    <!-- *** -->
    <g transform="translate(331.443056 47.314286)scale(0.1 -0.1)">
     <use xlink:href="#DejaVuSans-42"/>
     <use x="50" xlink:href="#DejaVuSans-42"/>
     <use x="100" xlink:href="#DejaVuSans-42"/>
    </g>
   </g>
   <g id="text_24">
    <!-- *** -->
    <g style="fill:#00bfbf;" transform="translate(331.443056 57.571429)scale(0.1 -0.1)">
     <use xlink:href="#DejaVuSans-42"/>
     <use x="50" xlink:href="#DejaVuSans-42"/>
     <use x="100" xlink:href="#DejaVuSans-42"/>
    </g>
   </g>
   <g id="text_25">
    <!-- R*** -->
    <g style="fill:#bf00bf;" transform="translate(331.443056 67.828571)scale(0.1 -0.1)">
     <defs>
      <path d="M 44.390625 34.1875 
Q 47.5625 33.109375 50.5625 29.59375 
Q 53.5625 26.078125 56.59375 19.921875 
L 66.609375 0 
L 56 0 
L 46.6875 18.703125 
Q 43.0625 26.03125 39.671875 28.421875 
Q 36.28125 30.8125 30.421875 30.8125 
L 19.671875 30.8125 
L 19.671875 0 
L 9.8125 0 
L 9.8125 72.90625 
L 32.078125 72.90625 
Q 44.578125 72.90625 50.734375 67.671875 
Q 56.890625 62.453125 56.890625 51.90625 
Q 56.890625 45.015625 53.6875 40.46875 
Q 50.484375 35.9375 44.390625 34.1875 
z
M 19.671875 64.796875 
L 19.671875 38.921875 
L 32.078125 38.921875 
Q 39.203125 38.921875 42.84375 42.21875 
Q 46.484375 45.515625 46.484375 51.90625 
Q 46.484375 58.296875 42.84375 61.546875 
Q 39.203125 64.796875 32.078125 64.796875 
z
" id="DejaVuSans-82"/>
     </defs>
     <use xlink:href="#DejaVuSans-82"/>
     <use x="69.482422" xlink:href="#DejaVuSans-42"/>
     <use x="119.482422" xlink:href="#DejaVuSans-42"/>
     <use x="169.482422" xlink:href="#DejaVuSans-42"/>
    </g>
   </g>
   <g id="text_26">
    <!-- nb:-1 | Resp SD -->
    <g transform="translate(238.375937 20.8)scale(0.12 -0.12)">
     <defs>
      <path d="M 18.109375 8.203125 
L 18.109375 -20.796875 
L 9.078125 -20.796875 
L 9.078125 54.6875 
L 18.109375 54.6875 
L 18.109375 46.390625 
Q 20.953125 51.265625 25.265625 53.625 
Q 29.59375 56 35.59375 56 
Q 45.5625 56 51.78125 48.09375 
Q 58.015625 40.1875 58.015625 27.296875 
Q 58.015625 14.40625 51.78125 6.484375 
Q 45.5625 -1.421875 35.59375 -1.421875 
Q 29.59375 -1.421875 25.265625 0.953125 
Q 20.953125 3.328125 18.109375 8.203125 
z
M 48.6875 27.296875 
Q 48.6875 37.203125 44.609375 42.84375 
Q 40.53125 48.484375 33.40625 48.484375 
Q 26.265625 48.484375 22.1875 42.84375 
Q 18.109375 37.203125 18.109375 27.296875 
Q 18.109375 17.390625 22.1875 11.75 
Q 26.265625 6.109375 33.40625 6.109375 
Q 40.53125 6.109375 44.609375 11.75 
Q 48.6875 17.390625 48.6875 27.296875 
z
" id="DejaVuSans-112"/>
     </defs>
     <use xlink:href="#DejaVuSans-110"/>
     <use x="63.378906" xlink:href="#DejaVuSans-98"/>
     <use x="126.855469" xlink:href="#DejaVuSans-58"/>
     <use x="160.546875" xlink:href="#DejaVuSans-45"/>
     <use x="196.630859" xlink:href="#DejaVuSans-49"/>
     <use x="260.253906" xlink:href="#DejaVuSans-32"/>
     <use x="292.041016" xlink:href="#DejaVuSans-124"/>
     <use x="325.732422" xlink:href="#DejaVuSans-32"/>
     <use x="357.519531" xlink:href="#DejaVuSans-82"/>
     <use x="422.501953" xlink:href="#DejaVuSans-101"/>
     <use x="484.025391" xlink:href="#DejaVuSans-115"/>
     <use x="536.125" xlink:href="#DejaVuSans-112"/>
     <use x="599.601562" xlink:href="#DejaVuSans-32"/>
     <use x="631.388672" xlink:href="#DejaVuSans-83"/>
     <use x="694.865234" xlink:href="#DejaVuSans-68"/>
    </g>
   </g>
  </g>
  <g id="axes_3">
   <g id="patch_12">
    <path d="M 382.558333 242.2 
L 522.825 242.2 
L 522.825 26.8 
L 382.558333 26.8 
z
" style="fill:#ffffff;"/>
   </g>
   <g id="PolyCollection_5">
    <defs>
     <path d="M 382.558333 -154.802936 
L 382.558333 -149.373975 
L 384.116852 -148.215608 
L 385.67537 -148.476579 
L 387.233889 -148.12013 
L 388.792407 -149.993785 
L 390.350926 -149.080247 
L 391.909444 -150.580224 
L 393.467963 -149.689111 
L 395.026481 -150.601177 
L 396.585 -152.813664 
L 398.143519 -155.292676 
L 399.702037 -154.220659 
L 401.260556 -153.566982 
L 402.819074 -152.774724 
L 404.377593 -151.743065 
L 405.936111 -151.188653 
L 407.49463 -148.875401 
L 409.053148 -147.935585 
L 410.611667 -148.196484 
L 412.170185 -149.437024 
L 413.728704 -152.098719 
L 415.287222 -149.717378 
L 416.845741 -147.83291 
L 418.404259 -148.488813 
L 419.962778 -148.097602 
L 421.521296 -147.156141 
L 423.079815 -146.354641 
L 424.638333 -150.49896 
L 426.196852 -151.152651 
L 427.75537 -149.783449 
L 429.313889 -147.233287 
L 430.872407 -148.890483 
L 432.430926 -149.404244 
L 433.989444 -147.382296 
L 435.547963 -148.958024 
L 437.106481 -149.934468 
L 438.665 -150.235739 
L 440.223519 -146.436295 
L 441.782037 -150.338637 
L 443.340556 -150.284199 
L 444.899074 -149.640444 
L 446.457593 -149.844338 
L 448.016111 -153.34942 
L 449.57463 -155.402867 
L 451.133148 -148.136934 
L 452.691667 -149.106788 
L 454.250185 -150.640371 
L 455.808704 -150.354314 
L 457.367222 -147.775304 
L 458.925741 -146.493839 
L 460.484259 -153.808757 
L 462.042778 -154.468647 
L 463.601296 -151.668252 
L 465.159815 -151.216495 
L 466.718333 -152.961579 
L 468.276852 -152.540612 
L 469.83537 -147.359562 
L 471.393889 -143.995792 
L 472.952407 -144.44856 
L 474.510926 -148.713744 
L 476.069444 -142.070771 
L 477.627963 -144.180005 
L 479.186481 -141.705126 
L 480.745 -144.196399 
L 482.303519 -144.663805 
L 483.862037 -141.188853 
L 485.420556 -142.055339 
L 486.979074 -141.867659 
L 488.537593 -145.622839 
L 490.096111 -147.399267 
L 491.65463 -149.686361 
L 493.213148 -150.514021 
L 494.771667 -155.455275 
L 496.330185 -155.357726 
L 497.888704 -153.865574 
L 499.447222 -153.167761 
L 501.005741 -150.466704 
L 502.564259 -149.201365 
L 504.122778 -147.419895 
L 505.681296 -151.073713 
L 507.239815 -151.261456 
L 508.798333 -150.435876 
L 510.356852 -153.245645 
L 511.91537 -152.688004 
L 513.473889 -152.296394 
L 515.032407 -150.267826 
L 516.590926 -151.879014 
L 518.149444 -152.3327 
L 519.707963 -150.243263 
L 521.266481 -149.86679 
L 522.825 -151.002826 
L 522.825 -156.550134 
L 522.825 -156.550134 
L 521.266481 -155.505725 
L 519.707963 -155.635467 
L 518.149444 -156.78146 
L 516.590926 -156.709368 
L 515.032407 -155.103154 
L 513.473889 -157.112423 
L 511.91537 -157.085904 
L 510.356852 -157.980724 
L 508.798333 -156.513531 
L 507.239815 -157.920487 
L 505.681296 -156.506344 
L 504.122778 -153.263329 
L 502.564259 -155.638533 
L 501.005741 -156.378689 
L 499.447222 -158.78102 
L 497.888704 -159.208285 
L 496.330185 -161.270182 
L 494.771667 -161.021246 
L 493.213148 -156.847199 
L 491.65463 -155.824011 
L 490.096111 -153.377876 
L 488.537593 -152.96734 
L 486.979074 -148.978267 
L 485.420556 -149.278152 
L 483.862037 -149.035405 
L 482.303519 -152.19362 
L 480.745 -152.435741 
L 479.186481 -150.457408 
L 477.627963 -151.963997 
L 476.069444 -153.308766 
L 474.510926 -159.337782 
L 472.952407 -153.255857 
L 471.393889 -153.052781 
L 469.83537 -157.174498 
L 468.276852 -161.110046 
L 466.718333 -159.836109 
L 465.159815 -156.339747 
L 463.601296 -157.35942 
L 462.042778 -161.526848 
L 460.484259 -161.858826 
L 458.925741 -154.788958 
L 457.367222 -157.748138 
L 455.808704 -160.052522 
L 454.250185 -160.015359 
L 452.691667 -158.360394 
L 451.133148 -157.925208 
L 449.57463 -164.272369 
L 448.016111 -160.558497 
L 446.457593 -157.394237 
L 444.899074 -157.849 
L 443.340556 -158.762263 
L 441.782037 -157.995922 
L 440.223519 -155.291331 
L 438.665 -157.070227 
L 437.106481 -157.334118 
L 435.547963 -156.233989 
L 433.989444 -154.126802 
L 432.430926 -157.651782 
L 430.872407 -156.720888 
L 429.313889 -156.120958 
L 427.75537 -157.996259 
L 426.196852 -159.55369 
L 424.638333 -157.248091 
L 423.079815 -152.789456 
L 421.521296 -154.212707 
L 419.962778 -154.255008 
L 418.404259 -154.293694 
L 416.845741 -153.956029 
L 415.287222 -156.565122 
L 413.728704 -158.474846 
L 412.170185 -156.50038 
L 410.611667 -155.6839 
L 409.053148 -155.850202 
L 407.49463 -155.356262 
L 405.936111 -157.893018 
L 404.377593 -157.641304 
L 402.819074 -158.571224 
L 401.260556 -160.041179 
L 399.702037 -160.382324 
L 398.143519 -160.457479 
L 396.585 -157.695675 
L 395.026481 -155.573296 
L 393.467963 -154.634696 
L 391.909444 -154.660354 
L 390.350926 -153.306302 
L 388.792407 -155.217634 
L 387.233889 -153.684901 
L 385.67537 -154.089932 
L 384.116852 -153.914334 
L 382.558333 -154.802936 
z
" id="m70a2a30a7a" style="stroke:#000000;"/>
    </defs>
    <g clip-path="url(#p43501fbeaa)">
     <use style="stroke:#000000;" x="0" xlink:href="#m70a2a30a7a" y="288"/>
    </g>
   </g>
   <g id="PolyCollection_6">
    <defs>
     <path d="M 382.558333 -155.529348 
L 382.558333 -148.640933 
L 384.116852 -148.281189 
L 385.67537 -147.478394 
L 387.233889 -147.265999 
L 388.792407 -148.636069 
L 390.350926 -147.175626 
L 391.909444 -149.728936 
L 393.467963 -152.065212 
L 395.026481 -154.338106 
L 396.585 -154.677253 
L 398.143519 -154.17941 
L 399.702037 -151.182038 
L 401.260556 -151.614665 
L 402.819074 -149.385836 
L 404.377593 -149.727097 
L 405.936111 -151.978099 
L 407.49463 -151.593915 
L 409.053148 -150.664903 
L 410.611667 -151.594898 
L 412.170185 -152.889941 
L 413.728704 -149.814253 
L 415.287222 -147.867976 
L 416.845741 -147.230452 
L 418.404259 -148.030319 
L 419.962778 -146.394916 
L 421.521296 -146.26471 
L 423.079815 -148.462169 
L 424.638333 -147.138238 
L 426.196852 -151.715857 
L 427.75537 -152.403554 
L 429.313889 -150.159479 
L 430.872407 -152.00291 
L 432.430926 -149.34882 
L 433.989444 -151.282436 
L 435.547963 -150.997343 
L 437.106481 -149.96506 
L 438.665 -152.857538 
L 440.223519 -146.988378 
L 441.782037 -145.929351 
L 443.340556 -148.007469 
L 444.899074 -146.209422 
L 446.457593 -145.044306 
L 448.016111 -148.629374 
L 449.57463 -150.004913 
L 451.133148 -150.308109 
L 452.691667 -147.097272 
L 454.250185 -149.451333 
L 455.808704 -150.595157 
L 457.367222 -149.492064 
L 458.925741 -151.667932 
L 460.484259 -150.276216 
L 462.042778 -148.624467 
L 463.601296 -147.414677 
L 465.159815 -144.589875 
L 466.718333 -143.752514 
L 468.276852 -139.868134 
L 469.83537 -140.64658 
L 471.393889 -145.623972 
L 472.952407 -144.583319 
L 474.510926 -143.881199 
L 476.069444 -146.381153 
L 477.627963 -150.260155 
L 479.186481 -149.101905 
L 480.745 -148.002619 
L 482.303519 -149.608969 
L 483.862037 -152.253883 
L 485.420556 -152.640337 
L 486.979074 -149.432139 
L 488.537593 -150.210429 
L 490.096111 -146.116238 
L 491.65463 -145.643421 
L 493.213148 -145.900385 
L 494.771667 -144.52708 
L 496.330185 -146.330699 
L 497.888704 -147.590991 
L 499.447222 -149.332196 
L 501.005741 -149.272097 
L 502.564259 -152.123424 
L 504.122778 -155.134859 
L 505.681296 -155.686654 
L 507.239815 -152.851206 
L 508.798333 -151.207454 
L 510.356852 -151.531595 
L 511.91537 -149.535346 
L 513.473889 -150.703151 
L 515.032407 -151.397593 
L 516.590926 -152.502979 
L 518.149444 -153.09931 
L 519.707963 -152.351932 
L 521.266481 -151.532458 
L 522.825 -152.591099 
L 522.825 -158.808669 
L 522.825 -158.808669 
L 521.266481 -157.610331 
L 519.707963 -158.357356 
L 518.149444 -158.132524 
L 516.590926 -157.627671 
L 515.032407 -155.864076 
L 513.473889 -155.019556 
L 511.91537 -154.441815 
L 510.356852 -157.180487 
L 508.798333 -156.288921 
L 507.239815 -157.70476 
L 505.681296 -161.223941 
L 504.122778 -161.072538 
L 502.564259 -158.119358 
L 501.005741 -155.417559 
L 499.447222 -156.266927 
L 497.888704 -155.033097 
L 496.330185 -153.484518 
L 494.771667 -151.466507 
L 493.213148 -153.858982 
L 491.65463 -153.389453 
L 490.096111 -153.504238 
L 488.537593 -156.211828 
L 486.979074 -155.370817 
L 485.420556 -158.056435 
L 483.862037 -158.55503 
L 482.303519 -156.504871 
L 480.745 -155.431036 
L 479.186481 -156.880447 
L 477.627963 -157.892276 
L 476.069444 -154.794821 
L 474.510926 -153.325584 
L 472.952407 -153.711575 
L 471.393889 -154.716441 
L 469.83537 -149.909913 
L 468.276852 -148.676292 
L 466.718333 -152.678087 
L 465.159815 -154.299751 
L 463.601296 -156.511994 
L 462.042778 -159.292058 
L 460.484259 -160.250935 
L 458.925741 -160.423634 
L 457.367222 -156.948995 
L 455.808704 -158.634277 
L 454.250185 -158.212708 
L 452.691667 -156.414185 
L 451.133148 -160.685557 
L 449.57463 -160.35734 
L 448.016111 -158.142906 
L 446.457593 -157.304195 
L 444.899074 -157.658522 
L 443.340556 -158.530626 
L 441.782037 -154.547371 
L 440.223519 -154.544262 
L 438.665 -160.60733 
L 437.106481 -157.930703 
L 435.547963 -158.841157 
L 433.989444 -159.028332 
L 432.430926 -156.865072 
L 430.872407 -159.577401 
L 429.313889 -156.566119 
L 427.75537 -158.958499 
L 426.196852 -158.872405 
L 424.638333 -153.89452 
L 423.079815 -155.203042 
L 421.521296 -152.541816 
L 419.962778 -154.081081 
L 418.404259 -155.451531 
L 416.845741 -154.859111 
L 415.287222 -154.28478 
L 413.728704 -156.112807 
L 412.170185 -158.815972 
L 410.611667 -156.980364 
L 409.053148 -155.797141 
L 407.49463 -156.12439 
L 405.936111 -156.952645 
L 404.377593 -154.789272 
L 402.819074 -155.218605 
L 401.260556 -158.098124 
L 399.702037 -157.825878 
L 398.143519 -160.278535 
L 396.585 -159.646452 
L 395.026481 -159.28507 
L 393.467963 -156.55192 
L 391.909444 -154.175602 
L 390.350926 -151.661392 
L 388.792407 -153.074599 
L 387.233889 -152.406031 
L 385.67537 -153.73969 
L 384.116852 -153.543757 
L 382.558333 -155.529348 
z
" id="md23be17a87" style="stroke:#00bfbf;"/>
    </defs>
    <g clip-path="url(#p43501fbeaa)">
     <use style="fill:#00bfbf;stroke:#00bfbf;" x="0" xlink:href="#md23be17a87" y="288"/>
    </g>
   </g>
   <g id="matplotlib.axis_5">
    <g id="xtick_11">
     <g id="line2d_20">
      <g>
       <use style="stroke:#000000;stroke-width:0.8;" x="382.558333" xlink:href="#m4d5ae54f21" y="242.2"/>
      </g>
     </g>
     <g id="text_27">
      <!-- −90 -->
      <g transform="translate(372.00599 256.798437)scale(0.1 -0.1)">
       <use xlink:href="#DejaVuSans-8722"/>
       <use x="83.789062" xlink:href="#DejaVuSans-57"/>
       <use x="147.412109" xlink:href="#DejaVuSans-48"/>
      </g>
     </g>
    </g>
    <g id="xtick_12">
     <g id="line2d_21">
      <g>
       <use style="stroke:#000000;stroke-width:0.8;" x="417.625" xlink:href="#m4d5ae54f21" y="242.2"/>
      </g>
     </g>
     <g id="text_28">
      <!-- −45 -->
      <g transform="translate(407.072656 256.798437)scale(0.1 -0.1)">
       <use xlink:href="#DejaVuSans-8722"/>
       <use x="83.789062" xlink:href="#DejaVuSans-52"/>
       <use x="147.412109" xlink:href="#DejaVuSans-53"/>
      </g>
     </g>
    </g>
    <g id="xtick_13">
     <g id="line2d_22">
      <g>
       <use style="stroke:#000000;stroke-width:0.8;" x="452.691667" xlink:href="#m4d5ae54f21" y="242.2"/>
      </g>
     </g>
     <g id="text_29">
      <!-- 0 -->
      <g transform="translate(449.510417 256.798437)scale(0.1 -0.1)">
       <use xlink:href="#DejaVuSans-48"/>
      </g>
     </g>
    </g>
    <g id="xtick_14">
     <g id="line2d_23">
      <g>
       <use style="stroke:#000000;stroke-width:0.8;" x="487.758333" xlink:href="#m4d5ae54f21" y="242.2"/>
      </g>
     </g>
     <g id="text_30">
      <!-- 45 -->
      <g transform="translate(481.395833 256.798437)scale(0.1 -0.1)">
       <use xlink:href="#DejaVuSans-52"/>
       <use x="63.623047" xlink:href="#DejaVuSans-53"/>
      </g>
     </g>
    </g>
    <g id="xtick_15">
     <g id="line2d_24">
      <g>
       <use style="stroke:#000000;stroke-width:0.8;" x="522.825" xlink:href="#m4d5ae54f21" y="242.2"/>
      </g>
     </g>
     <g id="text_31">
      <!-- 90 -->
      <g transform="translate(516.4625 256.798437)scale(0.1 -0.1)">
       <use xlink:href="#DejaVuSans-57"/>
       <use x="63.623047" xlink:href="#DejaVuSans-48"/>
      </g>
     </g>
    </g>
    <g id="text_32">
     <!-- $\Delta \theta$ (deg) -->
     <g transform="translate(431.291667 270.578125)scale(0.1 -0.1)">
      <use transform="translate(0 0.234375)" xlink:href="#DejaVuSans-916"/>
      <use transform="translate(68.408203 0.234375)" xlink:href="#DejaVuSans-Oblique-952"/>
      <use transform="translate(129.589844 0.234375)" xlink:href="#DejaVuSans-32"/>
      <use transform="translate(161.376953 0.234375)" xlink:href="#DejaVuSans-40"/>
      <use transform="translate(200.390625 0.234375)" xlink:href="#DejaVuSans-100"/>
      <use transform="translate(263.867188 0.234375)" xlink:href="#DejaVuSans-101"/>
      <use transform="translate(325.390625 0.234375)" xlink:href="#DejaVuSans-103"/>
      <use transform="translate(388.867188 0.234375)" xlink:href="#DejaVuSans-41"/>
     </g>
    </g>
   </g>
   <g id="matplotlib.axis_6"/>
   <g id="line2d_25">
    <path clip-path="url(#p43501fbeaa)" d="M 382.558333 134.5 
L 522.825 134.5 
" style="fill:none;stroke:#000000;stroke-dasharray:5.55,2.4;stroke-dashoffset:0;stroke-width:1.5;"/>
   </g>
   <g id="line2d_26">
    <path clip-path="url(#p43501fbeaa)" d="M 452.691667 242.2 
L 452.691667 26.8 
" style="fill:none;stroke:#0000ff;stroke-dasharray:5.55,2.4;stroke-dashoffset:0;stroke-width:1.5;"/>
   </g>
   <g id="patch_13">
    <path d="M 382.558333 242.2 
L 382.558333 26.8 
" style="fill:none;stroke:#000000;stroke-linecap:square;stroke-linejoin:miter;stroke-width:0.8;"/>
   </g>
   <g id="patch_14">
    <path d="M 522.825 242.2 
L 522.825 26.8 
" style="fill:none;stroke:#000000;stroke-linecap:square;stroke-linejoin:miter;stroke-width:0.8;"/>
   </g>
   <g id="patch_15">
    <path d="M 382.558333 242.2 
L 522.825 242.2 
" style="fill:none;stroke:#000000;stroke-linecap:square;stroke-linejoin:miter;stroke-width:0.8;"/>
   </g>
   <g id="patch_16">
    <path d="M 382.558333 26.8 
L 522.825 26.8 
" style="fill:none;stroke:#000000;stroke-linecap:square;stroke-linejoin:miter;stroke-width:0.8;"/>
   </g>
   <g id="text_33">
    <!-- S* -->
    <g style="fill:#bf00bf;" transform="translate(499.447222 67.828571)scale(0.1 -0.1)">
     <use xlink:href="#DejaVuSans-83"/>
     <use x="63.476562" xlink:href="#DejaVuSans-42"/>
    </g>
   </g>
   <g id="text_34">
    <!-- Yes E Corrected -->
    <g transform="translate(386.45463 47.314286)scale(0.1 -0.1)">
     <defs>
      <path d="M -0.203125 72.90625 
L 10.40625 72.90625 
L 30.609375 42.921875 
L 50.6875 72.90625 
L 61.28125 72.90625 
L 35.5 34.71875 
L 35.5 0 
L 25.59375 0 
L 25.59375 34.71875 
z
" id="DejaVuSans-89"/>
      <path d="M 9.8125 72.90625 
L 55.90625 72.90625 
L 55.90625 64.59375 
L 19.671875 64.59375 
L 19.671875 43.015625 
L 54.390625 43.015625 
L 54.390625 34.71875 
L 19.671875 34.71875 
L 19.671875 8.296875 
L 56.78125 8.296875 
L 56.78125 0 
L 9.8125 0 
z
" id="DejaVuSans-69"/>
      <path d="M 64.40625 67.28125 
L 64.40625 56.890625 
Q 59.421875 61.53125 53.78125 63.8125 
Q 48.140625 66.109375 41.796875 66.109375 
Q 29.296875 66.109375 22.65625 58.46875 
Q 16.015625 50.828125 16.015625 36.375 
Q 16.015625 21.96875 22.65625 14.328125 
Q 29.296875 6.6875 41.796875 6.6875 
Q 48.140625 6.6875 53.78125 8.984375 
Q 59.421875 11.28125 64.40625 15.921875 
L 64.40625 5.609375 
Q 59.234375 2.09375 53.4375 0.328125 
Q 47.65625 -1.421875 41.21875 -1.421875 
Q 24.65625 -1.421875 15.125 8.703125 
Q 5.609375 18.84375 5.609375 36.375 
Q 5.609375 53.953125 15.125 64.078125 
Q 24.65625 74.21875 41.21875 74.21875 
Q 47.75 74.21875 53.53125 72.484375 
Q 59.328125 70.75 64.40625 67.28125 
z
" id="DejaVuSans-67"/>
      <path d="M 30.609375 48.390625 
Q 23.390625 48.390625 19.1875 42.75 
Q 14.984375 37.109375 14.984375 27.296875 
Q 14.984375 17.484375 19.15625 11.84375 
Q 23.34375 6.203125 30.609375 6.203125 
Q 37.796875 6.203125 41.984375 11.859375 
Q 46.1875 17.53125 46.1875 27.296875 
Q 46.1875 37.015625 41.984375 42.703125 
Q 37.796875 48.390625 30.609375 48.390625 
z
M 30.609375 56 
Q 42.328125 56 49.015625 48.375 
Q 55.71875 40.765625 55.71875 27.296875 
Q 55.71875 13.875 49.015625 6.21875 
Q 42.328125 -1.421875 30.609375 -1.421875 
Q 18.84375 -1.421875 12.171875 6.21875 
Q 5.515625 13.875 5.515625 27.296875 
Q 5.515625 40.765625 12.171875 48.375 
Q 18.84375 56 30.609375 56 
z
" id="DejaVuSans-111"/>
      <path d="M 41.109375 46.296875 
Q 39.59375 47.171875 37.8125 47.578125 
Q 36.03125 48 33.890625 48 
Q 26.265625 48 22.1875 43.046875 
Q 18.109375 38.09375 18.109375 28.8125 
L 18.109375 0 
L 9.078125 0 
L 9.078125 54.6875 
L 18.109375 54.6875 
L 18.109375 46.1875 
Q 20.953125 51.171875 25.484375 53.578125 
Q 30.03125 56 36.53125 56 
Q 37.453125 56 38.578125 55.875 
Q 39.703125 55.765625 41.0625 55.515625 
z
" id="DejaVuSans-114"/>
      <path d="M 48.78125 52.59375 
L 48.78125 44.1875 
Q 44.96875 46.296875 41.140625 47.34375 
Q 37.3125 48.390625 33.40625 48.390625 
Q 24.65625 48.390625 19.8125 42.84375 
Q 14.984375 37.3125 14.984375 27.296875 
Q 14.984375 17.28125 19.8125 11.734375 
Q 24.65625 6.203125 33.40625 6.203125 
Q 37.3125 6.203125 41.140625 7.25 
Q 44.96875 8.296875 48.78125 10.40625 
L 48.78125 2.09375 
Q 45.015625 0.34375 40.984375 -0.53125 
Q 36.96875 -1.421875 32.421875 -1.421875 
Q 20.0625 -1.421875 12.78125 6.34375 
Q 5.515625 14.109375 5.515625 27.296875 
Q 5.515625 40.671875 12.859375 48.328125 
Q 20.21875 56 33.015625 56 
Q 37.15625 56 41.109375 55.140625 
Q 45.0625 54.296875 48.78125 52.59375 
z
" id="DejaVuSans-99"/>
     </defs>
     <use xlink:href="#DejaVuSans-89"/>
     <use x="47.833984" xlink:href="#DejaVuSans-101"/>
     <use x="109.357422" xlink:href="#DejaVuSans-115"/>
     <use x="161.457031" xlink:href="#DejaVuSans-32"/>
     <use x="193.244141" xlink:href="#DejaVuSans-69"/>
     <use x="256.427734" xlink:href="#DejaVuSans-32"/>
     <use x="288.214844" xlink:href="#DejaVuSans-67"/>
     <use x="358.039062" xlink:href="#DejaVuSans-111"/>
     <use x="419.220703" xlink:href="#DejaVuSans-114"/>
     <use x="458.583984" xlink:href="#DejaVuSans-114"/>
     <use x="497.447266" xlink:href="#DejaVuSans-101"/>
     <use x="558.970703" xlink:href="#DejaVuSans-99"/>
     <use x="613.951172" xlink:href="#DejaVuSans-116"/>
     <use x="653.160156" xlink:href="#DejaVuSans-101"/>
     <use x="714.683594" xlink:href="#DejaVuSans-100"/>
    </g>
   </g>
   <g id="text_35">
    <!-- No resp Corrected -->
    <g transform="translate(386.45463 67.828571)scale(0.1 -0.1)">
     <defs>
      <path d="M 9.8125 72.90625 
L 23.09375 72.90625 
L 55.421875 11.921875 
L 55.421875 72.90625 
L 64.984375 72.90625 
L 64.984375 0 
L 51.703125 0 
L 19.390625 60.984375 
L 19.390625 0 
L 9.8125 0 
z
" id="DejaVuSans-78"/>
     </defs>
     <use xlink:href="#DejaVuSans-78"/>
     <use x="74.804688" xlink:href="#DejaVuSans-111"/>
     <use x="135.986328" xlink:href="#DejaVuSans-32"/>
     <use x="167.773438" xlink:href="#DejaVuSans-114"/>
     <use x="206.636719" xlink:href="#DejaVuSans-101"/>
     <use x="268.160156" xlink:href="#DejaVuSans-115"/>
     <use x="320.259766" xlink:href="#DejaVuSans-112"/>
     <use x="383.736328" xlink:href="#DejaVuSans-32"/>
     <use x="415.523438" xlink:href="#DejaVuSans-67"/>
     <use x="485.347656" xlink:href="#DejaVuSans-111"/>
     <use x="546.529297" xlink:href="#DejaVuSans-114"/>
     <use x="585.892578" xlink:href="#DejaVuSans-114"/>
     <use x="624.755859" xlink:href="#DejaVuSans-101"/>
     <use x="686.279297" xlink:href="#DejaVuSans-99"/>
     <use x="741.259766" xlink:href="#DejaVuSans-116"/>
     <use x="780.46875" xlink:href="#DejaVuSans-101"/>
     <use x="841.992188" xlink:href="#DejaVuSans-100"/>
    </g>
   </g>
   <g id="text_36">
    <!-- (-) AutoCorr -->
    <g transform="translate(386.45463 221.685714)scale(0.1 -0.1)">
     <defs>
      <path d="M 34.1875 63.1875 
L 20.796875 26.90625 
L 47.609375 26.90625 
z
M 28.609375 72.90625 
L 39.796875 72.90625 
L 67.578125 0 
L 57.328125 0 
L 50.6875 18.703125 
L 17.828125 18.703125 
L 11.1875 0 
L 0.78125 0 
z
" id="DejaVuSans-65"/>
      <path d="M 8.5 21.578125 
L 8.5 54.6875 
L 17.484375 54.6875 
L 17.484375 21.921875 
Q 17.484375 14.15625 20.5 10.265625 
Q 23.53125 6.390625 29.59375 6.390625 
Q 36.859375 6.390625 41.078125 11.03125 
Q 45.3125 15.671875 45.3125 23.6875 
L 45.3125 54.6875 
L 54.296875 54.6875 
L 54.296875 0 
L 45.3125 0 
L 45.3125 8.40625 
Q 42.046875 3.421875 37.71875 1 
Q 33.40625 -1.421875 27.6875 -1.421875 
Q 18.265625 -1.421875 13.375 4.4375 
Q 8.5 10.296875 8.5 21.578125 
z
M 31.109375 56 
z
" id="DejaVuSans-117"/>
     </defs>
     <use xlink:href="#DejaVuSans-40"/>
     <use x="39.013672" xlink:href="#DejaVuSans-45"/>
     <use x="75.097656" xlink:href="#DejaVuSans-41"/>
     <use x="114.111328" xlink:href="#DejaVuSans-32"/>
     <use x="145.898438" xlink:href="#DejaVuSans-65"/>
     <use x="214.306641" xlink:href="#DejaVuSans-117"/>
     <use x="277.685547" xlink:href="#DejaVuSans-116"/>
     <use x="316.894531" xlink:href="#DejaVuSans-111"/>
     <use x="378.076172" xlink:href="#DejaVuSans-67"/>
     <use x="447.900391" xlink:href="#DejaVuSans-111"/>
     <use x="509.082031" xlink:href="#DejaVuSans-114"/>
     <use x="548.445312" xlink:href="#DejaVuSans-114"/>
    </g>
   </g>
   <g id="text_37">
    <!-- Yes CB Yes Oblique -->
    <g transform="translate(386.45463 201.171429)scale(0.1 -0.1)">
     <defs>
      <path d="M 39.40625 66.21875 
Q 28.65625 66.21875 22.328125 58.203125 
Q 16.015625 50.203125 16.015625 36.375 
Q 16.015625 22.609375 22.328125 14.59375 
Q 28.65625 6.59375 39.40625 6.59375 
Q 50.140625 6.59375 56.421875 14.59375 
Q 62.703125 22.609375 62.703125 36.375 
Q 62.703125 50.203125 56.421875 58.203125 
Q 50.140625 66.21875 39.40625 66.21875 
z
M 39.40625 74.21875 
Q 54.734375 74.21875 63.90625 63.9375 
Q 73.09375 53.65625 73.09375 36.375 
Q 73.09375 19.140625 63.90625 8.859375 
Q 54.734375 -1.421875 39.40625 -1.421875 
Q 24.03125 -1.421875 14.8125 8.828125 
Q 5.609375 19.09375 5.609375 36.375 
Q 5.609375 53.65625 14.8125 63.9375 
Q 24.03125 74.21875 39.40625 74.21875 
z
" id="DejaVuSans-79"/>
      <path d="M 9.421875 75.984375 
L 18.40625 75.984375 
L 18.40625 0 
L 9.421875 0 
z
" id="DejaVuSans-108"/>
      <path d="M 14.796875 27.296875 
Q 14.796875 17.390625 18.875 11.75 
Q 22.953125 6.109375 30.078125 6.109375 
Q 37.203125 6.109375 41.296875 11.75 
Q 45.40625 17.390625 45.40625 27.296875 
Q 45.40625 37.203125 41.296875 42.84375 
Q 37.203125 48.484375 30.078125 48.484375 
Q 22.953125 48.484375 18.875 42.84375 
Q 14.796875 37.203125 14.796875 27.296875 
z
M 45.40625 8.203125 
Q 42.578125 3.328125 38.25 0.953125 
Q 33.9375 -1.421875 27.875 -1.421875 
Q 17.96875 -1.421875 11.734375 6.484375 
Q 5.515625 14.40625 5.515625 27.296875 
Q 5.515625 40.1875 11.734375 48.09375 
Q 17.96875 56 27.875 56 
Q 33.9375 56 38.25 53.625 
Q 42.578125 51.265625 45.40625 46.390625 
L 45.40625 54.6875 
L 54.390625 54.6875 
L 54.390625 -20.796875 
L 45.40625 -20.796875 
z
" id="DejaVuSans-113"/>
     </defs>
     <use xlink:href="#DejaVuSans-89"/>
     <use x="47.833984" xlink:href="#DejaVuSans-101"/>
     <use x="109.357422" xlink:href="#DejaVuSans-115"/>
     <use x="161.457031" xlink:href="#DejaVuSans-32"/>
     <use x="193.244141" xlink:href="#DejaVuSans-67"/>
     <use x="263.068359" xlink:href="#DejaVuSans-66"/>
     <use x="331.671875" xlink:href="#DejaVuSans-32"/>
     <use x="363.458984" xlink:href="#DejaVuSans-89"/>
     <use x="411.292969" xlink:href="#DejaVuSans-101"/>
     <use x="472.816406" xlink:href="#DejaVuSans-115"/>
     <use x="524.916016" xlink:href="#DejaVuSans-32"/>
     <use x="556.703125" xlink:href="#DejaVuSans-79"/>
     <use x="635.414062" xlink:href="#DejaVuSans-98"/>
     <use x="698.890625" xlink:href="#DejaVuSans-108"/>
     <use x="726.673828" xlink:href="#DejaVuSans-105"/>
     <use x="754.457031" xlink:href="#DejaVuSans-113"/>
     <use x="817.933594" xlink:href="#DejaVuSans-117"/>
     <use x="881.3125" xlink:href="#DejaVuSans-101"/>
    </g>
   </g>
   <g id="text_38">
    <!-- nb:-1 | No SD -->
    <g transform="translate(412.745729 20.8)scale(0.12 -0.12)">
     <use xlink:href="#DejaVuSans-110"/>
     <use x="63.378906" xlink:href="#DejaVuSans-98"/>
     <use x="126.855469" xlink:href="#DejaVuSans-58"/>
     <use x="160.546875" xlink:href="#DejaVuSans-45"/>
     <use x="196.630859" xlink:href="#DejaVuSans-49"/>
     <use x="260.253906" xlink:href="#DejaVuSans-32"/>
     <use x="292.041016" xlink:href="#DejaVuSans-124"/>
     <use x="325.732422" xlink:href="#DejaVuSans-32"/>
     <use x="357.519531" xlink:href="#DejaVuSans-78"/>
     <use x="432.324219" xlink:href="#DejaVuSans-111"/>
     <use x="493.505859" xlink:href="#DejaVuSans-32"/>
     <use x="525.292969" xlink:href="#DejaVuSans-83"/>
     <use x="588.769531" xlink:href="#DejaVuSans-68"/>
    </g>
   </g>
  </g>
 </g>
 <defs>
  <clipPath id="pd4e1ab7e22">
   <rect height="215.4" width="140.266667" x="46.55" y="26.8"/>
  </clipPath>
  <clipPath id="p7b1dda9769">
   <rect height="215.4" width="140.266667" x="214.554167" y="26.8"/>
  </clipPath>
  <clipPath id="p43501fbeaa">
   <rect height="215.4" width="140.266667" x="382.558333" y="26.8"/>
  </clipPath>
 </defs>
</svg>
