<?xml version="1.0" encoding="utf-8" standalone="no"?>
<!DOCTYPE svg PUBLIC "-//W3C//DTD SVG 1.1//EN"
  "http://www.w3.org/Graphics/SVG/1.1/DTD/svg11.dtd">
<!-- Created with matplotlib (https://matplotlib.org/) -->
<svg height="288pt" version="1.1" viewBox="0 0 540 288" width="540pt" xmlns="http://www.w3.org/2000/svg" xmlns:xlink="http://www.w3.org/1999/xlink">
 <metadata>
  <rdf:RDF xmlns:cc="http://creativecommons.org/ns#" xmlns:dc="http://purl.org/dc/elements/1.1/" xmlns:rdf="http://www.w3.org/1999/02/22-rdf-syntax-ns#">
   <cc:Work>
    <dc:type rdf:resource="http://purl.org/dc/dcmitype/StillImage"/>
    <dc:date>2022-12-15T21:44:56.058748</dc:date>
    <dc:format>image/svg+xml</dc:format>
    <dc:creator>
     <cc:Agent>
      <dc:title>Matplotlib v3.3.1, https://matplotlib.org/</dc:title>
     </cc:Agent>
    </dc:creator>
   </cc:Work>
  </rdf:RDF>
 </metadata>
 <defs>
  <style type="text/css">*{stroke-linecap:butt;stroke-linejoin:round;}</style>
 </defs>
 <g id="figure_1">
  <g id="patch_1">
   <path d="M 0 288 
L 540 288 
L 540 0 
L 0 0 
z
" style="fill:none;"/>
  </g>
  <g id="axes_1">
   <g id="patch_2">
    <path d="M 46.55 242.2 
L 186.816667 242.2 
L 186.816667 26.8 
L 46.55 26.8 
z
" style="fill:#ffffff;"/>
   </g>
   <g id="PolyCollection_1">
    <defs>
     <path d="M 46.55 -158.201218 
L 46.55 -146.279115 
L 48.108519 -148.981988 
L 49.667037 -146.954306 
L 51.225556 -148.435329 
L 52.784074 -151.63534 
L 54.342593 -152.431276 
L 55.901111 -147.944675 
L 57.45963 -146.823032 
L 59.018148 -142.015443 
L 60.576667 -139.676045 
L 62.135185 -145.656793 
L 63.693704 -147.06516 
L 65.252222 -145.041081 
L 66.810741 -144.002605 
L 68.369259 -146.465503 
L 69.927778 -149.360601 
L 71.486296 -146.759689 
L 73.044815 -147.42522 
L 74.603333 -144.771392 
L 76.161852 -143.361954 
L 77.72037 -135.534065 
L 79.278889 -129.793651 
L 80.837407 -130.523416 
L 82.395926 -124.866095 
L 83.954444 -121.382932 
L 85.512963 -116.556494 
L 87.071481 -108.91281 
L 88.63 -105.381389 
L 90.188519 -93.934795 
L 91.747037 -89.230665 
L 93.305556 -83.614215 
L 94.864074 -80.521294 
L 96.422593 -80.079744 
L 97.981111 -76.720476 
L 99.53963 -76.680538 
L 101.098148 -76.876593 
L 102.656667 -80.281865 
L 104.215185 -84.304468 
L 105.773704 -92.897108 
L 107.332222 -100.598201 
L 108.890741 -108.51019 
L 110.449259 -116.436447 
L 112.007778 -123.913993 
L 113.566296 -133.408121 
L 115.124815 -143.626495 
L 116.683333 -153.507076 
L 118.241852 -162.741882 
L 119.80037 -172.888949 
L 121.358889 -181.431778 
L 122.917407 -188.58256 
L 124.475926 -196.92248 
L 126.034444 -204.261527 
L 127.592963 -210.692653 
L 129.151481 -215.569989 
L 130.71 -221.439981 
L 132.268519 -226.731019 
L 133.827037 -228.833451 
L 135.385556 -228.011538 
L 136.944074 -229.276381 
L 138.502593 -227.513711 
L 140.061111 -223.202976 
L 141.61963 -217.881911 
L 143.178148 -208.640106 
L 144.736667 -203.918537 
L 146.295185 -194.043201 
L 147.853704 -185.834493 
L 149.412222 -177.295192 
L 150.970741 -168.877254 
L 152.529259 -167.207133 
L 154.087778 -160.233959 
L 155.646296 -159.171135 
L 157.204815 -157.360626 
L 158.763333 -161.377693 
L 160.321852 -157.157912 
L 161.88037 -153.661136 
L 163.438889 -154.363135 
L 164.997407 -156.152095 
L 166.555926 -153.219125 
L 168.114444 -152.54941 
L 169.672963 -156.610321 
L 171.231481 -159.704168 
L 172.79 -160.511562 
L 174.348519 -159.375738 
L 175.907037 -157.475505 
L 177.465556 -158.362393 
L 179.024074 -154.488599 
L 180.582593 -151.265991 
L 182.141111 -153.692916 
L 183.69963 -152.647522 
L 185.258148 -146.322104 
L 186.816667 -144.513587 
L 186.816667 -155.130851 
L 186.816667 -155.130851 
L 185.258148 -157.6922 
L 183.69963 -165.305415 
L 182.141111 -164.550576 
L 180.582593 -161.039248 
L 179.024074 -164.130533 
L 177.465556 -167.136069 
L 175.907037 -167.46023 
L 174.348519 -168.42057 
L 172.79 -168.412711 
L 171.231481 -166.856267 
L 169.672963 -163.314097 
L 168.114444 -159.50168 
L 166.555926 -162.06189 
L 164.997407 -165.053688 
L 163.438889 -164.281962 
L 161.88037 -163.275822 
L 160.321852 -166.092497 
L 158.763333 -170.337932 
L 157.204815 -166.154667 
L 155.646296 -169.106702 
L 154.087778 -169.118636 
L 152.529259 -175.086087 
L 150.970741 -176.742932 
L 149.412222 -185.393347 
L 147.853704 -194.432446 
L 146.295185 -205.712789 
L 144.736667 -214.482561 
L 143.178148 -219.538074 
L 141.61963 -226.715169 
L 140.061111 -231.017732 
L 138.502593 -235.141251 
L 136.944074 -236.509964 
L 135.385556 -234.724691 
L 133.827037 -234.429058 
L 132.268519 -232.633822 
L 130.71 -226.107523 
L 129.151481 -220.527869 
L 127.592963 -214.998993 
L 126.034444 -208.62258 
L 124.475926 -200.756543 
L 122.917407 -192.577639 
L 121.358889 -185.26244 
L 119.80037 -176.388671 
L 118.241852 -165.763641 
L 116.683333 -156.147984 
L 115.124815 -146.551589 
L 113.566296 -136.28161 
L 112.007778 -127.04219 
L 110.449259 -119.608608 
L 108.890741 -111.968271 
L 107.332222 -104.48026 
L 105.773704 -96.555815 
L 104.215185 -89.582851 
L 102.656667 -86.295077 
L 101.098148 -83.06099 
L 99.53963 -83.36067 
L 97.981111 -83.157257 
L 96.422593 -88.218631 
L 94.864074 -88.336867 
L 93.305556 -93.044861 
L 91.747037 -98.885443 
L 90.188519 -104.581894 
L 88.63 -114.797288 
L 87.071481 -119.990628 
L 85.512963 -127.208918 
L 83.954444 -133.533015 
L 82.395926 -135.271873 
L 80.837407 -140.024709 
L 79.278889 -139.604762 
L 77.72037 -143.974267 
L 76.161852 -151.866538 
L 74.603333 -153.719742 
L 73.044815 -156.021038 
L 71.486296 -154.879949 
L 69.927778 -157.112363 
L 68.369259 -153.540297 
L 66.810741 -152.799101 
L 65.252222 -156.345128 
L 63.693704 -156.527172 
L 62.135185 -153.783112 
L 60.576667 -148.162082 
L 59.018148 -152.379255 
L 57.45963 -157.553073 
L 55.901111 -158.633713 
L 54.342593 -161.167241 
L 52.784074 -160.647798 
L 51.225556 -159.197177 
L 49.667037 -158.913332 
L 48.108519 -160.864151 
L 46.55 -158.201218 
z
" id="m16a2e078f0" style="stroke:#000000;"/>
    </defs>
    <g clip-path="url(#pc5f5527435)">
     <use style="stroke:#000000;" x="0" xlink:href="#m16a2e078f0" y="288"/>
    </g>
   </g>
   <g id="PolyCollection_2">
    <defs>
     <path d="M 46.55 -163.854613 
L 46.55 -151.551427 
L 48.108519 -153.609652 
L 49.667037 -158.071541 
L 51.225556 -155.583475 
L 52.784074 -156.656951 
L 54.342593 -152.890404 
L 55.901111 -148.404557 
L 57.45963 -150.142666 
L 59.018148 -149.496353 
L 60.576667 -147.738887 
L 62.135185 -146.234965 
L 63.693704 -143.793637 
L 65.252222 -147.862658 
L 66.810741 -147.917639 
L 68.369259 -145.557039 
L 69.927778 -142.59569 
L 71.486296 -141.875783 
L 73.044815 -141.091894 
L 74.603333 -137.452592 
L 76.161852 -136.669853 
L 77.72037 -137.501263 
L 79.278889 -134.2925 
L 80.837407 -128.576497 
L 82.395926 -127.263515 
L 83.954444 -122.249443 
L 85.512963 -117.986045 
L 87.071481 -115.256173 
L 88.63 -111.137092 
L 90.188519 -108.154309 
L 91.747037 -102.916719 
L 93.305556 -102.650151 
L 94.864074 -98.719792 
L 96.422593 -96.706844 
L 97.981111 -94.868378 
L 99.53963 -98.339822 
L 101.098148 -101.266985 
L 102.656667 -102.269416 
L 104.215185 -107.710806 
L 105.773704 -113.860377 
L 107.332222 -120.389985 
L 108.890741 -124.462324 
L 110.449259 -130.922442 
L 112.007778 -135.2069 
L 113.566296 -141.71231 
L 115.124815 -147.965916 
L 116.683333 -155.731069 
L 118.241852 -159.845203 
L 119.80037 -164.245068 
L 121.358889 -169.575509 
L 122.917407 -174.447439 
L 124.475926 -178.226563 
L 126.034444 -180.401781 
L 127.592963 -186.750406 
L 129.151481 -191.548244 
L 130.71 -196.49696 
L 132.268519 -200.954052 
L 133.827037 -201.08216 
L 135.385556 -204.265225 
L 136.944074 -204.453465 
L 138.502593 -202.953052 
L 140.061111 -203.623741 
L 141.61963 -200.599275 
L 143.178148 -201.548941 
L 144.736667 -198.389542 
L 146.295185 -197.266013 
L 147.853704 -194.89963 
L 149.412222 -189.815869 
L 150.970741 -184.195695 
L 152.529259 -182.15092 
L 154.087778 -177.989502 
L 155.646296 -169.874819 
L 157.204815 -168.845324 
L 158.763333 -164.521262 
L 160.321852 -162.653898 
L 161.88037 -156.548938 
L 163.438889 -154.570685 
L 164.997407 -150.820171 
L 166.555926 -149.175542 
L 168.114444 -148.918765 
L 169.672963 -149.733815 
L 171.231481 -152.330376 
L 172.79 -152.714838 
L 174.348519 -151.316062 
L 175.907037 -151.573311 
L 177.465556 -150.244546 
L 179.024074 -148.298621 
L 180.582593 -144.684051 
L 182.141111 -142.079751 
L 183.69963 -137.396908 
L 185.258148 -145.730224 
L 186.816667 -149.51161 
L 186.816667 -161.608891 
L 186.816667 -161.608891 
L 185.258148 -157.141177 
L 183.69963 -150.865547 
L 182.141111 -153.310972 
L 180.582593 -157.288629 
L 179.024074 -159.831782 
L 177.465556 -160.852205 
L 175.907037 -161.924519 
L 174.348519 -160.489754 
L 172.79 -160.879727 
L 171.231481 -160.736506 
L 169.672963 -159.265487 
L 168.114444 -158.715965 
L 166.555926 -161.185436 
L 164.997407 -162.126183 
L 163.438889 -165.175786 
L 161.88037 -167.020032 
L 160.321852 -171.752579 
L 158.763333 -172.553243 
L 157.204815 -175.75631 
L 155.646296 -175.899298 
L 154.087778 -184.058336 
L 152.529259 -187.662022 
L 150.970741 -190.666333 
L 149.412222 -196.600486 
L 147.853704 -201.790748 
L 146.295185 -204.674845 
L 144.736667 -205.803955 
L 143.178148 -209.645527 
L 141.61963 -207.404674 
L 140.061111 -209.304423 
L 138.502593 -209.566932 
L 136.944074 -212.402805 
L 135.385556 -212.635824 
L 133.827037 -207.607716 
L 132.268519 -207.232225 
L 130.71 -202.563308 
L 129.151481 -197.329343 
L 127.592963 -191.931814 
L 126.034444 -185.034348 
L 124.475926 -183.1882 
L 122.917407 -178.808611 
L 121.358889 -173.688537 
L 119.80037 -168.788402 
L 118.241852 -164.857938 
L 116.683333 -159.857362 
L 115.124815 -152.38319 
L 113.566296 -147.182462 
L 112.007778 -141.438836 
L 110.449259 -136.2146 
L 108.890741 -129.074532 
L 107.332222 -125.055562 
L 105.773704 -119.423142 
L 104.215185 -112.983405 
L 102.656667 -107.575372 
L 101.098148 -107.358754 
L 99.53963 -105.396141 
L 97.981111 -101.692673 
L 96.422593 -104.064202 
L 94.864074 -107.64152 
L 93.305556 -112.092567 
L 91.747037 -111.606831 
L 90.188519 -116.18689 
L 88.63 -118.075756 
L 87.071481 -124.028096 
L 85.512963 -126.532642 
L 83.954444 -131.126161 
L 82.395926 -135.718774 
L 80.837407 -138.501236 
L 79.278889 -144.719063 
L 77.72037 -148.868885 
L 76.161852 -146.583703 
L 74.603333 -145.419905 
L 73.044815 -148.372219 
L 71.486296 -149.016653 
L 69.927778 -151.080509 
L 68.369259 -152.016383 
L 66.810741 -155.606449 
L 65.252222 -157.01886 
L 63.693704 -153.534359 
L 62.135185 -155.998793 
L 60.576667 -156.524651 
L 59.018148 -158.362443 
L 57.45963 -159.114459 
L 55.901111 -157.126387 
L 54.342593 -162.936655 
L 52.784074 -165.749857 
L 51.225556 -164.128281 
L 49.667037 -167.191587 
L 48.108519 -164.616501 
L 46.55 -163.854613 
z
" id="m7f4f6284e6" style="stroke:#00bfbf;"/>
    </defs>
    <g clip-path="url(#pc5f5527435)">
     <use style="fill:#00bfbf;stroke:#00bfbf;" x="0" xlink:href="#m7f4f6284e6" y="288"/>
    </g>
   </g>
   <g id="matplotlib.axis_1">
    <g id="xtick_1">
     <g id="line2d_1">
      <defs>
       <path d="M 0 0 
L 0 3.5 
" id="m62ab53f6cb" style="stroke:#000000;stroke-width:0.8;"/>
      </defs>
      <g>
       <use style="stroke:#000000;stroke-width:0.8;" x="46.55" xlink:href="#m62ab53f6cb" y="242.2"/>
      </g>
     </g>
     <g id="text_1">
      <!-- −90 -->
      <g transform="translate(35.997656 256.798437)scale(0.1 -0.1)">
       <defs>
        <path d="M 10.59375 35.5 
L 73.1875 35.5 
L 73.1875 27.203125 
L 10.59375 27.203125 
z
" id="DejaVuSans-8722"/>
        <path d="M 10.984375 1.515625 
L 10.984375 10.5 
Q 14.703125 8.734375 18.5 7.8125 
Q 22.3125 6.890625 25.984375 6.890625 
Q 35.75 6.890625 40.890625 13.453125 
Q 46.046875 20.015625 46.78125 33.40625 
Q 43.953125 29.203125 39.59375 26.953125 
Q 35.25 24.703125 29.984375 24.703125 
Q 19.046875 24.703125 12.671875 31.3125 
Q 6.296875 37.9375 6.296875 49.421875 
Q 6.296875 60.640625 12.9375 67.421875 
Q 19.578125 74.21875 30.609375 74.21875 
Q 43.265625 74.21875 49.921875 64.515625 
Q 56.59375 54.828125 56.59375 36.375 
Q 56.59375 19.140625 48.40625 8.859375 
Q 40.234375 -1.421875 26.421875 -1.421875 
Q 22.703125 -1.421875 18.890625 -0.6875 
Q 15.09375 0.046875 10.984375 1.515625 
z
M 30.609375 32.421875 
Q 37.25 32.421875 41.125 36.953125 
Q 45.015625 41.5 45.015625 49.421875 
Q 45.015625 57.28125 41.125 61.84375 
Q 37.25 66.40625 30.609375 66.40625 
Q 23.96875 66.40625 20.09375 61.84375 
Q 16.21875 57.28125 16.21875 49.421875 
Q 16.21875 41.5 20.09375 36.953125 
Q 23.96875 32.421875 30.609375 32.421875 
z
" id="DejaVuSans-57"/>
        <path d="M 31.78125 66.40625 
Q 24.171875 66.40625 20.328125 58.90625 
Q 16.5 51.421875 16.5 36.375 
Q 16.5 21.390625 20.328125 13.890625 
Q 24.171875 6.390625 31.78125 6.390625 
Q 39.453125 6.390625 43.28125 13.890625 
Q 47.125 21.390625 47.125 36.375 
Q 47.125 51.421875 43.28125 58.90625 
Q 39.453125 66.40625 31.78125 66.40625 
z
M 31.78125 74.21875 
Q 44.046875 74.21875 50.515625 64.515625 
Q 56.984375 54.828125 56.984375 36.375 
Q 56.984375 17.96875 50.515625 8.265625 
Q 44.046875 -1.421875 31.78125 -1.421875 
Q 19.53125 -1.421875 13.0625 8.265625 
Q 6.59375 17.96875 6.59375 36.375 
Q 6.59375 54.828125 13.0625 64.515625 
Q 19.53125 74.21875 31.78125 74.21875 
z
" id="DejaVuSans-48"/>
       </defs>
       <use xlink:href="#DejaVuSans-8722"/>
       <use x="83.789062" xlink:href="#DejaVuSans-57"/>
       <use x="147.412109" xlink:href="#DejaVuSans-48"/>
      </g>
     </g>
    </g>
    <g id="xtick_2">
     <g id="line2d_2">
      <g>
       <use style="stroke:#000000;stroke-width:0.8;" x="81.616667" xlink:href="#m62ab53f6cb" y="242.2"/>
      </g>
     </g>
     <g id="text_2">
      <!-- −45 -->
      <g transform="translate(71.064323 256.798437)scale(0.1 -0.1)">
       <defs>
        <path d="M 37.796875 64.3125 
L 12.890625 25.390625 
L 37.796875 25.390625 
z
M 35.203125 72.90625 
L 47.609375 72.90625 
L 47.609375 25.390625 
L 58.015625 25.390625 
L 58.015625 17.1875 
L 47.609375 17.1875 
L 47.609375 0 
L 37.796875 0 
L 37.796875 17.1875 
L 4.890625 17.1875 
L 4.890625 26.703125 
z
" id="DejaVuSans-52"/>
        <path d="M 10.796875 72.90625 
L 49.515625 72.90625 
L 49.515625 64.59375 
L 19.828125 64.59375 
L 19.828125 46.734375 
Q 21.96875 47.46875 24.109375 47.828125 
Q 26.265625 48.1875 28.421875 48.1875 
Q 40.625 48.1875 47.75 41.5 
Q 54.890625 34.8125 54.890625 23.390625 
Q 54.890625 11.625 47.5625 5.09375 
Q 40.234375 -1.421875 26.90625 -1.421875 
Q 22.3125 -1.421875 17.546875 -0.640625 
Q 12.796875 0.140625 7.71875 1.703125 
L 7.71875 11.625 
Q 12.109375 9.234375 16.796875 8.0625 
Q 21.484375 6.890625 26.703125 6.890625 
Q 35.15625 6.890625 40.078125 11.328125 
Q 45.015625 15.765625 45.015625 23.390625 
Q 45.015625 31 40.078125 35.4375 
Q 35.15625 39.890625 26.703125 39.890625 
Q 22.75 39.890625 18.8125 39.015625 
Q 14.890625 38.140625 10.796875 36.28125 
z
" id="DejaVuSans-53"/>
       </defs>
       <use xlink:href="#DejaVuSans-8722"/>
       <use x="83.789062" xlink:href="#DejaVuSans-52"/>
       <use x="147.412109" xlink:href="#DejaVuSans-53"/>
      </g>
     </g>
    </g>
    <g id="xtick_3">
     <g id="line2d_3">
      <g>
       <use style="stroke:#000000;stroke-width:0.8;" x="116.683333" xlink:href="#m62ab53f6cb" y="242.2"/>
      </g>
     </g>
     <g id="text_3">
      <!-- 0 -->
      <g transform="translate(113.502083 256.798437)scale(0.1 -0.1)">
       <use xlink:href="#DejaVuSans-48"/>
      </g>
     </g>
    </g>
    <g id="xtick_4">
     <g id="line2d_4">
      <g>
       <use style="stroke:#000000;stroke-width:0.8;" x="151.75" xlink:href="#m62ab53f6cb" y="242.2"/>
      </g>
     </g>
     <g id="text_4">
      <!-- 45 -->
      <g transform="translate(145.3875 256.798437)scale(0.1 -0.1)">
       <use xlink:href="#DejaVuSans-52"/>
       <use x="63.623047" xlink:href="#DejaVuSans-53"/>
      </g>
     </g>
    </g>
    <g id="xtick_5">
     <g id="line2d_5">
      <g>
       <use style="stroke:#000000;stroke-width:0.8;" x="186.816667" xlink:href="#m62ab53f6cb" y="242.2"/>
      </g>
     </g>
     <g id="text_5">
      <!-- 90 -->
      <g transform="translate(180.454167 256.798437)scale(0.1 -0.1)">
       <use xlink:href="#DejaVuSans-57"/>
       <use x="63.623047" xlink:href="#DejaVuSans-48"/>
      </g>
     </g>
    </g>
    <g id="text_6">
     <!-- $\Delta \theta$ (deg) -->
     <g transform="translate(95.283333 270.578125)scale(0.1 -0.1)">
      <defs>
       <path d="M 34.1875 63.1875 
L 14.15625 8.203125 
L 54.25 8.203125 
z
M 0.78125 0 
L 28.609375 72.90625 
L 39.796875 72.90625 
L 67.578125 0 
z
" id="DejaVuSans-916"/>
       <path d="M 45.515625 34.671875 
L 14.453125 34.671875 
Q 12.359375 20.0625 14.5 13.875 
Q 17.1875 6.25 24.46875 6.25 
Q 31.78125 6.25 37.359375 13.921875 
Q 42.234375 20.65625 45.515625 34.671875 
z
M 47.015625 42.96875 
Q 48.34375 56.84375 46.625 61.71875 
Q 43.953125 69.4375 36.765625 69.4375 
Q 29.296875 69.4375 23.828125 61.8125 
Q 19.53125 55.671875 16.15625 42.96875 
z
M 38.1875 76.765625 
Q 49.90625 76.765625 54.59375 66.40625 
Q 59.28125 56.109375 55.71875 37.84375 
Q 52.203125 19.625 43.453125 9.28125 
Q 34.765625 -1.125 23.046875 -1.125 
Q 11.28125 -1.125 6.640625 9.28125 
Q 2 19.625 5.515625 37.84375 
Q 9.078125 56.109375 17.71875 66.40625 
Q 26.421875 76.765625 38.1875 76.765625 
z
" id="DejaVuSans-Oblique-952"/>
       <path id="DejaVuSans-32"/>
       <path d="M 31 75.875 
Q 24.46875 64.65625 21.28125 53.65625 
Q 18.109375 42.671875 18.109375 31.390625 
Q 18.109375 20.125 21.3125 9.0625 
Q 24.515625 -2 31 -13.1875 
L 23.1875 -13.1875 
Q 15.875 -1.703125 12.234375 9.375 
Q 8.59375 20.453125 8.59375 31.390625 
Q 8.59375 42.28125 12.203125 53.3125 
Q 15.828125 64.359375 23.1875 75.875 
z
" id="DejaVuSans-40"/>
       <path d="M 45.40625 46.390625 
L 45.40625 75.984375 
L 54.390625 75.984375 
L 54.390625 0 
L 45.40625 0 
L 45.40625 8.203125 
Q 42.578125 3.328125 38.25 0.953125 
Q 33.9375 -1.421875 27.875 -1.421875 
Q 17.96875 -1.421875 11.734375 6.484375 
Q 5.515625 14.40625 5.515625 27.296875 
Q 5.515625 40.1875 11.734375 48.09375 
Q 17.96875 56 27.875 56 
Q 33.9375 56 38.25 53.625 
Q 42.578125 51.265625 45.40625 46.390625 
z
M 14.796875 27.296875 
Q 14.796875 17.390625 18.875 11.75 
Q 22.953125 6.109375 30.078125 6.109375 
Q 37.203125 6.109375 41.296875 11.75 
Q 45.40625 17.390625 45.40625 27.296875 
Q 45.40625 37.203125 41.296875 42.84375 
Q 37.203125 48.484375 30.078125 48.484375 
Q 22.953125 48.484375 18.875 42.84375 
Q 14.796875 37.203125 14.796875 27.296875 
z
" id="DejaVuSans-100"/>
       <path d="M 56.203125 29.59375 
L 56.203125 25.203125 
L 14.890625 25.203125 
Q 15.484375 15.921875 20.484375 11.0625 
Q 25.484375 6.203125 34.421875 6.203125 
Q 39.59375 6.203125 44.453125 7.46875 
Q 49.3125 8.734375 54.109375 11.28125 
L 54.109375 2.78125 
Q 49.265625 0.734375 44.1875 -0.34375 
Q 39.109375 -1.421875 33.890625 -1.421875 
Q 20.796875 -1.421875 13.15625 6.1875 
Q 5.515625 13.8125 5.515625 26.8125 
Q 5.515625 40.234375 12.765625 48.109375 
Q 20.015625 56 32.328125 56 
Q 43.359375 56 49.78125 48.890625 
Q 56.203125 41.796875 56.203125 29.59375 
z
M 47.21875 32.234375 
Q 47.125 39.59375 43.09375 43.984375 
Q 39.0625 48.390625 32.421875 48.390625 
Q 24.90625 48.390625 20.390625 44.140625 
Q 15.875 39.890625 15.1875 32.171875 
z
" id="DejaVuSans-101"/>
       <path d="M 45.40625 27.984375 
Q 45.40625 37.75 41.375 43.109375 
Q 37.359375 48.484375 30.078125 48.484375 
Q 22.859375 48.484375 18.828125 43.109375 
Q 14.796875 37.75 14.796875 27.984375 
Q 14.796875 18.265625 18.828125 12.890625 
Q 22.859375 7.515625 30.078125 7.515625 
Q 37.359375 7.515625 41.375 12.890625 
Q 45.40625 18.265625 45.40625 27.984375 
z
M 54.390625 6.78125 
Q 54.390625 -7.171875 48.1875 -13.984375 
Q 42 -20.796875 29.203125 -20.796875 
Q 24.46875 -20.796875 20.265625 -20.09375 
Q 16.0625 -19.390625 12.109375 -17.921875 
L 12.109375 -9.1875 
Q 16.0625 -11.328125 19.921875 -12.34375 
Q 23.78125 -13.375 27.78125 -13.375 
Q 36.625 -13.375 41.015625 -8.765625 
Q 45.40625 -4.15625 45.40625 5.171875 
L 45.40625 9.625 
Q 42.625 4.78125 38.28125 2.390625 
Q 33.9375 0 27.875 0 
Q 17.828125 0 11.671875 7.65625 
Q 5.515625 15.328125 5.515625 27.984375 
Q 5.515625 40.671875 11.671875 48.328125 
Q 17.828125 56 27.875 56 
Q 33.9375 56 38.28125 53.609375 
Q 42.625 51.21875 45.40625 46.390625 
L 45.40625 54.6875 
L 54.390625 54.6875 
z
" id="DejaVuSans-103"/>
       <path d="M 8.015625 75.875 
L 15.828125 75.875 
Q 23.140625 64.359375 26.78125 53.3125 
Q 30.421875 42.28125 30.421875 31.390625 
Q 30.421875 20.453125 26.78125 9.375 
Q 23.140625 -1.703125 15.828125 -13.1875 
L 8.015625 -13.1875 
Q 14.5 -2 17.703125 9.0625 
Q 20.90625 20.125 20.90625 31.390625 
Q 20.90625 42.671875 17.703125 53.65625 
Q 14.5 64.65625 8.015625 75.875 
z
" id="DejaVuSans-41"/>
      </defs>
      <use transform="translate(0 0.234375)" xlink:href="#DejaVuSans-916"/>
      <use transform="translate(68.408203 0.234375)" xlink:href="#DejaVuSans-Oblique-952"/>
      <use transform="translate(129.589844 0.234375)" xlink:href="#DejaVuSans-32"/>
      <use transform="translate(161.376953 0.234375)" xlink:href="#DejaVuSans-40"/>
      <use transform="translate(200.390625 0.234375)" xlink:href="#DejaVuSans-100"/>
      <use transform="translate(263.867188 0.234375)" xlink:href="#DejaVuSans-101"/>
      <use transform="translate(325.390625 0.234375)" xlink:href="#DejaVuSans-103"/>
      <use transform="translate(388.867188 0.234375)" xlink:href="#DejaVuSans-41"/>
     </g>
    </g>
   </g>
   <g id="matplotlib.axis_2">
    <g id="ytick_1">
     <g id="line2d_6">
      <defs>
       <path d="M 0 0 
L -3.5 0 
" id="m679189f10a" style="stroke:#000000;stroke-width:0.8;"/>
      </defs>
      <g>
       <use style="stroke:#000000;stroke-width:0.8;" x="46.55" xlink:href="#m679189f10a" y="216.557143"/>
      </g>
     </g>
     <g id="text_7">
      <!-- −8 -->
      <g transform="translate(24.807813 220.356362)scale(0.1 -0.1)">
       <defs>
        <path d="M 31.78125 34.625 
Q 24.75 34.625 20.71875 30.859375 
Q 16.703125 27.09375 16.703125 20.515625 
Q 16.703125 13.921875 20.71875 10.15625 
Q 24.75 6.390625 31.78125 6.390625 
Q 38.8125 6.390625 42.859375 10.171875 
Q 46.921875 13.96875 46.921875 20.515625 
Q 46.921875 27.09375 42.890625 30.859375 
Q 38.875 34.625 31.78125 34.625 
z
M 21.921875 38.8125 
Q 15.578125 40.375 12.03125 44.71875 
Q 8.5 49.078125 8.5 55.328125 
Q 8.5 64.0625 14.71875 69.140625 
Q 20.953125 74.21875 31.78125 74.21875 
Q 42.671875 74.21875 48.875 69.140625 
Q 55.078125 64.0625 55.078125 55.328125 
Q 55.078125 49.078125 51.53125 44.71875 
Q 48 40.375 41.703125 38.8125 
Q 48.828125 37.15625 52.796875 32.3125 
Q 56.78125 27.484375 56.78125 20.515625 
Q 56.78125 9.90625 50.3125 4.234375 
Q 43.84375 -1.421875 31.78125 -1.421875 
Q 19.734375 -1.421875 13.25 4.234375 
Q 6.78125 9.90625 6.78125 20.515625 
Q 6.78125 27.484375 10.78125 32.3125 
Q 14.796875 37.15625 21.921875 38.8125 
z
M 18.3125 54.390625 
Q 18.3125 48.734375 21.84375 45.5625 
Q 25.390625 42.390625 31.78125 42.390625 
Q 38.140625 42.390625 41.71875 45.5625 
Q 45.3125 48.734375 45.3125 54.390625 
Q 45.3125 60.0625 41.71875 63.234375 
Q 38.140625 66.40625 31.78125 66.40625 
Q 25.390625 66.40625 21.84375 63.234375 
Q 18.3125 60.0625 18.3125 54.390625 
z
" id="DejaVuSans-56"/>
       </defs>
       <use xlink:href="#DejaVuSans-8722"/>
       <use x="83.789062" xlink:href="#DejaVuSans-56"/>
      </g>
     </g>
    </g>
    <g id="ytick_2">
     <g id="line2d_7">
      <g>
       <use style="stroke:#000000;stroke-width:0.8;" x="46.55" xlink:href="#m679189f10a" y="175.528571"/>
      </g>
     </g>
     <g id="text_8">
      <!-- −4 -->
      <g transform="translate(24.807813 179.32779)scale(0.1 -0.1)">
       <use xlink:href="#DejaVuSans-8722"/>
       <use x="83.789062" xlink:href="#DejaVuSans-52"/>
      </g>
     </g>
    </g>
    <g id="ytick_3">
     <g id="line2d_8">
      <g>
       <use style="stroke:#000000;stroke-width:0.8;" x="46.55" xlink:href="#m679189f10a" y="134.5"/>
      </g>
     </g>
     <g id="text_9">
      <!-- 0 -->
      <g transform="translate(33.1875 138.299219)scale(0.1 -0.1)">
       <use xlink:href="#DejaVuSans-48"/>
      </g>
     </g>
    </g>
    <g id="ytick_4">
     <g id="line2d_9">
      <g>
       <use style="stroke:#000000;stroke-width:0.8;" x="46.55" xlink:href="#m679189f10a" y="93.471429"/>
      </g>
     </g>
     <g id="text_10">
      <!-- 4 -->
      <g transform="translate(33.1875 97.270647)scale(0.1 -0.1)">
       <use xlink:href="#DejaVuSans-52"/>
      </g>
     </g>
    </g>
    <g id="ytick_5">
     <g id="line2d_10">
      <g>
       <use style="stroke:#000000;stroke-width:0.8;" x="46.55" xlink:href="#m679189f10a" y="52.442857"/>
      </g>
     </g>
     <g id="text_11">
      <!-- 8 -->
      <g transform="translate(33.1875 56.242076)scale(0.1 -0.1)">
       <use xlink:href="#DejaVuSans-56"/>
      </g>
     </g>
    </g>
    <g id="text_12">
     <!-- Bias (deg) -->
     <g transform="translate(18.728125 159.903906)rotate(-90)scale(0.1 -0.1)">
      <defs>
       <path d="M 19.671875 34.8125 
L 19.671875 8.109375 
L 35.5 8.109375 
Q 43.453125 8.109375 47.28125 11.40625 
Q 51.125 14.703125 51.125 21.484375 
Q 51.125 28.328125 47.28125 31.5625 
Q 43.453125 34.8125 35.5 34.8125 
z
M 19.671875 64.796875 
L 19.671875 42.828125 
L 34.28125 42.828125 
Q 41.5 42.828125 45.03125 45.53125 
Q 48.578125 48.25 48.578125 53.8125 
Q 48.578125 59.328125 45.03125 62.0625 
Q 41.5 64.796875 34.28125 64.796875 
z
M 9.8125 72.90625 
L 35.015625 72.90625 
Q 46.296875 72.90625 52.390625 68.21875 
Q 58.5 63.53125 58.5 54.890625 
Q 58.5 48.1875 55.375 44.234375 
Q 52.25 40.28125 46.1875 39.3125 
Q 53.46875 37.75 57.5 32.78125 
Q 61.53125 27.828125 61.53125 20.40625 
Q 61.53125 10.640625 54.890625 5.3125 
Q 48.25 0 35.984375 0 
L 9.8125 0 
z
" id="DejaVuSans-66"/>
       <path d="M 9.421875 54.6875 
L 18.40625 54.6875 
L 18.40625 0 
L 9.421875 0 
z
M 9.421875 75.984375 
L 18.40625 75.984375 
L 18.40625 64.59375 
L 9.421875 64.59375 
z
" id="DejaVuSans-105"/>
       <path d="M 34.28125 27.484375 
Q 23.390625 27.484375 19.1875 25 
Q 14.984375 22.515625 14.984375 16.5 
Q 14.984375 11.71875 18.140625 8.90625 
Q 21.296875 6.109375 26.703125 6.109375 
Q 34.1875 6.109375 38.703125 11.40625 
Q 43.21875 16.703125 43.21875 25.484375 
L 43.21875 27.484375 
z
M 52.203125 31.203125 
L 52.203125 0 
L 43.21875 0 
L 43.21875 8.296875 
Q 40.140625 3.328125 35.546875 0.953125 
Q 30.953125 -1.421875 24.3125 -1.421875 
Q 15.921875 -1.421875 10.953125 3.296875 
Q 6 8.015625 6 15.921875 
Q 6 25.140625 12.171875 29.828125 
Q 18.359375 34.515625 30.609375 34.515625 
L 43.21875 34.515625 
L 43.21875 35.40625 
Q 43.21875 41.609375 39.140625 45 
Q 35.0625 48.390625 27.6875 48.390625 
Q 23 48.390625 18.546875 47.265625 
Q 14.109375 46.140625 10.015625 43.890625 
L 10.015625 52.203125 
Q 14.9375 54.109375 19.578125 55.046875 
Q 24.21875 56 28.609375 56 
Q 40.484375 56 46.34375 49.84375 
Q 52.203125 43.703125 52.203125 31.203125 
z
" id="DejaVuSans-97"/>
       <path d="M 44.28125 53.078125 
L 44.28125 44.578125 
Q 40.484375 46.53125 36.375 47.5 
Q 32.28125 48.484375 27.875 48.484375 
Q 21.1875 48.484375 17.84375 46.4375 
Q 14.5 44.390625 14.5 40.28125 
Q 14.5 37.15625 16.890625 35.375 
Q 19.28125 33.59375 26.515625 31.984375 
L 29.59375 31.296875 
Q 39.15625 29.25 43.1875 25.515625 
Q 47.21875 21.78125 47.21875 15.09375 
Q 47.21875 7.46875 41.1875 3.015625 
Q 35.15625 -1.421875 24.609375 -1.421875 
Q 20.21875 -1.421875 15.453125 -0.5625 
Q 10.6875 0.296875 5.421875 2 
L 5.421875 11.28125 
Q 10.40625 8.6875 15.234375 7.390625 
Q 20.0625 6.109375 24.8125 6.109375 
Q 31.15625 6.109375 34.5625 8.28125 
Q 37.984375 10.453125 37.984375 14.40625 
Q 37.984375 18.0625 35.515625 20.015625 
Q 33.0625 21.96875 24.703125 23.78125 
L 21.578125 24.515625 
Q 13.234375 26.265625 9.515625 29.90625 
Q 5.8125 33.546875 5.8125 39.890625 
Q 5.8125 47.609375 11.28125 51.796875 
Q 16.75 56 26.8125 56 
Q 31.78125 56 36.171875 55.265625 
Q 40.578125 54.546875 44.28125 53.078125 
z
" id="DejaVuSans-115"/>
      </defs>
      <use xlink:href="#DejaVuSans-66"/>
      <use x="68.603516" xlink:href="#DejaVuSans-105"/>
      <use x="96.386719" xlink:href="#DejaVuSans-97"/>
      <use x="157.666016" xlink:href="#DejaVuSans-115"/>
      <use x="209.765625" xlink:href="#DejaVuSans-32"/>
      <use x="241.552734" xlink:href="#DejaVuSans-40"/>
      <use x="280.566406" xlink:href="#DejaVuSans-100"/>
      <use x="344.042969" xlink:href="#DejaVuSans-101"/>
      <use x="405.566406" xlink:href="#DejaVuSans-103"/>
      <use x="469.042969" xlink:href="#DejaVuSans-41"/>
     </g>
    </g>
   </g>
   <g id="line2d_11">
    <path clip-path="url(#pc5f5527435)" d="M 46.55 134.5 
L 186.816667 134.5 
" style="fill:none;stroke:#000000;stroke-dasharray:5.55,2.4;stroke-dashoffset:0;stroke-width:1.5;"/>
   </g>
   <g id="line2d_12">
    <path clip-path="url(#pc5f5527435)" d="M 116.683333 242.2 
L 116.683333 26.8 
" style="fill:none;stroke:#0000ff;stroke-dasharray:5.55,2.4;stroke-dashoffset:0;stroke-width:1.5;"/>
   </g>
   <g id="patch_3">
    <path d="M 46.55 242.2 
L 46.55 26.8 
" style="fill:none;stroke:#000000;stroke-linecap:square;stroke-linejoin:miter;stroke-width:0.8;"/>
   </g>
   <g id="patch_4">
    <path d="M 186.816667 242.2 
L 186.816667 26.8 
" style="fill:none;stroke:#000000;stroke-linecap:square;stroke-linejoin:miter;stroke-width:0.8;"/>
   </g>
   <g id="patch_5">
    <path d="M 46.55 242.2 
L 186.816667 242.2 
" style="fill:none;stroke:#000000;stroke-linecap:square;stroke-linejoin:miter;stroke-width:0.8;"/>
   </g>
   <g id="patch_6">
    <path d="M 46.55 26.8 
L 186.816667 26.8 
" style="fill:none;stroke:#000000;stroke-linecap:square;stroke-linejoin:miter;stroke-width:0.8;"/>
   </g>
   <g id="text_13">
    <!-- *** -->
    <g transform="translate(163.438889 47.314286)scale(0.1 -0.1)">
     <defs>
      <path d="M 47.015625 60.890625 
L 29.5 51.421875 
L 47.015625 41.890625 
L 44.1875 37.109375 
L 27.78125 47.015625 
L 27.78125 28.609375 
L 22.21875 28.609375 
L 22.21875 47.015625 
L 5.8125 37.109375 
L 2.984375 41.890625 
L 20.515625 51.421875 
L 2.984375 60.890625 
L 5.8125 65.71875 
L 22.21875 55.8125 
L 22.21875 74.21875 
L 27.78125 74.21875 
L 27.78125 55.8125 
L 44.1875 65.71875 
z
" id="DejaVuSans-42"/>
     </defs>
     <use xlink:href="#DejaVuSans-42"/>
     <use x="50" xlink:href="#DejaVuSans-42"/>
     <use x="100" xlink:href="#DejaVuSans-42"/>
    </g>
   </g>
   <g id="text_14">
    <!-- *** -->
    <g style="fill:#00bfbf;" transform="translate(163.438889 57.571429)scale(0.1 -0.1)">
     <use xlink:href="#DejaVuSans-42"/>
     <use x="50" xlink:href="#DejaVuSans-42"/>
     <use x="100" xlink:href="#DejaVuSans-42"/>
    </g>
   </g>
   <g id="text_15">
    <!-- S*** -->
    <g style="fill:#bf00bf;" transform="translate(163.438889 67.828571)scale(0.1 -0.1)">
     <defs>
      <path d="M 53.515625 70.515625 
L 53.515625 60.890625 
Q 47.90625 63.578125 42.921875 64.890625 
Q 37.9375 66.21875 33.296875 66.21875 
Q 25.25 66.21875 20.875 63.09375 
Q 16.5 59.96875 16.5 54.203125 
Q 16.5 49.359375 19.40625 46.890625 
Q 22.3125 44.4375 30.421875 42.921875 
L 36.375 41.703125 
Q 47.40625 39.59375 52.65625 34.296875 
Q 57.90625 29 57.90625 20.125 
Q 57.90625 9.515625 50.796875 4.046875 
Q 43.703125 -1.421875 29.984375 -1.421875 
Q 24.8125 -1.421875 18.96875 -0.25 
Q 13.140625 0.921875 6.890625 3.21875 
L 6.890625 13.375 
Q 12.890625 10.015625 18.65625 8.296875 
Q 24.421875 6.59375 29.984375 6.59375 
Q 38.421875 6.59375 43.015625 9.90625 
Q 47.609375 13.234375 47.609375 19.390625 
Q 47.609375 24.75 44.3125 27.78125 
Q 41.015625 30.8125 33.5 32.328125 
L 27.484375 33.5 
Q 16.453125 35.6875 11.515625 40.375 
Q 6.59375 45.0625 6.59375 53.421875 
Q 6.59375 63.09375 13.40625 68.65625 
Q 20.21875 74.21875 32.171875 74.21875 
Q 37.3125 74.21875 42.625 73.28125 
Q 47.953125 72.359375 53.515625 70.515625 
z
" id="DejaVuSans-83"/>
     </defs>
     <use xlink:href="#DejaVuSans-83"/>
     <use x="63.476562" xlink:href="#DejaVuSans-42"/>
     <use x="113.476562" xlink:href="#DejaVuSans-42"/>
     <use x="163.476562" xlink:href="#DejaVuSans-42"/>
    </g>
   </g>
   <g id="text_16">
    <!-- nb:-1 | Stim SD -->
    <g transform="translate(71.224896 20.8)scale(0.12 -0.12)">
     <defs>
      <path d="M 54.890625 33.015625 
L 54.890625 0 
L 45.90625 0 
L 45.90625 32.71875 
Q 45.90625 40.484375 42.875 44.328125 
Q 39.84375 48.1875 33.796875 48.1875 
Q 26.515625 48.1875 22.3125 43.546875 
Q 18.109375 38.921875 18.109375 30.90625 
L 18.109375 0 
L 9.078125 0 
L 9.078125 54.6875 
L 18.109375 54.6875 
L 18.109375 46.1875 
Q 21.34375 51.125 25.703125 53.5625 
Q 30.078125 56 35.796875 56 
Q 45.21875 56 50.046875 50.171875 
Q 54.890625 44.34375 54.890625 33.015625 
z
" id="DejaVuSans-110"/>
      <path d="M 48.6875 27.296875 
Q 48.6875 37.203125 44.609375 42.84375 
Q 40.53125 48.484375 33.40625 48.484375 
Q 26.265625 48.484375 22.1875 42.84375 
Q 18.109375 37.203125 18.109375 27.296875 
Q 18.109375 17.390625 22.1875 11.75 
Q 26.265625 6.109375 33.40625 6.109375 
Q 40.53125 6.109375 44.609375 11.75 
Q 48.6875 17.390625 48.6875 27.296875 
z
M 18.109375 46.390625 
Q 20.953125 51.265625 25.265625 53.625 
Q 29.59375 56 35.59375 56 
Q 45.5625 56 51.78125 48.09375 
Q 58.015625 40.1875 58.015625 27.296875 
Q 58.015625 14.40625 51.78125 6.484375 
Q 45.5625 -1.421875 35.59375 -1.421875 
Q 29.59375 -1.421875 25.265625 0.953125 
Q 20.953125 3.328125 18.109375 8.203125 
L 18.109375 0 
L 9.078125 0 
L 9.078125 75.984375 
L 18.109375 75.984375 
z
" id="DejaVuSans-98"/>
      <path d="M 11.71875 12.40625 
L 22.015625 12.40625 
L 22.015625 0 
L 11.71875 0 
z
M 11.71875 51.703125 
L 22.015625 51.703125 
L 22.015625 39.3125 
L 11.71875 39.3125 
z
" id="DejaVuSans-58"/>
      <path d="M 4.890625 31.390625 
L 31.203125 31.390625 
L 31.203125 23.390625 
L 4.890625 23.390625 
z
" id="DejaVuSans-45"/>
      <path d="M 12.40625 8.296875 
L 28.515625 8.296875 
L 28.515625 63.921875 
L 10.984375 60.40625 
L 10.984375 69.390625 
L 28.421875 72.90625 
L 38.28125 72.90625 
L 38.28125 8.296875 
L 54.390625 8.296875 
L 54.390625 0 
L 12.40625 0 
z
" id="DejaVuSans-49"/>
      <path d="M 21 76.421875 
L 21 -23.578125 
L 12.703125 -23.578125 
L 12.703125 76.421875 
z
" id="DejaVuSans-124"/>
      <path d="M 18.3125 70.21875 
L 18.3125 54.6875 
L 36.8125 54.6875 
L 36.8125 47.703125 
L 18.3125 47.703125 
L 18.3125 18.015625 
Q 18.3125 11.328125 20.140625 9.421875 
Q 21.96875 7.515625 27.59375 7.515625 
L 36.8125 7.515625 
L 36.8125 0 
L 27.59375 0 
Q 17.1875 0 13.234375 3.875 
Q 9.28125 7.765625 9.28125 18.015625 
L 9.28125 47.703125 
L 2.6875 47.703125 
L 2.6875 54.6875 
L 9.28125 54.6875 
L 9.28125 70.21875 
z
" id="DejaVuSans-116"/>
      <path d="M 52 44.1875 
Q 55.375 50.25 60.0625 53.125 
Q 64.75 56 71.09375 56 
Q 79.640625 56 84.28125 50.015625 
Q 88.921875 44.046875 88.921875 33.015625 
L 88.921875 0 
L 79.890625 0 
L 79.890625 32.71875 
Q 79.890625 40.578125 77.09375 44.375 
Q 74.3125 48.1875 68.609375 48.1875 
Q 61.625 48.1875 57.5625 43.546875 
Q 53.515625 38.921875 53.515625 30.90625 
L 53.515625 0 
L 44.484375 0 
L 44.484375 32.71875 
Q 44.484375 40.625 41.703125 44.40625 
Q 38.921875 48.1875 33.109375 48.1875 
Q 26.21875 48.1875 22.15625 43.53125 
Q 18.109375 38.875 18.109375 30.90625 
L 18.109375 0 
L 9.078125 0 
L 9.078125 54.6875 
L 18.109375 54.6875 
L 18.109375 46.1875 
Q 21.1875 51.21875 25.484375 53.609375 
Q 29.78125 56 35.6875 56 
Q 41.65625 56 45.828125 52.96875 
Q 50 49.953125 52 44.1875 
z
" id="DejaVuSans-109"/>
      <path d="M 19.671875 64.796875 
L 19.671875 8.109375 
L 31.59375 8.109375 
Q 46.6875 8.109375 53.6875 14.9375 
Q 60.6875 21.78125 60.6875 36.53125 
Q 60.6875 51.171875 53.6875 57.984375 
Q 46.6875 64.796875 31.59375 64.796875 
z
M 9.8125 72.90625 
L 30.078125 72.90625 
Q 51.265625 72.90625 61.171875 64.09375 
Q 71.09375 55.28125 71.09375 36.53125 
Q 71.09375 17.671875 61.125 8.828125 
Q 51.171875 0 30.078125 0 
L 9.8125 0 
z
" id="DejaVuSans-68"/>
     </defs>
     <use xlink:href="#DejaVuSans-110"/>
     <use x="63.378906" xlink:href="#DejaVuSans-98"/>
     <use x="126.855469" xlink:href="#DejaVuSans-58"/>
     <use x="160.546875" xlink:href="#DejaVuSans-45"/>
     <use x="196.630859" xlink:href="#DejaVuSans-49"/>
     <use x="260.253906" xlink:href="#DejaVuSans-32"/>
     <use x="292.041016" xlink:href="#DejaVuSans-124"/>
     <use x="325.732422" xlink:href="#DejaVuSans-32"/>
     <use x="357.519531" xlink:href="#DejaVuSans-83"/>
     <use x="420.996094" xlink:href="#DejaVuSans-116"/>
     <use x="460.205078" xlink:href="#DejaVuSans-105"/>
     <use x="487.988281" xlink:href="#DejaVuSans-109"/>
     <use x="585.400391" xlink:href="#DejaVuSans-32"/>
     <use x="617.1875" xlink:href="#DejaVuSans-83"/>
     <use x="680.664062" xlink:href="#DejaVuSans-68"/>
    </g>
   </g>
  </g>
  <g id="axes_2">
   <g id="patch_7">
    <path d="M 214.554167 242.2 
L 354.820833 242.2 
L 354.820833 26.8 
L 214.554167 26.8 
z
" style="fill:#ffffff;"/>
   </g>
   <g id="PolyCollection_3">
    <defs>
     <path d="M 214.554167 -157.584578 
L 214.554167 -146.112005 
L 216.112685 -149.022588 
L 217.671204 -147.863476 
L 219.229722 -149.246119 
L 220.788241 -152.408134 
L 222.346759 -152.704743 
L 223.905278 -148.48985 
L 225.463796 -147.352033 
L 227.022315 -141.909294 
L 228.580833 -138.882669 
L 230.139352 -145.136254 
L 231.69787 -145.407409 
L 233.256389 -142.356763 
L 234.814907 -140.003053 
L 236.373426 -142.148449 
L 237.931944 -142.821108 
L 239.490463 -136.986306 
L 241.048981 -136.885365 
L 242.6075 -133.269959 
L 244.166019 -131.318199 
L 245.724537 -123.45298 
L 247.283056 -120.775774 
L 248.841574 -122.69462 
L 250.400093 -118.078021 
L 251.958611 -118.325614 
L 253.51713 -116.704142 
L 255.075648 -115.035835 
L 256.634167 -113.38945 
L 258.192685 -108.681245 
L 259.751204 -106.668795 
L 261.309722 -103.498223 
L 262.868241 -102.492244 
L 264.426759 -102.238262 
L 265.985278 -101.624995 
L 267.543796 -99.925644 
L 269.102315 -100.47616 
L 270.660833 -101.365903 
L 272.219352 -104.031181 
L 273.77787 -108.378322 
L 275.336389 -112.908021 
L 276.894907 -118.13207 
L 278.453426 -122.504212 
L 280.011944 -128.656466 
L 281.570463 -136.387815 
L 283.128981 -145.246225 
L 284.6875 -153.231902 
L 286.246019 -161.604389 
L 287.804537 -170.91669 
L 289.363056 -177.028437 
L 290.921574 -181.821414 
L 292.480093 -187.037128 
L 294.038611 -192.291776 
L 295.59713 -195.217329 
L 297.155648 -196.729081 
L 298.714167 -200.782836 
L 300.272685 -202.792448 
L 301.831204 -204.108863 
L 303.389722 -203.033629 
L 304.948241 -202.581261 
L 306.506759 -203.941118 
L 308.065278 -200.679117 
L 309.623796 -199.78223 
L 311.182315 -194.198047 
L 312.740833 -194.54987 
L 314.299352 -192.500334 
L 315.85787 -187.412869 
L 317.416389 -184.564931 
L 318.974907 -179.809904 
L 320.533426 -180.403124 
L 322.091944 -174.46939 
L 323.650463 -172.311212 
L 325.208981 -170.256992 
L 326.7675 -172.223782 
L 328.326019 -164.108493 
L 329.884537 -158.521927 
L 331.443056 -158.028808 
L 333.001574 -158.394906 
L 334.560093 -154.397383 
L 336.118611 -153.171679 
L 337.67713 -157.225586 
L 339.235648 -160.368239 
L 340.794167 -160.52748 
L 342.352685 -158.98546 
L 343.911204 -157.499404 
L 345.469722 -158.288514 
L 347.028241 -154.394611 
L 348.586759 -151.385787 
L 350.145278 -153.615896 
L 351.703796 -152.444153 
L 353.262315 -145.354236 
L 354.820833 -144.290716 
L 354.820833 -154.584104 
L 354.820833 -154.584104 
L 353.262315 -157.252698 
L 351.703796 -165.545433 
L 350.145278 -164.953877 
L 348.586759 -161.249312 
L 347.028241 -164.191412 
L 345.469722 -167.329832 
L 343.911204 -167.546386 
L 342.352685 -168.51048 
L 340.794167 -168.71013 
L 339.235648 -167.855997 
L 337.67713 -164.57709 
L 336.118611 -160.058284 
L 334.560093 -163.625921 
L 333.001574 -167.753241 
L 331.443056 -168.561226 
L 329.884537 -168.089313 
L 328.326019 -172.999434 
L 326.7675 -181.335232 
L 325.208981 -178.092606 
L 323.650463 -181.214724 
L 322.091944 -183.229558 
L 320.533426 -188.084267 
L 318.974907 -188.194584 
L 317.416389 -191.864794 
L 315.85787 -195.509774 
L 314.299352 -202.157684 
L 312.740833 -203.179891 
L 311.182315 -204.763723 
L 309.623796 -207.432362 
L 308.065278 -207.688779 
L 306.506759 -210.029708 
L 304.948241 -209.022004 
L 303.389722 -208.783554 
L 301.831204 -209.230218 
L 300.272685 -207.800695 
L 298.714167 -204.564101 
L 297.155648 -201.397553 
L 295.59713 -199.64418 
L 294.038611 -197.244915 
L 292.480093 -192.288222 
L 290.921574 -187.609331 
L 289.363056 -182.56669 
L 287.804537 -176.050949 
L 286.246019 -166.08925 
L 284.6875 -157.535035 
L 283.128981 -149.239935 
L 281.570463 -140.499064 
L 280.011944 -132.755479 
L 278.453426 -126.62114 
L 276.894907 -122.648905 
L 275.336389 -117.860956 
L 273.77787 -113.083944 
L 272.219352 -109.603685 
L 270.660833 -107.87263 
L 269.102315 -106.604989 
L 267.543796 -106.880154 
L 265.985278 -107.999981 
L 264.426759 -109.603754 
L 262.868241 -110.142408 
L 261.309722 -112.320553 
L 259.751204 -115.153403 
L 258.192685 -116.507701 
L 256.634167 -120.514337 
L 255.075648 -122.929362 
L 253.51713 -124.843358 
L 251.958611 -127.753436 
L 250.400093 -126.771003 
L 248.841574 -130.975816 
L 247.283056 -129.992785 
L 245.724537 -132.62111 
L 244.166019 -140.267319 
L 242.6075 -143.333746 
L 241.048981 -146.800946 
L 239.490463 -146.434497 
L 237.931944 -151.373662 
L 236.373426 -149.797201 
L 234.814907 -149.537163 
L 233.256389 -154.060898 
L 231.69787 -154.798505 
L 230.139352 -153.454137 
L 228.580833 -147.681733 
L 227.022315 -152.121905 
L 225.463796 -157.621684 
L 223.905278 -158.843884 
L 222.346759 -161.20291 
L 220.788241 -160.957234 
L 219.229722 -159.40032 
L 217.671204 -159.154427 
L 216.112685 -160.424668 
L 214.554167 -157.584578 
z
" id="m8b054255c9" style="stroke:#000000;"/>
    </defs>
    <g clip-path="url(#p4cb2241963)">
     <use style="stroke:#000000;" x="0" xlink:href="#m8b054255c9" y="288"/>
    </g>
   </g>
   <g id="PolyCollection_4">
    <defs>
     <path d="M 214.554167 -161.599476 
L 214.554167 -149.075313 
L 216.112685 -152.688805 
L 217.671204 -151.441528 
L 219.229722 -147.971292 
L 220.788241 -147.476091 
L 222.346759 -148.28598 
L 223.905278 -145.626479 
L 225.463796 -145.859913 
L 227.022315 -147.067768 
L 228.580833 -147.187373 
L 230.139352 -147.531487 
L 231.69787 -150.419574 
L 233.256389 -150.439695 
L 234.814907 -149.190261 
L 236.373426 -148.120908 
L 237.931944 -148.16805 
L 239.490463 -149.624261 
L 241.048981 -147.826037 
L 242.6075 -144.63628 
L 244.166019 -145.593393 
L 245.724537 -146.31345 
L 247.283056 -144.149092 
L 248.841574 -138.854442 
L 250.400093 -136.496367 
L 251.958611 -130.867991 
L 253.51713 -123.555564 
L 255.075648 -112.517317 
L 256.634167 -103.789274 
L 258.192685 -96.345379 
L 259.751204 -85.430533 
L 261.309722 -84.378571 
L 262.868241 -76.867158 
L 264.426759 -76.340964 
L 265.985278 -77.852794 
L 267.543796 -82.023733 
L 269.102315 -86.084498 
L 270.660833 -87.940822 
L 272.219352 -94.714679 
L 273.77787 -102.805017 
L 275.336389 -108.163736 
L 276.894907 -112.801927 
L 278.453426 -120.100665 
L 280.011944 -129.016563 
L 281.570463 -136.341585 
L 283.128981 -143.105009 
L 284.6875 -151.246748 
L 286.246019 -161.339863 
L 287.804537 -168.853127 
L 289.363056 -176.864207 
L 290.921574 -186.016785 
L 292.480093 -192.090313 
L 294.038611 -198.177872 
L 295.59713 -202.68702 
L 297.155648 -208.59572 
L 298.714167 -214.415447 
L 300.272685 -218.091908 
L 301.831204 -219.704287 
L 303.389722 -222.643001 
L 304.948241 -219.993972 
L 306.506759 -220.245158 
L 308.065278 -218.514614 
L 309.623796 -214.1118 
L 311.182315 -212.319368 
L 312.740833 -200.111896 
L 314.299352 -196.363314 
L 315.85787 -184.45699 
L 317.416389 -178.912823 
L 318.974907 -171.467198 
L 320.533426 -166.464899 
L 322.091944 -165.431914 
L 323.650463 -163.116736 
L 325.208981 -163.157794 
L 326.7675 -159.75748 
L 328.326019 -161.262124 
L 329.884537 -158.832721 
L 331.443056 -155.103588 
L 333.001574 -153.292057 
L 334.560093 -155.10734 
L 336.118611 -157.898904 
L 337.67713 -156.71064 
L 339.235648 -155.406676 
L 340.794167 -152.772551 
L 342.352685 -152.30933 
L 343.911204 -149.139678 
L 345.469722 -149.390015 
L 347.028241 -150.112998 
L 348.586759 -146.588758 
L 350.145278 -148.381907 
L 351.703796 -147.352685 
L 353.262315 -150.470731 
L 354.820833 -147.710156 
L 354.820833 -159.362911 
L 354.820833 -159.362911 
L 353.262315 -162.730725 
L 351.703796 -159.759183 
L 350.145278 -158.93699 
L 348.586759 -156.876927 
L 347.028241 -160.146835 
L 345.469722 -159.068878 
L 343.911204 -158.012719 
L 342.352685 -161.417964 
L 340.794167 -162.221431 
L 339.235648 -162.736751 
L 337.67713 -164.696963 
L 336.118611 -165.364508 
L 334.560093 -163.254438 
L 333.001574 -161.724474 
L 331.443056 -162.486379 
L 329.884537 -167.142241 
L 328.326019 -168.864661 
L 326.7675 -166.593219 
L 325.208981 -169.613321 
L 323.650463 -169.962431 
L 322.091944 -172.950615 
L 320.533426 -172.133726 
L 318.974907 -175.974695 
L 317.416389 -184.570748 
L 315.85787 -191.83447 
L 314.299352 -202.955762 
L 312.740833 -207.95955 
L 311.182315 -221.0926 
L 309.623796 -221.419033 
L 308.065278 -226.541846 
L 306.506759 -227.351569 
L 304.948241 -227.623594 
L 303.389722 -230.095961 
L 301.831204 -226.709311 
L 300.272685 -223.473298 
L 298.714167 -219.212965 
L 297.155648 -212.584956 
L 295.59713 -206.493257 
L 294.038611 -201.535849 
L 292.480093 -195.990389 
L 290.921574 -189.150011 
L 289.363056 -180.474104 
L 287.804537 -172.506441 
L 286.246019 -165.184329 
L 284.6875 -155.149887 
L 283.128981 -147.141616 
L 281.570463 -141.098008 
L 280.011944 -133.483874 
L 278.453426 -124.526919 
L 276.894907 -116.769334 
L 275.336389 -112.162225 
L 273.77787 -107.579641 
L 272.219352 -99.285399 
L 270.660833 -93.460368 
L 269.102315 -91.975369 
L 267.543796 -88.082908 
L 265.985278 -84.104845 
L 264.426759 -83.349978 
L 262.868241 -83.619534 
L 261.309722 -90.302442 
L 259.751204 -92.749534 
L 258.192685 -103.227964 
L 256.634167 -111.299591 
L 255.075648 -121.220036 
L 253.51713 -132.538923 
L 251.958611 -139.471592 
L 250.400093 -144.517519 
L 248.841574 -148.692405 
L 247.283056 -155.05236 
L 245.724537 -157.102559 
L 244.166019 -155.305349 
L 242.6075 -151.975524 
L 241.048981 -155.8807 
L 239.490463 -156.335295 
L 237.931944 -154.668371 
L 236.373426 -154.408883 
L 234.814907 -155.570905 
L 233.256389 -158.736627 
L 231.69787 -158.639865 
L 230.139352 -155.59773 
L 228.580833 -154.470462 
L 227.022315 -154.471717 
L 225.463796 -153.110137 
L 223.905278 -154.242997 
L 222.346759 -157.077653 
L 220.788241 -157.644135 
L 219.229722 -157.285881 
L 217.671204 -162.674919 
L 216.112685 -164.195313 
L 214.554167 -161.599476 
z
" id="m6db7df90b1" style="stroke:#00bfbf;"/>
    </defs>
    <g clip-path="url(#p4cb2241963)">
     <use style="fill:#00bfbf;stroke:#00bfbf;" x="0" xlink:href="#m6db7df90b1" y="288"/>
    </g>
   </g>
   <g id="matplotlib.axis_3">
    <g id="xtick_6">
     <g id="line2d_13">
      <g>
       <use style="stroke:#000000;stroke-width:0.8;" x="214.554167" xlink:href="#m62ab53f6cb" y="242.2"/>
      </g>
     </g>
     <g id="text_17">
      <!-- −90 -->
      <g transform="translate(204.001823 256.798437)scale(0.1 -0.1)">
       <use xlink:href="#DejaVuSans-8722"/>
       <use x="83.789062" xlink:href="#DejaVuSans-57"/>
       <use x="147.412109" xlink:href="#DejaVuSans-48"/>
      </g>
     </g>
    </g>
    <g id="xtick_7">
     <g id="line2d_14">
      <g>
       <use style="stroke:#000000;stroke-width:0.8;" x="249.620833" xlink:href="#m62ab53f6cb" y="242.2"/>
      </g>
     </g>
     <g id="text_18">
      <!-- −45 -->
      <g transform="translate(239.06849 256.798437)scale(0.1 -0.1)">
       <use xlink:href="#DejaVuSans-8722"/>
       <use x="83.789062" xlink:href="#DejaVuSans-52"/>
       <use x="147.412109" xlink:href="#DejaVuSans-53"/>
      </g>
     </g>
    </g>
    <g id="xtick_8">
     <g id="line2d_15">
      <g>
       <use style="stroke:#000000;stroke-width:0.8;" x="284.6875" xlink:href="#m62ab53f6cb" y="242.2"/>
      </g>
     </g>
     <g id="text_19">
      <!-- 0 -->
      <g transform="translate(281.50625 256.798437)scale(0.1 -0.1)">
       <use xlink:href="#DejaVuSans-48"/>
      </g>
     </g>
    </g>
    <g id="xtick_9">
     <g id="line2d_16">
      <g>
       <use style="stroke:#000000;stroke-width:0.8;" x="319.754167" xlink:href="#m62ab53f6cb" y="242.2"/>
      </g>
     </g>
     <g id="text_20">
      <!-- 45 -->
      <g transform="translate(313.391667 256.798437)scale(0.1 -0.1)">
       <use xlink:href="#DejaVuSans-52"/>
       <use x="63.623047" xlink:href="#DejaVuSans-53"/>
      </g>
     </g>
    </g>
    <g id="xtick_10">
     <g id="line2d_17">
      <g>
       <use style="stroke:#000000;stroke-width:0.8;" x="354.820833" xlink:href="#m62ab53f6cb" y="242.2"/>
      </g>
     </g>
     <g id="text_21">
      <!-- 90 -->
      <g transform="translate(348.458333 256.798437)scale(0.1 -0.1)">
       <use xlink:href="#DejaVuSans-57"/>
       <use x="63.623047" xlink:href="#DejaVuSans-48"/>
      </g>
     </g>
    </g>
    <g id="text_22">
     <!-- $\Delta \theta$ (deg) -->
     <g transform="translate(263.2875 270.578125)scale(0.1 -0.1)">
      <use transform="translate(0 0.234375)" xlink:href="#DejaVuSans-916"/>
      <use transform="translate(68.408203 0.234375)" xlink:href="#DejaVuSans-Oblique-952"/>
      <use transform="translate(129.589844 0.234375)" xlink:href="#DejaVuSans-32"/>
      <use transform="translate(161.376953 0.234375)" xlink:href="#DejaVuSans-40"/>
      <use transform="translate(200.390625 0.234375)" xlink:href="#DejaVuSans-100"/>
      <use transform="translate(263.867188 0.234375)" xlink:href="#DejaVuSans-101"/>
      <use transform="translate(325.390625 0.234375)" xlink:href="#DejaVuSans-103"/>
      <use transform="translate(388.867188 0.234375)" xlink:href="#DejaVuSans-41"/>
     </g>
    </g>
   </g>
   <g id="matplotlib.axis_4"/>
   <g id="line2d_18">
    <path clip-path="url(#p4cb2241963)" d="M 214.554167 134.5 
L 354.820833 134.5 
" style="fill:none;stroke:#000000;stroke-dasharray:5.55,2.4;stroke-dashoffset:0;stroke-width:1.5;"/>
   </g>
   <g id="line2d_19">
    <path clip-path="url(#p4cb2241963)" d="M 284.6875 242.2 
L 284.6875 26.8 
" style="fill:none;stroke:#0000ff;stroke-dasharray:5.55,2.4;stroke-dashoffset:0;stroke-width:1.5;"/>
   </g>
   <g id="patch_8">
    <path d="M 214.554167 242.2 
L 214.554167 26.8 
" style="fill:none;stroke:#000000;stroke-linecap:square;stroke-linejoin:miter;stroke-width:0.8;"/>
   </g>
   <g id="patch_9">
    <path d="M 354.820833 242.2 
L 354.820833 26.8 
" style="fill:none;stroke:#000000;stroke-linecap:square;stroke-linejoin:miter;stroke-width:0.8;"/>
   </g>
   <g id="patch_10">
    <path d="M 214.554167 242.2 
L 354.820833 242.2 
" style="fill:none;stroke:#000000;stroke-linecap:square;stroke-linejoin:miter;stroke-width:0.8;"/>
   </g>
   <g id="patch_11">
    <path d="M 214.554167 26.8 
L 354.820833 26.8 
" style="fill:none;stroke:#000000;stroke-linecap:square;stroke-linejoin:miter;stroke-width:0.8;"/>
   </g>
   <g id="text_23">
    <!-- *** -->
    <g transform="translate(331.443056 47.314286)scale(0.1 -0.1)">
     <use xlink:href="#DejaVuSans-42"/>
     <use x="50" xlink:href="#DejaVuSans-42"/>
     <use x="100" xlink:href="#DejaVuSans-42"/>
    </g>
   </g>
   <g id="text_24">
    <!-- *** -->
    <g style="fill:#00bfbf;" transform="translate(331.443056 57.571429)scale(0.1 -0.1)">
     <use xlink:href="#DejaVuSans-42"/>
     <use x="50" xlink:href="#DejaVuSans-42"/>
     <use x="100" xlink:href="#DejaVuSans-42"/>
    </g>
   </g>
   <g id="text_25">
    <!-- R*** -->
    <g style="fill:#bf00bf;" transform="translate(331.443056 67.828571)scale(0.1 -0.1)">
     <defs>
      <path d="M 44.390625 34.1875 
Q 47.5625 33.109375 50.5625 29.59375 
Q 53.5625 26.078125 56.59375 19.921875 
L 66.609375 0 
L 56 0 
L 46.6875 18.703125 
Q 43.0625 26.03125 39.671875 28.421875 
Q 36.28125 30.8125 30.421875 30.8125 
L 19.671875 30.8125 
L 19.671875 0 
L 9.8125 0 
L 9.8125 72.90625 
L 32.078125 72.90625 
Q 44.578125 72.90625 50.734375 67.671875 
Q 56.890625 62.453125 56.890625 51.90625 
Q 56.890625 45.015625 53.6875 40.46875 
Q 50.484375 35.9375 44.390625 34.1875 
z
M 19.671875 64.796875 
L 19.671875 38.921875 
L 32.078125 38.921875 
Q 39.203125 38.921875 42.84375 42.21875 
Q 46.484375 45.515625 46.484375 51.90625 
Q 46.484375 58.296875 42.84375 61.546875 
Q 39.203125 64.796875 32.078125 64.796875 
z
" id="DejaVuSans-82"/>
     </defs>
     <use xlink:href="#DejaVuSans-82"/>
     <use x="69.482422" xlink:href="#DejaVuSans-42"/>
     <use x="119.482422" xlink:href="#DejaVuSans-42"/>
     <use x="169.482422" xlink:href="#DejaVuSans-42"/>
    </g>
   </g>
   <g id="text_26">
    <!-- nb:-1 | Resp SD -->
    <g transform="translate(238.375937 20.8)scale(0.12 -0.12)">
     <defs>
      <path d="M 18.109375 8.203125 
L 18.109375 -20.796875 
L 9.078125 -20.796875 
L 9.078125 54.6875 
L 18.109375 54.6875 
L 18.109375 46.390625 
Q 20.953125 51.265625 25.265625 53.625 
Q 29.59375 56 35.59375 56 
Q 45.5625 56 51.78125 48.09375 
Q 58.015625 40.1875 58.015625 27.296875 
Q 58.015625 14.40625 51.78125 6.484375 
Q 45.5625 -1.421875 35.59375 -1.421875 
Q 29.59375 -1.421875 25.265625 0.953125 
Q 20.953125 3.328125 18.109375 8.203125 
z
M 48.6875 27.296875 
Q 48.6875 37.203125 44.609375 42.84375 
Q 40.53125 48.484375 33.40625 48.484375 
Q 26.265625 48.484375 22.1875 42.84375 
Q 18.109375 37.203125 18.109375 27.296875 
Q 18.109375 17.390625 22.1875 11.75 
Q 26.265625 6.109375 33.40625 6.109375 
Q 40.53125 6.109375 44.609375 11.75 
Q 48.6875 17.390625 48.6875 27.296875 
z
" id="DejaVuSans-112"/>
     </defs>
     <use xlink:href="#DejaVuSans-110"/>
     <use x="63.378906" xlink:href="#DejaVuSans-98"/>
     <use x="126.855469" xlink:href="#DejaVuSans-58"/>
     <use x="160.546875" xlink:href="#DejaVuSans-45"/>
     <use x="196.630859" xlink:href="#DejaVuSans-49"/>
     <use x="260.253906" xlink:href="#DejaVuSans-32"/>
     <use x="292.041016" xlink:href="#DejaVuSans-124"/>
     <use x="325.732422" xlink:href="#DejaVuSans-32"/>
     <use x="357.519531" xlink:href="#DejaVuSans-82"/>
     <use x="422.501953" xlink:href="#DejaVuSans-101"/>
     <use x="484.025391" xlink:href="#DejaVuSans-115"/>
     <use x="536.125" xlink:href="#DejaVuSans-112"/>
     <use x="599.601562" xlink:href="#DejaVuSans-32"/>
     <use x="631.388672" xlink:href="#DejaVuSans-83"/>
     <use x="694.865234" xlink:href="#DejaVuSans-68"/>
    </g>
   </g>
  </g>
  <g id="axes_3">
   <g id="patch_12">
    <path d="M 382.558333 242.2 
L 522.825 242.2 
L 522.825 26.8 
L 382.558333 26.8 
z
" style="fill:#ffffff;"/>
   </g>
   <g id="PolyCollection_5">
    <defs>
     <path d="M 382.558333 -158.078222 
L 382.558333 -146.403284 
L 384.116852 -148.60585 
L 385.67537 -146.770807 
L 387.233889 -148.559769 
L 388.792407 -152.184042 
L 390.350926 -152.762113 
L 391.909444 -148.536222 
L 393.467963 -147.759401 
L 395.026481 -142.983124 
L 396.585 -140.427564 
L 398.143519 -146.491053 
L 399.702037 -147.874031 
L 401.260556 -145.792456 
L 402.819074 -144.896377 
L 404.377593 -147.365385 
L 405.936111 -150.021611 
L 407.49463 -148.611249 
L 409.053148 -151.049421 
L 410.611667 -151.197818 
L 412.170185 -151.370899 
L 413.728704 -148.307845 
L 415.287222 -148.671958 
L 416.845741 -152.047602 
L 418.404259 -149.801837 
L 419.962778 -152.375501 
L 421.521296 -153.134426 
L 423.079815 -152.451134 
L 424.638333 -153.242318 
L 426.196852 -150.176384 
L 427.75537 -150.849342 
L 429.313889 -149.189697 
L 430.872407 -151.277562 
L 432.430926 -152.156387 
L 433.989444 -151.913334 
L 435.547963 -152.11286 
L 437.106481 -152.246908 
L 438.665 -151.747729 
L 440.223519 -150.610696 
L 441.782037 -153.274296 
L 443.340556 -152.552694 
L 444.899074 -153.263229 
L 446.457593 -153.44029 
L 448.016111 -152.587176 
L 449.57463 -152.351326 
L 451.133148 -153.868665 
L 452.691667 -153.109597 
L 454.250185 -152.878581 
L 455.808704 -153.313269 
L 457.367222 -153.384619 
L 458.925741 -151.737185 
L 460.484259 -150.234654 
L 462.042778 -151.347873 
L 463.601296 -151.142796 
L 465.159815 -151.121445 
L 466.718333 -153.90758 
L 468.276852 -155.340925 
L 469.83537 -156.057207 
L 471.393889 -155.213008 
L 472.952407 -156.874273 
L 474.510926 -156.313547 
L 476.069444 -153.965025 
L 477.627963 -153.420961 
L 479.186481 -150.885562 
L 480.745 -152.923928 
L 482.303519 -152.28101 
L 483.862037 -149.673088 
L 485.420556 -149.146436 
L 486.979074 -147.61226 
L 488.537593 -151.373818 
L 490.096111 -149.741149 
L 491.65463 -150.671619 
L 493.213148 -151.866878 
L 494.771667 -155.841342 
L 496.330185 -153.963795 
L 497.888704 -151.340688 
L 499.447222 -153.138005 
L 501.005741 -155.486276 
L 502.564259 -153.790742 
L 504.122778 -153.192886 
L 505.681296 -157.187534 
L 507.239815 -160.502099 
L 508.798333 -161.157377 
L 510.356852 -159.519342 
L 511.91537 -157.767969 
L 513.473889 -158.642346 
L 515.032407 -154.984921 
L 516.590926 -152.069182 
L 518.149444 -154.336495 
L 519.707963 -153.141609 
L 521.266481 -146.063316 
L 522.825 -144.588368 
L 522.825 -154.955738 
L 522.825 -154.955738 
L 521.266481 -157.52861 
L 519.707963 -166.125118 
L 518.149444 -165.423264 
L 516.590926 -161.829114 
L 515.032407 -164.408296 
L 513.473889 -167.465863 
L 511.91537 -167.789146 
L 510.356852 -168.55351 
L 508.798333 -168.896603 
L 507.239815 -167.440712 
L 505.681296 -163.781924 
L 504.122778 -159.955793 
L 502.564259 -162.411993 
L 501.005741 -164.084441 
L 499.447222 -162.652285 
L 497.888704 -160.572906 
L 496.330185 -162.322487 
L 494.771667 -164.334636 
L 493.213148 -159.571108 
L 491.65463 -159.457857 
L 490.096111 -157.386561 
L 488.537593 -157.632248 
L 486.979074 -154.714393 
L 485.420556 -154.842164 
L 483.862037 -155.62263 
L 482.303519 -159.004544 
L 480.745 -159.106244 
L 479.186481 -158.429253 
L 477.627963 -160.147724 
L 476.069444 -160.078075 
L 474.510926 -162.841609 
L 472.952407 -162.713786 
L 471.393889 -160.981068 
L 469.83537 -161.020497 
L 468.276852 -160.696181 
L 466.718333 -158.434372 
L 465.159815 -156.14221 
L 463.601296 -155.827046 
L 462.042778 -157.090322 
L 460.484259 -156.73661 
L 458.925741 -157.755735 
L 457.367222 -158.856969 
L 455.808704 -158.681469 
L 454.250185 -157.148491 
L 452.691667 -157.38828 
L 451.133148 -158.250049 
L 449.57463 -157.141971 
L 448.016111 -157.693899 
L 446.457593 -158.271143 
L 444.899074 -157.911438 
L 443.340556 -158.041784 
L 441.782037 -158.208235 
L 440.223519 -156.950783 
L 438.665 -158.730377 
L 437.106481 -158.825476 
L 435.547963 -158.63958 
L 433.989444 -157.934471 
L 432.430926 -158.167029 
L 430.872407 -157.504687 
L 429.313889 -155.777743 
L 427.75537 -157.319841 
L 426.196852 -157.111817 
L 424.638333 -159.678184 
L 423.079815 -159.684558 
L 421.521296 -160.185587 
L 419.962778 -160.542694 
L 418.404259 -157.373374 
L 416.845741 -158.399621 
L 415.287222 -155.785852 
L 413.728704 -155.503962 
L 412.170185 -159.2589 
L 410.611667 -159.996408 
L 409.053148 -159.459131 
L 407.49463 -156.479732 
L 405.936111 -157.941565 
L 404.377593 -154.201292 
L 402.819074 -153.547569 
L 401.260556 -156.714054 
L 399.702037 -156.987556 
L 398.143519 -154.411067 
L 396.585 -148.786895 
L 395.026481 -153.061378 
L 393.467963 -157.896363 
L 391.909444 -158.742531 
L 390.350926 -161.38664 
L 388.792407 -160.952588 
L 387.233889 -158.9912 
L 385.67537 -158.386697 
L 384.116852 -160.425821 
L 382.558333 -158.078222 
z
" id="mb66197e0b6" style="stroke:#000000;"/>
    </defs>
    <g clip-path="url(#p4118751f01)">
     <use style="stroke:#000000;" x="0" xlink:href="#mb66197e0b6" y="288"/>
    </g>
   </g>
   <g id="PolyCollection_6">
    <defs>
     <path d="M 382.558333 -161.654839 
L 382.558333 -149.260944 
L 384.116852 -153.165487 
L 385.67537 -154.907921 
L 387.233889 -152.941649 
L 388.792407 -152.938803 
L 390.350926 -150.398846 
L 391.909444 -146.658342 
L 393.467963 -147.148832 
L 395.026481 -146.069128 
L 396.585 -145.822514 
L 398.143519 -143.377665 
L 399.702037 -144.028825 
L 401.260556 -146.147881 
L 402.819074 -146.962822 
L 404.377593 -149.13782 
L 405.936111 -151.950239 
L 407.49463 -148.191185 
L 409.053148 -149.515134 
L 410.611667 -149.011267 
L 412.170185 -152.458185 
L 413.728704 -152.415684 
L 415.287222 -154.76931 
L 416.845741 -158.173748 
L 418.404259 -159.530762 
L 419.962778 -159.674574 
L 421.521296 -156.938115 
L 423.079815 -153.90691 
L 424.638333 -154.287892 
L 426.196852 -152.951083 
L 427.75537 -149.209569 
L 429.313889 -149.19131 
L 430.872407 -148.251254 
L 432.430926 -149.050283 
L 433.989444 -146.921902 
L 435.547963 -149.426064 
L 437.106481 -150.840635 
L 438.665 -151.663437 
L 440.223519 -154.333867 
L 441.782037 -155.046022 
L 443.340556 -155.08046 
L 444.899074 -154.151869 
L 446.457593 -154.636445 
L 448.016111 -153.525269 
L 449.57463 -152.899143 
L 451.133148 -152.636527 
L 452.691667 -152.171002 
L 454.250185 -154.040116 
L 455.808704 -151.873968 
L 457.367222 -150.005683 
L 458.925741 -151.093852 
L 460.484259 -151.574836 
L 462.042778 -151.546727 
L 463.601296 -149.167862 
L 465.159815 -150.835176 
L 466.718333 -151.231902 
L 468.276852 -152.96081 
L 469.83537 -152.308717 
L 471.393889 -153.381859 
L 472.952407 -154.610571 
L 474.510926 -154.180609 
L 476.069444 -154.94378 
L 477.627963 -153.490198 
L 479.186481 -154.334067 
L 480.745 -153.298259 
L 482.303519 -152.901003 
L 483.862037 -153.679968 
L 485.420556 -155.387804 
L 486.979074 -153.582347 
L 488.537593 -152.699455 
L 490.096111 -153.907904 
L 491.65463 -156.390883 
L 493.213148 -152.757977 
L 494.771667 -149.965435 
L 496.330185 -152.189489 
L 497.888704 -155.772982 
L 499.447222 -154.567669 
L 501.005741 -152.880651 
L 502.564259 -157.440205 
L 504.122778 -159.386105 
L 505.681296 -158.637603 
L 507.239815 -149.484427 
L 508.798333 -150.501666 
L 510.356852 -150.494432 
L 511.91537 -146.646086 
L 513.473889 -149.946143 
L 515.032407 -148.218878 
L 516.590926 -146.146871 
L 518.149444 -146.286446 
L 519.707963 -144.805437 
L 521.266481 -150.553829 
L 522.825 -151.441462 
L 522.825 -162.727422 
L 522.825 -162.727422 
L 521.266481 -160.823172 
L 519.707963 -155.06688 
L 518.149444 -155.836884 
L 516.590926 -156.183885 
L 515.032407 -157.909183 
L 513.473889 -158.779243 
L 511.91537 -156.59168 
L 510.356852 -159.130609 
L 508.798333 -158.633246 
L 507.239815 -156.977877 
L 505.681296 -166.104122 
L 504.122778 -166.923337 
L 502.564259 -165.968317 
L 501.005741 -161.745752 
L 499.447222 -162.219761 
L 497.888704 -163.837751 
L 496.330185 -160.130835 
L 494.771667 -157.060077 
L 493.213148 -159.336445 
L 491.65463 -162.386998 
L 490.096111 -160.703999 
L 488.537593 -159.476443 
L 486.979074 -159.564986 
L 485.420556 -161.215312 
L 483.862037 -160.322131 
L 482.303519 -158.337951 
L 480.745 -158.656488 
L 479.186481 -159.909362 
L 477.627963 -158.316127 
L 476.069444 -159.773669 
L 474.510926 -159.696186 
L 472.952407 -160.458489 
L 471.393889 -160.642508 
L 469.83537 -158.20785 
L 468.276852 -158.511473 
L 466.718333 -156.473011 
L 465.159815 -154.596897 
L 463.601296 -153.495163 
L 462.042778 -156.808862 
L 460.484259 -157.080412 
L 458.925741 -156.722259 
L 457.367222 -154.975584 
L 455.808704 -156.775046 
L 454.250185 -160.574692 
L 452.691667 -157.724302 
L 451.133148 -158.27276 
L 449.57463 -158.643441 
L 448.016111 -159.9269 
L 446.457593 -160.672215 
L 444.899074 -160.107604 
L 443.340556 -159.858425 
L 441.782037 -160.04281 
L 440.223519 -159.336203 
L 438.665 -157.162933 
L 437.106481 -155.888352 
L 435.547963 -155.248092 
L 433.989444 -152.463118 
L 432.430926 -154.602682 
L 430.872407 -152.926694 
L 429.313889 -153.782036 
L 427.75537 -154.66707 
L 426.196852 -157.721667 
L 424.638333 -159.463854 
L 423.079815 -158.812073 
L 421.521296 -162.761626 
L 419.962778 -165.601448 
L 418.404259 -166.253144 
L 416.845741 -165.21778 
L 415.287222 -161.921054 
L 413.728704 -161.139515 
L 412.170185 -160.419243 
L 410.611667 -156.299143 
L 409.053148 -157.241863 
L 407.49463 -155.547606 
L 405.936111 -157.657136 
L 404.377593 -155.749359 
L 402.819074 -154.11185 
L 401.260556 -153.465133 
L 399.702037 -151.883708 
L 398.143519 -151.68571 
L 396.585 -152.897363 
L 395.026481 -155.215666 
L 393.467963 -156.870858 
L 391.909444 -155.856699 
L 390.350926 -160.38427 
L 388.792407 -163.910682 
L 387.233889 -163.942326 
L 385.67537 -166.830961 
L 384.116852 -165.140724 
L 382.558333 -161.654839 
z
" id="m37ca019597" style="stroke:#00bfbf;"/>
    </defs>
    <g clip-path="url(#p4118751f01)">
     <use style="fill:#00bfbf;stroke:#00bfbf;" x="0" xlink:href="#m37ca019597" y="288"/>
    </g>
   </g>
   <g id="matplotlib.axis_5">
    <g id="xtick_11">
     <g id="line2d_20">
      <g>
       <use style="stroke:#000000;stroke-width:0.8;" x="382.558333" xlink:href="#m62ab53f6cb" y="242.2"/>
      </g>
     </g>
     <g id="text_27">
      <!-- −90 -->
      <g transform="translate(372.00599 256.798437)scale(0.1 -0.1)">
       <use xlink:href="#DejaVuSans-8722"/>
       <use x="83.789062" xlink:href="#DejaVuSans-57"/>
       <use x="147.412109" xlink:href="#DejaVuSans-48"/>
      </g>
     </g>
    </g>
    <g id="xtick_12">
     <g id="line2d_21">
      <g>
       <use style="stroke:#000000;stroke-width:0.8;" x="417.625" xlink:href="#m62ab53f6cb" y="242.2"/>
      </g>
     </g>
     <g id="text_28">
      <!-- −45 -->
      <g transform="translate(407.072656 256.798437)scale(0.1 -0.1)">
       <use xlink:href="#DejaVuSans-8722"/>
       <use x="83.789062" xlink:href="#DejaVuSans-52"/>
       <use x="147.412109" xlink:href="#DejaVuSans-53"/>
      </g>
     </g>
    </g>
    <g id="xtick_13">
     <g id="line2d_22">
      <g>
       <use style="stroke:#000000;stroke-width:0.8;" x="452.691667" xlink:href="#m62ab53f6cb" y="242.2"/>
      </g>
     </g>
     <g id="text_29">
      <!-- 0 -->
      <g transform="translate(449.510417 256.798437)scale(0.1 -0.1)">
       <use xlink:href="#DejaVuSans-48"/>
      </g>
     </g>
    </g>
    <g id="xtick_14">
     <g id="line2d_23">
      <g>
       <use style="stroke:#000000;stroke-width:0.8;" x="487.758333" xlink:href="#m62ab53f6cb" y="242.2"/>
      </g>
     </g>
     <g id="text_30">
      <!-- 45 -->
      <g transform="translate(481.395833 256.798437)scale(0.1 -0.1)">
       <use xlink:href="#DejaVuSans-52"/>
       <use x="63.623047" xlink:href="#DejaVuSans-53"/>
      </g>
     </g>
    </g>
    <g id="xtick_15">
     <g id="line2d_24">
      <g>
       <use style="stroke:#000000;stroke-width:0.8;" x="522.825" xlink:href="#m62ab53f6cb" y="242.2"/>
      </g>
     </g>
     <g id="text_31">
      <!-- 90 -->
      <g transform="translate(516.4625 256.798437)scale(0.1 -0.1)">
       <use xlink:href="#DejaVuSans-57"/>
       <use x="63.623047" xlink:href="#DejaVuSans-48"/>
      </g>
     </g>
    </g>
    <g id="text_32">
     <!-- $\Delta \theta$ (deg) -->
     <g transform="translate(431.291667 270.578125)scale(0.1 -0.1)">
      <use transform="translate(0 0.234375)" xlink:href="#DejaVuSans-916"/>
      <use transform="translate(68.408203 0.234375)" xlink:href="#DejaVuSans-Oblique-952"/>
      <use transform="translate(129.589844 0.234375)" xlink:href="#DejaVuSans-32"/>
      <use transform="translate(161.376953 0.234375)" xlink:href="#DejaVuSans-40"/>
      <use transform="translate(200.390625 0.234375)" xlink:href="#DejaVuSans-100"/>
      <use transform="translate(263.867188 0.234375)" xlink:href="#DejaVuSans-101"/>
      <use transform="translate(325.390625 0.234375)" xlink:href="#DejaVuSans-103"/>
      <use transform="translate(388.867188 0.234375)" xlink:href="#DejaVuSans-41"/>
     </g>
    </g>
   </g>
   <g id="matplotlib.axis_6"/>
   <g id="line2d_25">
    <path clip-path="url(#p4118751f01)" d="M 382.558333 134.5 
L 522.825 134.5 
" style="fill:none;stroke:#000000;stroke-dasharray:5.55,2.4;stroke-dashoffset:0;stroke-width:1.5;"/>
   </g>
   <g id="line2d_26">
    <path clip-path="url(#p4118751f01)" d="M 452.691667 242.2 
L 452.691667 26.8 
" style="fill:none;stroke:#0000ff;stroke-dasharray:5.55,2.4;stroke-dashoffset:0;stroke-width:1.5;"/>
   </g>
   <g id="patch_13">
    <path d="M 382.558333 242.2 
L 382.558333 26.8 
" style="fill:none;stroke:#000000;stroke-linecap:square;stroke-linejoin:miter;stroke-width:0.8;"/>
   </g>
   <g id="patch_14">
    <path d="M 522.825 242.2 
L 522.825 26.8 
" style="fill:none;stroke:#000000;stroke-linecap:square;stroke-linejoin:miter;stroke-width:0.8;"/>
   </g>
   <g id="patch_15">
    <path d="M 382.558333 242.2 
L 522.825 242.2 
" style="fill:none;stroke:#000000;stroke-linecap:square;stroke-linejoin:miter;stroke-width:0.8;"/>
   </g>
   <g id="patch_16">
    <path d="M 382.558333 26.8 
L 522.825 26.8 
" style="fill:none;stroke:#000000;stroke-linecap:square;stroke-linejoin:miter;stroke-width:0.8;"/>
   </g>
   <g id="text_33">
    <!-- Yes E Corrected -->
    <g transform="translate(386.45463 47.314286)scale(0.1 -0.1)">
     <defs>
      <path d="M -0.203125 72.90625 
L 10.40625 72.90625 
L 30.609375 42.921875 
L 50.6875 72.90625 
L 61.28125 72.90625 
L 35.5 34.71875 
L 35.5 0 
L 25.59375 0 
L 25.59375 34.71875 
z
" id="DejaVuSans-89"/>
      <path d="M 9.8125 72.90625 
L 55.90625 72.90625 
L 55.90625 64.59375 
L 19.671875 64.59375 
L 19.671875 43.015625 
L 54.390625 43.015625 
L 54.390625 34.71875 
L 19.671875 34.71875 
L 19.671875 8.296875 
L 56.78125 8.296875 
L 56.78125 0 
L 9.8125 0 
z
" id="DejaVuSans-69"/>
      <path d="M 64.40625 67.28125 
L 64.40625 56.890625 
Q 59.421875 61.53125 53.78125 63.8125 
Q 48.140625 66.109375 41.796875 66.109375 
Q 29.296875 66.109375 22.65625 58.46875 
Q 16.015625 50.828125 16.015625 36.375 
Q 16.015625 21.96875 22.65625 14.328125 
Q 29.296875 6.6875 41.796875 6.6875 
Q 48.140625 6.6875 53.78125 8.984375 
Q 59.421875 11.28125 64.40625 15.921875 
L 64.40625 5.609375 
Q 59.234375 2.09375 53.4375 0.328125 
Q 47.65625 -1.421875 41.21875 -1.421875 
Q 24.65625 -1.421875 15.125 8.703125 
Q 5.609375 18.84375 5.609375 36.375 
Q 5.609375 53.953125 15.125 64.078125 
Q 24.65625 74.21875 41.21875 74.21875 
Q 47.75 74.21875 53.53125 72.484375 
Q 59.328125 70.75 64.40625 67.28125 
z
" id="DejaVuSans-67"/>
      <path d="M 30.609375 48.390625 
Q 23.390625 48.390625 19.1875 42.75 
Q 14.984375 37.109375 14.984375 27.296875 
Q 14.984375 17.484375 19.15625 11.84375 
Q 23.34375 6.203125 30.609375 6.203125 
Q 37.796875 6.203125 41.984375 11.859375 
Q 46.1875 17.53125 46.1875 27.296875 
Q 46.1875 37.015625 41.984375 42.703125 
Q 37.796875 48.390625 30.609375 48.390625 
z
M 30.609375 56 
Q 42.328125 56 49.015625 48.375 
Q 55.71875 40.765625 55.71875 27.296875 
Q 55.71875 13.875 49.015625 6.21875 
Q 42.328125 -1.421875 30.609375 -1.421875 
Q 18.84375 -1.421875 12.171875 6.21875 
Q 5.515625 13.875 5.515625 27.296875 
Q 5.515625 40.765625 12.171875 48.375 
Q 18.84375 56 30.609375 56 
z
" id="DejaVuSans-111"/>
      <path d="M 41.109375 46.296875 
Q 39.59375 47.171875 37.8125 47.578125 
Q 36.03125 48 33.890625 48 
Q 26.265625 48 22.1875 43.046875 
Q 18.109375 38.09375 18.109375 28.8125 
L 18.109375 0 
L 9.078125 0 
L 9.078125 54.6875 
L 18.109375 54.6875 
L 18.109375 46.1875 
Q 20.953125 51.171875 25.484375 53.578125 
Q 30.03125 56 36.53125 56 
Q 37.453125 56 38.578125 55.875 
Q 39.703125 55.765625 41.0625 55.515625 
z
" id="DejaVuSans-114"/>
      <path d="M 48.78125 52.59375 
L 48.78125 44.1875 
Q 44.96875 46.296875 41.140625 47.34375 
Q 37.3125 48.390625 33.40625 48.390625 
Q 24.65625 48.390625 19.8125 42.84375 
Q 14.984375 37.3125 14.984375 27.296875 
Q 14.984375 17.28125 19.8125 11.734375 
Q 24.65625 6.203125 33.40625 6.203125 
Q 37.3125 6.203125 41.140625 7.25 
Q 44.96875 8.296875 48.78125 10.40625 
L 48.78125 2.09375 
Q 45.015625 0.34375 40.984375 -0.53125 
Q 36.96875 -1.421875 32.421875 -1.421875 
Q 20.0625 -1.421875 12.78125 6.34375 
Q 5.515625 14.109375 5.515625 27.296875 
Q 5.515625 40.671875 12.859375 48.328125 
Q 20.21875 56 33.015625 56 
Q 37.15625 56 41.109375 55.140625 
Q 45.0625 54.296875 48.78125 52.59375 
z
" id="DejaVuSans-99"/>
     </defs>
     <use xlink:href="#DejaVuSans-89"/>
     <use x="47.833984" xlink:href="#DejaVuSans-101"/>
     <use x="109.357422" xlink:href="#DejaVuSans-115"/>
     <use x="161.457031" xlink:href="#DejaVuSans-32"/>
     <use x="193.244141" xlink:href="#DejaVuSans-69"/>
     <use x="256.427734" xlink:href="#DejaVuSans-32"/>
     <use x="288.214844" xlink:href="#DejaVuSans-67"/>
     <use x="358.039062" xlink:href="#DejaVuSans-111"/>
     <use x="419.220703" xlink:href="#DejaVuSans-114"/>
     <use x="458.583984" xlink:href="#DejaVuSans-114"/>
     <use x="497.447266" xlink:href="#DejaVuSans-101"/>
     <use x="558.970703" xlink:href="#DejaVuSans-99"/>
     <use x="613.951172" xlink:href="#DejaVuSans-116"/>
     <use x="653.160156" xlink:href="#DejaVuSans-101"/>
     <use x="714.683594" xlink:href="#DejaVuSans-100"/>
    </g>
   </g>
   <g id="text_34">
    <!-- No resp Corrected -->
    <g transform="translate(386.45463 67.828571)scale(0.1 -0.1)">
     <defs>
      <path d="M 9.8125 72.90625 
L 23.09375 72.90625 
L 55.421875 11.921875 
L 55.421875 72.90625 
L 64.984375 72.90625 
L 64.984375 0 
L 51.703125 0 
L 19.390625 60.984375 
L 19.390625 0 
L 9.8125 0 
z
" id="DejaVuSans-78"/>
     </defs>
     <use xlink:href="#DejaVuSans-78"/>
     <use x="74.804688" xlink:href="#DejaVuSans-111"/>
     <use x="135.986328" xlink:href="#DejaVuSans-32"/>
     <use x="167.773438" xlink:href="#DejaVuSans-114"/>
     <use x="206.636719" xlink:href="#DejaVuSans-101"/>
     <use x="268.160156" xlink:href="#DejaVuSans-115"/>
     <use x="320.259766" xlink:href="#DejaVuSans-112"/>
     <use x="383.736328" xlink:href="#DejaVuSans-32"/>
     <use x="415.523438" xlink:href="#DejaVuSans-67"/>
     <use x="485.347656" xlink:href="#DejaVuSans-111"/>
     <use x="546.529297" xlink:href="#DejaVuSans-114"/>
     <use x="585.892578" xlink:href="#DejaVuSans-114"/>
     <use x="624.755859" xlink:href="#DejaVuSans-101"/>
     <use x="686.279297" xlink:href="#DejaVuSans-99"/>
     <use x="741.259766" xlink:href="#DejaVuSans-116"/>
     <use x="780.46875" xlink:href="#DejaVuSans-101"/>
     <use x="841.992188" xlink:href="#DejaVuSans-100"/>
    </g>
   </g>
   <g id="text_35">
    <!-- (+) AutoCorr -->
    <g transform="translate(386.45463 221.685714)scale(0.1 -0.1)">
     <defs>
      <path d="M 46 62.703125 
L 46 35.5 
L 73.1875 35.5 
L 73.1875 27.203125 
L 46 27.203125 
L 46 0 
L 37.796875 0 
L 37.796875 27.203125 
L 10.59375 27.203125 
L 10.59375 35.5 
L 37.796875 35.5 
L 37.796875 62.703125 
z
" id="DejaVuSans-43"/>
      <path d="M 34.1875 63.1875 
L 20.796875 26.90625 
L 47.609375 26.90625 
z
M 28.609375 72.90625 
L 39.796875 72.90625 
L 67.578125 0 
L 57.328125 0 
L 50.6875 18.703125 
L 17.828125 18.703125 
L 11.1875 0 
L 0.78125 0 
z
" id="DejaVuSans-65"/>
      <path d="M 8.5 21.578125 
L 8.5 54.6875 
L 17.484375 54.6875 
L 17.484375 21.921875 
Q 17.484375 14.15625 20.5 10.265625 
Q 23.53125 6.390625 29.59375 6.390625 
Q 36.859375 6.390625 41.078125 11.03125 
Q 45.3125 15.671875 45.3125 23.6875 
L 45.3125 54.6875 
L 54.296875 54.6875 
L 54.296875 0 
L 45.3125 0 
L 45.3125 8.40625 
Q 42.046875 3.421875 37.71875 1 
Q 33.40625 -1.421875 27.6875 -1.421875 
Q 18.265625 -1.421875 13.375 4.4375 
Q 8.5 10.296875 8.5 21.578125 
z
M 31.109375 56 
z
" id="DejaVuSans-117"/>
     </defs>
     <use xlink:href="#DejaVuSans-40"/>
     <use x="39.013672" xlink:href="#DejaVuSans-43"/>
     <use x="122.802734" xlink:href="#DejaVuSans-41"/>
     <use x="161.816406" xlink:href="#DejaVuSans-32"/>
     <use x="193.603516" xlink:href="#DejaVuSans-65"/>
     <use x="262.011719" xlink:href="#DejaVuSans-117"/>
     <use x="325.390625" xlink:href="#DejaVuSans-116"/>
     <use x="364.599609" xlink:href="#DejaVuSans-111"/>
     <use x="425.78125" xlink:href="#DejaVuSans-67"/>
     <use x="495.605469" xlink:href="#DejaVuSans-111"/>
     <use x="556.787109" xlink:href="#DejaVuSans-114"/>
     <use x="596.150391" xlink:href="#DejaVuSans-114"/>
    </g>
   </g>
   <g id="text_36">
    <!-- Yes CB Yes Oblique -->
    <g transform="translate(386.45463 201.171429)scale(0.1 -0.1)">
     <defs>
      <path d="M 39.40625 66.21875 
Q 28.65625 66.21875 22.328125 58.203125 
Q 16.015625 50.203125 16.015625 36.375 
Q 16.015625 22.609375 22.328125 14.59375 
Q 28.65625 6.59375 39.40625 6.59375 
Q 50.140625 6.59375 56.421875 14.59375 
Q 62.703125 22.609375 62.703125 36.375 
Q 62.703125 50.203125 56.421875 58.203125 
Q 50.140625 66.21875 39.40625 66.21875 
z
M 39.40625 74.21875 
Q 54.734375 74.21875 63.90625 63.9375 
Q 73.09375 53.65625 73.09375 36.375 
Q 73.09375 19.140625 63.90625 8.859375 
Q 54.734375 -1.421875 39.40625 -1.421875 
Q 24.03125 -1.421875 14.8125 8.828125 
Q 5.609375 19.09375 5.609375 36.375 
Q 5.609375 53.65625 14.8125 63.9375 
Q 24.03125 74.21875 39.40625 74.21875 
z
" id="DejaVuSans-79"/>
      <path d="M 9.421875 75.984375 
L 18.40625 75.984375 
L 18.40625 0 
L 9.421875 0 
z
" id="DejaVuSans-108"/>
      <path d="M 14.796875 27.296875 
Q 14.796875 17.390625 18.875 11.75 
Q 22.953125 6.109375 30.078125 6.109375 
Q 37.203125 6.109375 41.296875 11.75 
Q 45.40625 17.390625 45.40625 27.296875 
Q 45.40625 37.203125 41.296875 42.84375 
Q 37.203125 48.484375 30.078125 48.484375 
Q 22.953125 48.484375 18.875 42.84375 
Q 14.796875 37.203125 14.796875 27.296875 
z
M 45.40625 8.203125 
Q 42.578125 3.328125 38.25 0.953125 
Q 33.9375 -1.421875 27.875 -1.421875 
Q 17.96875 -1.421875 11.734375 6.484375 
Q 5.515625 14.40625 5.515625 27.296875 
Q 5.515625 40.1875 11.734375 48.09375 
Q 17.96875 56 27.875 56 
Q 33.9375 56 38.25 53.625 
Q 42.578125 51.265625 45.40625 46.390625 
L 45.40625 54.6875 
L 54.390625 54.6875 
L 54.390625 -20.796875 
L 45.40625 -20.796875 
z
" id="DejaVuSans-113"/>
     </defs>
     <use xlink:href="#DejaVuSans-89"/>
     <use x="47.833984" xlink:href="#DejaVuSans-101"/>
     <use x="109.357422" xlink:href="#DejaVuSans-115"/>
     <use x="161.457031" xlink:href="#DejaVuSans-32"/>
     <use x="193.244141" xlink:href="#DejaVuSans-67"/>
     <use x="263.068359" xlink:href="#DejaVuSans-66"/>
     <use x="331.671875" xlink:href="#DejaVuSans-32"/>
     <use x="363.458984" xlink:href="#DejaVuSans-89"/>
     <use x="411.292969" xlink:href="#DejaVuSans-101"/>
     <use x="472.816406" xlink:href="#DejaVuSans-115"/>
     <use x="524.916016" xlink:href="#DejaVuSans-32"/>
     <use x="556.703125" xlink:href="#DejaVuSans-79"/>
     <use x="635.414062" xlink:href="#DejaVuSans-98"/>
     <use x="698.890625" xlink:href="#DejaVuSans-108"/>
     <use x="726.673828" xlink:href="#DejaVuSans-105"/>
     <use x="754.457031" xlink:href="#DejaVuSans-113"/>
     <use x="817.933594" xlink:href="#DejaVuSans-117"/>
     <use x="881.3125" xlink:href="#DejaVuSans-101"/>
    </g>
   </g>
   <g id="text_37">
    <!-- nb:-1 | No SD -->
    <g transform="translate(412.745729 20.8)scale(0.12 -0.12)">
     <use xlink:href="#DejaVuSans-110"/>
     <use x="63.378906" xlink:href="#DejaVuSans-98"/>
     <use x="126.855469" xlink:href="#DejaVuSans-58"/>
     <use x="160.546875" xlink:href="#DejaVuSans-45"/>
     <use x="196.630859" xlink:href="#DejaVuSans-49"/>
     <use x="260.253906" xlink:href="#DejaVuSans-32"/>
     <use x="292.041016" xlink:href="#DejaVuSans-124"/>
     <use x="325.732422" xlink:href="#DejaVuSans-32"/>
     <use x="357.519531" xlink:href="#DejaVuSans-78"/>
     <use x="432.324219" xlink:href="#DejaVuSans-111"/>
     <use x="493.505859" xlink:href="#DejaVuSans-32"/>
     <use x="525.292969" xlink:href="#DejaVuSans-83"/>
     <use x="588.769531" xlink:href="#DejaVuSans-68"/>
    </g>
   </g>
  </g>
 </g>
 <defs>
  <clipPath id="pc5f5527435">
   <rect height="215.4" width="140.266667" x="46.55" y="26.8"/>
  </clipPath>
  <clipPath id="p4cb2241963">
   <rect height="215.4" width="140.266667" x="214.554167" y="26.8"/>
  </clipPath>
  <clipPath id="p4118751f01">
   <rect height="215.4" width="140.266667" x="382.558333" y="26.8"/>
  </clipPath>
 </defs>
</svg>
