<?xml version="1.0" encoding="utf-8" standalone="no"?>
<!DOCTYPE svg PUBLIC "-//W3C//DTD SVG 1.1//EN"
  "http://www.w3.org/Graphics/SVG/1.1/DTD/svg11.dtd">
<!-- Created with matplotlib (https://matplotlib.org/) -->
<svg height="288pt" version="1.1" viewBox="0 0 540 288" width="540pt" xmlns="http://www.w3.org/2000/svg" xmlns:xlink="http://www.w3.org/1999/xlink">
 <metadata>
  <rdf:RDF xmlns:cc="http://creativecommons.org/ns#" xmlns:dc="http://purl.org/dc/elements/1.1/" xmlns:rdf="http://www.w3.org/1999/02/22-rdf-syntax-ns#">
   <cc:Work>
    <dc:type rdf:resource="http://purl.org/dc/dcmitype/StillImage"/>
    <dc:date>2022-12-29T20:56:00.123546</dc:date>
    <dc:format>image/svg+xml</dc:format>
    <dc:creator>
     <cc:Agent>
      <dc:title>Matplotlib v3.3.1, https://matplotlib.org/</dc:title>
     </cc:Agent>
    </dc:creator>
   </cc:Work>
  </rdf:RDF>
 </metadata>
 <defs>
  <style type="text/css">*{stroke-linecap:butt;stroke-linejoin:round;}</style>
 </defs>
 <g id="figure_1">
  <g id="patch_1">
   <path d="M 0 288 
L 540 288 
L 540 0 
L 0 0 
z
" style="fill:none;"/>
  </g>
  <g id="axes_1">
   <g id="patch_2">
    <path d="M 46.55 242.2 
L 186.816667 242.2 
L 186.816667 26.8 
L 46.55 26.8 
z
" style="fill:#ffffff;"/>
   </g>
   <g id="PolyCollection_1">
    <defs>
     <path d="M 46.55 -157.00045 
L 46.55 -144.990097 
L 48.108519 -148.007179 
L 49.667037 -149.587692 
L 51.225556 -149.724329 
L 52.784074 -148.307741 
L 54.342593 -149.04234 
L 55.901111 -159.567211 
L 57.45963 -153.957351 
L 59.018148 -155.524908 
L 60.576667 -159.517065 
L 62.135185 -156.934588 
L 63.693704 -156.227447 
L 65.252222 -153.495553 
L 66.810741 -156.127763 
L 68.369259 -155.060598 
L 69.927778 -152.259235 
L 71.486296 -153.371799 
L 73.044815 -151.669831 
L 74.603333 -149.962076 
L 76.161852 -144.246639 
L 77.72037 -138.771125 
L 79.278889 -133.644345 
L 80.837407 -126.567468 
L 82.395926 -125.184685 
L 83.954444 -117.104749 
L 85.512963 -113.922072 
L 87.071481 -111.179331 
L 88.63 -103.384474 
L 90.188519 -96.860724 
L 91.747037 -89.764041 
L 93.305556 -83.811545 
L 94.864074 -77.283754 
L 96.422593 -70.034646 
L 97.981111 -71.903821 
L 99.53963 -72.590876 
L 101.098148 -73.684977 
L 102.656667 -77.522177 
L 104.215185 -84.290921 
L 105.773704 -93.694992 
L 107.332222 -100.2913 
L 108.890741 -106.749215 
L 110.449259 -114.497628 
L 112.007778 -123.410982 
L 113.566296 -132.814865 
L 115.124815 -141.432188 
L 116.683333 -150.673208 
L 118.241852 -159.782083 
L 119.80037 -171.349189 
L 121.358889 -178.560025 
L 122.917407 -186.549041 
L 124.475926 -193.979245 
L 126.034444 -201.810694 
L 127.592963 -209.84811 
L 129.151481 -216.464889 
L 130.71 -220.186924 
L 132.268519 -223.527634 
L 133.827037 -226.155792 
L 135.385556 -226.361815 
L 136.944074 -227.250108 
L 138.502593 -223.071066 
L 140.061111 -218.322059 
L 141.61963 -210.883351 
L 143.178148 -204.893338 
L 144.736667 -198.710555 
L 146.295185 -188.208652 
L 147.853704 -179.594403 
L 149.412222 -175.520517 
L 150.970741 -176.801312 
L 152.529259 -170.203417 
L 154.087778 -164.916165 
L 155.646296 -158.466123 
L 157.204815 -156.294184 
L 158.763333 -156.780415 
L 160.321852 -153.702851 
L 161.88037 -150.231985 
L 163.438889 -153.57995 
L 164.997407 -154.310335 
L 166.555926 -156.296579 
L 168.114444 -154.137556 
L 169.672963 -153.312772 
L 171.231481 -149.620965 
L 172.79 -145.652255 
L 174.348519 -145.768214 
L 175.907037 -143.103158 
L 177.465556 -141.400236 
L 179.024074 -139.840232 
L 180.582593 -139.522216 
L 182.141111 -141.724445 
L 183.69963 -139.927533 
L 185.258148 -148.43932 
L 186.816667 -147.882167 
L 186.816667 -158.786926 
L 186.816667 -158.786926 
L 185.258148 -159.691916 
L 183.69963 -153.765798 
L 182.141111 -153.025993 
L 180.582593 -151.78455 
L 179.024074 -152.357316 
L 177.465556 -150.487949 
L 175.907037 -150.999819 
L 174.348519 -152.640874 
L 172.79 -153.249288 
L 171.231481 -154.934653 
L 169.672963 -159.494173 
L 168.114444 -162.344954 
L 166.555926 -163.857457 
L 164.997407 -162.292998 
L 163.438889 -162.379473 
L 161.88037 -158.313087 
L 160.321852 -162.13706 
L 158.763333 -165.504011 
L 157.204815 -164.493145 
L 155.646296 -167.317416 
L 154.087778 -173.075959 
L 152.529259 -177.942123 
L 150.970741 -186.900979 
L 149.412222 -186.77402 
L 147.853704 -190.319471 
L 146.295185 -198.428841 
L 144.736667 -208.58296 
L 143.178148 -213.65964 
L 141.61963 -219.279053 
L 140.061111 -227.334999 
L 138.502593 -231.192365 
L 136.944074 -235.48949 
L 135.385556 -234.127336 
L 133.827037 -231.484156 
L 132.268519 -229.041895 
L 130.71 -225.127749 
L 129.151481 -221.489944 
L 127.592963 -214.890371 
L 126.034444 -206.575594 
L 124.475926 -198.396014 
L 122.917407 -190.429773 
L 121.358889 -182.105688 
L 119.80037 -174.559537 
L 118.241852 -162.766079 
L 116.683333 -153.585759 
L 115.124815 -143.889938 
L 113.566296 -135.787883 
L 112.007778 -126.678683 
L 110.449259 -118.399292 
L 108.890741 -110.87272 
L 107.332222 -104.44336 
L 105.773704 -97.798957 
L 104.215185 -88.88778 
L 102.656667 -82.67932 
L 101.098148 -79.335448 
L 99.53963 -78.922685 
L 97.981111 -79.601873 
L 96.422593 -77.786325 
L 94.864074 -85.040689 
L 93.305556 -91.935345 
L 91.747037 -98.590646 
L 90.188519 -105.29198 
L 88.63 -113.718096 
L 87.071481 -120.821414 
L 85.512963 -124.303965 
L 83.954444 -128.000551 
L 82.395926 -134.215986 
L 80.837407 -134.703736 
L 79.278889 -142.480913 
L 77.72037 -146.784595 
L 76.161852 -153.223212 
L 74.603333 -157.180557 
L 73.044815 -158.603355 
L 71.486296 -163.124777 
L 69.927778 -162.752398 
L 68.369259 -166.539426 
L 66.810741 -166.244306 
L 65.252222 -162.476641 
L 63.693704 -165.965771 
L 62.135185 -165.1594 
L 60.576667 -168.30119 
L 59.018148 -165.421018 
L 57.45963 -165.68525 
L 55.901111 -170.920185 
L 54.342593 -162.050173 
L 52.784074 -162.351545 
L 51.225556 -162.93006 
L 49.667037 -164.033766 
L 48.108519 -160.995682 
L 46.55 -157.00045 
z
" id="m8b9e955270" style="stroke:#000000;"/>
    </defs>
    <g clip-path="url(#p3ff45aa0b1)">
     <use style="stroke:#000000;" x="0" xlink:href="#m8b9e955270" y="288"/>
    </g>
   </g>
   <g id="PolyCollection_2">
    <defs>
     <path d="M 46.55 -177.055052 
L 46.55 -165.118205 
L 48.108519 -158.990306 
L 49.667037 -154.489646 
L 51.225556 -154.160833 
L 52.784074 -152.089623 
L 54.342593 -148.308211 
L 55.901111 -141.79002 
L 57.45963 -141.766869 
L 59.018148 -140.852691 
L 60.576667 -142.463277 
L 62.135185 -143.093327 
L 63.693704 -147.194925 
L 65.252222 -153.913598 
L 66.810741 -157.137144 
L 68.369259 -153.715506 
L 69.927778 -150.422123 
L 71.486296 -148.905324 
L 73.044815 -143.183449 
L 74.603333 -138.997175 
L 76.161852 -137.100335 
L 77.72037 -132.551948 
L 79.278889 -129.933993 
L 80.837407 -126.049082 
L 82.395926 -123.926573 
L 83.954444 -118.441473 
L 85.512963 -113.681784 
L 87.071481 -107.210209 
L 88.63 -106.496341 
L 90.188519 -104.158671 
L 91.747037 -98.475685 
L 93.305556 -96.882388 
L 94.864074 -96.168052 
L 96.422593 -97.765798 
L 97.981111 -97.741871 
L 99.53963 -96.384741 
L 101.098148 -102.222228 
L 102.656667 -105.130231 
L 104.215185 -109.078505 
L 105.773704 -113.280039 
L 107.332222 -117.405304 
L 108.890741 -125.031173 
L 110.449259 -127.543694 
L 112.007778 -131.792614 
L 113.566296 -135.574273 
L 115.124815 -140.186853 
L 116.683333 -146.157297 
L 118.241852 -153.732396 
L 119.80037 -161.656854 
L 121.358889 -165.144294 
L 122.917407 -174.852099 
L 124.475926 -180.08298 
L 126.034444 -182.931529 
L 127.592963 -186.002001 
L 129.151481 -192.403423 
L 130.71 -199.205061 
L 132.268519 -200.428178 
L 133.827037 -201.932782 
L 135.385556 -203.86057 
L 136.944074 -206.735497 
L 138.502593 -202.82672 
L 140.061111 -198.45248 
L 141.61963 -198.091833 
L 143.178148 -195.682662 
L 144.736667 -192.231765 
L 146.295185 -184.339254 
L 147.853704 -179.247632 
L 149.412222 -178.894288 
L 150.970741 -170.28279 
L 152.529259 -169.382441 
L 154.087778 -167.31787 
L 155.646296 -168.479232 
L 157.204815 -162.40866 
L 158.763333 -157.741879 
L 160.321852 -159.417886 
L 161.88037 -155.414916 
L 163.438889 -151.637615 
L 164.997407 -151.343192 
L 166.555926 -151.630762 
L 168.114444 -153.444342 
L 169.672963 -149.979301 
L 171.231481 -146.354774 
L 172.79 -142.069836 
L 174.348519 -141.873756 
L 175.907037 -136.961561 
L 177.465556 -139.096163 
L 179.024074 -144.981822 
L 180.582593 -153.392156 
L 182.141111 -161.305845 
L 183.69963 -161.424285 
L 185.258148 -164.214927 
L 186.816667 -165.388967 
L 186.816667 -177.400944 
L 186.816667 -177.400944 
L 185.258148 -176.198332 
L 183.69963 -175.24413 
L 182.141111 -172.309808 
L 180.582593 -163.587316 
L 179.024074 -155.223847 
L 177.465556 -148.028058 
L 175.907037 -146.214893 
L 174.348519 -150.720614 
L 172.79 -151.794142 
L 171.231481 -157.197723 
L 169.672963 -159.192315 
L 168.114444 -162.645518 
L 166.555926 -159.87995 
L 164.997407 -160.359066 
L 163.438889 -159.730749 
L 161.88037 -163.337839 
L 160.321852 -166.981979 
L 158.763333 -167.005995 
L 157.204815 -173.884024 
L 155.646296 -177.500933 
L 154.087778 -177.691307 
L 152.529259 -179.379123 
L 150.970741 -180.926661 
L 149.412222 -189.047287 
L 147.853704 -188.446891 
L 146.295185 -192.608017 
L 144.736667 -200.515746 
L 143.178148 -203.727491 
L 141.61963 -206.095292 
L 140.061111 -207.090551 
L 138.502593 -211.707431 
L 136.944074 -214.434585 
L 135.385556 -211.322148 
L 133.827037 -208.898424 
L 132.268519 -206.584713 
L 130.71 -204.615834 
L 129.151481 -197.657644 
L 127.592963 -191.496522 
L 126.034444 -189.490049 
L 124.475926 -185.355869 
L 122.917407 -179.253527 
L 121.358889 -170.01643 
L 119.80037 -166.445925 
L 118.241852 -157.383453 
L 116.683333 -151.037125 
L 115.124815 -144.768708 
L 113.566296 -140.613704 
L 112.007778 -136.24675 
L 110.449259 -132.581635 
L 108.890741 -130.656899 
L 107.332222 -123.513761 
L 105.773704 -119.712933 
L 104.215185 -115.756879 
L 102.656667 -111.874156 
L 101.098148 -108.662926 
L 99.53963 -102.586072 
L 97.981111 -104.086341 
L 96.422593 -104.746652 
L 94.864074 -103.635675 
L 93.305556 -104.469697 
L 91.747037 -106.14514 
L 90.188519 -112.092752 
L 88.63 -114.079538 
L 87.071481 -115.106633 
L 85.512963 -122.783465 
L 83.954444 -126.07183 
L 82.395926 -132.204092 
L 80.837407 -135.383591 
L 79.278889 -138.398677 
L 77.72037 -141.495403 
L 76.161852 -145.556184 
L 74.603333 -148.86367 
L 73.044815 -152.315326 
L 71.486296 -157.729909 
L 69.927778 -160.374356 
L 68.369259 -164.526085 
L 66.810741 -166.455454 
L 65.252222 -162.623717 
L 63.693704 -157.861391 
L 62.135185 -153.378953 
L 60.576667 -154.692594 
L 59.018148 -152.785977 
L 57.45963 -154.741394 
L 55.901111 -157.081488 
L 54.342593 -159.727769 
L 52.784074 -163.604501 
L 51.225556 -165.292545 
L 49.667037 -165.840207 
L 48.108519 -169.225008 
L 46.55 -177.055052 
z
" id="m2b0689376e" style="stroke:#00bfbf;"/>
    </defs>
    <g clip-path="url(#p3ff45aa0b1)">
     <use style="fill:#00bfbf;stroke:#00bfbf;" x="0" xlink:href="#m2b0689376e" y="288"/>
    </g>
   </g>
   <g id="matplotlib.axis_1">
    <g id="xtick_1">
     <g id="line2d_1">
      <defs>
       <path d="M 0 0 
L 0 3.5 
" id="m32ac1792a2" style="stroke:#000000;stroke-width:0.8;"/>
      </defs>
      <g>
       <use style="stroke:#000000;stroke-width:0.8;" x="46.55" xlink:href="#m32ac1792a2" y="242.2"/>
      </g>
     </g>
     <g id="text_1">
      <!-- −90 -->
      <g transform="translate(35.997656 256.798437)scale(0.1 -0.1)">
       <defs>
        <path d="M 10.59375 35.5 
L 73.1875 35.5 
L 73.1875 27.203125 
L 10.59375 27.203125 
z
" id="DejaVuSans-8722"/>
        <path d="M 10.984375 1.515625 
L 10.984375 10.5 
Q 14.703125 8.734375 18.5 7.8125 
Q 22.3125 6.890625 25.984375 6.890625 
Q 35.75 6.890625 40.890625 13.453125 
Q 46.046875 20.015625 46.78125 33.40625 
Q 43.953125 29.203125 39.59375 26.953125 
Q 35.25 24.703125 29.984375 24.703125 
Q 19.046875 24.703125 12.671875 31.3125 
Q 6.296875 37.9375 6.296875 49.421875 
Q 6.296875 60.640625 12.9375 67.421875 
Q 19.578125 74.21875 30.609375 74.21875 
Q 43.265625 74.21875 49.921875 64.515625 
Q 56.59375 54.828125 56.59375 36.375 
Q 56.59375 19.140625 48.40625 8.859375 
Q 40.234375 -1.421875 26.421875 -1.421875 
Q 22.703125 -1.421875 18.890625 -0.6875 
Q 15.09375 0.046875 10.984375 1.515625 
z
M 30.609375 32.421875 
Q 37.25 32.421875 41.125 36.953125 
Q 45.015625 41.5 45.015625 49.421875 
Q 45.015625 57.28125 41.125 61.84375 
Q 37.25 66.40625 30.609375 66.40625 
Q 23.96875 66.40625 20.09375 61.84375 
Q 16.21875 57.28125 16.21875 49.421875 
Q 16.21875 41.5 20.09375 36.953125 
Q 23.96875 32.421875 30.609375 32.421875 
z
" id="DejaVuSans-57"/>
        <path d="M 31.78125 66.40625 
Q 24.171875 66.40625 20.328125 58.90625 
Q 16.5 51.421875 16.5 36.375 
Q 16.5 21.390625 20.328125 13.890625 
Q 24.171875 6.390625 31.78125 6.390625 
Q 39.453125 6.390625 43.28125 13.890625 
Q 47.125 21.390625 47.125 36.375 
Q 47.125 51.421875 43.28125 58.90625 
Q 39.453125 66.40625 31.78125 66.40625 
z
M 31.78125 74.21875 
Q 44.046875 74.21875 50.515625 64.515625 
Q 56.984375 54.828125 56.984375 36.375 
Q 56.984375 17.96875 50.515625 8.265625 
Q 44.046875 -1.421875 31.78125 -1.421875 
Q 19.53125 -1.421875 13.0625 8.265625 
Q 6.59375 17.96875 6.59375 36.375 
Q 6.59375 54.828125 13.0625 64.515625 
Q 19.53125 74.21875 31.78125 74.21875 
z
" id="DejaVuSans-48"/>
       </defs>
       <use xlink:href="#DejaVuSans-8722"/>
       <use x="83.789062" xlink:href="#DejaVuSans-57"/>
       <use x="147.412109" xlink:href="#DejaVuSans-48"/>
      </g>
     </g>
    </g>
    <g id="xtick_2">
     <g id="line2d_2">
      <g>
       <use style="stroke:#000000;stroke-width:0.8;" x="81.616667" xlink:href="#m32ac1792a2" y="242.2"/>
      </g>
     </g>
     <g id="text_2">
      <!-- −45 -->
      <g transform="translate(71.064323 256.798437)scale(0.1 -0.1)">
       <defs>
        <path d="M 37.796875 64.3125 
L 12.890625 25.390625 
L 37.796875 25.390625 
z
M 35.203125 72.90625 
L 47.609375 72.90625 
L 47.609375 25.390625 
L 58.015625 25.390625 
L 58.015625 17.1875 
L 47.609375 17.1875 
L 47.609375 0 
L 37.796875 0 
L 37.796875 17.1875 
L 4.890625 17.1875 
L 4.890625 26.703125 
z
" id="DejaVuSans-52"/>
        <path d="M 10.796875 72.90625 
L 49.515625 72.90625 
L 49.515625 64.59375 
L 19.828125 64.59375 
L 19.828125 46.734375 
Q 21.96875 47.46875 24.109375 47.828125 
Q 26.265625 48.1875 28.421875 48.1875 
Q 40.625 48.1875 47.75 41.5 
Q 54.890625 34.8125 54.890625 23.390625 
Q 54.890625 11.625 47.5625 5.09375 
Q 40.234375 -1.421875 26.90625 -1.421875 
Q 22.3125 -1.421875 17.546875 -0.640625 
Q 12.796875 0.140625 7.71875 1.703125 
L 7.71875 11.625 
Q 12.109375 9.234375 16.796875 8.0625 
Q 21.484375 6.890625 26.703125 6.890625 
Q 35.15625 6.890625 40.078125 11.328125 
Q 45.015625 15.765625 45.015625 23.390625 
Q 45.015625 31 40.078125 35.4375 
Q 35.15625 39.890625 26.703125 39.890625 
Q 22.75 39.890625 18.8125 39.015625 
Q 14.890625 38.140625 10.796875 36.28125 
z
" id="DejaVuSans-53"/>
       </defs>
       <use xlink:href="#DejaVuSans-8722"/>
       <use x="83.789062" xlink:href="#DejaVuSans-52"/>
       <use x="147.412109" xlink:href="#DejaVuSans-53"/>
      </g>
     </g>
    </g>
    <g id="xtick_3">
     <g id="line2d_3">
      <g>
       <use style="stroke:#000000;stroke-width:0.8;" x="116.683333" xlink:href="#m32ac1792a2" y="242.2"/>
      </g>
     </g>
     <g id="text_3">
      <!-- 0 -->
      <g transform="translate(113.502083 256.798437)scale(0.1 -0.1)">
       <use xlink:href="#DejaVuSans-48"/>
      </g>
     </g>
    </g>
    <g id="xtick_4">
     <g id="line2d_4">
      <g>
       <use style="stroke:#000000;stroke-width:0.8;" x="151.75" xlink:href="#m32ac1792a2" y="242.2"/>
      </g>
     </g>
     <g id="text_4">
      <!-- 45 -->
      <g transform="translate(145.3875 256.798437)scale(0.1 -0.1)">
       <use xlink:href="#DejaVuSans-52"/>
       <use x="63.623047" xlink:href="#DejaVuSans-53"/>
      </g>
     </g>
    </g>
    <g id="xtick_5">
     <g id="line2d_5">
      <g>
       <use style="stroke:#000000;stroke-width:0.8;" x="186.816667" xlink:href="#m32ac1792a2" y="242.2"/>
      </g>
     </g>
     <g id="text_5">
      <!-- 90 -->
      <g transform="translate(180.454167 256.798437)scale(0.1 -0.1)">
       <use xlink:href="#DejaVuSans-57"/>
       <use x="63.623047" xlink:href="#DejaVuSans-48"/>
      </g>
     </g>
    </g>
    <g id="text_6">
     <!-- $\Delta \theta$ (deg) -->
     <g transform="translate(95.283333 270.578125)scale(0.1 -0.1)">
      <defs>
       <path d="M 34.1875 63.1875 
L 14.15625 8.203125 
L 54.25 8.203125 
z
M 0.78125 0 
L 28.609375 72.90625 
L 39.796875 72.90625 
L 67.578125 0 
z
" id="DejaVuSans-916"/>
       <path d="M 45.515625 34.671875 
L 14.453125 34.671875 
Q 12.359375 20.0625 14.5 13.875 
Q 17.1875 6.25 24.46875 6.25 
Q 31.78125 6.25 37.359375 13.921875 
Q 42.234375 20.65625 45.515625 34.671875 
z
M 47.015625 42.96875 
Q 48.34375 56.84375 46.625 61.71875 
Q 43.953125 69.4375 36.765625 69.4375 
Q 29.296875 69.4375 23.828125 61.8125 
Q 19.53125 55.671875 16.15625 42.96875 
z
M 38.1875 76.765625 
Q 49.90625 76.765625 54.59375 66.40625 
Q 59.28125 56.109375 55.71875 37.84375 
Q 52.203125 19.625 43.453125 9.28125 
Q 34.765625 -1.125 23.046875 -1.125 
Q 11.28125 -1.125 6.640625 9.28125 
Q 2 19.625 5.515625 37.84375 
Q 9.078125 56.109375 17.71875 66.40625 
Q 26.421875 76.765625 38.1875 76.765625 
z
" id="DejaVuSans-Oblique-952"/>
       <path id="DejaVuSans-32"/>
       <path d="M 31 75.875 
Q 24.46875 64.65625 21.28125 53.65625 
Q 18.109375 42.671875 18.109375 31.390625 
Q 18.109375 20.125 21.3125 9.0625 
Q 24.515625 -2 31 -13.1875 
L 23.1875 -13.1875 
Q 15.875 -1.703125 12.234375 9.375 
Q 8.59375 20.453125 8.59375 31.390625 
Q 8.59375 42.28125 12.203125 53.3125 
Q 15.828125 64.359375 23.1875 75.875 
z
" id="DejaVuSans-40"/>
       <path d="M 45.40625 46.390625 
L 45.40625 75.984375 
L 54.390625 75.984375 
L 54.390625 0 
L 45.40625 0 
L 45.40625 8.203125 
Q 42.578125 3.328125 38.25 0.953125 
Q 33.9375 -1.421875 27.875 -1.421875 
Q 17.96875 -1.421875 11.734375 6.484375 
Q 5.515625 14.40625 5.515625 27.296875 
Q 5.515625 40.1875 11.734375 48.09375 
Q 17.96875 56 27.875 56 
Q 33.9375 56 38.25 53.625 
Q 42.578125 51.265625 45.40625 46.390625 
z
M 14.796875 27.296875 
Q 14.796875 17.390625 18.875 11.75 
Q 22.953125 6.109375 30.078125 6.109375 
Q 37.203125 6.109375 41.296875 11.75 
Q 45.40625 17.390625 45.40625 27.296875 
Q 45.40625 37.203125 41.296875 42.84375 
Q 37.203125 48.484375 30.078125 48.484375 
Q 22.953125 48.484375 18.875 42.84375 
Q 14.796875 37.203125 14.796875 27.296875 
z
" id="DejaVuSans-100"/>
       <path d="M 56.203125 29.59375 
L 56.203125 25.203125 
L 14.890625 25.203125 
Q 15.484375 15.921875 20.484375 11.0625 
Q 25.484375 6.203125 34.421875 6.203125 
Q 39.59375 6.203125 44.453125 7.46875 
Q 49.3125 8.734375 54.109375 11.28125 
L 54.109375 2.78125 
Q 49.265625 0.734375 44.1875 -0.34375 
Q 39.109375 -1.421875 33.890625 -1.421875 
Q 20.796875 -1.421875 13.15625 6.1875 
Q 5.515625 13.8125 5.515625 26.8125 
Q 5.515625 40.234375 12.765625 48.109375 
Q 20.015625 56 32.328125 56 
Q 43.359375 56 49.78125 48.890625 
Q 56.203125 41.796875 56.203125 29.59375 
z
M 47.21875 32.234375 
Q 47.125 39.59375 43.09375 43.984375 
Q 39.0625 48.390625 32.421875 48.390625 
Q 24.90625 48.390625 20.390625 44.140625 
Q 15.875 39.890625 15.1875 32.171875 
z
" id="DejaVuSans-101"/>
       <path d="M 45.40625 27.984375 
Q 45.40625 37.75 41.375 43.109375 
Q 37.359375 48.484375 30.078125 48.484375 
Q 22.859375 48.484375 18.828125 43.109375 
Q 14.796875 37.75 14.796875 27.984375 
Q 14.796875 18.265625 18.828125 12.890625 
Q 22.859375 7.515625 30.078125 7.515625 
Q 37.359375 7.515625 41.375 12.890625 
Q 45.40625 18.265625 45.40625 27.984375 
z
M 54.390625 6.78125 
Q 54.390625 -7.171875 48.1875 -13.984375 
Q 42 -20.796875 29.203125 -20.796875 
Q 24.46875 -20.796875 20.265625 -20.09375 
Q 16.0625 -19.390625 12.109375 -17.921875 
L 12.109375 -9.1875 
Q 16.0625 -11.328125 19.921875 -12.34375 
Q 23.78125 -13.375 27.78125 -13.375 
Q 36.625 -13.375 41.015625 -8.765625 
Q 45.40625 -4.15625 45.40625 5.171875 
L 45.40625 9.625 
Q 42.625 4.78125 38.28125 2.390625 
Q 33.9375 0 27.875 0 
Q 17.828125 0 11.671875 7.65625 
Q 5.515625 15.328125 5.515625 27.984375 
Q 5.515625 40.671875 11.671875 48.328125 
Q 17.828125 56 27.875 56 
Q 33.9375 56 38.28125 53.609375 
Q 42.625 51.21875 45.40625 46.390625 
L 45.40625 54.6875 
L 54.390625 54.6875 
z
" id="DejaVuSans-103"/>
       <path d="M 8.015625 75.875 
L 15.828125 75.875 
Q 23.140625 64.359375 26.78125 53.3125 
Q 30.421875 42.28125 30.421875 31.390625 
Q 30.421875 20.453125 26.78125 9.375 
Q 23.140625 -1.703125 15.828125 -13.1875 
L 8.015625 -13.1875 
Q 14.5 -2 17.703125 9.0625 
Q 20.90625 20.125 20.90625 31.390625 
Q 20.90625 42.671875 17.703125 53.65625 
Q 14.5 64.65625 8.015625 75.875 
z
" id="DejaVuSans-41"/>
      </defs>
      <use transform="translate(0 0.234375)" xlink:href="#DejaVuSans-916"/>
      <use transform="translate(68.408203 0.234375)" xlink:href="#DejaVuSans-Oblique-952"/>
      <use transform="translate(129.589844 0.234375)" xlink:href="#DejaVuSans-32"/>
      <use transform="translate(161.376953 0.234375)" xlink:href="#DejaVuSans-40"/>
      <use transform="translate(200.390625 0.234375)" xlink:href="#DejaVuSans-100"/>
      <use transform="translate(263.867188 0.234375)" xlink:href="#DejaVuSans-101"/>
      <use transform="translate(325.390625 0.234375)" xlink:href="#DejaVuSans-103"/>
      <use transform="translate(388.867188 0.234375)" xlink:href="#DejaVuSans-41"/>
     </g>
    </g>
   </g>
   <g id="matplotlib.axis_2">
    <g id="ytick_1">
     <g id="line2d_6">
      <defs>
       <path d="M 0 0 
L -3.5 0 
" id="m4d3859104c" style="stroke:#000000;stroke-width:0.8;"/>
      </defs>
      <g>
       <use style="stroke:#000000;stroke-width:0.8;" x="46.55" xlink:href="#m4d3859104c" y="216.557143"/>
      </g>
     </g>
     <g id="text_7">
      <!-- −8 -->
      <g transform="translate(24.807813 220.356362)scale(0.1 -0.1)">
       <defs>
        <path d="M 31.78125 34.625 
Q 24.75 34.625 20.71875 30.859375 
Q 16.703125 27.09375 16.703125 20.515625 
Q 16.703125 13.921875 20.71875 10.15625 
Q 24.75 6.390625 31.78125 6.390625 
Q 38.8125 6.390625 42.859375 10.171875 
Q 46.921875 13.96875 46.921875 20.515625 
Q 46.921875 27.09375 42.890625 30.859375 
Q 38.875 34.625 31.78125 34.625 
z
M 21.921875 38.8125 
Q 15.578125 40.375 12.03125 44.71875 
Q 8.5 49.078125 8.5 55.328125 
Q 8.5 64.0625 14.71875 69.140625 
Q 20.953125 74.21875 31.78125 74.21875 
Q 42.671875 74.21875 48.875 69.140625 
Q 55.078125 64.0625 55.078125 55.328125 
Q 55.078125 49.078125 51.53125 44.71875 
Q 48 40.375 41.703125 38.8125 
Q 48.828125 37.15625 52.796875 32.3125 
Q 56.78125 27.484375 56.78125 20.515625 
Q 56.78125 9.90625 50.3125 4.234375 
Q 43.84375 -1.421875 31.78125 -1.421875 
Q 19.734375 -1.421875 13.25 4.234375 
Q 6.78125 9.90625 6.78125 20.515625 
Q 6.78125 27.484375 10.78125 32.3125 
Q 14.796875 37.15625 21.921875 38.8125 
z
M 18.3125 54.390625 
Q 18.3125 48.734375 21.84375 45.5625 
Q 25.390625 42.390625 31.78125 42.390625 
Q 38.140625 42.390625 41.71875 45.5625 
Q 45.3125 48.734375 45.3125 54.390625 
Q 45.3125 60.0625 41.71875 63.234375 
Q 38.140625 66.40625 31.78125 66.40625 
Q 25.390625 66.40625 21.84375 63.234375 
Q 18.3125 60.0625 18.3125 54.390625 
z
" id="DejaVuSans-56"/>
       </defs>
       <use xlink:href="#DejaVuSans-8722"/>
       <use x="83.789062" xlink:href="#DejaVuSans-56"/>
      </g>
     </g>
    </g>
    <g id="ytick_2">
     <g id="line2d_7">
      <g>
       <use style="stroke:#000000;stroke-width:0.8;" x="46.55" xlink:href="#m4d3859104c" y="175.528571"/>
      </g>
     </g>
     <g id="text_8">
      <!-- −4 -->
      <g transform="translate(24.807813 179.32779)scale(0.1 -0.1)">
       <use xlink:href="#DejaVuSans-8722"/>
       <use x="83.789062" xlink:href="#DejaVuSans-52"/>
      </g>
     </g>
    </g>
    <g id="ytick_3">
     <g id="line2d_8">
      <g>
       <use style="stroke:#000000;stroke-width:0.8;" x="46.55" xlink:href="#m4d3859104c" y="134.5"/>
      </g>
     </g>
     <g id="text_9">
      <!-- 0 -->
      <g transform="translate(33.1875 138.299219)scale(0.1 -0.1)">
       <use xlink:href="#DejaVuSans-48"/>
      </g>
     </g>
    </g>
    <g id="ytick_4">
     <g id="line2d_9">
      <g>
       <use style="stroke:#000000;stroke-width:0.8;" x="46.55" xlink:href="#m4d3859104c" y="93.471429"/>
      </g>
     </g>
     <g id="text_10">
      <!-- 4 -->
      <g transform="translate(33.1875 97.270647)scale(0.1 -0.1)">
       <use xlink:href="#DejaVuSans-52"/>
      </g>
     </g>
    </g>
    <g id="ytick_5">
     <g id="line2d_10">
      <g>
       <use style="stroke:#000000;stroke-width:0.8;" x="46.55" xlink:href="#m4d3859104c" y="52.442857"/>
      </g>
     </g>
     <g id="text_11">
      <!-- 8 -->
      <g transform="translate(33.1875 56.242076)scale(0.1 -0.1)">
       <use xlink:href="#DejaVuSans-56"/>
      </g>
     </g>
    </g>
    <g id="text_12">
     <!-- Bias (deg) -->
     <g transform="translate(18.728125 159.903906)rotate(-90)scale(0.1 -0.1)">
      <defs>
       <path d="M 19.671875 34.8125 
L 19.671875 8.109375 
L 35.5 8.109375 
Q 43.453125 8.109375 47.28125 11.40625 
Q 51.125 14.703125 51.125 21.484375 
Q 51.125 28.328125 47.28125 31.5625 
Q 43.453125 34.8125 35.5 34.8125 
z
M 19.671875 64.796875 
L 19.671875 42.828125 
L 34.28125 42.828125 
Q 41.5 42.828125 45.03125 45.53125 
Q 48.578125 48.25 48.578125 53.8125 
Q 48.578125 59.328125 45.03125 62.0625 
Q 41.5 64.796875 34.28125 64.796875 
z
M 9.8125 72.90625 
L 35.015625 72.90625 
Q 46.296875 72.90625 52.390625 68.21875 
Q 58.5 63.53125 58.5 54.890625 
Q 58.5 48.1875 55.375 44.234375 
Q 52.25 40.28125 46.1875 39.3125 
Q 53.46875 37.75 57.5 32.78125 
Q 61.53125 27.828125 61.53125 20.40625 
Q 61.53125 10.640625 54.890625 5.3125 
Q 48.25 0 35.984375 0 
L 9.8125 0 
z
" id="DejaVuSans-66"/>
       <path d="M 9.421875 54.6875 
L 18.40625 54.6875 
L 18.40625 0 
L 9.421875 0 
z
M 9.421875 75.984375 
L 18.40625 75.984375 
L 18.40625 64.59375 
L 9.421875 64.59375 
z
" id="DejaVuSans-105"/>
       <path d="M 34.28125 27.484375 
Q 23.390625 27.484375 19.1875 25 
Q 14.984375 22.515625 14.984375 16.5 
Q 14.984375 11.71875 18.140625 8.90625 
Q 21.296875 6.109375 26.703125 6.109375 
Q 34.1875 6.109375 38.703125 11.40625 
Q 43.21875 16.703125 43.21875 25.484375 
L 43.21875 27.484375 
z
M 52.203125 31.203125 
L 52.203125 0 
L 43.21875 0 
L 43.21875 8.296875 
Q 40.140625 3.328125 35.546875 0.953125 
Q 30.953125 -1.421875 24.3125 -1.421875 
Q 15.921875 -1.421875 10.953125 3.296875 
Q 6 8.015625 6 15.921875 
Q 6 25.140625 12.171875 29.828125 
Q 18.359375 34.515625 30.609375 34.515625 
L 43.21875 34.515625 
L 43.21875 35.40625 
Q 43.21875 41.609375 39.140625 45 
Q 35.0625 48.390625 27.6875 48.390625 
Q 23 48.390625 18.546875 47.265625 
Q 14.109375 46.140625 10.015625 43.890625 
L 10.015625 52.203125 
Q 14.9375 54.109375 19.578125 55.046875 
Q 24.21875 56 28.609375 56 
Q 40.484375 56 46.34375 49.84375 
Q 52.203125 43.703125 52.203125 31.203125 
z
" id="DejaVuSans-97"/>
       <path d="M 44.28125 53.078125 
L 44.28125 44.578125 
Q 40.484375 46.53125 36.375 47.5 
Q 32.28125 48.484375 27.875 48.484375 
Q 21.1875 48.484375 17.84375 46.4375 
Q 14.5 44.390625 14.5 40.28125 
Q 14.5 37.15625 16.890625 35.375 
Q 19.28125 33.59375 26.515625 31.984375 
L 29.59375 31.296875 
Q 39.15625 29.25 43.1875 25.515625 
Q 47.21875 21.78125 47.21875 15.09375 
Q 47.21875 7.46875 41.1875 3.015625 
Q 35.15625 -1.421875 24.609375 -1.421875 
Q 20.21875 -1.421875 15.453125 -0.5625 
Q 10.6875 0.296875 5.421875 2 
L 5.421875 11.28125 
Q 10.40625 8.6875 15.234375 7.390625 
Q 20.0625 6.109375 24.8125 6.109375 
Q 31.15625 6.109375 34.5625 8.28125 
Q 37.984375 10.453125 37.984375 14.40625 
Q 37.984375 18.0625 35.515625 20.015625 
Q 33.0625 21.96875 24.703125 23.78125 
L 21.578125 24.515625 
Q 13.234375 26.265625 9.515625 29.90625 
Q 5.8125 33.546875 5.8125 39.890625 
Q 5.8125 47.609375 11.28125 51.796875 
Q 16.75 56 26.8125 56 
Q 31.78125 56 36.171875 55.265625 
Q 40.578125 54.546875 44.28125 53.078125 
z
" id="DejaVuSans-115"/>
      </defs>
      <use xlink:href="#DejaVuSans-66"/>
      <use x="68.603516" xlink:href="#DejaVuSans-105"/>
      <use x="96.386719" xlink:href="#DejaVuSans-97"/>
      <use x="157.666016" xlink:href="#DejaVuSans-115"/>
      <use x="209.765625" xlink:href="#DejaVuSans-32"/>
      <use x="241.552734" xlink:href="#DejaVuSans-40"/>
      <use x="280.566406" xlink:href="#DejaVuSans-100"/>
      <use x="344.042969" xlink:href="#DejaVuSans-101"/>
      <use x="405.566406" xlink:href="#DejaVuSans-103"/>
      <use x="469.042969" xlink:href="#DejaVuSans-41"/>
     </g>
    </g>
   </g>
   <g id="line2d_11">
    <path clip-path="url(#p3ff45aa0b1)" d="M 46.55 134.5 
L 186.816667 134.5 
" style="fill:none;stroke:#000000;stroke-dasharray:5.55,2.4;stroke-dashoffset:0;stroke-width:1.5;"/>
   </g>
   <g id="line2d_12">
    <path clip-path="url(#p3ff45aa0b1)" d="M 116.683333 242.2 
L 116.683333 26.8 
" style="fill:none;stroke:#0000ff;stroke-dasharray:5.55,2.4;stroke-dashoffset:0;stroke-width:1.5;"/>
   </g>
   <g id="patch_3">
    <path d="M 46.55 242.2 
L 46.55 26.8 
" style="fill:none;stroke:#000000;stroke-linecap:square;stroke-linejoin:miter;stroke-width:0.8;"/>
   </g>
   <g id="patch_4">
    <path d="M 186.816667 242.2 
L 186.816667 26.8 
" style="fill:none;stroke:#000000;stroke-linecap:square;stroke-linejoin:miter;stroke-width:0.8;"/>
   </g>
   <g id="patch_5">
    <path d="M 46.55 242.2 
L 186.816667 242.2 
" style="fill:none;stroke:#000000;stroke-linecap:square;stroke-linejoin:miter;stroke-width:0.8;"/>
   </g>
   <g id="patch_6">
    <path d="M 46.55 26.8 
L 186.816667 26.8 
" style="fill:none;stroke:#000000;stroke-linecap:square;stroke-linejoin:miter;stroke-width:0.8;"/>
   </g>
   <g id="text_13">
    <!-- *** -->
    <g transform="translate(163.438889 47.314286)scale(0.1 -0.1)">
     <defs>
      <path d="M 47.015625 60.890625 
L 29.5 51.421875 
L 47.015625 41.890625 
L 44.1875 37.109375 
L 27.78125 47.015625 
L 27.78125 28.609375 
L 22.21875 28.609375 
L 22.21875 47.015625 
L 5.8125 37.109375 
L 2.984375 41.890625 
L 20.515625 51.421875 
L 2.984375 60.890625 
L 5.8125 65.71875 
L 22.21875 55.8125 
L 22.21875 74.21875 
L 27.78125 74.21875 
L 27.78125 55.8125 
L 44.1875 65.71875 
z
" id="DejaVuSans-42"/>
     </defs>
     <use xlink:href="#DejaVuSans-42"/>
     <use x="50" xlink:href="#DejaVuSans-42"/>
     <use x="100" xlink:href="#DejaVuSans-42"/>
    </g>
   </g>
   <g id="text_14">
    <!-- *** -->
    <g style="fill:#00bfbf;" transform="translate(163.438889 57.571429)scale(0.1 -0.1)">
     <use xlink:href="#DejaVuSans-42"/>
     <use x="50" xlink:href="#DejaVuSans-42"/>
     <use x="100" xlink:href="#DejaVuSans-42"/>
    </g>
   </g>
   <g id="text_15">
    <!-- S*** -->
    <g style="fill:#bf00bf;" transform="translate(163.438889 67.828571)scale(0.1 -0.1)">
     <defs>
      <path d="M 53.515625 70.515625 
L 53.515625 60.890625 
Q 47.90625 63.578125 42.921875 64.890625 
Q 37.9375 66.21875 33.296875 66.21875 
Q 25.25 66.21875 20.875 63.09375 
Q 16.5 59.96875 16.5 54.203125 
Q 16.5 49.359375 19.40625 46.890625 
Q 22.3125 44.4375 30.421875 42.921875 
L 36.375 41.703125 
Q 47.40625 39.59375 52.65625 34.296875 
Q 57.90625 29 57.90625 20.125 
Q 57.90625 9.515625 50.796875 4.046875 
Q 43.703125 -1.421875 29.984375 -1.421875 
Q 24.8125 -1.421875 18.96875 -0.25 
Q 13.140625 0.921875 6.890625 3.21875 
L 6.890625 13.375 
Q 12.890625 10.015625 18.65625 8.296875 
Q 24.421875 6.59375 29.984375 6.59375 
Q 38.421875 6.59375 43.015625 9.90625 
Q 47.609375 13.234375 47.609375 19.390625 
Q 47.609375 24.75 44.3125 27.78125 
Q 41.015625 30.8125 33.5 32.328125 
L 27.484375 33.5 
Q 16.453125 35.6875 11.515625 40.375 
Q 6.59375 45.0625 6.59375 53.421875 
Q 6.59375 63.09375 13.40625 68.65625 
Q 20.21875 74.21875 32.171875 74.21875 
Q 37.3125 74.21875 42.625 73.28125 
Q 47.953125 72.359375 53.515625 70.515625 
z
" id="DejaVuSans-83"/>
     </defs>
     <use xlink:href="#DejaVuSans-83"/>
     <use x="63.476562" xlink:href="#DejaVuSans-42"/>
     <use x="113.476562" xlink:href="#DejaVuSans-42"/>
     <use x="163.476562" xlink:href="#DejaVuSans-42"/>
    </g>
   </g>
   <g id="text_16">
    <!-- nb:-1 | Stim SD -->
    <g transform="translate(71.224896 20.8)scale(0.12 -0.12)">
     <defs>
      <path d="M 54.890625 33.015625 
L 54.890625 0 
L 45.90625 0 
L 45.90625 32.71875 
Q 45.90625 40.484375 42.875 44.328125 
Q 39.84375 48.1875 33.796875 48.1875 
Q 26.515625 48.1875 22.3125 43.546875 
Q 18.109375 38.921875 18.109375 30.90625 
L 18.109375 0 
L 9.078125 0 
L 9.078125 54.6875 
L 18.109375 54.6875 
L 18.109375 46.1875 
Q 21.34375 51.125 25.703125 53.5625 
Q 30.078125 56 35.796875 56 
Q 45.21875 56 50.046875 50.171875 
Q 54.890625 44.34375 54.890625 33.015625 
z
" id="DejaVuSans-110"/>
      <path d="M 48.6875 27.296875 
Q 48.6875 37.203125 44.609375 42.84375 
Q 40.53125 48.484375 33.40625 48.484375 
Q 26.265625 48.484375 22.1875 42.84375 
Q 18.109375 37.203125 18.109375 27.296875 
Q 18.109375 17.390625 22.1875 11.75 
Q 26.265625 6.109375 33.40625 6.109375 
Q 40.53125 6.109375 44.609375 11.75 
Q 48.6875 17.390625 48.6875 27.296875 
z
M 18.109375 46.390625 
Q 20.953125 51.265625 25.265625 53.625 
Q 29.59375 56 35.59375 56 
Q 45.5625 56 51.78125 48.09375 
Q 58.015625 40.1875 58.015625 27.296875 
Q 58.015625 14.40625 51.78125 6.484375 
Q 45.5625 -1.421875 35.59375 -1.421875 
Q 29.59375 -1.421875 25.265625 0.953125 
Q 20.953125 3.328125 18.109375 8.203125 
L 18.109375 0 
L 9.078125 0 
L 9.078125 75.984375 
L 18.109375 75.984375 
z
" id="DejaVuSans-98"/>
      <path d="M 11.71875 12.40625 
L 22.015625 12.40625 
L 22.015625 0 
L 11.71875 0 
z
M 11.71875 51.703125 
L 22.015625 51.703125 
L 22.015625 39.3125 
L 11.71875 39.3125 
z
" id="DejaVuSans-58"/>
      <path d="M 4.890625 31.390625 
L 31.203125 31.390625 
L 31.203125 23.390625 
L 4.890625 23.390625 
z
" id="DejaVuSans-45"/>
      <path d="M 12.40625 8.296875 
L 28.515625 8.296875 
L 28.515625 63.921875 
L 10.984375 60.40625 
L 10.984375 69.390625 
L 28.421875 72.90625 
L 38.28125 72.90625 
L 38.28125 8.296875 
L 54.390625 8.296875 
L 54.390625 0 
L 12.40625 0 
z
" id="DejaVuSans-49"/>
      <path d="M 21 76.421875 
L 21 -23.578125 
L 12.703125 -23.578125 
L 12.703125 76.421875 
z
" id="DejaVuSans-124"/>
      <path d="M 18.3125 70.21875 
L 18.3125 54.6875 
L 36.8125 54.6875 
L 36.8125 47.703125 
L 18.3125 47.703125 
L 18.3125 18.015625 
Q 18.3125 11.328125 20.140625 9.421875 
Q 21.96875 7.515625 27.59375 7.515625 
L 36.8125 7.515625 
L 36.8125 0 
L 27.59375 0 
Q 17.1875 0 13.234375 3.875 
Q 9.28125 7.765625 9.28125 18.015625 
L 9.28125 47.703125 
L 2.6875 47.703125 
L 2.6875 54.6875 
L 9.28125 54.6875 
L 9.28125 70.21875 
z
" id="DejaVuSans-116"/>
      <path d="M 52 44.1875 
Q 55.375 50.25 60.0625 53.125 
Q 64.75 56 71.09375 56 
Q 79.640625 56 84.28125 50.015625 
Q 88.921875 44.046875 88.921875 33.015625 
L 88.921875 0 
L 79.890625 0 
L 79.890625 32.71875 
Q 79.890625 40.578125 77.09375 44.375 
Q 74.3125 48.1875 68.609375 48.1875 
Q 61.625 48.1875 57.5625 43.546875 
Q 53.515625 38.921875 53.515625 30.90625 
L 53.515625 0 
L 44.484375 0 
L 44.484375 32.71875 
Q 44.484375 40.625 41.703125 44.40625 
Q 38.921875 48.1875 33.109375 48.1875 
Q 26.21875 48.1875 22.15625 43.53125 
Q 18.109375 38.875 18.109375 30.90625 
L 18.109375 0 
L 9.078125 0 
L 9.078125 54.6875 
L 18.109375 54.6875 
L 18.109375 46.1875 
Q 21.1875 51.21875 25.484375 53.609375 
Q 29.78125 56 35.6875 56 
Q 41.65625 56 45.828125 52.96875 
Q 50 49.953125 52 44.1875 
z
" id="DejaVuSans-109"/>
      <path d="M 19.671875 64.796875 
L 19.671875 8.109375 
L 31.59375 8.109375 
Q 46.6875 8.109375 53.6875 14.9375 
Q 60.6875 21.78125 60.6875 36.53125 
Q 60.6875 51.171875 53.6875 57.984375 
Q 46.6875 64.796875 31.59375 64.796875 
z
M 9.8125 72.90625 
L 30.078125 72.90625 
Q 51.265625 72.90625 61.171875 64.09375 
Q 71.09375 55.28125 71.09375 36.53125 
Q 71.09375 17.671875 61.125 8.828125 
Q 51.171875 0 30.078125 0 
L 9.8125 0 
z
" id="DejaVuSans-68"/>
     </defs>
     <use xlink:href="#DejaVuSans-110"/>
     <use x="63.378906" xlink:href="#DejaVuSans-98"/>
     <use x="126.855469" xlink:href="#DejaVuSans-58"/>
     <use x="160.546875" xlink:href="#DejaVuSans-45"/>
     <use x="196.630859" xlink:href="#DejaVuSans-49"/>
     <use x="260.253906" xlink:href="#DejaVuSans-32"/>
     <use x="292.041016" xlink:href="#DejaVuSans-124"/>
     <use x="325.732422" xlink:href="#DejaVuSans-32"/>
     <use x="357.519531" xlink:href="#DejaVuSans-83"/>
     <use x="420.996094" xlink:href="#DejaVuSans-116"/>
     <use x="460.205078" xlink:href="#DejaVuSans-105"/>
     <use x="487.988281" xlink:href="#DejaVuSans-109"/>
     <use x="585.400391" xlink:href="#DejaVuSans-32"/>
     <use x="617.1875" xlink:href="#DejaVuSans-83"/>
     <use x="680.664062" xlink:href="#DejaVuSans-68"/>
    </g>
   </g>
  </g>
  <g id="axes_2">
   <g id="patch_7">
    <path d="M 214.554167 242.2 
L 354.820833 242.2 
L 354.820833 26.8 
L 214.554167 26.8 
z
" style="fill:#ffffff;"/>
   </g>
   <g id="PolyCollection_3">
    <defs>
     <path d="M 214.554167 -156.037206 
L 214.554167 -143.854435 
L 216.112685 -146.528841 
L 217.671204 -147.97258 
L 219.229722 -148.641682 
L 220.788241 -147.46392 
L 222.346759 -148.462588 
L 223.905278 -159.679594 
L 225.463796 -154.486387 
L 227.022315 -156.060503 
L 228.580833 -160.083513 
L 230.139352 -156.325877 
L 231.69787 -154.943104 
L 233.256389 -151.210015 
L 234.814907 -152.794479 
L 236.373426 -151.120009 
L 237.931944 -146.479978 
L 239.490463 -145.832869 
L 241.048981 -142.907174 
L 242.6075 -139.608749 
L 244.166019 -134.990396 
L 245.724537 -129.180205 
L 247.283056 -123.569301 
L 248.841574 -118.57921 
L 250.400093 -118.496907 
L 251.958611 -115.188173 
L 253.51713 -115.428725 
L 255.075648 -114.664824 
L 256.634167 -111.454831 
L 258.192685 -110.536888 
L 259.751204 -108.567812 
L 261.309722 -106.016739 
L 262.868241 -103.649431 
L 264.426759 -101.896044 
L 265.985278 -104.967861 
L 267.543796 -103.134138 
L 269.102315 -101.499586 
L 270.660833 -101.937781 
L 272.219352 -103.801773 
L 273.77787 -108.559228 
L 275.336389 -110.414459 
L 276.894907 -114.447293 
L 278.453426 -120.254035 
L 280.011944 -127.523075 
L 281.570463 -134.265754 
L 283.128981 -142.113834 
L 284.6875 -152.35615 
L 286.246019 -159.089483 
L 287.804537 -168.377012 
L 289.363056 -173.117897 
L 290.921574 -180.010235 
L 292.480093 -184.199683 
L 294.038611 -188.23251 
L 295.59713 -193.256438 
L 297.155648 -195.505444 
L 298.714167 -196.955479 
L 300.272685 -196.253722 
L 301.831204 -199.215576 
L 303.389722 -200.472587 
L 304.948241 -201.485789 
L 306.506759 -200.186598 
L 308.065278 -199.791931 
L 309.623796 -199.016824 
L 311.182315 -196.06111 
L 312.740833 -194.484506 
L 314.299352 -188.776676 
L 315.85787 -184.830222 
L 317.416389 -182.776808 
L 318.974907 -184.643022 
L 320.533426 -180.958013 
L 322.091944 -175.042223 
L 323.650463 -169.877241 
L 325.208981 -166.887916 
L 326.7675 -165.594681 
L 328.326019 -160.839372 
L 329.884537 -155.215605 
L 331.443056 -158.626474 
L 333.001574 -158.108127 
L 334.560093 -158.525781 
L 336.118611 -155.597688 
L 337.67713 -154.805263 
L 339.235648 -150.594667 
L 340.794167 -145.95814 
L 342.352685 -145.852042 
L 343.911204 -143.160156 
L 345.469722 -141.218736 
L 347.028241 -139.507354 
L 348.586759 -139.087339 
L 350.145278 -141.340349 
L 351.703796 -139.797205 
L 353.262315 -148.154547 
L 354.820833 -146.832826 
L 354.820833 -157.936062 
L 354.820833 -157.936062 
L 353.262315 -159.318982 
L 351.703796 -153.178842 
L 350.145278 -152.192856 
L 348.586759 -150.938234 
L 347.028241 -151.849031 
L 345.469722 -149.980323 
L 343.911204 -150.854293 
L 342.352685 -152.720475 
L 340.794167 -153.553208 
L 339.235648 -155.960697 
L 337.67713 -161.209148 
L 336.118611 -164.262494 
L 334.560093 -166.906242 
L 333.001574 -166.818016 
L 331.443056 -168.299364 
L 329.884537 -164.341921 
L 328.326019 -170.537596 
L 326.7675 -175.340798 
L 325.208981 -175.928374 
L 323.650463 -178.282008 
L 322.091944 -183.219413 
L 320.533426 -188.955505 
L 318.974907 -193.478157 
L 317.416389 -193.341949 
L 315.85787 -194.801099 
L 314.299352 -197.273362 
L 312.740833 -202.541563 
L 311.182315 -203.691878 
L 309.623796 -206.473972 
L 308.065278 -207.662338 
L 306.506759 -208.12469 
L 304.948241 -209.400974 
L 303.389722 -207.595678 
L 301.831204 -204.280306 
L 300.272685 -202.129851 
L 298.714167 -202.473598 
L 297.155648 -201.10849 
L 295.59713 -199.351889 
L 294.038611 -193.399991 
L 292.480093 -189.086678 
L 290.921574 -184.630585 
L 289.363056 -177.240769 
L 287.804537 -172.338617 
L 286.246019 -162.764946 
L 284.6875 -155.780961 
L 283.128981 -146.042539 
L 281.570463 -138.520274 
L 280.011944 -131.562147 
L 278.453426 -124.790896 
L 276.894907 -119.586788 
L 275.336389 -115.85026 
L 273.77787 -114.251195 
L 272.219352 -109.240202 
L 270.660833 -107.656296 
L 269.102315 -107.246724 
L 267.543796 -109.501438 
L 265.985278 -111.695828 
L 264.426759 -107.982426 
L 262.868241 -110.25539 
L 261.309722 -112.303317 
L 259.751204 -115.314502 
L 258.192685 -116.988815 
L 256.634167 -119.222897 
L 255.075648 -121.63019 
L 253.51713 -123.269418 
L 251.958611 -124.517978 
L 250.400093 -126.83244 
L 248.841574 -126.501924 
L 247.283056 -132.379783 
L 245.724537 -137.762554 
L 244.166019 -144.254866 
L 242.6075 -147.84103 
L 241.048981 -151.326996 
L 239.490463 -157.456151 
L 237.931944 -157.881673 
L 236.373426 -162.936308 
L 234.814907 -163.69914 
L 233.256389 -160.706804 
L 231.69787 -164.733249 
L 230.139352 -164.505569 
L 228.580833 -168.655193 
L 227.022315 -165.939333 
L 225.463796 -166.21944 
L 223.905278 -171.060554 
L 222.346759 -161.746354 
L 220.788241 -161.889136 
L 219.229722 -162.373695 
L 217.671204 -162.959666 
L 216.112685 -159.857903 
L 214.554167 -156.037206 
z
" id="meb06aa32f6" style="stroke:#000000;"/>
    </defs>
    <g clip-path="url(#pe18277c3fc)">
     <use style="stroke:#000000;" x="0" xlink:href="#meb06aa32f6" y="288"/>
    </g>
   </g>
   <g id="PolyCollection_4">
    <defs>
     <path d="M 214.554167 -175.459102 
L 214.554167 -162.42384 
L 216.112685 -155.375173 
L 217.671204 -154.67306 
L 219.229722 -152.040207 
L 220.788241 -149.934431 
L 222.346759 -145.874847 
L 223.905278 -140.534767 
L 225.463796 -142.074091 
L 227.022315 -139.159753 
L 228.580833 -144.669071 
L 230.139352 -146.426979 
L 231.69787 -148.235522 
L 233.256389 -150.375808 
L 234.814907 -151.576574 
L 236.373426 -154.219931 
L 237.931944 -154.534283 
L 239.490463 -150.968508 
L 241.048981 -149.090938 
L 242.6075 -145.502583 
L 244.166019 -143.832203 
L 245.724537 -140.70068 
L 247.283056 -137.027509 
L 248.841574 -139.085644 
L 250.400093 -134.608897 
L 251.958611 -127.794342 
L 253.51713 -124.921178 
L 255.075648 -115.366888 
L 256.634167 -106.876815 
L 258.192685 -96.933256 
L 259.751204 -91.266692 
L 261.309722 -86.819052 
L 262.868241 -80.037109 
L 264.426759 -80.274504 
L 265.985278 -81.889764 
L 267.543796 -81.440024 
L 269.102315 -82.409122 
L 270.660833 -87.37771 
L 272.219352 -94.38549 
L 273.77787 -99.147424 
L 275.336389 -103.507385 
L 276.894907 -113.029487 
L 278.453426 -120.671929 
L 280.011944 -128.577845 
L 281.570463 -135.641244 
L 283.128981 -143.831411 
L 284.6875 -151.572787 
L 286.246019 -158.830314 
L 287.804537 -167.535911 
L 289.363056 -173.11171 
L 290.921574 -181.461477 
L 292.480093 -189.602669 
L 294.038611 -195.644178 
L 295.59713 -201.986017 
L 297.155648 -206.772057 
L 298.714167 -212.280472 
L 300.272685 -214.815028 
L 301.831204 -215.893654 
L 303.389722 -216.855786 
L 304.948241 -217.598508 
L 306.506759 -214.783846 
L 308.065278 -212.268015 
L 309.623796 -210.153046 
L 311.182315 -206.301088 
L 312.740833 -200.065878 
L 314.299352 -193.538473 
L 315.85787 -183.682909 
L 317.416389 -172.782104 
L 318.974907 -165.54395 
L 320.533426 -159.286804 
L 322.091944 -156.591048 
L 323.650463 -155.451433 
L 325.208981 -157.700468 
L 326.7675 -156.423322 
L 328.326019 -152.290705 
L 329.884537 -155.2305 
L 331.443056 -150.158076 
L 333.001574 -148.790158 
L 334.560093 -149.578772 
L 336.118611 -149.658042 
L 337.67713 -152.353183 
L 339.235648 -148.412871 
L 340.794167 -150.148675 
L 342.352685 -148.073559 
L 343.911204 -143.501228 
L 345.469722 -146.65409 
L 347.028241 -149.305146 
L 348.586759 -151.55973 
L 350.145278 -154.366401 
L 351.703796 -156.476471 
L 353.262315 -159.347484 
L 354.820833 -161.653445 
L 354.820833 -174.77198 
L 354.820833 -174.77198 
L 353.262315 -169.753592 
L 351.703796 -166.825816 
L 350.145278 -164.867564 
L 348.586759 -161.556718 
L 347.028241 -158.58461 
L 345.469722 -155.799673 
L 343.911204 -151.457752 
L 342.352685 -156.113782 
L 340.794167 -159.264866 
L 339.235648 -157.342686 
L 337.67713 -160.221134 
L 336.118611 -156.636599 
L 334.560093 -157.118769 
L 333.001574 -156.5184 
L 331.443056 -157.801681 
L 329.884537 -163.338615 
L 328.326019 -160.709664 
L 326.7675 -165.462505 
L 325.208981 -167.070707 
L 323.650463 -164.216806 
L 322.091944 -165.277236 
L 320.533426 -167.940093 
L 318.974907 -174.779541 
L 317.416389 -182.689514 
L 315.85787 -192.528252 
L 314.299352 -202.609757 
L 312.740833 -208.766728 
L 311.182315 -213.864093 
L 309.623796 -218.327095 
L 308.065278 -221.070103 
L 306.506759 -221.235237 
L 304.948241 -222.975788 
L 303.389722 -223.131204 
L 301.831204 -221.876252 
L 300.272685 -220.312541 
L 298.714167 -217.590876 
L 297.155648 -212.134112 
L 295.59713 -206.970408 
L 294.038611 -200.194851 
L 292.480093 -193.516432 
L 290.921574 -185.585234 
L 289.363056 -177.193776 
L 287.804537 -171.623536 
L 286.246019 -162.170097 
L 284.6875 -155.220094 
L 283.128981 -147.115234 
L 281.570463 -139.503618 
L 280.011944 -132.488551 
L 278.453426 -124.473816 
L 276.894907 -117.022625 
L 275.336389 -108.37184 
L 273.77787 -103.83492 
L 272.219352 -98.966387 
L 270.660833 -93.044657 
L 269.102315 -88.607914 
L 267.543796 -87.419552 
L 265.985278 -89.072827 
L 264.426759 -87.645943 
L 262.868241 -87.33709 
L 261.309722 -93.647053 
L 259.751204 -99.815233 
L 258.192685 -104.839432 
L 256.634167 -115.52132 
L 255.075648 -124.317677 
L 253.51713 -134.294961 
L 251.958611 -136.297409 
L 250.400093 -143.160729 
L 248.841574 -147.616186 
L 247.283056 -144.732521 
L 245.724537 -148.906203 
L 244.166019 -152.241176 
L 242.6075 -154.222939 
L 241.048981 -156.089274 
L 239.490463 -159.324614 
L 237.931944 -163.604003 
L 236.373426 -162.93668 
L 234.814907 -158.535773 
L 233.256389 -157.836525 
L 231.69787 -157.410077 
L 230.139352 -155.836146 
L 228.580833 -154.671363 
L 227.022315 -150.843645 
L 225.463796 -155.142826 
L 223.905278 -153.130396 
L 222.346759 -156.124494 
L 220.788241 -161.04675 
L 219.229722 -164.819227 
L 217.671204 -167.264491 
L 216.112685 -168.793296 
L 214.554167 -175.459102 
z
" id="m7e6af3dfa8" style="stroke:#00bfbf;"/>
    </defs>
    <g clip-path="url(#pe18277c3fc)">
     <use style="fill:#00bfbf;stroke:#00bfbf;" x="0" xlink:href="#m7e6af3dfa8" y="288"/>
    </g>
   </g>
   <g id="matplotlib.axis_3">
    <g id="xtick_6">
     <g id="line2d_13">
      <g>
       <use style="stroke:#000000;stroke-width:0.8;" x="214.554167" xlink:href="#m32ac1792a2" y="242.2"/>
      </g>
     </g>
     <g id="text_17">
      <!-- −90 -->
      <g transform="translate(204.001823 256.798437)scale(0.1 -0.1)">
       <use xlink:href="#DejaVuSans-8722"/>
       <use x="83.789062" xlink:href="#DejaVuSans-57"/>
       <use x="147.412109" xlink:href="#DejaVuSans-48"/>
      </g>
     </g>
    </g>
    <g id="xtick_7">
     <g id="line2d_14">
      <g>
       <use style="stroke:#000000;stroke-width:0.8;" x="249.620833" xlink:href="#m32ac1792a2" y="242.2"/>
      </g>
     </g>
     <g id="text_18">
      <!-- −45 -->
      <g transform="translate(239.06849 256.798437)scale(0.1 -0.1)">
       <use xlink:href="#DejaVuSans-8722"/>
       <use x="83.789062" xlink:href="#DejaVuSans-52"/>
       <use x="147.412109" xlink:href="#DejaVuSans-53"/>
      </g>
     </g>
    </g>
    <g id="xtick_8">
     <g id="line2d_15">
      <g>
       <use style="stroke:#000000;stroke-width:0.8;" x="284.6875" xlink:href="#m32ac1792a2" y="242.2"/>
      </g>
     </g>
     <g id="text_19">
      <!-- 0 -->
      <g transform="translate(281.50625 256.798437)scale(0.1 -0.1)">
       <use xlink:href="#DejaVuSans-48"/>
      </g>
     </g>
    </g>
    <g id="xtick_9">
     <g id="line2d_16">
      <g>
       <use style="stroke:#000000;stroke-width:0.8;" x="319.754167" xlink:href="#m32ac1792a2" y="242.2"/>
      </g>
     </g>
     <g id="text_20">
      <!-- 45 -->
      <g transform="translate(313.391667 256.798437)scale(0.1 -0.1)">
       <use xlink:href="#DejaVuSans-52"/>
       <use x="63.623047" xlink:href="#DejaVuSans-53"/>
      </g>
     </g>
    </g>
    <g id="xtick_10">
     <g id="line2d_17">
      <g>
       <use style="stroke:#000000;stroke-width:0.8;" x="354.820833" xlink:href="#m32ac1792a2" y="242.2"/>
      </g>
     </g>
     <g id="text_21">
      <!-- 90 -->
      <g transform="translate(348.458333 256.798437)scale(0.1 -0.1)">
       <use xlink:href="#DejaVuSans-57"/>
       <use x="63.623047" xlink:href="#DejaVuSans-48"/>
      </g>
     </g>
    </g>
    <g id="text_22">
     <!-- $\Delta \theta$ (deg) -->
     <g transform="translate(263.2875 270.578125)scale(0.1 -0.1)">
      <use transform="translate(0 0.234375)" xlink:href="#DejaVuSans-916"/>
      <use transform="translate(68.408203 0.234375)" xlink:href="#DejaVuSans-Oblique-952"/>
      <use transform="translate(129.589844 0.234375)" xlink:href="#DejaVuSans-32"/>
      <use transform="translate(161.376953 0.234375)" xlink:href="#DejaVuSans-40"/>
      <use transform="translate(200.390625 0.234375)" xlink:href="#DejaVuSans-100"/>
      <use transform="translate(263.867188 0.234375)" xlink:href="#DejaVuSans-101"/>
      <use transform="translate(325.390625 0.234375)" xlink:href="#DejaVuSans-103"/>
      <use transform="translate(388.867188 0.234375)" xlink:href="#DejaVuSans-41"/>
     </g>
    </g>
   </g>
   <g id="matplotlib.axis_4"/>
   <g id="line2d_18">
    <path clip-path="url(#pe18277c3fc)" d="M 214.554167 134.5 
L 354.820833 134.5 
" style="fill:none;stroke:#000000;stroke-dasharray:5.55,2.4;stroke-dashoffset:0;stroke-width:1.5;"/>
   </g>
   <g id="line2d_19">
    <path clip-path="url(#pe18277c3fc)" d="M 284.6875 242.2 
L 284.6875 26.8 
" style="fill:none;stroke:#0000ff;stroke-dasharray:5.55,2.4;stroke-dashoffset:0;stroke-width:1.5;"/>
   </g>
   <g id="patch_8">
    <path d="M 214.554167 242.2 
L 214.554167 26.8 
" style="fill:none;stroke:#000000;stroke-linecap:square;stroke-linejoin:miter;stroke-width:0.8;"/>
   </g>
   <g id="patch_9">
    <path d="M 354.820833 242.2 
L 354.820833 26.8 
" style="fill:none;stroke:#000000;stroke-linecap:square;stroke-linejoin:miter;stroke-width:0.8;"/>
   </g>
   <g id="patch_10">
    <path d="M 214.554167 242.2 
L 354.820833 242.2 
" style="fill:none;stroke:#000000;stroke-linecap:square;stroke-linejoin:miter;stroke-width:0.8;"/>
   </g>
   <g id="patch_11">
    <path d="M 214.554167 26.8 
L 354.820833 26.8 
" style="fill:none;stroke:#000000;stroke-linecap:square;stroke-linejoin:miter;stroke-width:0.8;"/>
   </g>
   <g id="text_23">
    <!-- *** -->
    <g transform="translate(331.443056 47.314286)scale(0.1 -0.1)">
     <use xlink:href="#DejaVuSans-42"/>
     <use x="50" xlink:href="#DejaVuSans-42"/>
     <use x="100" xlink:href="#DejaVuSans-42"/>
    </g>
   </g>
   <g id="text_24">
    <!-- *** -->
    <g style="fill:#00bfbf;" transform="translate(331.443056 57.571429)scale(0.1 -0.1)">
     <use xlink:href="#DejaVuSans-42"/>
     <use x="50" xlink:href="#DejaVuSans-42"/>
     <use x="100" xlink:href="#DejaVuSans-42"/>
    </g>
   </g>
   <g id="text_25">
    <!-- R*** -->
    <g style="fill:#bf00bf;" transform="translate(331.443056 67.828571)scale(0.1 -0.1)">
     <defs>
      <path d="M 44.390625 34.1875 
Q 47.5625 33.109375 50.5625 29.59375 
Q 53.5625 26.078125 56.59375 19.921875 
L 66.609375 0 
L 56 0 
L 46.6875 18.703125 
Q 43.0625 26.03125 39.671875 28.421875 
Q 36.28125 30.8125 30.421875 30.8125 
L 19.671875 30.8125 
L 19.671875 0 
L 9.8125 0 
L 9.8125 72.90625 
L 32.078125 72.90625 
Q 44.578125 72.90625 50.734375 67.671875 
Q 56.890625 62.453125 56.890625 51.90625 
Q 56.890625 45.015625 53.6875 40.46875 
Q 50.484375 35.9375 44.390625 34.1875 
z
M 19.671875 64.796875 
L 19.671875 38.921875 
L 32.078125 38.921875 
Q 39.203125 38.921875 42.84375 42.21875 
Q 46.484375 45.515625 46.484375 51.90625 
Q 46.484375 58.296875 42.84375 61.546875 
Q 39.203125 64.796875 32.078125 64.796875 
z
" id="DejaVuSans-82"/>
     </defs>
     <use xlink:href="#DejaVuSans-82"/>
     <use x="69.482422" xlink:href="#DejaVuSans-42"/>
     <use x="119.482422" xlink:href="#DejaVuSans-42"/>
     <use x="169.482422" xlink:href="#DejaVuSans-42"/>
    </g>
   </g>
   <g id="text_26">
    <!-- nb:-1 | Resp SD -->
    <g transform="translate(238.375937 20.8)scale(0.12 -0.12)">
     <defs>
      <path d="M 18.109375 8.203125 
L 18.109375 -20.796875 
L 9.078125 -20.796875 
L 9.078125 54.6875 
L 18.109375 54.6875 
L 18.109375 46.390625 
Q 20.953125 51.265625 25.265625 53.625 
Q 29.59375 56 35.59375 56 
Q 45.5625 56 51.78125 48.09375 
Q 58.015625 40.1875 58.015625 27.296875 
Q 58.015625 14.40625 51.78125 6.484375 
Q 45.5625 -1.421875 35.59375 -1.421875 
Q 29.59375 -1.421875 25.265625 0.953125 
Q 20.953125 3.328125 18.109375 8.203125 
z
M 48.6875 27.296875 
Q 48.6875 37.203125 44.609375 42.84375 
Q 40.53125 48.484375 33.40625 48.484375 
Q 26.265625 48.484375 22.1875 42.84375 
Q 18.109375 37.203125 18.109375 27.296875 
Q 18.109375 17.390625 22.1875 11.75 
Q 26.265625 6.109375 33.40625 6.109375 
Q 40.53125 6.109375 44.609375 11.75 
Q 48.6875 17.390625 48.6875 27.296875 
z
" id="DejaVuSans-112"/>
     </defs>
     <use xlink:href="#DejaVuSans-110"/>
     <use x="63.378906" xlink:href="#DejaVuSans-98"/>
     <use x="126.855469" xlink:href="#DejaVuSans-58"/>
     <use x="160.546875" xlink:href="#DejaVuSans-45"/>
     <use x="196.630859" xlink:href="#DejaVuSans-49"/>
     <use x="260.253906" xlink:href="#DejaVuSans-32"/>
     <use x="292.041016" xlink:href="#DejaVuSans-124"/>
     <use x="325.732422" xlink:href="#DejaVuSans-32"/>
     <use x="357.519531" xlink:href="#DejaVuSans-82"/>
     <use x="422.501953" xlink:href="#DejaVuSans-101"/>
     <use x="484.025391" xlink:href="#DejaVuSans-115"/>
     <use x="536.125" xlink:href="#DejaVuSans-112"/>
     <use x="599.601562" xlink:href="#DejaVuSans-32"/>
     <use x="631.388672" xlink:href="#DejaVuSans-83"/>
     <use x="694.865234" xlink:href="#DejaVuSans-68"/>
    </g>
   </g>
  </g>
  <g id="axes_3">
   <g id="patch_12">
    <path d="M 382.558333 242.2 
L 522.825 242.2 
L 522.825 26.8 
L 382.558333 26.8 
z
" style="fill:#ffffff;"/>
   </g>
   <g id="PolyCollection_5">
    <defs>
     <path d="M 382.558333 -155.552095 
L 382.558333 -143.4095 
L 384.116852 -146.537516 
L 385.67537 -148.161252 
L 387.233889 -148.902819 
L 388.792407 -147.126933 
L 390.350926 -148.198305 
L 391.909444 -158.86295 
L 393.467963 -153.38626 
L 395.026481 -154.915905 
L 396.585 -158.816548 
L 398.143519 -156.676176 
L 399.702037 -156.305867 
L 401.260556 -153.75913 
L 402.819074 -156.034599 
L 404.377593 -156.074073 
L 405.936111 -153.444395 
L 407.49463 -154.405095 
L 409.053148 -153.59437 
L 410.611667 -153.037116 
L 412.170185 -151.708063 
L 413.728704 -149.418807 
L 415.287222 -148.244376 
L 416.845741 -145.842891 
L 418.404259 -148.612068 
L 419.962778 -148.48099 
L 421.521296 -150.409276 
L 423.079815 -153.339073 
L 424.638333 -153.189553 
L 426.196852 -153.248868 
L 427.75537 -153.286214 
L 429.313889 -151.380881 
L 430.872407 -150.088345 
L 432.430926 -147.493178 
L 433.989444 -149.641915 
L 435.547963 -149.190939 
L 437.106481 -149.362319 
L 438.665 -149.216639 
L 440.223519 -149.125139 
L 441.782037 -152.060535 
L 443.340556 -152.06456 
L 444.899074 -151.795224 
L 446.457593 -149.572197 
L 448.016111 -150.651602 
L 449.57463 -150.694972 
L 451.133148 -149.279946 
L 452.691667 -147.154166 
L 454.250185 -147.786043 
L 455.808704 -150.175267 
L 457.367222 -148.521088 
L 458.925741 -149.143767 
L 460.484259 -149.630979 
L 462.042778 -150.488111 
L 463.601296 -151.365355 
L 465.159815 -149.955945 
L 466.718333 -150.206049 
L 468.276852 -148.248449 
L 469.83537 -149.882593 
L 471.393889 -150.38868 
L 472.952407 -152.244143 
L 474.510926 -152.730803 
L 476.069444 -152.509539 
L 477.627963 -152.663734 
L 479.186481 -151.5559 
L 480.745 -152.016708 
L 482.303519 -149.342156 
L 483.862037 -147.397095 
L 485.420556 -148.416357 
L 486.979074 -153.258138 
L 488.537593 -152.377021 
L 490.096111 -150.57862 
L 491.65463 -149.301803 
L 493.213148 -149.698274 
L 494.771667 -152.134111 
L 496.330185 -150.781502 
L 497.888704 -148.822077 
L 499.447222 -152.788149 
L 501.005741 -153.358744 
L 502.564259 -155.515988 
L 504.122778 -153.455294 
L 505.681296 -152.820486 
L 507.239815 -149.34137 
L 508.798333 -145.930373 
L 510.356852 -145.851487 
L 511.91537 -143.671251 
L 513.473889 -142.36385 
L 515.032407 -140.794196 
L 516.590926 -140.204125 
L 518.149444 -141.927462 
L 519.707963 -140.218928 
L 521.266481 -148.153632 
L 522.825 -146.462201 
L 522.825 -157.353269 
L 522.825 -157.353269 
L 521.266481 -159.042273 
L 519.707963 -153.129003 
L 518.149444 -152.466486 
L 516.590926 -151.910141 
L 515.032407 -152.983104 
L 513.473889 -151.060982 
L 511.91537 -151.450915 
L 510.356852 -152.89019 
L 508.798333 -153.517945 
L 507.239815 -154.63644 
L 505.681296 -158.866631 
L 504.122778 -161.602001 
L 502.564259 -163.031902 
L 501.005741 -161.450263 
L 499.447222 -161.380846 
L 497.888704 -156.88669 
L 496.330185 -158.94095 
L 494.771667 -160.01002 
L 493.213148 -157.18589 
L 491.65463 -156.553761 
L 490.096111 -157.373713 
L 488.537593 -159.111359 
L 486.979074 -160.99106 
L 485.420556 -156.622948 
L 483.862037 -155.195539 
L 482.303519 -156.013615 
L 480.745 -158.317314 
L 479.186481 -157.258113 
L 477.627963 -158.565424 
L 476.069444 -159.137102 
L 474.510926 -159.494253 
L 472.952407 -158.989184 
L 471.393889 -157.058466 
L 469.83537 -155.099295 
L 468.276852 -154.102381 
L 466.718333 -156.128543 
L 465.159815 -156.11731 
L 463.601296 -157.857838 
L 462.042778 -156.765702 
L 460.484259 -155.177134 
L 458.925741 -154.696155 
L 457.367222 -153.466661 
L 455.808704 -155.651328 
L 454.250185 -152.390805 
L 452.691667 -151.801737 
L 451.133148 -154.33039 
L 449.57463 -155.630052 
L 448.016111 -154.86589 
L 446.457593 -153.949923 
L 444.899074 -157.012531 
L 443.340556 -157.265743 
L 441.782037 -157.219387 
L 440.223519 -154.329029 
L 438.665 -154.588154 
L 437.106481 -154.530925 
L 435.547963 -153.899647 
L 433.989444 -155.211227 
L 432.430926 -152.555865 
L 430.872407 -154.917428 
L 429.313889 -156.54832 
L 427.75537 -158.798869 
L 426.196852 -159.125362 
L 424.638333 -160.269376 
L 423.079815 -159.934285 
L 421.521296 -158.092165 
L 419.962778 -156.577185 
L 418.404259 -155.527613 
L 416.845741 -153.181375 
L 415.287222 -156.205904 
L 413.728704 -156.505931 
L 412.170185 -159.368402 
L 410.611667 -159.88795 
L 409.053148 -160.548763 
L 407.49463 -164.056416 
L 405.936111 -163.63271 
L 404.377593 -167.125513 
L 402.819074 -166.046292 
L 401.260556 -162.526504 
L 399.702037 -165.65418 
L 398.143519 -164.688192 
L 396.585 -167.392808 
L 395.026481 -164.661428 
L 393.467963 -164.986958 
L 391.909444 -170.10211 
L 390.350926 -161.491039 
L 388.792407 -161.564652 
L 387.233889 -162.634501 
L 385.67537 -162.986998 
L 384.116852 -159.771633 
L 382.558333 -155.552095 
z
" id="m63719d2b79" style="stroke:#000000;"/>
    </defs>
    <g clip-path="url(#p6c7f7c9882)">
     <use style="stroke:#000000;" x="0" xlink:href="#m63719d2b79" y="288"/>
    </g>
   </g>
   <g id="PolyCollection_6">
    <defs>
     <path d="M 382.558333 -164.243742 
L 382.558333 -152.727697 
L 384.116852 -148.332308 
L 385.67537 -148.296446 
L 387.233889 -149.207048 
L 388.792407 -155.688139 
L 390.350926 -151.254894 
L 391.909444 -148.960248 
L 393.467963 -151.022455 
L 395.026481 -148.347883 
L 396.585 -150.487709 
L 398.143519 -148.503239 
L 399.702037 -149.830584 
L 401.260556 -152.29829 
L 402.819074 -155.18337 
L 404.377593 -153.311712 
L 405.936111 -151.544308 
L 407.49463 -150.601844 
L 409.053148 -150.396035 
L 410.611667 -147.176507 
L 412.170185 -142.479977 
L 413.728704 -146.506071 
L 415.287222 -149.101845 
L 416.845741 -153.009307 
L 418.404259 -150.642223 
L 419.962778 -150.874028 
L 421.521296 -154.874122 
L 423.079815 -153.510383 
L 424.638333 -154.04566 
L 426.196852 -153.153159 
L 427.75537 -151.947885 
L 429.313889 -151.22073 
L 430.872407 -150.093765 
L 432.430926 -152.78656 
L 433.989444 -150.82185 
L 435.547963 -147.822658 
L 437.106481 -148.975004 
L 438.665 -150.047443 
L 440.223519 -150.816791 
L 441.782037 -147.731631 
L 443.340556 -148.737061 
L 444.899074 -151.226945 
L 446.457593 -150.629277 
L 448.016111 -150.783413 
L 449.57463 -150.042122 
L 451.133148 -150.755131 
L 452.691667 -148.001451 
L 454.250185 -147.532653 
L 455.808704 -148.15358 
L 457.367222 -147.626901 
L 458.925741 -149.689694 
L 460.484259 -151.447516 
L 462.042778 -151.764478 
L 463.601296 -151.306661 
L 465.159815 -150.140747 
L 466.718333 -149.817274 
L 468.276852 -150.061677 
L 469.83537 -148.636247 
L 471.393889 -149.467431 
L 472.952407 -149.977623 
L 474.510926 -149.273343 
L 476.069444 -151.805008 
L 477.627963 -151.380182 
L 479.186481 -151.147232 
L 480.745 -151.19954 
L 482.303519 -150.415102 
L 483.862037 -148.744795 
L 485.420556 -146.185899 
L 486.979074 -145.724088 
L 488.537593 -146.600355 
L 490.096111 -147.437563 
L 491.65463 -148.755914 
L 493.213148 -152.019076 
L 494.771667 -156.359103 
L 496.330185 -153.478507 
L 497.888704 -153.831969 
L 499.447222 -150.366862 
L 501.005741 -148.213455 
L 502.564259 -149.991607 
L 504.122778 -150.562741 
L 505.681296 -152.101813 
L 507.239815 -150.804622 
L 508.798333 -149.956706 
L 510.356852 -147.634437 
L 511.91537 -143.414503 
L 513.473889 -140.334615 
L 515.032407 -145.203038 
L 516.590926 -144.121765 
L 518.149444 -148.627153 
L 519.707963 -150.832512 
L 521.266481 -152.321613 
L 522.825 -154.861396 
L 522.825 -167.136381 
L 522.825 -167.136381 
L 521.266481 -165.403996 
L 519.707963 -164.054767 
L 518.149444 -160.272449 
L 516.590926 -154.824466 
L 515.032407 -155.465162 
L 513.473889 -150.134172 
L 511.91537 -150.847589 
L 510.356852 -154.839553 
L 508.798333 -157.043172 
L 507.239815 -158.220613 
L 505.681296 -160.506359 
L 504.122778 -159.273215 
L 502.564259 -158.24989 
L 501.005741 -156.085549 
L 499.447222 -157.906681 
L 497.888704 -161.058764 
L 496.330185 -161.346355 
L 494.771667 -164.689611 
L 493.213148 -162.364206 
L 491.65463 -157.320281 
L 490.096111 -154.599778 
L 488.537593 -153.109822 
L 486.979074 -152.091321 
L 485.420556 -153.08037 
L 483.862037 -155.553854 
L 482.303519 -156.974578 
L 480.745 -157.348203 
L 479.186481 -157.267425 
L 477.627963 -157.316427 
L 476.069444 -157.630516 
L 474.510926 -154.947417 
L 472.952407 -155.283212 
L 471.393889 -154.942163 
L 469.83537 -154.067831 
L 468.276852 -155.301399 
L 466.718333 -155.413247 
L 465.159815 -154.949118 
L 463.601296 -156.523191 
L 462.042778 -157.823381 
L 460.484259 -157.436672 
L 458.925741 -156.908387 
L 457.367222 -154.80765 
L 455.808704 -156.278775 
L 454.250185 -155.177412 
L 452.691667 -155.072621 
L 451.133148 -156.746738 
L 449.57463 -155.4634 
L 448.016111 -156.389237 
L 446.457593 -156.013524 
L 444.899074 -156.706983 
L 443.340556 -155.274411 
L 441.782037 -153.269744 
L 440.223519 -155.866842 
L 438.665 -155.646946 
L 437.106481 -154.210122 
L 435.547963 -152.774501 
L 433.989444 -154.722234 
L 432.430926 -156.887798 
L 430.872407 -154.73872 
L 429.313889 -156.307342 
L 427.75537 -157.115788 
L 426.196852 -158.029578 
L 424.638333 -160.025374 
L 423.079815 -161.285651 
L 421.521296 -162.250277 
L 419.962778 -157.747785 
L 418.404259 -157.20092 
L 416.845741 -159.163783 
L 415.287222 -155.727803 
L 413.728704 -154.345765 
L 412.170185 -151.604385 
L 410.611667 -157.063757 
L 409.053148 -158.602697 
L 407.49463 -159.132088 
L 405.936111 -160.704229 
L 404.377593 -162.859526 
L 402.819074 -163.222311 
L 401.260556 -160.738659 
L 399.702037 -160.053905 
L 398.143519 -158.200639 
L 396.585 -162.444904 
L 395.026481 -160.298722 
L 393.467963 -163.73615 
L 391.909444 -160.743762 
L 390.350926 -160.999602 
L 388.792407 -165.713561 
L 387.233889 -160.159341 
L 385.67537 -160.1004 
L 384.116852 -159.811442 
L 382.558333 -164.243742 
z
" id="m655aeb399f" style="stroke:#00bfbf;"/>
    </defs>
    <g clip-path="url(#p6c7f7c9882)">
     <use style="fill:#00bfbf;stroke:#00bfbf;" x="0" xlink:href="#m655aeb399f" y="288"/>
    </g>
   </g>
   <g id="matplotlib.axis_5">
    <g id="xtick_11">
     <g id="line2d_20">
      <g>
       <use style="stroke:#000000;stroke-width:0.8;" x="382.558333" xlink:href="#m32ac1792a2" y="242.2"/>
      </g>
     </g>
     <g id="text_27">
      <!-- −90 -->
      <g transform="translate(372.00599 256.798437)scale(0.1 -0.1)">
       <use xlink:href="#DejaVuSans-8722"/>
       <use x="83.789062" xlink:href="#DejaVuSans-57"/>
       <use x="147.412109" xlink:href="#DejaVuSans-48"/>
      </g>
     </g>
    </g>
    <g id="xtick_12">
     <g id="line2d_21">
      <g>
       <use style="stroke:#000000;stroke-width:0.8;" x="417.625" xlink:href="#m32ac1792a2" y="242.2"/>
      </g>
     </g>
     <g id="text_28">
      <!-- −45 -->
      <g transform="translate(407.072656 256.798437)scale(0.1 -0.1)">
       <use xlink:href="#DejaVuSans-8722"/>
       <use x="83.789062" xlink:href="#DejaVuSans-52"/>
       <use x="147.412109" xlink:href="#DejaVuSans-53"/>
      </g>
     </g>
    </g>
    <g id="xtick_13">
     <g id="line2d_22">
      <g>
       <use style="stroke:#000000;stroke-width:0.8;" x="452.691667" xlink:href="#m32ac1792a2" y="242.2"/>
      </g>
     </g>
     <g id="text_29">
      <!-- 0 -->
      <g transform="translate(449.510417 256.798437)scale(0.1 -0.1)">
       <use xlink:href="#DejaVuSans-48"/>
      </g>
     </g>
    </g>
    <g id="xtick_14">
     <g id="line2d_23">
      <g>
       <use style="stroke:#000000;stroke-width:0.8;" x="487.758333" xlink:href="#m32ac1792a2" y="242.2"/>
      </g>
     </g>
     <g id="text_30">
      <!-- 45 -->
      <g transform="translate(481.395833 256.798437)scale(0.1 -0.1)">
       <use xlink:href="#DejaVuSans-52"/>
       <use x="63.623047" xlink:href="#DejaVuSans-53"/>
      </g>
     </g>
    </g>
    <g id="xtick_15">
     <g id="line2d_24">
      <g>
       <use style="stroke:#000000;stroke-width:0.8;" x="522.825" xlink:href="#m32ac1792a2" y="242.2"/>
      </g>
     </g>
     <g id="text_31">
      <!-- 90 -->
      <g transform="translate(516.4625 256.798437)scale(0.1 -0.1)">
       <use xlink:href="#DejaVuSans-57"/>
       <use x="63.623047" xlink:href="#DejaVuSans-48"/>
      </g>
     </g>
    </g>
    <g id="text_32">
     <!-- $\Delta \theta$ (deg) -->
     <g transform="translate(431.291667 270.578125)scale(0.1 -0.1)">
      <use transform="translate(0 0.234375)" xlink:href="#DejaVuSans-916"/>
      <use transform="translate(68.408203 0.234375)" xlink:href="#DejaVuSans-Oblique-952"/>
      <use transform="translate(129.589844 0.234375)" xlink:href="#DejaVuSans-32"/>
      <use transform="translate(161.376953 0.234375)" xlink:href="#DejaVuSans-40"/>
      <use transform="translate(200.390625 0.234375)" xlink:href="#DejaVuSans-100"/>
      <use transform="translate(263.867188 0.234375)" xlink:href="#DejaVuSans-101"/>
      <use transform="translate(325.390625 0.234375)" xlink:href="#DejaVuSans-103"/>
      <use transform="translate(388.867188 0.234375)" xlink:href="#DejaVuSans-41"/>
     </g>
    </g>
   </g>
   <g id="matplotlib.axis_6"/>
   <g id="line2d_25">
    <path clip-path="url(#p6c7f7c9882)" d="M 382.558333 134.5 
L 522.825 134.5 
" style="fill:none;stroke:#000000;stroke-dasharray:5.55,2.4;stroke-dashoffset:0;stroke-width:1.5;"/>
   </g>
   <g id="line2d_26">
    <path clip-path="url(#p6c7f7c9882)" d="M 452.691667 242.2 
L 452.691667 26.8 
" style="fill:none;stroke:#0000ff;stroke-dasharray:5.55,2.4;stroke-dashoffset:0;stroke-width:1.5;"/>
   </g>
   <g id="patch_13">
    <path d="M 382.558333 242.2 
L 382.558333 26.8 
" style="fill:none;stroke:#000000;stroke-linecap:square;stroke-linejoin:miter;stroke-width:0.8;"/>
   </g>
   <g id="patch_14">
    <path d="M 522.825 242.2 
L 522.825 26.8 
" style="fill:none;stroke:#000000;stroke-linecap:square;stroke-linejoin:miter;stroke-width:0.8;"/>
   </g>
   <g id="patch_15">
    <path d="M 382.558333 242.2 
L 522.825 242.2 
" style="fill:none;stroke:#000000;stroke-linecap:square;stroke-linejoin:miter;stroke-width:0.8;"/>
   </g>
   <g id="patch_16">
    <path d="M 382.558333 26.8 
L 522.825 26.8 
" style="fill:none;stroke:#000000;stroke-linecap:square;stroke-linejoin:miter;stroke-width:0.8;"/>
   </g>
   <g id="text_33">
    <!-- Yes E Corrected -->
    <g transform="translate(386.45463 47.314286)scale(0.1 -0.1)">
     <defs>
      <path d="M -0.203125 72.90625 
L 10.40625 72.90625 
L 30.609375 42.921875 
L 50.6875 72.90625 
L 61.28125 72.90625 
L 35.5 34.71875 
L 35.5 0 
L 25.59375 0 
L 25.59375 34.71875 
z
" id="DejaVuSans-89"/>
      <path d="M 9.8125 72.90625 
L 55.90625 72.90625 
L 55.90625 64.59375 
L 19.671875 64.59375 
L 19.671875 43.015625 
L 54.390625 43.015625 
L 54.390625 34.71875 
L 19.671875 34.71875 
L 19.671875 8.296875 
L 56.78125 8.296875 
L 56.78125 0 
L 9.8125 0 
z
" id="DejaVuSans-69"/>
      <path d="M 64.40625 67.28125 
L 64.40625 56.890625 
Q 59.421875 61.53125 53.78125 63.8125 
Q 48.140625 66.109375 41.796875 66.109375 
Q 29.296875 66.109375 22.65625 58.46875 
Q 16.015625 50.828125 16.015625 36.375 
Q 16.015625 21.96875 22.65625 14.328125 
Q 29.296875 6.6875 41.796875 6.6875 
Q 48.140625 6.6875 53.78125 8.984375 
Q 59.421875 11.28125 64.40625 15.921875 
L 64.40625 5.609375 
Q 59.234375 2.09375 53.4375 0.328125 
Q 47.65625 -1.421875 41.21875 -1.421875 
Q 24.65625 -1.421875 15.125 8.703125 
Q 5.609375 18.84375 5.609375 36.375 
Q 5.609375 53.953125 15.125 64.078125 
Q 24.65625 74.21875 41.21875 74.21875 
Q 47.75 74.21875 53.53125 72.484375 
Q 59.328125 70.75 64.40625 67.28125 
z
" id="DejaVuSans-67"/>
      <path d="M 30.609375 48.390625 
Q 23.390625 48.390625 19.1875 42.75 
Q 14.984375 37.109375 14.984375 27.296875 
Q 14.984375 17.484375 19.15625 11.84375 
Q 23.34375 6.203125 30.609375 6.203125 
Q 37.796875 6.203125 41.984375 11.859375 
Q 46.1875 17.53125 46.1875 27.296875 
Q 46.1875 37.015625 41.984375 42.703125 
Q 37.796875 48.390625 30.609375 48.390625 
z
M 30.609375 56 
Q 42.328125 56 49.015625 48.375 
Q 55.71875 40.765625 55.71875 27.296875 
Q 55.71875 13.875 49.015625 6.21875 
Q 42.328125 -1.421875 30.609375 -1.421875 
Q 18.84375 -1.421875 12.171875 6.21875 
Q 5.515625 13.875 5.515625 27.296875 
Q 5.515625 40.765625 12.171875 48.375 
Q 18.84375 56 30.609375 56 
z
" id="DejaVuSans-111"/>
      <path d="M 41.109375 46.296875 
Q 39.59375 47.171875 37.8125 47.578125 
Q 36.03125 48 33.890625 48 
Q 26.265625 48 22.1875 43.046875 
Q 18.109375 38.09375 18.109375 28.8125 
L 18.109375 0 
L 9.078125 0 
L 9.078125 54.6875 
L 18.109375 54.6875 
L 18.109375 46.1875 
Q 20.953125 51.171875 25.484375 53.578125 
Q 30.03125 56 36.53125 56 
Q 37.453125 56 38.578125 55.875 
Q 39.703125 55.765625 41.0625 55.515625 
z
" id="DejaVuSans-114"/>
      <path d="M 48.78125 52.59375 
L 48.78125 44.1875 
Q 44.96875 46.296875 41.140625 47.34375 
Q 37.3125 48.390625 33.40625 48.390625 
Q 24.65625 48.390625 19.8125 42.84375 
Q 14.984375 37.3125 14.984375 27.296875 
Q 14.984375 17.28125 19.8125 11.734375 
Q 24.65625 6.203125 33.40625 6.203125 
Q 37.3125 6.203125 41.140625 7.25 
Q 44.96875 8.296875 48.78125 10.40625 
L 48.78125 2.09375 
Q 45.015625 0.34375 40.984375 -0.53125 
Q 36.96875 -1.421875 32.421875 -1.421875 
Q 20.0625 -1.421875 12.78125 6.34375 
Q 5.515625 14.109375 5.515625 27.296875 
Q 5.515625 40.671875 12.859375 48.328125 
Q 20.21875 56 33.015625 56 
Q 37.15625 56 41.109375 55.140625 
Q 45.0625 54.296875 48.78125 52.59375 
z
" id="DejaVuSans-99"/>
     </defs>
     <use xlink:href="#DejaVuSans-89"/>
     <use x="47.833984" xlink:href="#DejaVuSans-101"/>
     <use x="109.357422" xlink:href="#DejaVuSans-115"/>
     <use x="161.457031" xlink:href="#DejaVuSans-32"/>
     <use x="193.244141" xlink:href="#DejaVuSans-69"/>
     <use x="256.427734" xlink:href="#DejaVuSans-32"/>
     <use x="288.214844" xlink:href="#DejaVuSans-67"/>
     <use x="358.039062" xlink:href="#DejaVuSans-111"/>
     <use x="419.220703" xlink:href="#DejaVuSans-114"/>
     <use x="458.583984" xlink:href="#DejaVuSans-114"/>
     <use x="497.447266" xlink:href="#DejaVuSans-101"/>
     <use x="558.970703" xlink:href="#DejaVuSans-99"/>
     <use x="613.951172" xlink:href="#DejaVuSans-116"/>
     <use x="653.160156" xlink:href="#DejaVuSans-101"/>
     <use x="714.683594" xlink:href="#DejaVuSans-100"/>
    </g>
   </g>
   <g id="text_34">
    <!-- No resp Corrected -->
    <g transform="translate(386.45463 67.828571)scale(0.1 -0.1)">
     <defs>
      <path d="M 9.8125 72.90625 
L 23.09375 72.90625 
L 55.421875 11.921875 
L 55.421875 72.90625 
L 64.984375 72.90625 
L 64.984375 0 
L 51.703125 0 
L 19.390625 60.984375 
L 19.390625 0 
L 9.8125 0 
z
" id="DejaVuSans-78"/>
     </defs>
     <use xlink:href="#DejaVuSans-78"/>
     <use x="74.804688" xlink:href="#DejaVuSans-111"/>
     <use x="135.986328" xlink:href="#DejaVuSans-32"/>
     <use x="167.773438" xlink:href="#DejaVuSans-114"/>
     <use x="206.636719" xlink:href="#DejaVuSans-101"/>
     <use x="268.160156" xlink:href="#DejaVuSans-115"/>
     <use x="320.259766" xlink:href="#DejaVuSans-112"/>
     <use x="383.736328" xlink:href="#DejaVuSans-32"/>
     <use x="415.523438" xlink:href="#DejaVuSans-67"/>
     <use x="485.347656" xlink:href="#DejaVuSans-111"/>
     <use x="546.529297" xlink:href="#DejaVuSans-114"/>
     <use x="585.892578" xlink:href="#DejaVuSans-114"/>
     <use x="624.755859" xlink:href="#DejaVuSans-101"/>
     <use x="686.279297" xlink:href="#DejaVuSans-99"/>
     <use x="741.259766" xlink:href="#DejaVuSans-116"/>
     <use x="780.46875" xlink:href="#DejaVuSans-101"/>
     <use x="841.992188" xlink:href="#DejaVuSans-100"/>
    </g>
   </g>
   <g id="text_35">
    <!-- (+) AutoCorr -->
    <g transform="translate(386.45463 221.685714)scale(0.1 -0.1)">
     <defs>
      <path d="M 46 62.703125 
L 46 35.5 
L 73.1875 35.5 
L 73.1875 27.203125 
L 46 27.203125 
L 46 0 
L 37.796875 0 
L 37.796875 27.203125 
L 10.59375 27.203125 
L 10.59375 35.5 
L 37.796875 35.5 
L 37.796875 62.703125 
z
" id="DejaVuSans-43"/>
      <path d="M 34.1875 63.1875 
L 20.796875 26.90625 
L 47.609375 26.90625 
z
M 28.609375 72.90625 
L 39.796875 72.90625 
L 67.578125 0 
L 57.328125 0 
L 50.6875 18.703125 
L 17.828125 18.703125 
L 11.1875 0 
L 0.78125 0 
z
" id="DejaVuSans-65"/>
      <path d="M 8.5 21.578125 
L 8.5 54.6875 
L 17.484375 54.6875 
L 17.484375 21.921875 
Q 17.484375 14.15625 20.5 10.265625 
Q 23.53125 6.390625 29.59375 6.390625 
Q 36.859375 6.390625 41.078125 11.03125 
Q 45.3125 15.671875 45.3125 23.6875 
L 45.3125 54.6875 
L 54.296875 54.6875 
L 54.296875 0 
L 45.3125 0 
L 45.3125 8.40625 
Q 42.046875 3.421875 37.71875 1 
Q 33.40625 -1.421875 27.6875 -1.421875 
Q 18.265625 -1.421875 13.375 4.4375 
Q 8.5 10.296875 8.5 21.578125 
z
M 31.109375 56 
z
" id="DejaVuSans-117"/>
     </defs>
     <use xlink:href="#DejaVuSans-40"/>
     <use x="39.013672" xlink:href="#DejaVuSans-43"/>
     <use x="122.802734" xlink:href="#DejaVuSans-41"/>
     <use x="161.816406" xlink:href="#DejaVuSans-32"/>
     <use x="193.603516" xlink:href="#DejaVuSans-65"/>
     <use x="262.011719" xlink:href="#DejaVuSans-117"/>
     <use x="325.390625" xlink:href="#DejaVuSans-116"/>
     <use x="364.599609" xlink:href="#DejaVuSans-111"/>
     <use x="425.78125" xlink:href="#DejaVuSans-67"/>
     <use x="495.605469" xlink:href="#DejaVuSans-111"/>
     <use x="556.787109" xlink:href="#DejaVuSans-114"/>
     <use x="596.150391" xlink:href="#DejaVuSans-114"/>
    </g>
   </g>
   <g id="text_36">
    <!-- Yes CB Yes Oblique -->
    <g transform="translate(386.45463 201.171429)scale(0.1 -0.1)">
     <defs>
      <path d="M 39.40625 66.21875 
Q 28.65625 66.21875 22.328125 58.203125 
Q 16.015625 50.203125 16.015625 36.375 
Q 16.015625 22.609375 22.328125 14.59375 
Q 28.65625 6.59375 39.40625 6.59375 
Q 50.140625 6.59375 56.421875 14.59375 
Q 62.703125 22.609375 62.703125 36.375 
Q 62.703125 50.203125 56.421875 58.203125 
Q 50.140625 66.21875 39.40625 66.21875 
z
M 39.40625 74.21875 
Q 54.734375 74.21875 63.90625 63.9375 
Q 73.09375 53.65625 73.09375 36.375 
Q 73.09375 19.140625 63.90625 8.859375 
Q 54.734375 -1.421875 39.40625 -1.421875 
Q 24.03125 -1.421875 14.8125 8.828125 
Q 5.609375 19.09375 5.609375 36.375 
Q 5.609375 53.65625 14.8125 63.9375 
Q 24.03125 74.21875 39.40625 74.21875 
z
" id="DejaVuSans-79"/>
      <path d="M 9.421875 75.984375 
L 18.40625 75.984375 
L 18.40625 0 
L 9.421875 0 
z
" id="DejaVuSans-108"/>
      <path d="M 14.796875 27.296875 
Q 14.796875 17.390625 18.875 11.75 
Q 22.953125 6.109375 30.078125 6.109375 
Q 37.203125 6.109375 41.296875 11.75 
Q 45.40625 17.390625 45.40625 27.296875 
Q 45.40625 37.203125 41.296875 42.84375 
Q 37.203125 48.484375 30.078125 48.484375 
Q 22.953125 48.484375 18.875 42.84375 
Q 14.796875 37.203125 14.796875 27.296875 
z
M 45.40625 8.203125 
Q 42.578125 3.328125 38.25 0.953125 
Q 33.9375 -1.421875 27.875 -1.421875 
Q 17.96875 -1.421875 11.734375 6.484375 
Q 5.515625 14.40625 5.515625 27.296875 
Q 5.515625 40.1875 11.734375 48.09375 
Q 17.96875 56 27.875 56 
Q 33.9375 56 38.25 53.625 
Q 42.578125 51.265625 45.40625 46.390625 
L 45.40625 54.6875 
L 54.390625 54.6875 
L 54.390625 -20.796875 
L 45.40625 -20.796875 
z
" id="DejaVuSans-113"/>
     </defs>
     <use xlink:href="#DejaVuSans-89"/>
     <use x="47.833984" xlink:href="#DejaVuSans-101"/>
     <use x="109.357422" xlink:href="#DejaVuSans-115"/>
     <use x="161.457031" xlink:href="#DejaVuSans-32"/>
     <use x="193.244141" xlink:href="#DejaVuSans-67"/>
     <use x="263.068359" xlink:href="#DejaVuSans-66"/>
     <use x="331.671875" xlink:href="#DejaVuSans-32"/>
     <use x="363.458984" xlink:href="#DejaVuSans-89"/>
     <use x="411.292969" xlink:href="#DejaVuSans-101"/>
     <use x="472.816406" xlink:href="#DejaVuSans-115"/>
     <use x="524.916016" xlink:href="#DejaVuSans-32"/>
     <use x="556.703125" xlink:href="#DejaVuSans-79"/>
     <use x="635.414062" xlink:href="#DejaVuSans-98"/>
     <use x="698.890625" xlink:href="#DejaVuSans-108"/>
     <use x="726.673828" xlink:href="#DejaVuSans-105"/>
     <use x="754.457031" xlink:href="#DejaVuSans-113"/>
     <use x="817.933594" xlink:href="#DejaVuSans-117"/>
     <use x="881.3125" xlink:href="#DejaVuSans-101"/>
    </g>
   </g>
   <g id="text_37">
    <!-- nb:-1 | No SD -->
    <g transform="translate(412.745729 20.8)scale(0.12 -0.12)">
     <use xlink:href="#DejaVuSans-110"/>
     <use x="63.378906" xlink:href="#DejaVuSans-98"/>
     <use x="126.855469" xlink:href="#DejaVuSans-58"/>
     <use x="160.546875" xlink:href="#DejaVuSans-45"/>
     <use x="196.630859" xlink:href="#DejaVuSans-49"/>
     <use x="260.253906" xlink:href="#DejaVuSans-32"/>
     <use x="292.041016" xlink:href="#DejaVuSans-124"/>
     <use x="325.732422" xlink:href="#DejaVuSans-32"/>
     <use x="357.519531" xlink:href="#DejaVuSans-78"/>
     <use x="432.324219" xlink:href="#DejaVuSans-111"/>
     <use x="493.505859" xlink:href="#DejaVuSans-32"/>
     <use x="525.292969" xlink:href="#DejaVuSans-83"/>
     <use x="588.769531" xlink:href="#DejaVuSans-68"/>
    </g>
   </g>
  </g>
 </g>
 <defs>
  <clipPath id="p3ff45aa0b1">
   <rect height="215.4" width="140.266667" x="46.55" y="26.8"/>
  </clipPath>
  <clipPath id="pe18277c3fc">
   <rect height="215.4" width="140.266667" x="214.554167" y="26.8"/>
  </clipPath>
  <clipPath id="p6c7f7c9882">
   <rect height="215.4" width="140.266667" x="382.558333" y="26.8"/>
  </clipPath>
 </defs>
</svg>
